%TF.GenerationSoftware,KiCad,Pcbnew,8.0.7*%
%TF.CreationDate,2025-01-14T12:30:54+00:00*%
%TF.ProjectId,SparkPNT_GNSSDO_Plus_panelized,53706172-6b50-44e5-945f-474e5353444f,rev?*%
%TF.SameCoordinates,Original*%
%TF.FileFunction,Soldermask,Top*%
%TF.FilePolarity,Negative*%
%FSLAX46Y46*%
G04 Gerber Fmt 4.6, Leading zero omitted, Abs format (unit mm)*
G04 Created by KiCad (PCBNEW 8.0.7) date 2025-01-14 12:30:54*
%MOMM*%
%LPD*%
G01*
G04 APERTURE LIST*
G04 Aperture macros list*
%AMRoundRect*
0 Rectangle with rounded corners*
0 $1 Rounding radius*
0 $2 $3 $4 $5 $6 $7 $8 $9 X,Y pos of 4 corners*
0 Add a 4 corners polygon primitive as box body*
4,1,4,$2,$3,$4,$5,$6,$7,$8,$9,$2,$3,0*
0 Add four circle primitives for the rounded corners*
1,1,$1+$1,$2,$3*
1,1,$1+$1,$4,$5*
1,1,$1+$1,$6,$7*
1,1,$1+$1,$8,$9*
0 Add four rect primitives between the rounded corners*
20,1,$1+$1,$2,$3,$4,$5,0*
20,1,$1+$1,$4,$5,$6,$7,0*
20,1,$1+$1,$6,$7,$8,$9,0*
20,1,$1+$1,$8,$9,$2,$3,0*%
G04 Aperture macros list end*
%ADD10C,0.200000*%
%ADD11C,0.000000*%
%ADD12RoundRect,0.200000X-0.275000X0.200000X-0.275000X-0.200000X0.275000X-0.200000X0.275000X0.200000X0*%
%ADD13RoundRect,0.140000X0.140000X0.170000X-0.140000X0.170000X-0.140000X-0.170000X0.140000X-0.170000X0*%
%ADD14RoundRect,0.225000X-0.225000X-0.250000X0.225000X-0.250000X0.225000X0.250000X-0.225000X0.250000X0*%
%ADD15RoundRect,0.200000X-0.200000X-0.275000X0.200000X-0.275000X0.200000X0.275000X-0.200000X0.275000X0*%
%ADD16RoundRect,0.200000X0.275000X-0.200000X0.275000X0.200000X-0.275000X0.200000X-0.275000X-0.200000X0*%
%ADD17R,0.660400X1.270000*%
%ADD18C,1.800000*%
%ADD19C,2.000000*%
%ADD20R,0.900000X1.500000*%
%ADD21R,0.900000X0.900000*%
%ADD22RoundRect,0.225000X0.250000X-0.225000X0.250000X0.225000X-0.250000X0.225000X-0.250000X-0.225000X0*%
%ADD23RoundRect,0.225000X0.225000X0.250000X-0.225000X0.250000X-0.225000X-0.250000X0.225000X-0.250000X0*%
%ADD24C,1.879600*%
%ADD25R,1.200000X0.550000*%
%ADD26RoundRect,0.225000X-0.250000X0.225000X-0.250000X-0.225000X0.250000X-0.225000X0.250000X0.225000X0*%
%ADD27RoundRect,0.030000X0.120000X-0.245000X0.120000X0.245000X-0.120000X0.245000X-0.120000X-0.245000X0*%
%ADD28R,0.635000X1.270000*%
%ADD29RoundRect,0.200000X0.200000X0.275000X-0.200000X0.275000X-0.200000X-0.275000X0.200000X-0.275000X0*%
%ADD30R,1.270000X0.660400*%
%ADD31R,1.000000X2.800000*%
%ADD32C,0.500000*%
%ADD33R,0.800000X0.284600*%
%ADD34R,0.284600X0.800000*%
%ADD35R,3.150000X3.150000*%
%ADD36RoundRect,0.140000X-0.140000X-0.170000X0.140000X-0.170000X0.140000X0.170000X-0.140000X0.170000X0*%
%ADD37R,3.000000X1.400000*%
%ADD38R,0.550000X1.200000*%
%ADD39C,3.100000*%
%ADD40R,1.400000X3.000000*%
%ADD41R,3.500000X1.850000*%
%ADD42C,3.000000*%
%ADD43R,1.500000X4.000000*%
%ADD44RoundRect,0.250000X-0.625000X0.312500X-0.625000X-0.312500X0.625000X-0.312500X0.625000X0.312500X0*%
%ADD45C,2.700000*%
%ADD46O,2.200000X4.400000*%
%ADD47R,0.300000X0.660000*%
%ADD48R,0.660000X0.300000*%
%ADD49C,2.540000*%
%ADD50R,0.300000X0.650000*%
%ADD51R,2.350000X1.600000*%
%ADD52C,1.524000*%
%ADD53C,1.000000*%
%ADD54R,0.700000X1.600000*%
%ADD55R,1.200000X1.600000*%
%ADD56R,1.200000X2.200000*%
%ADD57R,1.600000X1.400000*%
%ADD58C,0.850000*%
%ADD59R,1.000000X1.150000*%
%ADD60C,0.650000*%
%ADD61R,0.300000X1.000000*%
%ADD62R,0.600000X1.000000*%
%ADD63O,1.000000X1.600000*%
%ADD64O,1.000000X2.100000*%
%ADD65R,0.600000X1.200000*%
%ADD66R,0.630000X0.830000*%
%ADD67R,1.850000X3.500000*%
%ADD68RoundRect,0.050000X-0.285000X-0.100000X0.285000X-0.100000X0.285000X0.100000X-0.285000X0.100000X0*%
%ADD69R,0.830000X0.630000*%
%ADD70R,0.300000X0.700000*%
%ADD71RoundRect,0.250000X-0.325000X-0.650000X0.325000X-0.650000X0.325000X0.650000X-0.325000X0.650000X0*%
%ADD72R,0.400000X0.900000*%
%ADD73R,2.540000X1.651000*%
%ADD74C,3.250000*%
%ADD75C,1.500000*%
%ADD76C,2.400000*%
%ADD77RoundRect,0.030000X-0.245000X-0.120000X0.245000X-0.120000X0.245000X0.120000X-0.245000X0.120000X0*%
%ADD78RoundRect,0.208333X0.891667X-0.541667X0.891667X0.541667X-0.891667X0.541667X-0.891667X-0.541667X0*%
%ADD79C,2.032000*%
%ADD80R,0.600000X1.550000*%
%ADD81R,1.200000X2.000000*%
G04 APERTURE END LIST*
D10*
X33502600Y20751800D02*
X33502600Y20624800D01*
X33248600Y20370800D01*
X31521400Y20370800D01*
X31267400Y20624800D01*
X31267400Y20751800D01*
X31521400Y21005800D01*
X33248600Y21005800D01*
X33502600Y20751800D01*
G36*
X33502600Y20751800D02*
G01*
X33502600Y20624800D01*
X33248600Y20370800D01*
X31521400Y20370800D01*
X31267400Y20624800D01*
X31267400Y20751800D01*
X31521400Y21005800D01*
X33248600Y21005800D01*
X33502600Y20751800D01*
G37*
X68848000Y39216000D02*
X68848000Y37057000D01*
X68594000Y36803000D01*
X68467000Y36803000D01*
X68213000Y37057000D01*
X68213000Y39216000D01*
X68467000Y39470000D01*
X68594000Y39470000D01*
X68848000Y39216000D01*
G36*
X68848000Y39216000D02*
G01*
X68848000Y37057000D01*
X68594000Y36803000D01*
X68467000Y36803000D01*
X68213000Y37057000D01*
X68213000Y39216000D01*
X68467000Y39470000D01*
X68594000Y39470000D01*
X68848000Y39216000D01*
G37*
X34417000Y22987000D02*
X34417000Y21259800D01*
X34163000Y21005800D01*
X34036000Y21005800D01*
X33782000Y21259800D01*
X33782000Y22987000D01*
X34036000Y23241000D01*
X34163000Y23241000D01*
X34417000Y22987000D01*
G36*
X34417000Y22987000D02*
G01*
X34417000Y21259800D01*
X34163000Y21005800D01*
X34036000Y21005800D01*
X33782000Y21259800D01*
X33782000Y22987000D01*
X34036000Y23241000D01*
X34163000Y23241000D01*
X34417000Y22987000D01*
G37*
X59323000Y39216000D02*
X59323000Y37057000D01*
X59069000Y36803000D01*
X58942000Y36803000D01*
X58688000Y37057000D01*
X58688000Y39216000D01*
X58942000Y39470000D01*
X59069000Y39470000D01*
X59323000Y39216000D01*
G36*
X59323000Y39216000D02*
G01*
X59323000Y37057000D01*
X59069000Y36803000D01*
X58942000Y36803000D01*
X58688000Y37057000D01*
X58688000Y39216000D01*
X58942000Y39470000D01*
X59069000Y39470000D01*
X59323000Y39216000D01*
G37*
X64403000Y39216000D02*
X64403000Y37057000D01*
X64149000Y36803000D01*
X63387000Y36803000D01*
X63133000Y37057000D01*
X63133000Y39216000D01*
X63387000Y39470000D01*
X64149000Y39470000D01*
X64403000Y39216000D01*
G36*
X64403000Y39216000D02*
G01*
X64403000Y37057000D01*
X64149000Y36803000D01*
X63387000Y36803000D01*
X63133000Y37057000D01*
X63133000Y39216000D01*
X63387000Y39470000D01*
X64149000Y39470000D01*
X64403000Y39216000D01*
G37*
D11*
%TO.C,A.1*%
G36*
X139573000Y86119500D02*
G01*
X139065000Y86119500D01*
X139065000Y86600500D01*
X139573000Y86600500D01*
X139573000Y86119500D01*
G37*
%TO.C,JP7*%
G36*
X32625500Y27686000D02*
G01*
X32144500Y27686000D01*
X32144500Y28194000D01*
X32625500Y28194000D01*
X32625500Y27686000D01*
G37*
%TO.C,U2*%
G36*
X67427784Y77832503D02*
G01*
X67534039Y77778364D01*
X67619097Y77693305D01*
X67691321Y77471025D01*
X67672503Y77352216D01*
X67618364Y77245961D01*
X67534039Y77161636D01*
X67427784Y77107497D01*
X67310000Y77088842D01*
X67192216Y77107497D01*
X67085961Y77161636D01*
X67000903Y77246695D01*
X66928679Y77468975D01*
X66947497Y77587784D01*
X67001636Y77694039D01*
X67085961Y77778364D01*
X67192216Y77832503D01*
X67310000Y77851158D01*
X67427784Y77832503D01*
G37*
G36*
X67427784Y76562503D02*
G01*
X67534039Y76508364D01*
X67619097Y76423305D01*
X67691321Y76201025D01*
X67672503Y76082216D01*
X67618364Y75975961D01*
X67534039Y75891636D01*
X67427784Y75837497D01*
X67310000Y75818842D01*
X67192216Y75837497D01*
X67085961Y75891636D01*
X67000903Y75976695D01*
X66928679Y76198975D01*
X66947497Y76317784D01*
X67001636Y76424039D01*
X67085961Y76508364D01*
X67192216Y76562503D01*
X67310000Y76581158D01*
X67427784Y76562503D01*
G37*
G36*
X67427784Y75292503D02*
G01*
X67534039Y75238364D01*
X67619097Y75153305D01*
X67691321Y74931025D01*
X67672503Y74812216D01*
X67618364Y74705961D01*
X67534039Y74621636D01*
X67427784Y74567497D01*
X67310000Y74548842D01*
X67192216Y74567497D01*
X67085961Y74621636D01*
X67000903Y74706695D01*
X66928679Y74928975D01*
X66947497Y75047784D01*
X67001636Y75154039D01*
X67085961Y75238364D01*
X67192216Y75292503D01*
X67310000Y75311158D01*
X67427784Y75292503D01*
G37*
G36*
X67427784Y74022503D02*
G01*
X67534039Y73968364D01*
X67619097Y73883305D01*
X67691321Y73661025D01*
X67672503Y73542216D01*
X67618364Y73435961D01*
X67534039Y73351636D01*
X67427784Y73297497D01*
X67310000Y73278842D01*
X67192216Y73297497D01*
X67085961Y73351636D01*
X67000903Y73436695D01*
X66928679Y73658975D01*
X66947497Y73777784D01*
X67001636Y73884039D01*
X67085961Y73968364D01*
X67192216Y74022503D01*
X67310000Y74041158D01*
X67427784Y74022503D01*
G37*
G36*
X67427784Y72752503D02*
G01*
X67534039Y72698364D01*
X67619097Y72613305D01*
X67691321Y72391025D01*
X67672503Y72272216D01*
X67618364Y72165961D01*
X67534039Y72081636D01*
X67427784Y72027497D01*
X67310000Y72008842D01*
X67192216Y72027497D01*
X67085961Y72081636D01*
X67000903Y72166695D01*
X66928679Y72388975D01*
X66947497Y72507784D01*
X67001636Y72614039D01*
X67085961Y72698364D01*
X67192216Y72752503D01*
X67310000Y72771158D01*
X67427784Y72752503D01*
G37*
G36*
X67427784Y71482503D02*
G01*
X67534039Y71428364D01*
X67619097Y71343305D01*
X67691321Y71121025D01*
X67672503Y71002216D01*
X67618364Y70895961D01*
X67534039Y70811636D01*
X67427784Y70757497D01*
X67310000Y70738842D01*
X67192216Y70757497D01*
X67085961Y70811636D01*
X67000903Y70896695D01*
X66928679Y71118975D01*
X66947497Y71237784D01*
X67001636Y71344039D01*
X67085961Y71428364D01*
X67192216Y71482503D01*
X67310000Y71501158D01*
X67427784Y71482503D01*
G37*
G36*
X67427784Y70212503D02*
G01*
X67534039Y70158364D01*
X67619097Y70073305D01*
X67691321Y69851025D01*
X67672503Y69732216D01*
X67618364Y69625961D01*
X67534039Y69541636D01*
X67427784Y69487497D01*
X67310000Y69468842D01*
X67192216Y69487497D01*
X67085961Y69541636D01*
X67000903Y69626695D01*
X66928679Y69848975D01*
X66947497Y69967784D01*
X67001636Y70074039D01*
X67085961Y70158364D01*
X67192216Y70212503D01*
X67310000Y70231158D01*
X67427784Y70212503D01*
G37*
G36*
X67427784Y68942503D02*
G01*
X67534039Y68888364D01*
X67619097Y68803305D01*
X67691321Y68581025D01*
X67672503Y68462216D01*
X67618364Y68355961D01*
X67534039Y68271636D01*
X67427784Y68217497D01*
X67310000Y68198842D01*
X67192216Y68217497D01*
X67085961Y68271636D01*
X67000903Y68356695D01*
X66928679Y68578975D01*
X66947497Y68697784D01*
X67001636Y68804039D01*
X67085961Y68888364D01*
X67192216Y68942503D01*
X67310000Y68961158D01*
X67427784Y68942503D01*
G37*
G36*
X67427784Y67672503D02*
G01*
X67534039Y67618364D01*
X67619097Y67533305D01*
X67691321Y67311025D01*
X67672503Y67192216D01*
X67618364Y67085961D01*
X67534039Y67001636D01*
X67427784Y66947497D01*
X67310000Y66928842D01*
X67192216Y66947497D01*
X67085961Y67001636D01*
X67000903Y67086695D01*
X66928679Y67308975D01*
X66947497Y67427784D01*
X67001636Y67534039D01*
X67085961Y67618364D01*
X67192216Y67672503D01*
X67310000Y67691158D01*
X67427784Y67672503D01*
G37*
G36*
X67427784Y66402503D02*
G01*
X67534039Y66348364D01*
X67619097Y66263305D01*
X67691321Y66041025D01*
X67672503Y65922216D01*
X67618364Y65815961D01*
X67534039Y65731636D01*
X67427784Y65677497D01*
X67310000Y65658842D01*
X67192216Y65677497D01*
X67085961Y65731636D01*
X67000903Y65816695D01*
X66928679Y66038975D01*
X66947497Y66157784D01*
X67001636Y66264039D01*
X67085961Y66348364D01*
X67192216Y66402503D01*
X67310000Y66421158D01*
X67427784Y66402503D01*
G37*
G36*
X67427784Y65132503D02*
G01*
X67534039Y65078364D01*
X67619097Y64993305D01*
X67691321Y64771025D01*
X67672503Y64652216D01*
X67618364Y64545961D01*
X67534039Y64461636D01*
X67427784Y64407497D01*
X67310000Y64388842D01*
X67192216Y64407497D01*
X67085961Y64461636D01*
X67000903Y64546695D01*
X66928679Y64768975D01*
X66947497Y64887784D01*
X67001636Y64994039D01*
X67085961Y65078364D01*
X67192216Y65132503D01*
X67310000Y65151158D01*
X67427784Y65132503D01*
G37*
G36*
X67427784Y63862503D02*
G01*
X67534039Y63808364D01*
X67619097Y63723305D01*
X67691321Y63501025D01*
X67672503Y63382216D01*
X67618364Y63275961D01*
X67534039Y63191636D01*
X67427784Y63137497D01*
X67310000Y63118842D01*
X67192216Y63137497D01*
X67085961Y63191636D01*
X67000903Y63276695D01*
X66928679Y63498975D01*
X66947497Y63617784D01*
X67001636Y63724039D01*
X67085961Y63808364D01*
X67192216Y63862503D01*
X67310000Y63881158D01*
X67427784Y63862503D01*
G37*
G36*
X67427784Y62592503D02*
G01*
X67534039Y62538364D01*
X67619097Y62453305D01*
X67691321Y62231025D01*
X67672503Y62112216D01*
X67618364Y62005961D01*
X67534039Y61921636D01*
X67427784Y61867497D01*
X67310000Y61848842D01*
X67192216Y61867497D01*
X67085961Y61921636D01*
X67000903Y62006695D01*
X66928679Y62228975D01*
X66947497Y62347784D01*
X67001636Y62454039D01*
X67085961Y62538364D01*
X67192216Y62592503D01*
X67310000Y62611158D01*
X67427784Y62592503D01*
G37*
G36*
X67427784Y61322503D02*
G01*
X67534039Y61268364D01*
X67619097Y61183305D01*
X67691321Y60961025D01*
X67672503Y60842216D01*
X67618364Y60735961D01*
X67534039Y60651636D01*
X67427784Y60597497D01*
X67310000Y60578842D01*
X67192216Y60597497D01*
X67085961Y60651636D01*
X67000903Y60736695D01*
X66928679Y60958975D01*
X66947497Y61077784D01*
X67001636Y61184039D01*
X67085961Y61268364D01*
X67192216Y61322503D01*
X67310000Y61341158D01*
X67427784Y61322503D01*
G37*
G36*
X67427784Y60052503D02*
G01*
X67534039Y59998364D01*
X67619097Y59913305D01*
X67691321Y59691025D01*
X67672503Y59572216D01*
X67618364Y59465961D01*
X67534039Y59381636D01*
X67427784Y59327497D01*
X67310000Y59308842D01*
X67192216Y59327497D01*
X67085961Y59381636D01*
X67000903Y59466695D01*
X66928679Y59688975D01*
X66947497Y59807784D01*
X67001636Y59914039D01*
X67085961Y59998364D01*
X67192216Y60052503D01*
X67310000Y60071158D01*
X67427784Y60052503D01*
G37*
G36*
X67427784Y58782503D02*
G01*
X67534039Y58728364D01*
X67619097Y58643305D01*
X67691321Y58421025D01*
X67672503Y58302216D01*
X67618364Y58195961D01*
X67534039Y58111636D01*
X67427784Y58057497D01*
X67310000Y58038842D01*
X67192216Y58057497D01*
X67085961Y58111636D01*
X67000903Y58196695D01*
X66928679Y58418975D01*
X66947497Y58537784D01*
X67001636Y58644039D01*
X67085961Y58728364D01*
X67192216Y58782503D01*
X67310000Y58801158D01*
X67427784Y58782503D01*
G37*
G36*
X67427784Y57512503D02*
G01*
X67534039Y57458364D01*
X67619097Y57373305D01*
X67691321Y57151025D01*
X67672503Y57032216D01*
X67618364Y56925961D01*
X67534039Y56841636D01*
X67427784Y56787497D01*
X67310000Y56768842D01*
X67192216Y56787497D01*
X67085961Y56841636D01*
X67000903Y56926695D01*
X66928679Y57148975D01*
X66947497Y57267784D01*
X67001636Y57374039D01*
X67085961Y57458364D01*
X67192216Y57512503D01*
X67310000Y57531158D01*
X67427784Y57512503D01*
G37*
G36*
X67427784Y56242503D02*
G01*
X67534039Y56188364D01*
X67619097Y56103305D01*
X67691321Y55881025D01*
X67672503Y55762216D01*
X67618364Y55655961D01*
X67534039Y55571636D01*
X67427784Y55517497D01*
X67310000Y55498842D01*
X67192216Y55517497D01*
X67085961Y55571636D01*
X67000903Y55656695D01*
X66928679Y55878975D01*
X66947497Y55997784D01*
X67001636Y56104039D01*
X67085961Y56188364D01*
X67192216Y56242503D01*
X67310000Y56261158D01*
X67427784Y56242503D01*
G37*
G36*
X67427784Y54972503D02*
G01*
X67534039Y54918364D01*
X67619097Y54833305D01*
X67691321Y54611025D01*
X67672503Y54492216D01*
X67618364Y54385961D01*
X67534039Y54301636D01*
X67427784Y54247497D01*
X67310000Y54228842D01*
X67192216Y54247497D01*
X67085961Y54301636D01*
X67000903Y54386695D01*
X66928679Y54608975D01*
X66947497Y54727784D01*
X67001636Y54834039D01*
X67085961Y54918364D01*
X67192216Y54972503D01*
X67310000Y54991158D01*
X67427784Y54972503D01*
G37*
G36*
X67427784Y53702503D02*
G01*
X67534039Y53648364D01*
X67619097Y53563305D01*
X67691321Y53341025D01*
X67672503Y53222216D01*
X67618364Y53115961D01*
X67534039Y53031636D01*
X67427784Y52977497D01*
X67310000Y52958842D01*
X67192216Y52977497D01*
X67085961Y53031636D01*
X67000903Y53116695D01*
X66928679Y53338975D01*
X66947497Y53457784D01*
X67001636Y53564039D01*
X67085961Y53648364D01*
X67192216Y53702503D01*
X67310000Y53721158D01*
X67427784Y53702503D01*
G37*
G36*
X67427784Y52432503D02*
G01*
X67534039Y52378364D01*
X67619097Y52293305D01*
X67691321Y52071025D01*
X67672503Y51952216D01*
X67618364Y51845961D01*
X67534039Y51761636D01*
X67427784Y51707497D01*
X67310000Y51688842D01*
X67192216Y51707497D01*
X67085961Y51761636D01*
X67000903Y51846695D01*
X66928679Y52068975D01*
X66947497Y52187784D01*
X67001636Y52294039D01*
X67085961Y52378364D01*
X67192216Y52432503D01*
X67310000Y52451158D01*
X67427784Y52432503D01*
G37*
G36*
X67427784Y51162503D02*
G01*
X67534039Y51108364D01*
X67619097Y51023305D01*
X67691321Y50801025D01*
X67672503Y50682216D01*
X67618364Y50575961D01*
X67534039Y50491636D01*
X67427784Y50437497D01*
X67310000Y50418842D01*
X67192216Y50437497D01*
X67085961Y50491636D01*
X67000903Y50576695D01*
X66928679Y50798975D01*
X66947497Y50917784D01*
X67001636Y51024039D01*
X67085961Y51108364D01*
X67192216Y51162503D01*
X67310000Y51181158D01*
X67427784Y51162503D01*
G37*
G36*
X67427784Y49892503D02*
G01*
X67534039Y49838364D01*
X67619097Y49753305D01*
X67691321Y49531025D01*
X67672503Y49412216D01*
X67618364Y49305961D01*
X67534039Y49221636D01*
X67427784Y49167497D01*
X67310000Y49148842D01*
X67192216Y49167497D01*
X67085961Y49221636D01*
X67000903Y49306695D01*
X66928679Y49528975D01*
X66947497Y49647784D01*
X67001636Y49754039D01*
X67085961Y49838364D01*
X67192216Y49892503D01*
X67310000Y49911158D01*
X67427784Y49892503D01*
G37*
G36*
X68697784Y77832503D02*
G01*
X68804039Y77778364D01*
X68889097Y77693305D01*
X68961321Y77471025D01*
X68942503Y77352216D01*
X68888364Y77245961D01*
X68804039Y77161636D01*
X68697784Y77107497D01*
X68580000Y77088842D01*
X68462216Y77107497D01*
X68355961Y77161636D01*
X68270903Y77246695D01*
X68198679Y77468975D01*
X68217497Y77587784D01*
X68271636Y77694039D01*
X68355961Y77778364D01*
X68462216Y77832503D01*
X68580000Y77851158D01*
X68697784Y77832503D01*
G37*
G36*
X68697784Y76562503D02*
G01*
X68804039Y76508364D01*
X68889097Y76423305D01*
X68961321Y76201025D01*
X68942503Y76082216D01*
X68888364Y75975961D01*
X68804039Y75891636D01*
X68697784Y75837497D01*
X68580000Y75818842D01*
X68462216Y75837497D01*
X68355961Y75891636D01*
X68270903Y75976695D01*
X68198679Y76198975D01*
X68217497Y76317784D01*
X68271636Y76424039D01*
X68355961Y76508364D01*
X68462216Y76562503D01*
X68580000Y76581158D01*
X68697784Y76562503D01*
G37*
G36*
X68697784Y75292503D02*
G01*
X68804039Y75238364D01*
X68889097Y75153305D01*
X68961321Y74931025D01*
X68942503Y74812216D01*
X68888364Y74705961D01*
X68804039Y74621636D01*
X68697784Y74567497D01*
X68580000Y74548842D01*
X68462216Y74567497D01*
X68355961Y74621636D01*
X68270903Y74706695D01*
X68198679Y74928975D01*
X68217497Y75047784D01*
X68271636Y75154039D01*
X68355961Y75238364D01*
X68462216Y75292503D01*
X68580000Y75311158D01*
X68697784Y75292503D01*
G37*
G36*
X68697784Y74022503D02*
G01*
X68804039Y73968364D01*
X68889097Y73883305D01*
X68961321Y73661025D01*
X68942503Y73542216D01*
X68888364Y73435961D01*
X68804039Y73351636D01*
X68697784Y73297497D01*
X68580000Y73278842D01*
X68462216Y73297497D01*
X68355961Y73351636D01*
X68270903Y73436695D01*
X68198679Y73658975D01*
X68217497Y73777784D01*
X68271636Y73884039D01*
X68355961Y73968364D01*
X68462216Y74022503D01*
X68580000Y74041158D01*
X68697784Y74022503D01*
G37*
G36*
X68697784Y72752503D02*
G01*
X68804039Y72698364D01*
X68889097Y72613305D01*
X68961321Y72391025D01*
X68942503Y72272216D01*
X68888364Y72165961D01*
X68804039Y72081636D01*
X68697784Y72027497D01*
X68580000Y72008842D01*
X68462216Y72027497D01*
X68355961Y72081636D01*
X68270903Y72166695D01*
X68198679Y72388975D01*
X68217497Y72507784D01*
X68271636Y72614039D01*
X68355961Y72698364D01*
X68462216Y72752503D01*
X68580000Y72771158D01*
X68697784Y72752503D01*
G37*
G36*
X68697784Y71482503D02*
G01*
X68804039Y71428364D01*
X68889097Y71343305D01*
X68961321Y71121025D01*
X68942503Y71002216D01*
X68888364Y70895961D01*
X68804039Y70811636D01*
X68697784Y70757497D01*
X68580000Y70738842D01*
X68462216Y70757497D01*
X68355961Y70811636D01*
X68270903Y70896695D01*
X68198679Y71118975D01*
X68217497Y71237784D01*
X68271636Y71344039D01*
X68355961Y71428364D01*
X68462216Y71482503D01*
X68580000Y71501158D01*
X68697784Y71482503D01*
G37*
G36*
X68697784Y70212503D02*
G01*
X68804039Y70158364D01*
X68889097Y70073305D01*
X68961321Y69851025D01*
X68942503Y69732216D01*
X68888364Y69625961D01*
X68804039Y69541636D01*
X68697784Y69487497D01*
X68580000Y69468842D01*
X68462216Y69487497D01*
X68355961Y69541636D01*
X68270903Y69626695D01*
X68198679Y69848975D01*
X68217497Y69967784D01*
X68271636Y70074039D01*
X68355961Y70158364D01*
X68462216Y70212503D01*
X68580000Y70231158D01*
X68697784Y70212503D01*
G37*
G36*
X68697784Y68942503D02*
G01*
X68804039Y68888364D01*
X68889097Y68803305D01*
X68961321Y68581025D01*
X68942503Y68462216D01*
X68888364Y68355961D01*
X68804039Y68271636D01*
X68697784Y68217497D01*
X68580000Y68198842D01*
X68462216Y68217497D01*
X68355961Y68271636D01*
X68270903Y68356695D01*
X68198679Y68578975D01*
X68217497Y68697784D01*
X68271636Y68804039D01*
X68355961Y68888364D01*
X68462216Y68942503D01*
X68580000Y68961158D01*
X68697784Y68942503D01*
G37*
G36*
X68697784Y67672503D02*
G01*
X68804039Y67618364D01*
X68889097Y67533305D01*
X68961321Y67311025D01*
X68942503Y67192216D01*
X68888364Y67085961D01*
X68804039Y67001636D01*
X68697784Y66947497D01*
X68580000Y66928842D01*
X68462216Y66947497D01*
X68355961Y67001636D01*
X68270903Y67086695D01*
X68198679Y67308975D01*
X68217497Y67427784D01*
X68271636Y67534039D01*
X68355961Y67618364D01*
X68462216Y67672503D01*
X68580000Y67691158D01*
X68697784Y67672503D01*
G37*
G36*
X68697784Y66402503D02*
G01*
X68804039Y66348364D01*
X68889097Y66263305D01*
X68961321Y66041025D01*
X68942503Y65922216D01*
X68888364Y65815961D01*
X68804039Y65731636D01*
X68697784Y65677497D01*
X68580000Y65658842D01*
X68462216Y65677497D01*
X68355961Y65731636D01*
X68270903Y65816695D01*
X68198679Y66038975D01*
X68217497Y66157784D01*
X68271636Y66264039D01*
X68355961Y66348364D01*
X68462216Y66402503D01*
X68580000Y66421158D01*
X68697784Y66402503D01*
G37*
G36*
X68697784Y65132503D02*
G01*
X68804039Y65078364D01*
X68889097Y64993305D01*
X68961321Y64771025D01*
X68942503Y64652216D01*
X68888364Y64545961D01*
X68804039Y64461636D01*
X68697784Y64407497D01*
X68580000Y64388842D01*
X68462216Y64407497D01*
X68355961Y64461636D01*
X68270903Y64546695D01*
X68198679Y64768975D01*
X68217497Y64887784D01*
X68271636Y64994039D01*
X68355961Y65078364D01*
X68462216Y65132503D01*
X68580000Y65151158D01*
X68697784Y65132503D01*
G37*
G36*
X68697784Y63862503D02*
G01*
X68804039Y63808364D01*
X68889097Y63723305D01*
X68961321Y63501025D01*
X68942503Y63382216D01*
X68888364Y63275961D01*
X68804039Y63191636D01*
X68697784Y63137497D01*
X68580000Y63118842D01*
X68462216Y63137497D01*
X68355961Y63191636D01*
X68270903Y63276695D01*
X68198679Y63498975D01*
X68217497Y63617784D01*
X68271636Y63724039D01*
X68355961Y63808364D01*
X68462216Y63862503D01*
X68580000Y63881158D01*
X68697784Y63862503D01*
G37*
G36*
X68697784Y62592503D02*
G01*
X68804039Y62538364D01*
X68889097Y62453305D01*
X68961321Y62231025D01*
X68942503Y62112216D01*
X68888364Y62005961D01*
X68804039Y61921636D01*
X68697784Y61867497D01*
X68580000Y61848842D01*
X68462216Y61867497D01*
X68355961Y61921636D01*
X68270903Y62006695D01*
X68198679Y62228975D01*
X68217497Y62347784D01*
X68271636Y62454039D01*
X68355961Y62538364D01*
X68462216Y62592503D01*
X68580000Y62611158D01*
X68697784Y62592503D01*
G37*
G36*
X68697784Y61322503D02*
G01*
X68804039Y61268364D01*
X68889097Y61183305D01*
X68961321Y60961025D01*
X68942503Y60842216D01*
X68888364Y60735961D01*
X68804039Y60651636D01*
X68697784Y60597497D01*
X68580000Y60578842D01*
X68462216Y60597497D01*
X68355961Y60651636D01*
X68270903Y60736695D01*
X68198679Y60958975D01*
X68217497Y61077784D01*
X68271636Y61184039D01*
X68355961Y61268364D01*
X68462216Y61322503D01*
X68580000Y61341158D01*
X68697784Y61322503D01*
G37*
G36*
X68697784Y60052503D02*
G01*
X68804039Y59998364D01*
X68889097Y59913305D01*
X68961321Y59691025D01*
X68942503Y59572216D01*
X68888364Y59465961D01*
X68804039Y59381636D01*
X68697784Y59327497D01*
X68580000Y59308842D01*
X68462216Y59327497D01*
X68355961Y59381636D01*
X68270903Y59466695D01*
X68198679Y59688975D01*
X68217497Y59807784D01*
X68271636Y59914039D01*
X68355961Y59998364D01*
X68462216Y60052503D01*
X68580000Y60071158D01*
X68697784Y60052503D01*
G37*
G36*
X68697784Y58782503D02*
G01*
X68804039Y58728364D01*
X68889097Y58643305D01*
X68961321Y58421025D01*
X68942503Y58302216D01*
X68888364Y58195961D01*
X68804039Y58111636D01*
X68697784Y58057497D01*
X68580000Y58038842D01*
X68462216Y58057497D01*
X68355961Y58111636D01*
X68270903Y58196695D01*
X68198679Y58418975D01*
X68217497Y58537784D01*
X68271636Y58644039D01*
X68355961Y58728364D01*
X68462216Y58782503D01*
X68580000Y58801158D01*
X68697784Y58782503D01*
G37*
G36*
X68697784Y57512503D02*
G01*
X68804039Y57458364D01*
X68889097Y57373305D01*
X68961321Y57151025D01*
X68942503Y57032216D01*
X68888364Y56925961D01*
X68804039Y56841636D01*
X68697784Y56787497D01*
X68580000Y56768842D01*
X68462216Y56787497D01*
X68355961Y56841636D01*
X68270903Y56926695D01*
X68198679Y57148975D01*
X68217497Y57267784D01*
X68271636Y57374039D01*
X68355961Y57458364D01*
X68462216Y57512503D01*
X68580000Y57531158D01*
X68697784Y57512503D01*
G37*
G36*
X68697784Y56242503D02*
G01*
X68804039Y56188364D01*
X68889097Y56103305D01*
X68961321Y55881025D01*
X68942503Y55762216D01*
X68888364Y55655961D01*
X68804039Y55571636D01*
X68697784Y55517497D01*
X68580000Y55498842D01*
X68462216Y55517497D01*
X68355961Y55571636D01*
X68270903Y55656695D01*
X68198679Y55878975D01*
X68217497Y55997784D01*
X68271636Y56104039D01*
X68355961Y56188364D01*
X68462216Y56242503D01*
X68580000Y56261158D01*
X68697784Y56242503D01*
G37*
G36*
X68697784Y54972503D02*
G01*
X68804039Y54918364D01*
X68889097Y54833305D01*
X68961321Y54611025D01*
X68942503Y54492216D01*
X68888364Y54385961D01*
X68804039Y54301636D01*
X68697784Y54247497D01*
X68580000Y54228842D01*
X68462216Y54247497D01*
X68355961Y54301636D01*
X68270903Y54386695D01*
X68198679Y54608975D01*
X68217497Y54727784D01*
X68271636Y54834039D01*
X68355961Y54918364D01*
X68462216Y54972503D01*
X68580000Y54991158D01*
X68697784Y54972503D01*
G37*
G36*
X68697784Y53702503D02*
G01*
X68804039Y53648364D01*
X68889097Y53563305D01*
X68961321Y53341025D01*
X68942503Y53222216D01*
X68888364Y53115961D01*
X68804039Y53031636D01*
X68697784Y52977497D01*
X68580000Y52958842D01*
X68462216Y52977497D01*
X68355961Y53031636D01*
X68270903Y53116695D01*
X68198679Y53338975D01*
X68217497Y53457784D01*
X68271636Y53564039D01*
X68355961Y53648364D01*
X68462216Y53702503D01*
X68580000Y53721158D01*
X68697784Y53702503D01*
G37*
G36*
X68697784Y52432503D02*
G01*
X68804039Y52378364D01*
X68889097Y52293305D01*
X68961321Y52071025D01*
X68942503Y51952216D01*
X68888364Y51845961D01*
X68804039Y51761636D01*
X68697784Y51707497D01*
X68580000Y51688842D01*
X68462216Y51707497D01*
X68355961Y51761636D01*
X68270903Y51846695D01*
X68198679Y52068975D01*
X68217497Y52187784D01*
X68271636Y52294039D01*
X68355961Y52378364D01*
X68462216Y52432503D01*
X68580000Y52451158D01*
X68697784Y52432503D01*
G37*
G36*
X68697784Y51162503D02*
G01*
X68804039Y51108364D01*
X68889097Y51023305D01*
X68961321Y50801025D01*
X68942503Y50682216D01*
X68888364Y50575961D01*
X68804039Y50491636D01*
X68697784Y50437497D01*
X68580000Y50418842D01*
X68462216Y50437497D01*
X68355961Y50491636D01*
X68270903Y50576695D01*
X68198679Y50798975D01*
X68217497Y50917784D01*
X68271636Y51024039D01*
X68355961Y51108364D01*
X68462216Y51162503D01*
X68580000Y51181158D01*
X68697784Y51162503D01*
G37*
G36*
X68697784Y49892503D02*
G01*
X68804039Y49838364D01*
X68889097Y49753305D01*
X68961321Y49531025D01*
X68942503Y49412216D01*
X68888364Y49305961D01*
X68804039Y49221636D01*
X68697784Y49167497D01*
X68580000Y49148842D01*
X68462216Y49167497D01*
X68355961Y49221636D01*
X68270903Y49306695D01*
X68198679Y49528975D01*
X68217497Y49647784D01*
X68271636Y49754039D01*
X68355961Y49838364D01*
X68462216Y49892503D01*
X68580000Y49911158D01*
X68697784Y49892503D01*
G37*
G36*
X69967784Y77832503D02*
G01*
X70074039Y77778364D01*
X70159097Y77693305D01*
X70231321Y77471025D01*
X70212503Y77352216D01*
X70158364Y77245961D01*
X70074039Y77161636D01*
X69967784Y77107497D01*
X69850000Y77088842D01*
X69732216Y77107497D01*
X69625961Y77161636D01*
X69540903Y77246695D01*
X69468679Y77468975D01*
X69487497Y77587784D01*
X69541636Y77694039D01*
X69625961Y77778364D01*
X69732216Y77832503D01*
X69850000Y77851158D01*
X69967784Y77832503D01*
G37*
G36*
X69967784Y76562503D02*
G01*
X70074039Y76508364D01*
X70159097Y76423305D01*
X70231321Y76201025D01*
X70212503Y76082216D01*
X70158364Y75975961D01*
X70074039Y75891636D01*
X69967784Y75837497D01*
X69850000Y75818842D01*
X69732216Y75837497D01*
X69625961Y75891636D01*
X69540903Y75976695D01*
X69468679Y76198975D01*
X69487497Y76317784D01*
X69541636Y76424039D01*
X69625961Y76508364D01*
X69732216Y76562503D01*
X69850000Y76581158D01*
X69967784Y76562503D01*
G37*
G36*
X69967784Y75292503D02*
G01*
X70074039Y75238364D01*
X70159097Y75153305D01*
X70231321Y74931025D01*
X70212503Y74812216D01*
X70158364Y74705961D01*
X70074039Y74621636D01*
X69967784Y74567497D01*
X69850000Y74548842D01*
X69732216Y74567497D01*
X69625961Y74621636D01*
X69540903Y74706695D01*
X69468679Y74928975D01*
X69487497Y75047784D01*
X69541636Y75154039D01*
X69625961Y75238364D01*
X69732216Y75292503D01*
X69850000Y75311158D01*
X69967784Y75292503D01*
G37*
G36*
X69967784Y74022503D02*
G01*
X70074039Y73968364D01*
X70159097Y73883305D01*
X70231321Y73661025D01*
X70212503Y73542216D01*
X70158364Y73435961D01*
X70074039Y73351636D01*
X69967784Y73297497D01*
X69850000Y73278842D01*
X69732216Y73297497D01*
X69625961Y73351636D01*
X69540903Y73436695D01*
X69468679Y73658975D01*
X69487497Y73777784D01*
X69541636Y73884039D01*
X69625961Y73968364D01*
X69732216Y74022503D01*
X69850000Y74041158D01*
X69967784Y74022503D01*
G37*
G36*
X69967784Y72752503D02*
G01*
X70074039Y72698364D01*
X70159097Y72613305D01*
X70231321Y72391025D01*
X70212503Y72272216D01*
X70158364Y72165961D01*
X70074039Y72081636D01*
X69967784Y72027497D01*
X69850000Y72008842D01*
X69732216Y72027497D01*
X69625961Y72081636D01*
X69540903Y72166695D01*
X69468679Y72388975D01*
X69487497Y72507784D01*
X69541636Y72614039D01*
X69625961Y72698364D01*
X69732216Y72752503D01*
X69850000Y72771158D01*
X69967784Y72752503D01*
G37*
G36*
X69967784Y71482503D02*
G01*
X70074039Y71428364D01*
X70159097Y71343305D01*
X70231321Y71121025D01*
X70212503Y71002216D01*
X70158364Y70895961D01*
X70074039Y70811636D01*
X69967784Y70757497D01*
X69850000Y70738842D01*
X69732216Y70757497D01*
X69625961Y70811636D01*
X69540903Y70896695D01*
X69468679Y71118975D01*
X69487497Y71237784D01*
X69541636Y71344039D01*
X69625961Y71428364D01*
X69732216Y71482503D01*
X69850000Y71501158D01*
X69967784Y71482503D01*
G37*
G36*
X69967784Y70212503D02*
G01*
X70074039Y70158364D01*
X70159097Y70073305D01*
X70231321Y69851025D01*
X70212503Y69732216D01*
X70158364Y69625961D01*
X70074039Y69541636D01*
X69967784Y69487497D01*
X69850000Y69468842D01*
X69732216Y69487497D01*
X69625961Y69541636D01*
X69540903Y69626695D01*
X69468679Y69848975D01*
X69487497Y69967784D01*
X69541636Y70074039D01*
X69625961Y70158364D01*
X69732216Y70212503D01*
X69850000Y70231158D01*
X69967784Y70212503D01*
G37*
G36*
X69967784Y68942503D02*
G01*
X70074039Y68888364D01*
X70159097Y68803305D01*
X70231321Y68581025D01*
X70212503Y68462216D01*
X70158364Y68355961D01*
X70074039Y68271636D01*
X69967784Y68217497D01*
X69850000Y68198842D01*
X69732216Y68217497D01*
X69625961Y68271636D01*
X69540903Y68356695D01*
X69468679Y68578975D01*
X69487497Y68697784D01*
X69541636Y68804039D01*
X69625961Y68888364D01*
X69732216Y68942503D01*
X69850000Y68961158D01*
X69967784Y68942503D01*
G37*
G36*
X69967784Y67672503D02*
G01*
X70074039Y67618364D01*
X70159097Y67533305D01*
X70231321Y67311025D01*
X70212503Y67192216D01*
X70158364Y67085961D01*
X70074039Y67001636D01*
X69967784Y66947497D01*
X69850000Y66928842D01*
X69732216Y66947497D01*
X69625961Y67001636D01*
X69540903Y67086695D01*
X69468679Y67308975D01*
X69487497Y67427784D01*
X69541636Y67534039D01*
X69625961Y67618364D01*
X69732216Y67672503D01*
X69850000Y67691158D01*
X69967784Y67672503D01*
G37*
G36*
X69967784Y66402503D02*
G01*
X70074039Y66348364D01*
X70159097Y66263305D01*
X70231321Y66041025D01*
X70212503Y65922216D01*
X70158364Y65815961D01*
X70074039Y65731636D01*
X69967784Y65677497D01*
X69850000Y65658842D01*
X69732216Y65677497D01*
X69625961Y65731636D01*
X69540903Y65816695D01*
X69468679Y66038975D01*
X69487497Y66157784D01*
X69541636Y66264039D01*
X69625961Y66348364D01*
X69732216Y66402503D01*
X69850000Y66421158D01*
X69967784Y66402503D01*
G37*
G36*
X69967784Y65132503D02*
G01*
X70074039Y65078364D01*
X70159097Y64993305D01*
X70231321Y64771025D01*
X70212503Y64652216D01*
X70158364Y64545961D01*
X70074039Y64461636D01*
X69967784Y64407497D01*
X69850000Y64388842D01*
X69732216Y64407497D01*
X69625961Y64461636D01*
X69540903Y64546695D01*
X69468679Y64768975D01*
X69487497Y64887784D01*
X69541636Y64994039D01*
X69625961Y65078364D01*
X69732216Y65132503D01*
X69850000Y65151158D01*
X69967784Y65132503D01*
G37*
G36*
X69967784Y63862503D02*
G01*
X70074039Y63808364D01*
X70159097Y63723305D01*
X70231321Y63501025D01*
X70212503Y63382216D01*
X70158364Y63275961D01*
X70074039Y63191636D01*
X69967784Y63137497D01*
X69850000Y63118842D01*
X69732216Y63137497D01*
X69625961Y63191636D01*
X69540903Y63276695D01*
X69468679Y63498975D01*
X69487497Y63617784D01*
X69541636Y63724039D01*
X69625961Y63808364D01*
X69732216Y63862503D01*
X69850000Y63881158D01*
X69967784Y63862503D01*
G37*
G36*
X69967784Y62592503D02*
G01*
X70074039Y62538364D01*
X70159097Y62453305D01*
X70231321Y62231025D01*
X70212503Y62112216D01*
X70158364Y62005961D01*
X70074039Y61921636D01*
X69967784Y61867497D01*
X69850000Y61848842D01*
X69732216Y61867497D01*
X69625961Y61921636D01*
X69540903Y62006695D01*
X69468679Y62228975D01*
X69487497Y62347784D01*
X69541636Y62454039D01*
X69625961Y62538364D01*
X69732216Y62592503D01*
X69850000Y62611158D01*
X69967784Y62592503D01*
G37*
G36*
X69967784Y61322503D02*
G01*
X70074039Y61268364D01*
X70159097Y61183305D01*
X70231321Y60961025D01*
X70212503Y60842216D01*
X70158364Y60735961D01*
X70074039Y60651636D01*
X69967784Y60597497D01*
X69850000Y60578842D01*
X69732216Y60597497D01*
X69625961Y60651636D01*
X69540903Y60736695D01*
X69468679Y60958975D01*
X69487497Y61077784D01*
X69541636Y61184039D01*
X69625961Y61268364D01*
X69732216Y61322503D01*
X69850000Y61341158D01*
X69967784Y61322503D01*
G37*
G36*
X69967784Y60052503D02*
G01*
X70074039Y59998364D01*
X70159097Y59913305D01*
X70231321Y59691025D01*
X70212503Y59572216D01*
X70158364Y59465961D01*
X70074039Y59381636D01*
X69967784Y59327497D01*
X69850000Y59308842D01*
X69732216Y59327497D01*
X69625961Y59381636D01*
X69540903Y59466695D01*
X69468679Y59688975D01*
X69487497Y59807784D01*
X69541636Y59914039D01*
X69625961Y59998364D01*
X69732216Y60052503D01*
X69850000Y60071158D01*
X69967784Y60052503D01*
G37*
G36*
X69967784Y58782503D02*
G01*
X70074039Y58728364D01*
X70159097Y58643305D01*
X70231321Y58421025D01*
X70212503Y58302216D01*
X70158364Y58195961D01*
X70074039Y58111636D01*
X69967784Y58057497D01*
X69850000Y58038842D01*
X69732216Y58057497D01*
X69625961Y58111636D01*
X69540903Y58196695D01*
X69468679Y58418975D01*
X69487497Y58537784D01*
X69541636Y58644039D01*
X69625961Y58728364D01*
X69732216Y58782503D01*
X69850000Y58801158D01*
X69967784Y58782503D01*
G37*
G36*
X69967784Y57512503D02*
G01*
X70074039Y57458364D01*
X70159097Y57373305D01*
X70231321Y57151025D01*
X70212503Y57032216D01*
X70158364Y56925961D01*
X70074039Y56841636D01*
X69967784Y56787497D01*
X69850000Y56768842D01*
X69732216Y56787497D01*
X69625961Y56841636D01*
X69540903Y56926695D01*
X69468679Y57148975D01*
X69487497Y57267784D01*
X69541636Y57374039D01*
X69625961Y57458364D01*
X69732216Y57512503D01*
X69850000Y57531158D01*
X69967784Y57512503D01*
G37*
G36*
X69967784Y56242503D02*
G01*
X70074039Y56188364D01*
X70159097Y56103305D01*
X70231321Y55881025D01*
X70212503Y55762216D01*
X70158364Y55655961D01*
X70074039Y55571636D01*
X69967784Y55517497D01*
X69850000Y55498842D01*
X69732216Y55517497D01*
X69625961Y55571636D01*
X69540903Y55656695D01*
X69468679Y55878975D01*
X69487497Y55997784D01*
X69541636Y56104039D01*
X69625961Y56188364D01*
X69732216Y56242503D01*
X69850000Y56261158D01*
X69967784Y56242503D01*
G37*
G36*
X69967784Y54972503D02*
G01*
X70074039Y54918364D01*
X70159097Y54833305D01*
X70231321Y54611025D01*
X70212503Y54492216D01*
X70158364Y54385961D01*
X70074039Y54301636D01*
X69967784Y54247497D01*
X69850000Y54228842D01*
X69732216Y54247497D01*
X69625961Y54301636D01*
X69540903Y54386695D01*
X69468679Y54608975D01*
X69487497Y54727784D01*
X69541636Y54834039D01*
X69625961Y54918364D01*
X69732216Y54972503D01*
X69850000Y54991158D01*
X69967784Y54972503D01*
G37*
G36*
X69967784Y53702503D02*
G01*
X70074039Y53648364D01*
X70159097Y53563305D01*
X70231321Y53341025D01*
X70212503Y53222216D01*
X70158364Y53115961D01*
X70074039Y53031636D01*
X69967784Y52977497D01*
X69850000Y52958842D01*
X69732216Y52977497D01*
X69625961Y53031636D01*
X69540903Y53116695D01*
X69468679Y53338975D01*
X69487497Y53457784D01*
X69541636Y53564039D01*
X69625961Y53648364D01*
X69732216Y53702503D01*
X69850000Y53721158D01*
X69967784Y53702503D01*
G37*
G36*
X69967784Y52432503D02*
G01*
X70074039Y52378364D01*
X70159097Y52293305D01*
X70231321Y52071025D01*
X70212503Y51952216D01*
X70158364Y51845961D01*
X70074039Y51761636D01*
X69967784Y51707497D01*
X69850000Y51688842D01*
X69732216Y51707497D01*
X69625961Y51761636D01*
X69540903Y51846695D01*
X69468679Y52068975D01*
X69487497Y52187784D01*
X69541636Y52294039D01*
X69625961Y52378364D01*
X69732216Y52432503D01*
X69850000Y52451158D01*
X69967784Y52432503D01*
G37*
G36*
X69967784Y51162503D02*
G01*
X70074039Y51108364D01*
X70159097Y51023305D01*
X70231321Y50801025D01*
X70212503Y50682216D01*
X70158364Y50575961D01*
X70074039Y50491636D01*
X69967784Y50437497D01*
X69850000Y50418842D01*
X69732216Y50437497D01*
X69625961Y50491636D01*
X69540903Y50576695D01*
X69468679Y50798975D01*
X69487497Y50917784D01*
X69541636Y51024039D01*
X69625961Y51108364D01*
X69732216Y51162503D01*
X69850000Y51181158D01*
X69967784Y51162503D01*
G37*
G36*
X69967784Y49892503D02*
G01*
X70074039Y49838364D01*
X70159097Y49753305D01*
X70231321Y49531025D01*
X70212503Y49412216D01*
X70158364Y49305961D01*
X70074039Y49221636D01*
X69967784Y49167497D01*
X69850000Y49148842D01*
X69732216Y49167497D01*
X69625961Y49221636D01*
X69540903Y49306695D01*
X69468679Y49528975D01*
X69487497Y49647784D01*
X69541636Y49754039D01*
X69625961Y49838364D01*
X69732216Y49892503D01*
X69850000Y49911158D01*
X69967784Y49892503D01*
G37*
G36*
X71237784Y77832503D02*
G01*
X71344039Y77778364D01*
X71429097Y77693305D01*
X71501321Y77471025D01*
X71482503Y77352216D01*
X71428364Y77245961D01*
X71344039Y77161636D01*
X71237784Y77107497D01*
X71120000Y77088842D01*
X71002216Y77107497D01*
X70895961Y77161636D01*
X70810903Y77246695D01*
X70738679Y77468975D01*
X70757497Y77587784D01*
X70811636Y77694039D01*
X70895961Y77778364D01*
X71002216Y77832503D01*
X71120000Y77851158D01*
X71237784Y77832503D01*
G37*
G36*
X71237784Y76562503D02*
G01*
X71344039Y76508364D01*
X71429097Y76423305D01*
X71501321Y76201025D01*
X71482503Y76082216D01*
X71428364Y75975961D01*
X71344039Y75891636D01*
X71237784Y75837497D01*
X71120000Y75818842D01*
X71002216Y75837497D01*
X70895961Y75891636D01*
X70810903Y75976695D01*
X70738679Y76198975D01*
X70757497Y76317784D01*
X70811636Y76424039D01*
X70895961Y76508364D01*
X71002216Y76562503D01*
X71120000Y76581158D01*
X71237784Y76562503D01*
G37*
G36*
X71237784Y75292503D02*
G01*
X71344039Y75238364D01*
X71429097Y75153305D01*
X71501321Y74931025D01*
X71482503Y74812216D01*
X71428364Y74705961D01*
X71344039Y74621636D01*
X71237784Y74567497D01*
X71120000Y74548842D01*
X71002216Y74567497D01*
X70895961Y74621636D01*
X70810903Y74706695D01*
X70738679Y74928975D01*
X70757497Y75047784D01*
X70811636Y75154039D01*
X70895961Y75238364D01*
X71002216Y75292503D01*
X71120000Y75311158D01*
X71237784Y75292503D01*
G37*
G36*
X71237784Y52432503D02*
G01*
X71344039Y52378364D01*
X71429097Y52293305D01*
X71501321Y52071025D01*
X71482503Y51952216D01*
X71428364Y51845961D01*
X71344039Y51761636D01*
X71237784Y51707497D01*
X71120000Y51688842D01*
X71002216Y51707497D01*
X70895961Y51761636D01*
X70810903Y51846695D01*
X70738679Y52068975D01*
X70757497Y52187784D01*
X70811636Y52294039D01*
X70895961Y52378364D01*
X71002216Y52432503D01*
X71120000Y52451158D01*
X71237784Y52432503D01*
G37*
G36*
X71237784Y51162503D02*
G01*
X71344039Y51108364D01*
X71429097Y51023305D01*
X71501321Y50801025D01*
X71482503Y50682216D01*
X71428364Y50575961D01*
X71344039Y50491636D01*
X71237784Y50437497D01*
X71120000Y50418842D01*
X71002216Y50437497D01*
X70895961Y50491636D01*
X70810903Y50576695D01*
X70738679Y50798975D01*
X70757497Y50917784D01*
X70811636Y51024039D01*
X70895961Y51108364D01*
X71002216Y51162503D01*
X71120000Y51181158D01*
X71237784Y51162503D01*
G37*
G36*
X71237784Y49892503D02*
G01*
X71344039Y49838364D01*
X71429097Y49753305D01*
X71501321Y49531025D01*
X71482503Y49412216D01*
X71428364Y49305961D01*
X71344039Y49221636D01*
X71237784Y49167497D01*
X71120000Y49148842D01*
X71002216Y49167497D01*
X70895961Y49221636D01*
X70810903Y49306695D01*
X70738679Y49528975D01*
X70757497Y49647784D01*
X70811636Y49754039D01*
X70895961Y49838364D01*
X71002216Y49892503D01*
X71120000Y49911158D01*
X71237784Y49892503D01*
G37*
G36*
X72507784Y77832503D02*
G01*
X72614039Y77778364D01*
X72699097Y77693305D01*
X72771321Y77471025D01*
X72752503Y77352216D01*
X72698364Y77245961D01*
X72614039Y77161636D01*
X72507784Y77107497D01*
X72390000Y77088842D01*
X72272216Y77107497D01*
X72165961Y77161636D01*
X72080903Y77246695D01*
X72008679Y77468975D01*
X72027497Y77587784D01*
X72081636Y77694039D01*
X72165961Y77778364D01*
X72272216Y77832503D01*
X72390000Y77851158D01*
X72507784Y77832503D01*
G37*
G36*
X72507784Y76562503D02*
G01*
X72614039Y76508364D01*
X72699097Y76423305D01*
X72771321Y76201025D01*
X72752503Y76082216D01*
X72698364Y75975961D01*
X72614039Y75891636D01*
X72507784Y75837497D01*
X72390000Y75818842D01*
X72272216Y75837497D01*
X72165961Y75891636D01*
X72080903Y75976695D01*
X72008679Y76198975D01*
X72027497Y76317784D01*
X72081636Y76424039D01*
X72165961Y76508364D01*
X72272216Y76562503D01*
X72390000Y76581158D01*
X72507784Y76562503D01*
G37*
G36*
X72507784Y75292503D02*
G01*
X72614039Y75238364D01*
X72699097Y75153305D01*
X72771321Y74931025D01*
X72752503Y74812216D01*
X72698364Y74705961D01*
X72614039Y74621636D01*
X72507784Y74567497D01*
X72390000Y74548842D01*
X72272216Y74567497D01*
X72165961Y74621636D01*
X72080903Y74706695D01*
X72008679Y74928975D01*
X72027497Y75047784D01*
X72081636Y75154039D01*
X72165961Y75238364D01*
X72272216Y75292503D01*
X72390000Y75311158D01*
X72507784Y75292503D01*
G37*
G36*
X72507784Y52432503D02*
G01*
X72614039Y52378364D01*
X72699097Y52293305D01*
X72771321Y52071025D01*
X72752503Y51952216D01*
X72698364Y51845961D01*
X72614039Y51761636D01*
X72507784Y51707497D01*
X72390000Y51688842D01*
X72272216Y51707497D01*
X72165961Y51761636D01*
X72080903Y51846695D01*
X72008679Y52068975D01*
X72027497Y52187784D01*
X72081636Y52294039D01*
X72165961Y52378364D01*
X72272216Y52432503D01*
X72390000Y52451158D01*
X72507784Y52432503D01*
G37*
G36*
X72507784Y51162503D02*
G01*
X72614039Y51108364D01*
X72699097Y51023305D01*
X72771321Y50801025D01*
X72752503Y50682216D01*
X72698364Y50575961D01*
X72614039Y50491636D01*
X72507784Y50437497D01*
X72390000Y50418842D01*
X72272216Y50437497D01*
X72165961Y50491636D01*
X72080903Y50576695D01*
X72008679Y50798975D01*
X72027497Y50917784D01*
X72081636Y51024039D01*
X72165961Y51108364D01*
X72272216Y51162503D01*
X72390000Y51181158D01*
X72507784Y51162503D01*
G37*
G36*
X72507784Y49892503D02*
G01*
X72614039Y49838364D01*
X72699097Y49753305D01*
X72771321Y49531025D01*
X72752503Y49412216D01*
X72698364Y49305961D01*
X72614039Y49221636D01*
X72507784Y49167497D01*
X72390000Y49148842D01*
X72272216Y49167497D01*
X72165961Y49221636D01*
X72080903Y49306695D01*
X72008679Y49528975D01*
X72027497Y49647784D01*
X72081636Y49754039D01*
X72165961Y49838364D01*
X72272216Y49892503D01*
X72390000Y49911158D01*
X72507784Y49892503D01*
G37*
G36*
X73777784Y77832503D02*
G01*
X73884039Y77778364D01*
X73969097Y77693305D01*
X74041321Y77471025D01*
X74022503Y77352216D01*
X73968364Y77245961D01*
X73884039Y77161636D01*
X73777784Y77107497D01*
X73660000Y77088842D01*
X73542216Y77107497D01*
X73435961Y77161636D01*
X73350903Y77246695D01*
X73278679Y77468975D01*
X73297497Y77587784D01*
X73351636Y77694039D01*
X73435961Y77778364D01*
X73542216Y77832503D01*
X73660000Y77851158D01*
X73777784Y77832503D01*
G37*
G36*
X73777784Y76562503D02*
G01*
X73884039Y76508364D01*
X73969097Y76423305D01*
X74041321Y76201025D01*
X74022503Y76082216D01*
X73968364Y75975961D01*
X73884039Y75891636D01*
X73777784Y75837497D01*
X73660000Y75818842D01*
X73542216Y75837497D01*
X73435961Y75891636D01*
X73350903Y75976695D01*
X73278679Y76198975D01*
X73297497Y76317784D01*
X73351636Y76424039D01*
X73435961Y76508364D01*
X73542216Y76562503D01*
X73660000Y76581158D01*
X73777784Y76562503D01*
G37*
G36*
X73777784Y75292503D02*
G01*
X73884039Y75238364D01*
X73969097Y75153305D01*
X74041321Y74931025D01*
X74022503Y74812216D01*
X73968364Y74705961D01*
X73884039Y74621636D01*
X73777784Y74567497D01*
X73660000Y74548842D01*
X73542216Y74567497D01*
X73435961Y74621636D01*
X73350903Y74706695D01*
X73278679Y74928975D01*
X73297497Y75047784D01*
X73351636Y75154039D01*
X73435961Y75238364D01*
X73542216Y75292503D01*
X73660000Y75311158D01*
X73777784Y75292503D01*
G37*
G36*
X73777784Y52432503D02*
G01*
X73884039Y52378364D01*
X73969097Y52293305D01*
X74041321Y52071025D01*
X74022503Y51952216D01*
X73968364Y51845961D01*
X73884039Y51761636D01*
X73777784Y51707497D01*
X73660000Y51688842D01*
X73542216Y51707497D01*
X73435961Y51761636D01*
X73350903Y51846695D01*
X73278679Y52068975D01*
X73297497Y52187784D01*
X73351636Y52294039D01*
X73435961Y52378364D01*
X73542216Y52432503D01*
X73660000Y52451158D01*
X73777784Y52432503D01*
G37*
G36*
X73777784Y51162503D02*
G01*
X73884039Y51108364D01*
X73969097Y51023305D01*
X74041321Y50801025D01*
X74022503Y50682216D01*
X73968364Y50575961D01*
X73884039Y50491636D01*
X73777784Y50437497D01*
X73660000Y50418842D01*
X73542216Y50437497D01*
X73435961Y50491636D01*
X73350903Y50576695D01*
X73278679Y50798975D01*
X73297497Y50917784D01*
X73351636Y51024039D01*
X73435961Y51108364D01*
X73542216Y51162503D01*
X73660000Y51181158D01*
X73777784Y51162503D01*
G37*
G36*
X73777784Y49892503D02*
G01*
X73884039Y49838364D01*
X73969097Y49753305D01*
X74041321Y49531025D01*
X74022503Y49412216D01*
X73968364Y49305961D01*
X73884039Y49221636D01*
X73777784Y49167497D01*
X73660000Y49148842D01*
X73542216Y49167497D01*
X73435961Y49221636D01*
X73350903Y49306695D01*
X73278679Y49528975D01*
X73297497Y49647784D01*
X73351636Y49754039D01*
X73435961Y49838364D01*
X73542216Y49892503D01*
X73660000Y49911158D01*
X73777784Y49892503D01*
G37*
G36*
X75047784Y77832503D02*
G01*
X75154039Y77778364D01*
X75239097Y77693305D01*
X75311321Y77471025D01*
X75292503Y77352216D01*
X75238364Y77245961D01*
X75154039Y77161636D01*
X75047784Y77107497D01*
X74930000Y77088842D01*
X74812216Y77107497D01*
X74705961Y77161636D01*
X74620903Y77246695D01*
X74548679Y77468975D01*
X74567497Y77587784D01*
X74621636Y77694039D01*
X74705961Y77778364D01*
X74812216Y77832503D01*
X74930000Y77851158D01*
X75047784Y77832503D01*
G37*
G36*
X75047784Y76562503D02*
G01*
X75154039Y76508364D01*
X75239097Y76423305D01*
X75311321Y76201025D01*
X75292503Y76082216D01*
X75238364Y75975961D01*
X75154039Y75891636D01*
X75047784Y75837497D01*
X74930000Y75818842D01*
X74812216Y75837497D01*
X74705961Y75891636D01*
X74620903Y75976695D01*
X74548679Y76198975D01*
X74567497Y76317784D01*
X74621636Y76424039D01*
X74705961Y76508364D01*
X74812216Y76562503D01*
X74930000Y76581158D01*
X75047784Y76562503D01*
G37*
G36*
X75047784Y75292503D02*
G01*
X75154039Y75238364D01*
X75239097Y75153305D01*
X75311321Y74931025D01*
X75292503Y74812216D01*
X75238364Y74705961D01*
X75154039Y74621636D01*
X75047784Y74567497D01*
X74930000Y74548842D01*
X74812216Y74567497D01*
X74705961Y74621636D01*
X74620903Y74706695D01*
X74548679Y74928975D01*
X74567497Y75047784D01*
X74621636Y75154039D01*
X74705961Y75238364D01*
X74812216Y75292503D01*
X74930000Y75311158D01*
X75047784Y75292503D01*
G37*
G36*
X75047784Y52432503D02*
G01*
X75154039Y52378364D01*
X75239097Y52293305D01*
X75311321Y52071025D01*
X75292503Y51952216D01*
X75238364Y51845961D01*
X75154039Y51761636D01*
X75047784Y51707497D01*
X74930000Y51688842D01*
X74812216Y51707497D01*
X74705961Y51761636D01*
X74620903Y51846695D01*
X74548679Y52068975D01*
X74567497Y52187784D01*
X74621636Y52294039D01*
X74705961Y52378364D01*
X74812216Y52432503D01*
X74930000Y52451158D01*
X75047784Y52432503D01*
G37*
G36*
X75047784Y51162503D02*
G01*
X75154039Y51108364D01*
X75239097Y51023305D01*
X75311321Y50801025D01*
X75292503Y50682216D01*
X75238364Y50575961D01*
X75154039Y50491636D01*
X75047784Y50437497D01*
X74930000Y50418842D01*
X74812216Y50437497D01*
X74705961Y50491636D01*
X74620903Y50576695D01*
X74548679Y50798975D01*
X74567497Y50917784D01*
X74621636Y51024039D01*
X74705961Y51108364D01*
X74812216Y51162503D01*
X74930000Y51181158D01*
X75047784Y51162503D01*
G37*
G36*
X75047784Y49892503D02*
G01*
X75154039Y49838364D01*
X75239097Y49753305D01*
X75311321Y49531025D01*
X75292503Y49412216D01*
X75238364Y49305961D01*
X75154039Y49221636D01*
X75047784Y49167497D01*
X74930000Y49148842D01*
X74812216Y49167497D01*
X74705961Y49221636D01*
X74620903Y49306695D01*
X74548679Y49528975D01*
X74567497Y49647784D01*
X74621636Y49754039D01*
X74705961Y49838364D01*
X74812216Y49892503D01*
X74930000Y49911158D01*
X75047784Y49892503D01*
G37*
G36*
X76317784Y77832503D02*
G01*
X76424039Y77778364D01*
X76509097Y77693305D01*
X76581321Y77471025D01*
X76562503Y77352216D01*
X76508364Y77245961D01*
X76424039Y77161636D01*
X76317784Y77107497D01*
X76200000Y77088842D01*
X76082216Y77107497D01*
X75975961Y77161636D01*
X75890903Y77246695D01*
X75818679Y77468975D01*
X75837497Y77587784D01*
X75891636Y77694039D01*
X75975961Y77778364D01*
X76082216Y77832503D01*
X76200000Y77851158D01*
X76317784Y77832503D01*
G37*
G36*
X76317784Y76562503D02*
G01*
X76424039Y76508364D01*
X76509097Y76423305D01*
X76581321Y76201025D01*
X76562503Y76082216D01*
X76508364Y75975961D01*
X76424039Y75891636D01*
X76317784Y75837497D01*
X76200000Y75818842D01*
X76082216Y75837497D01*
X75975961Y75891636D01*
X75890903Y75976695D01*
X75818679Y76198975D01*
X75837497Y76317784D01*
X75891636Y76424039D01*
X75975961Y76508364D01*
X76082216Y76562503D01*
X76200000Y76581158D01*
X76317784Y76562503D01*
G37*
G36*
X76317784Y75292503D02*
G01*
X76424039Y75238364D01*
X76509097Y75153305D01*
X76581321Y74931025D01*
X76562503Y74812216D01*
X76508364Y74705961D01*
X76424039Y74621636D01*
X76317784Y74567497D01*
X76200000Y74548842D01*
X76082216Y74567497D01*
X75975961Y74621636D01*
X75890903Y74706695D01*
X75818679Y74928975D01*
X75837497Y75047784D01*
X75891636Y75154039D01*
X75975961Y75238364D01*
X76082216Y75292503D01*
X76200000Y75311158D01*
X76317784Y75292503D01*
G37*
G36*
X76317784Y52432503D02*
G01*
X76424039Y52378364D01*
X76509097Y52293305D01*
X76581321Y52071025D01*
X76562503Y51952216D01*
X76508364Y51845961D01*
X76424039Y51761636D01*
X76317784Y51707497D01*
X76200000Y51688842D01*
X76082216Y51707497D01*
X75975961Y51761636D01*
X75890903Y51846695D01*
X75818679Y52068975D01*
X75837497Y52187784D01*
X75891636Y52294039D01*
X75975961Y52378364D01*
X76082216Y52432503D01*
X76200000Y52451158D01*
X76317784Y52432503D01*
G37*
G36*
X76317784Y51162503D02*
G01*
X76424039Y51108364D01*
X76509097Y51023305D01*
X76581321Y50801025D01*
X76562503Y50682216D01*
X76508364Y50575961D01*
X76424039Y50491636D01*
X76317784Y50437497D01*
X76200000Y50418842D01*
X76082216Y50437497D01*
X75975961Y50491636D01*
X75890903Y50576695D01*
X75818679Y50798975D01*
X75837497Y50917784D01*
X75891636Y51024039D01*
X75975961Y51108364D01*
X76082216Y51162503D01*
X76200000Y51181158D01*
X76317784Y51162503D01*
G37*
G36*
X76317784Y49892503D02*
G01*
X76424039Y49838364D01*
X76509097Y49753305D01*
X76581321Y49531025D01*
X76562503Y49412216D01*
X76508364Y49305961D01*
X76424039Y49221636D01*
X76317784Y49167497D01*
X76200000Y49148842D01*
X76082216Y49167497D01*
X75975961Y49221636D01*
X75890903Y49306695D01*
X75818679Y49528975D01*
X75837497Y49647784D01*
X75891636Y49754039D01*
X75975961Y49838364D01*
X76082216Y49892503D01*
X76200000Y49911158D01*
X76317784Y49892503D01*
G37*
G36*
X77587784Y77832503D02*
G01*
X77694039Y77778364D01*
X77779097Y77693305D01*
X77851321Y77471025D01*
X77832503Y77352216D01*
X77778364Y77245961D01*
X77694039Y77161636D01*
X77587784Y77107497D01*
X77470000Y77088842D01*
X77352216Y77107497D01*
X77245961Y77161636D01*
X77160903Y77246695D01*
X77088679Y77468975D01*
X77107497Y77587784D01*
X77161636Y77694039D01*
X77245961Y77778364D01*
X77352216Y77832503D01*
X77470000Y77851158D01*
X77587784Y77832503D01*
G37*
G36*
X77587784Y76562503D02*
G01*
X77694039Y76508364D01*
X77779097Y76423305D01*
X77851321Y76201025D01*
X77832503Y76082216D01*
X77778364Y75975961D01*
X77694039Y75891636D01*
X77587784Y75837497D01*
X77470000Y75818842D01*
X77352216Y75837497D01*
X77245961Y75891636D01*
X77160903Y75976695D01*
X77088679Y76198975D01*
X77107497Y76317784D01*
X77161636Y76424039D01*
X77245961Y76508364D01*
X77352216Y76562503D01*
X77470000Y76581158D01*
X77587784Y76562503D01*
G37*
G36*
X77587784Y75292503D02*
G01*
X77694039Y75238364D01*
X77779097Y75153305D01*
X77851321Y74931025D01*
X77832503Y74812216D01*
X77778364Y74705961D01*
X77694039Y74621636D01*
X77587784Y74567497D01*
X77470000Y74548842D01*
X77352216Y74567497D01*
X77245961Y74621636D01*
X77160903Y74706695D01*
X77088679Y74928975D01*
X77107497Y75047784D01*
X77161636Y75154039D01*
X77245961Y75238364D01*
X77352216Y75292503D01*
X77470000Y75311158D01*
X77587784Y75292503D01*
G37*
G36*
X77587784Y52432503D02*
G01*
X77694039Y52378364D01*
X77779097Y52293305D01*
X77851321Y52071025D01*
X77832503Y51952216D01*
X77778364Y51845961D01*
X77694039Y51761636D01*
X77587784Y51707497D01*
X77470000Y51688842D01*
X77352216Y51707497D01*
X77245961Y51761636D01*
X77160903Y51846695D01*
X77088679Y52068975D01*
X77107497Y52187784D01*
X77161636Y52294039D01*
X77245961Y52378364D01*
X77352216Y52432503D01*
X77470000Y52451158D01*
X77587784Y52432503D01*
G37*
G36*
X77587784Y51162503D02*
G01*
X77694039Y51108364D01*
X77779097Y51023305D01*
X77851321Y50801025D01*
X77832503Y50682216D01*
X77778364Y50575961D01*
X77694039Y50491636D01*
X77587784Y50437497D01*
X77470000Y50418842D01*
X77352216Y50437497D01*
X77245961Y50491636D01*
X77160903Y50576695D01*
X77088679Y50798975D01*
X77107497Y50917784D01*
X77161636Y51024039D01*
X77245961Y51108364D01*
X77352216Y51162503D01*
X77470000Y51181158D01*
X77587784Y51162503D01*
G37*
G36*
X77587784Y49892503D02*
G01*
X77694039Y49838364D01*
X77779097Y49753305D01*
X77851321Y49531025D01*
X77832503Y49412216D01*
X77778364Y49305961D01*
X77694039Y49221636D01*
X77587784Y49167497D01*
X77470000Y49148842D01*
X77352216Y49167497D01*
X77245961Y49221636D01*
X77160903Y49306695D01*
X77088679Y49528975D01*
X77107497Y49647784D01*
X77161636Y49754039D01*
X77245961Y49838364D01*
X77352216Y49892503D01*
X77470000Y49911158D01*
X77587784Y49892503D01*
G37*
G36*
X78857784Y77832503D02*
G01*
X78964039Y77778364D01*
X79049097Y77693305D01*
X79121321Y77471025D01*
X79102503Y77352216D01*
X79048364Y77245961D01*
X78964039Y77161636D01*
X78857784Y77107497D01*
X78740000Y77088842D01*
X78622216Y77107497D01*
X78515961Y77161636D01*
X78430903Y77246695D01*
X78358679Y77468975D01*
X78377497Y77587784D01*
X78431636Y77694039D01*
X78515961Y77778364D01*
X78622216Y77832503D01*
X78740000Y77851158D01*
X78857784Y77832503D01*
G37*
G36*
X78857784Y76562503D02*
G01*
X78964039Y76508364D01*
X79049097Y76423305D01*
X79121321Y76201025D01*
X79102503Y76082216D01*
X79048364Y75975961D01*
X78964039Y75891636D01*
X78857784Y75837497D01*
X78740000Y75818842D01*
X78622216Y75837497D01*
X78515961Y75891636D01*
X78430903Y75976695D01*
X78358679Y76198975D01*
X78377497Y76317784D01*
X78431636Y76424039D01*
X78515961Y76508364D01*
X78622216Y76562503D01*
X78740000Y76581158D01*
X78857784Y76562503D01*
G37*
G36*
X78857784Y75292503D02*
G01*
X78964039Y75238364D01*
X79049097Y75153305D01*
X79121321Y74931025D01*
X79102503Y74812216D01*
X79048364Y74705961D01*
X78964039Y74621636D01*
X78857784Y74567497D01*
X78740000Y74548842D01*
X78622216Y74567497D01*
X78515961Y74621636D01*
X78430903Y74706695D01*
X78358679Y74928975D01*
X78377497Y75047784D01*
X78431636Y75154039D01*
X78515961Y75238364D01*
X78622216Y75292503D01*
X78740000Y75311158D01*
X78857784Y75292503D01*
G37*
G36*
X78857784Y52432503D02*
G01*
X78964039Y52378364D01*
X79049097Y52293305D01*
X79121321Y52071025D01*
X79102503Y51952216D01*
X79048364Y51845961D01*
X78964039Y51761636D01*
X78857784Y51707497D01*
X78740000Y51688842D01*
X78622216Y51707497D01*
X78515961Y51761636D01*
X78430903Y51846695D01*
X78358679Y52068975D01*
X78377497Y52187784D01*
X78431636Y52294039D01*
X78515961Y52378364D01*
X78622216Y52432503D01*
X78740000Y52451158D01*
X78857784Y52432503D01*
G37*
G36*
X78857784Y51162503D02*
G01*
X78964039Y51108364D01*
X79049097Y51023305D01*
X79121321Y50801025D01*
X79102503Y50682216D01*
X79048364Y50575961D01*
X78964039Y50491636D01*
X78857784Y50437497D01*
X78740000Y50418842D01*
X78622216Y50437497D01*
X78515961Y50491636D01*
X78430903Y50576695D01*
X78358679Y50798975D01*
X78377497Y50917784D01*
X78431636Y51024039D01*
X78515961Y51108364D01*
X78622216Y51162503D01*
X78740000Y51181158D01*
X78857784Y51162503D01*
G37*
G36*
X78857784Y49892503D02*
G01*
X78964039Y49838364D01*
X79049097Y49753305D01*
X79121321Y49531025D01*
X79102503Y49412216D01*
X79048364Y49305961D01*
X78964039Y49221636D01*
X78857784Y49167497D01*
X78740000Y49148842D01*
X78622216Y49167497D01*
X78515961Y49221636D01*
X78430903Y49306695D01*
X78358679Y49528975D01*
X78377497Y49647784D01*
X78431636Y49754039D01*
X78515961Y49838364D01*
X78622216Y49892503D01*
X78740000Y49911158D01*
X78857784Y49892503D01*
G37*
G36*
X80127784Y77832503D02*
G01*
X80234039Y77778364D01*
X80319097Y77693305D01*
X80391321Y77471025D01*
X80372503Y77352216D01*
X80318364Y77245961D01*
X80234039Y77161636D01*
X80127784Y77107497D01*
X80010000Y77088842D01*
X79892216Y77107497D01*
X79785961Y77161636D01*
X79700903Y77246695D01*
X79628679Y77468975D01*
X79647497Y77587784D01*
X79701636Y77694039D01*
X79785961Y77778364D01*
X79892216Y77832503D01*
X80010000Y77851158D01*
X80127784Y77832503D01*
G37*
G36*
X80127784Y76562503D02*
G01*
X80234039Y76508364D01*
X80319097Y76423305D01*
X80391321Y76201025D01*
X80372503Y76082216D01*
X80318364Y75975961D01*
X80234039Y75891636D01*
X80127784Y75837497D01*
X80010000Y75818842D01*
X79892216Y75837497D01*
X79785961Y75891636D01*
X79700903Y75976695D01*
X79628679Y76198975D01*
X79647497Y76317784D01*
X79701636Y76424039D01*
X79785961Y76508364D01*
X79892216Y76562503D01*
X80010000Y76581158D01*
X80127784Y76562503D01*
G37*
G36*
X80127784Y75292503D02*
G01*
X80234039Y75238364D01*
X80319097Y75153305D01*
X80391321Y74931025D01*
X80372503Y74812216D01*
X80318364Y74705961D01*
X80234039Y74621636D01*
X80127784Y74567497D01*
X80010000Y74548842D01*
X79892216Y74567497D01*
X79785961Y74621636D01*
X79700903Y74706695D01*
X79628679Y74928975D01*
X79647497Y75047784D01*
X79701636Y75154039D01*
X79785961Y75238364D01*
X79892216Y75292503D01*
X80010000Y75311158D01*
X80127784Y75292503D01*
G37*
G36*
X80127784Y52432503D02*
G01*
X80234039Y52378364D01*
X80319097Y52293305D01*
X80391321Y52071025D01*
X80372503Y51952216D01*
X80318364Y51845961D01*
X80234039Y51761636D01*
X80127784Y51707497D01*
X80010000Y51688842D01*
X79892216Y51707497D01*
X79785961Y51761636D01*
X79700903Y51846695D01*
X79628679Y52068975D01*
X79647497Y52187784D01*
X79701636Y52294039D01*
X79785961Y52378364D01*
X79892216Y52432503D01*
X80010000Y52451158D01*
X80127784Y52432503D01*
G37*
G36*
X80127784Y51162503D02*
G01*
X80234039Y51108364D01*
X80319097Y51023305D01*
X80391321Y50801025D01*
X80372503Y50682216D01*
X80318364Y50575961D01*
X80234039Y50491636D01*
X80127784Y50437497D01*
X80010000Y50418842D01*
X79892216Y50437497D01*
X79785961Y50491636D01*
X79700903Y50576695D01*
X79628679Y50798975D01*
X79647497Y50917784D01*
X79701636Y51024039D01*
X79785961Y51108364D01*
X79892216Y51162503D01*
X80010000Y51181158D01*
X80127784Y51162503D01*
G37*
G36*
X80127784Y49892503D02*
G01*
X80234039Y49838364D01*
X80319097Y49753305D01*
X80391321Y49531025D01*
X80372503Y49412216D01*
X80318364Y49305961D01*
X80234039Y49221636D01*
X80127784Y49167497D01*
X80010000Y49148842D01*
X79892216Y49167497D01*
X79785961Y49221636D01*
X79700903Y49306695D01*
X79628679Y49528975D01*
X79647497Y49647784D01*
X79701636Y49754039D01*
X79785961Y49838364D01*
X79892216Y49892503D01*
X80010000Y49911158D01*
X80127784Y49892503D01*
G37*
G36*
X81397784Y77832503D02*
G01*
X81504039Y77778364D01*
X81589097Y77693305D01*
X81661321Y77471025D01*
X81642503Y77352216D01*
X81588364Y77245961D01*
X81504039Y77161636D01*
X81397784Y77107497D01*
X81280000Y77088842D01*
X81162216Y77107497D01*
X81055961Y77161636D01*
X80970903Y77246695D01*
X80898679Y77468975D01*
X80917497Y77587784D01*
X80971636Y77694039D01*
X81055961Y77778364D01*
X81162216Y77832503D01*
X81280000Y77851158D01*
X81397784Y77832503D01*
G37*
G36*
X81397784Y76562503D02*
G01*
X81504039Y76508364D01*
X81589097Y76423305D01*
X81661321Y76201025D01*
X81642503Y76082216D01*
X81588364Y75975961D01*
X81504039Y75891636D01*
X81397784Y75837497D01*
X81280000Y75818842D01*
X81162216Y75837497D01*
X81055961Y75891636D01*
X80970903Y75976695D01*
X80898679Y76198975D01*
X80917497Y76317784D01*
X80971636Y76424039D01*
X81055961Y76508364D01*
X81162216Y76562503D01*
X81280000Y76581158D01*
X81397784Y76562503D01*
G37*
G36*
X81397784Y75292503D02*
G01*
X81504039Y75238364D01*
X81589097Y75153305D01*
X81661321Y74931025D01*
X81642503Y74812216D01*
X81588364Y74705961D01*
X81504039Y74621636D01*
X81397784Y74567497D01*
X81280000Y74548842D01*
X81162216Y74567497D01*
X81055961Y74621636D01*
X80970903Y74706695D01*
X80898679Y74928975D01*
X80917497Y75047784D01*
X80971636Y75154039D01*
X81055961Y75238364D01*
X81162216Y75292503D01*
X81280000Y75311158D01*
X81397784Y75292503D01*
G37*
G36*
X81397784Y52432503D02*
G01*
X81504039Y52378364D01*
X81589097Y52293305D01*
X81661321Y52071025D01*
X81642503Y51952216D01*
X81588364Y51845961D01*
X81504039Y51761636D01*
X81397784Y51707497D01*
X81280000Y51688842D01*
X81162216Y51707497D01*
X81055961Y51761636D01*
X80970903Y51846695D01*
X80898679Y52068975D01*
X80917497Y52187784D01*
X80971636Y52294039D01*
X81055961Y52378364D01*
X81162216Y52432503D01*
X81280000Y52451158D01*
X81397784Y52432503D01*
G37*
G36*
X81397784Y51162503D02*
G01*
X81504039Y51108364D01*
X81589097Y51023305D01*
X81661321Y50801025D01*
X81642503Y50682216D01*
X81588364Y50575961D01*
X81504039Y50491636D01*
X81397784Y50437497D01*
X81280000Y50418842D01*
X81162216Y50437497D01*
X81055961Y50491636D01*
X80970903Y50576695D01*
X80898679Y50798975D01*
X80917497Y50917784D01*
X80971636Y51024039D01*
X81055961Y51108364D01*
X81162216Y51162503D01*
X81280000Y51181158D01*
X81397784Y51162503D01*
G37*
G36*
X81397784Y49892503D02*
G01*
X81504039Y49838364D01*
X81589097Y49753305D01*
X81661321Y49531025D01*
X81642503Y49412216D01*
X81588364Y49305961D01*
X81504039Y49221636D01*
X81397784Y49167497D01*
X81280000Y49148842D01*
X81162216Y49167497D01*
X81055961Y49221636D01*
X80970903Y49306695D01*
X80898679Y49528975D01*
X80917497Y49647784D01*
X80971636Y49754039D01*
X81055961Y49838364D01*
X81162216Y49892503D01*
X81280000Y49911158D01*
X81397784Y49892503D01*
G37*
G36*
X82667784Y77832503D02*
G01*
X82774039Y77778364D01*
X82859097Y77693305D01*
X82931321Y77471025D01*
X82912503Y77352216D01*
X82858364Y77245961D01*
X82774039Y77161636D01*
X82667784Y77107497D01*
X82550000Y77088842D01*
X82432216Y77107497D01*
X82325961Y77161636D01*
X82240903Y77246695D01*
X82168679Y77468975D01*
X82187497Y77587784D01*
X82241636Y77694039D01*
X82325961Y77778364D01*
X82432216Y77832503D01*
X82550000Y77851158D01*
X82667784Y77832503D01*
G37*
G36*
X82667784Y76562503D02*
G01*
X82774039Y76508364D01*
X82859097Y76423305D01*
X82931321Y76201025D01*
X82912503Y76082216D01*
X82858364Y75975961D01*
X82774039Y75891636D01*
X82667784Y75837497D01*
X82550000Y75818842D01*
X82432216Y75837497D01*
X82325961Y75891636D01*
X82240903Y75976695D01*
X82168679Y76198975D01*
X82187497Y76317784D01*
X82241636Y76424039D01*
X82325961Y76508364D01*
X82432216Y76562503D01*
X82550000Y76581158D01*
X82667784Y76562503D01*
G37*
G36*
X82667784Y75292503D02*
G01*
X82774039Y75238364D01*
X82859097Y75153305D01*
X82931321Y74931025D01*
X82912503Y74812216D01*
X82858364Y74705961D01*
X82774039Y74621636D01*
X82667784Y74567497D01*
X82550000Y74548842D01*
X82432216Y74567497D01*
X82325961Y74621636D01*
X82240903Y74706695D01*
X82168679Y74928975D01*
X82187497Y75047784D01*
X82241636Y75154039D01*
X82325961Y75238364D01*
X82432216Y75292503D01*
X82550000Y75311158D01*
X82667784Y75292503D01*
G37*
G36*
X82667784Y52432503D02*
G01*
X82774039Y52378364D01*
X82859097Y52293305D01*
X82931321Y52071025D01*
X82912503Y51952216D01*
X82858364Y51845961D01*
X82774039Y51761636D01*
X82667784Y51707497D01*
X82550000Y51688842D01*
X82432216Y51707497D01*
X82325961Y51761636D01*
X82240903Y51846695D01*
X82168679Y52068975D01*
X82187497Y52187784D01*
X82241636Y52294039D01*
X82325961Y52378364D01*
X82432216Y52432503D01*
X82550000Y52451158D01*
X82667784Y52432503D01*
G37*
G36*
X82667784Y51162503D02*
G01*
X82774039Y51108364D01*
X82859097Y51023305D01*
X82931321Y50801025D01*
X82912503Y50682216D01*
X82858364Y50575961D01*
X82774039Y50491636D01*
X82667784Y50437497D01*
X82550000Y50418842D01*
X82432216Y50437497D01*
X82325961Y50491636D01*
X82240903Y50576695D01*
X82168679Y50798975D01*
X82187497Y50917784D01*
X82241636Y51024039D01*
X82325961Y51108364D01*
X82432216Y51162503D01*
X82550000Y51181158D01*
X82667784Y51162503D01*
G37*
G36*
X82667784Y49892503D02*
G01*
X82774039Y49838364D01*
X82859097Y49753305D01*
X82931321Y49531025D01*
X82912503Y49412216D01*
X82858364Y49305961D01*
X82774039Y49221636D01*
X82667784Y49167497D01*
X82550000Y49148842D01*
X82432216Y49167497D01*
X82325961Y49221636D01*
X82240903Y49306695D01*
X82168679Y49528975D01*
X82187497Y49647784D01*
X82241636Y49754039D01*
X82325961Y49838364D01*
X82432216Y49892503D01*
X82550000Y49911158D01*
X82667784Y49892503D01*
G37*
G36*
X83937784Y77832503D02*
G01*
X84044039Y77778364D01*
X84129097Y77693305D01*
X84201321Y77471025D01*
X84182503Y77352216D01*
X84128364Y77245961D01*
X84044039Y77161636D01*
X83937784Y77107497D01*
X83820000Y77088842D01*
X83702216Y77107497D01*
X83595961Y77161636D01*
X83510903Y77246695D01*
X83438679Y77468975D01*
X83457497Y77587784D01*
X83511636Y77694039D01*
X83595961Y77778364D01*
X83702216Y77832503D01*
X83820000Y77851158D01*
X83937784Y77832503D01*
G37*
G36*
X83937784Y76562503D02*
G01*
X84044039Y76508364D01*
X84129097Y76423305D01*
X84201321Y76201025D01*
X84182503Y76082216D01*
X84128364Y75975961D01*
X84044039Y75891636D01*
X83937784Y75837497D01*
X83820000Y75818842D01*
X83702216Y75837497D01*
X83595961Y75891636D01*
X83510903Y75976695D01*
X83438679Y76198975D01*
X83457497Y76317784D01*
X83511636Y76424039D01*
X83595961Y76508364D01*
X83702216Y76562503D01*
X83820000Y76581158D01*
X83937784Y76562503D01*
G37*
G36*
X83937784Y75292503D02*
G01*
X84044039Y75238364D01*
X84129097Y75153305D01*
X84201321Y74931025D01*
X84182503Y74812216D01*
X84128364Y74705961D01*
X84044039Y74621636D01*
X83937784Y74567497D01*
X83820000Y74548842D01*
X83702216Y74567497D01*
X83595961Y74621636D01*
X83510903Y74706695D01*
X83438679Y74928975D01*
X83457497Y75047784D01*
X83511636Y75154039D01*
X83595961Y75238364D01*
X83702216Y75292503D01*
X83820000Y75311158D01*
X83937784Y75292503D01*
G37*
G36*
X83937784Y52432503D02*
G01*
X84044039Y52378364D01*
X84129097Y52293305D01*
X84201321Y52071025D01*
X84182503Y51952216D01*
X84128364Y51845961D01*
X84044039Y51761636D01*
X83937784Y51707497D01*
X83820000Y51688842D01*
X83702216Y51707497D01*
X83595961Y51761636D01*
X83510903Y51846695D01*
X83438679Y52068975D01*
X83457497Y52187784D01*
X83511636Y52294039D01*
X83595961Y52378364D01*
X83702216Y52432503D01*
X83820000Y52451158D01*
X83937784Y52432503D01*
G37*
G36*
X83937784Y51162503D02*
G01*
X84044039Y51108364D01*
X84129097Y51023305D01*
X84201321Y50801025D01*
X84182503Y50682216D01*
X84128364Y50575961D01*
X84044039Y50491636D01*
X83937784Y50437497D01*
X83820000Y50418842D01*
X83702216Y50437497D01*
X83595961Y50491636D01*
X83510903Y50576695D01*
X83438679Y50798975D01*
X83457497Y50917784D01*
X83511636Y51024039D01*
X83595961Y51108364D01*
X83702216Y51162503D01*
X83820000Y51181158D01*
X83937784Y51162503D01*
G37*
G36*
X83937784Y49892503D02*
G01*
X84044039Y49838364D01*
X84129097Y49753305D01*
X84201321Y49531025D01*
X84182503Y49412216D01*
X84128364Y49305961D01*
X84044039Y49221636D01*
X83937784Y49167497D01*
X83820000Y49148842D01*
X83702216Y49167497D01*
X83595961Y49221636D01*
X83510903Y49306695D01*
X83438679Y49528975D01*
X83457497Y49647784D01*
X83511636Y49754039D01*
X83595961Y49838364D01*
X83702216Y49892503D01*
X83820000Y49911158D01*
X83937784Y49892503D01*
G37*
G36*
X85207784Y77832503D02*
G01*
X85314039Y77778364D01*
X85399097Y77693305D01*
X85471321Y77471025D01*
X85452503Y77352216D01*
X85398364Y77245961D01*
X85314039Y77161636D01*
X85207784Y77107497D01*
X85090000Y77088842D01*
X84972216Y77107497D01*
X84865961Y77161636D01*
X84780903Y77246695D01*
X84708679Y77468975D01*
X84727497Y77587784D01*
X84781636Y77694039D01*
X84865961Y77778364D01*
X84972216Y77832503D01*
X85090000Y77851158D01*
X85207784Y77832503D01*
G37*
G36*
X85207784Y76562503D02*
G01*
X85314039Y76508364D01*
X85399097Y76423305D01*
X85471321Y76201025D01*
X85452503Y76082216D01*
X85398364Y75975961D01*
X85314039Y75891636D01*
X85207784Y75837497D01*
X85090000Y75818842D01*
X84972216Y75837497D01*
X84865961Y75891636D01*
X84780903Y75976695D01*
X84708679Y76198975D01*
X84727497Y76317784D01*
X84781636Y76424039D01*
X84865961Y76508364D01*
X84972216Y76562503D01*
X85090000Y76581158D01*
X85207784Y76562503D01*
G37*
G36*
X85207784Y75292503D02*
G01*
X85314039Y75238364D01*
X85399097Y75153305D01*
X85471321Y74931025D01*
X85452503Y74812216D01*
X85398364Y74705961D01*
X85314039Y74621636D01*
X85207784Y74567497D01*
X85090000Y74548842D01*
X84972216Y74567497D01*
X84865961Y74621636D01*
X84780903Y74706695D01*
X84708679Y74928975D01*
X84727497Y75047784D01*
X84781636Y75154039D01*
X84865961Y75238364D01*
X84972216Y75292503D01*
X85090000Y75311158D01*
X85207784Y75292503D01*
G37*
G36*
X85207784Y52432503D02*
G01*
X85314039Y52378364D01*
X85399097Y52293305D01*
X85471321Y52071025D01*
X85452503Y51952216D01*
X85398364Y51845961D01*
X85314039Y51761636D01*
X85207784Y51707497D01*
X85090000Y51688842D01*
X84972216Y51707497D01*
X84865961Y51761636D01*
X84780903Y51846695D01*
X84708679Y52068975D01*
X84727497Y52187784D01*
X84781636Y52294039D01*
X84865961Y52378364D01*
X84972216Y52432503D01*
X85090000Y52451158D01*
X85207784Y52432503D01*
G37*
G36*
X85207784Y51162503D02*
G01*
X85314039Y51108364D01*
X85399097Y51023305D01*
X85471321Y50801025D01*
X85452503Y50682216D01*
X85398364Y50575961D01*
X85314039Y50491636D01*
X85207784Y50437497D01*
X85090000Y50418842D01*
X84972216Y50437497D01*
X84865961Y50491636D01*
X84780903Y50576695D01*
X84708679Y50798975D01*
X84727497Y50917784D01*
X84781636Y51024039D01*
X84865961Y51108364D01*
X84972216Y51162503D01*
X85090000Y51181158D01*
X85207784Y51162503D01*
G37*
G36*
X85207784Y49892503D02*
G01*
X85314039Y49838364D01*
X85399097Y49753305D01*
X85471321Y49531025D01*
X85452503Y49412216D01*
X85398364Y49305961D01*
X85314039Y49221636D01*
X85207784Y49167497D01*
X85090000Y49148842D01*
X84972216Y49167497D01*
X84865961Y49221636D01*
X84780903Y49306695D01*
X84708679Y49528975D01*
X84727497Y49647784D01*
X84781636Y49754039D01*
X84865961Y49838364D01*
X84972216Y49892503D01*
X85090000Y49911158D01*
X85207784Y49892503D01*
G37*
G36*
X86477784Y77832503D02*
G01*
X86584039Y77778364D01*
X86669097Y77693305D01*
X86741321Y77471025D01*
X86722503Y77352216D01*
X86668364Y77245961D01*
X86584039Y77161636D01*
X86477784Y77107497D01*
X86360000Y77088842D01*
X86242216Y77107497D01*
X86135961Y77161636D01*
X86050903Y77246695D01*
X85978679Y77468975D01*
X85997497Y77587784D01*
X86051636Y77694039D01*
X86135961Y77778364D01*
X86242216Y77832503D01*
X86360000Y77851158D01*
X86477784Y77832503D01*
G37*
G36*
X86477784Y76562503D02*
G01*
X86584039Y76508364D01*
X86669097Y76423305D01*
X86741321Y76201025D01*
X86722503Y76082216D01*
X86668364Y75975961D01*
X86584039Y75891636D01*
X86477784Y75837497D01*
X86360000Y75818842D01*
X86242216Y75837497D01*
X86135961Y75891636D01*
X86050903Y75976695D01*
X85978679Y76198975D01*
X85997497Y76317784D01*
X86051636Y76424039D01*
X86135961Y76508364D01*
X86242216Y76562503D01*
X86360000Y76581158D01*
X86477784Y76562503D01*
G37*
G36*
X86477784Y75292503D02*
G01*
X86584039Y75238364D01*
X86669097Y75153305D01*
X86741321Y74931025D01*
X86722503Y74812216D01*
X86668364Y74705961D01*
X86584039Y74621636D01*
X86477784Y74567497D01*
X86360000Y74548842D01*
X86242216Y74567497D01*
X86135961Y74621636D01*
X86050903Y74706695D01*
X85978679Y74928975D01*
X85997497Y75047784D01*
X86051636Y75154039D01*
X86135961Y75238364D01*
X86242216Y75292503D01*
X86360000Y75311158D01*
X86477784Y75292503D01*
G37*
G36*
X86477784Y52432503D02*
G01*
X86584039Y52378364D01*
X86669097Y52293305D01*
X86741321Y52071025D01*
X86722503Y51952216D01*
X86668364Y51845961D01*
X86584039Y51761636D01*
X86477784Y51707497D01*
X86360000Y51688842D01*
X86242216Y51707497D01*
X86135961Y51761636D01*
X86050903Y51846695D01*
X85978679Y52068975D01*
X85997497Y52187784D01*
X86051636Y52294039D01*
X86135961Y52378364D01*
X86242216Y52432503D01*
X86360000Y52451158D01*
X86477784Y52432503D01*
G37*
G36*
X86477784Y51162503D02*
G01*
X86584039Y51108364D01*
X86669097Y51023305D01*
X86741321Y50801025D01*
X86722503Y50682216D01*
X86668364Y50575961D01*
X86584039Y50491636D01*
X86477784Y50437497D01*
X86360000Y50418842D01*
X86242216Y50437497D01*
X86135961Y50491636D01*
X86050903Y50576695D01*
X85978679Y50798975D01*
X85997497Y50917784D01*
X86051636Y51024039D01*
X86135961Y51108364D01*
X86242216Y51162503D01*
X86360000Y51181158D01*
X86477784Y51162503D01*
G37*
G36*
X86477784Y49892503D02*
G01*
X86584039Y49838364D01*
X86669097Y49753305D01*
X86741321Y49531025D01*
X86722503Y49412216D01*
X86668364Y49305961D01*
X86584039Y49221636D01*
X86477784Y49167497D01*
X86360000Y49148842D01*
X86242216Y49167497D01*
X86135961Y49221636D01*
X86050903Y49306695D01*
X85978679Y49528975D01*
X85997497Y49647784D01*
X86051636Y49754039D01*
X86135961Y49838364D01*
X86242216Y49892503D01*
X86360000Y49911158D01*
X86477784Y49892503D01*
G37*
G36*
X87747784Y77832503D02*
G01*
X87854039Y77778364D01*
X87939097Y77693305D01*
X88011321Y77471025D01*
X87992503Y77352216D01*
X87938364Y77245961D01*
X87854039Y77161636D01*
X87747784Y77107497D01*
X87630000Y77088842D01*
X87512216Y77107497D01*
X87405961Y77161636D01*
X87320903Y77246695D01*
X87248679Y77468975D01*
X87267497Y77587784D01*
X87321636Y77694039D01*
X87405961Y77778364D01*
X87512216Y77832503D01*
X87630000Y77851158D01*
X87747784Y77832503D01*
G37*
G36*
X87747784Y76562503D02*
G01*
X87854039Y76508364D01*
X87939097Y76423305D01*
X88011321Y76201025D01*
X87992503Y76082216D01*
X87938364Y75975961D01*
X87854039Y75891636D01*
X87747784Y75837497D01*
X87630000Y75818842D01*
X87512216Y75837497D01*
X87405961Y75891636D01*
X87320903Y75976695D01*
X87248679Y76198975D01*
X87267497Y76317784D01*
X87321636Y76424039D01*
X87405961Y76508364D01*
X87512216Y76562503D01*
X87630000Y76581158D01*
X87747784Y76562503D01*
G37*
G36*
X87747784Y75292503D02*
G01*
X87854039Y75238364D01*
X87939097Y75153305D01*
X88011321Y74931025D01*
X87992503Y74812216D01*
X87938364Y74705961D01*
X87854039Y74621636D01*
X87747784Y74567497D01*
X87630000Y74548842D01*
X87512216Y74567497D01*
X87405961Y74621636D01*
X87320903Y74706695D01*
X87248679Y74928975D01*
X87267497Y75047784D01*
X87321636Y75154039D01*
X87405961Y75238364D01*
X87512216Y75292503D01*
X87630000Y75311158D01*
X87747784Y75292503D01*
G37*
G36*
X87747784Y52432503D02*
G01*
X87854039Y52378364D01*
X87939097Y52293305D01*
X88011321Y52071025D01*
X87992503Y51952216D01*
X87938364Y51845961D01*
X87854039Y51761636D01*
X87747784Y51707497D01*
X87630000Y51688842D01*
X87512216Y51707497D01*
X87405961Y51761636D01*
X87320903Y51846695D01*
X87248679Y52068975D01*
X87267497Y52187784D01*
X87321636Y52294039D01*
X87405961Y52378364D01*
X87512216Y52432503D01*
X87630000Y52451158D01*
X87747784Y52432503D01*
G37*
G36*
X87747784Y51162503D02*
G01*
X87854039Y51108364D01*
X87939097Y51023305D01*
X88011321Y50801025D01*
X87992503Y50682216D01*
X87938364Y50575961D01*
X87854039Y50491636D01*
X87747784Y50437497D01*
X87630000Y50418842D01*
X87512216Y50437497D01*
X87405961Y50491636D01*
X87320903Y50576695D01*
X87248679Y50798975D01*
X87267497Y50917784D01*
X87321636Y51024039D01*
X87405961Y51108364D01*
X87512216Y51162503D01*
X87630000Y51181158D01*
X87747784Y51162503D01*
G37*
G36*
X87747784Y49892503D02*
G01*
X87854039Y49838364D01*
X87939097Y49753305D01*
X88011321Y49531025D01*
X87992503Y49412216D01*
X87938364Y49305961D01*
X87854039Y49221636D01*
X87747784Y49167497D01*
X87630000Y49148842D01*
X87512216Y49167497D01*
X87405961Y49221636D01*
X87320903Y49306695D01*
X87248679Y49528975D01*
X87267497Y49647784D01*
X87321636Y49754039D01*
X87405961Y49838364D01*
X87512216Y49892503D01*
X87630000Y49911158D01*
X87747784Y49892503D01*
G37*
G36*
X89017784Y77832503D02*
G01*
X89124039Y77778364D01*
X89209097Y77693305D01*
X89281321Y77471025D01*
X89262503Y77352216D01*
X89208364Y77245961D01*
X89124039Y77161636D01*
X89017784Y77107497D01*
X88900000Y77088842D01*
X88782216Y77107497D01*
X88675961Y77161636D01*
X88590903Y77246695D01*
X88518679Y77468975D01*
X88537497Y77587784D01*
X88591636Y77694039D01*
X88675961Y77778364D01*
X88782216Y77832503D01*
X88900000Y77851158D01*
X89017784Y77832503D01*
G37*
G36*
X89017784Y76562503D02*
G01*
X89124039Y76508364D01*
X89209097Y76423305D01*
X89281321Y76201025D01*
X89262503Y76082216D01*
X89208364Y75975961D01*
X89124039Y75891636D01*
X89017784Y75837497D01*
X88900000Y75818842D01*
X88782216Y75837497D01*
X88675961Y75891636D01*
X88590903Y75976695D01*
X88518679Y76198975D01*
X88537497Y76317784D01*
X88591636Y76424039D01*
X88675961Y76508364D01*
X88782216Y76562503D01*
X88900000Y76581158D01*
X89017784Y76562503D01*
G37*
G36*
X89017784Y75292503D02*
G01*
X89124039Y75238364D01*
X89209097Y75153305D01*
X89281321Y74931025D01*
X89262503Y74812216D01*
X89208364Y74705961D01*
X89124039Y74621636D01*
X89017784Y74567497D01*
X88900000Y74548842D01*
X88782216Y74567497D01*
X88675961Y74621636D01*
X88590903Y74706695D01*
X88518679Y74928975D01*
X88537497Y75047784D01*
X88591636Y75154039D01*
X88675961Y75238364D01*
X88782216Y75292503D01*
X88900000Y75311158D01*
X89017784Y75292503D01*
G37*
G36*
X89017784Y52432503D02*
G01*
X89124039Y52378364D01*
X89209097Y52293305D01*
X89281321Y52071025D01*
X89262503Y51952216D01*
X89208364Y51845961D01*
X89124039Y51761636D01*
X89017784Y51707497D01*
X88900000Y51688842D01*
X88782216Y51707497D01*
X88675961Y51761636D01*
X88590903Y51846695D01*
X88518679Y52068975D01*
X88537497Y52187784D01*
X88591636Y52294039D01*
X88675961Y52378364D01*
X88782216Y52432503D01*
X88900000Y52451158D01*
X89017784Y52432503D01*
G37*
G36*
X89017784Y51162503D02*
G01*
X89124039Y51108364D01*
X89209097Y51023305D01*
X89281321Y50801025D01*
X89262503Y50682216D01*
X89208364Y50575961D01*
X89124039Y50491636D01*
X89017784Y50437497D01*
X88900000Y50418842D01*
X88782216Y50437497D01*
X88675961Y50491636D01*
X88590903Y50576695D01*
X88518679Y50798975D01*
X88537497Y50917784D01*
X88591636Y51024039D01*
X88675961Y51108364D01*
X88782216Y51162503D01*
X88900000Y51181158D01*
X89017784Y51162503D01*
G37*
G36*
X89017784Y49892503D02*
G01*
X89124039Y49838364D01*
X89209097Y49753305D01*
X89281321Y49531025D01*
X89262503Y49412216D01*
X89208364Y49305961D01*
X89124039Y49221636D01*
X89017784Y49167497D01*
X88900000Y49148842D01*
X88782216Y49167497D01*
X88675961Y49221636D01*
X88590903Y49306695D01*
X88518679Y49528975D01*
X88537497Y49647784D01*
X88591636Y49754039D01*
X88675961Y49838364D01*
X88782216Y49892503D01*
X88900000Y49911158D01*
X89017784Y49892503D01*
G37*
G36*
X90287784Y77832503D02*
G01*
X90394039Y77778364D01*
X90479097Y77693305D01*
X90551321Y77471025D01*
X90532503Y77352216D01*
X90478364Y77245961D01*
X90394039Y77161636D01*
X90287784Y77107497D01*
X90170000Y77088842D01*
X90052216Y77107497D01*
X89945961Y77161636D01*
X89860903Y77246695D01*
X89788679Y77468975D01*
X89807497Y77587784D01*
X89861636Y77694039D01*
X89945961Y77778364D01*
X90052216Y77832503D01*
X90170000Y77851158D01*
X90287784Y77832503D01*
G37*
G36*
X90287784Y76562503D02*
G01*
X90394039Y76508364D01*
X90479097Y76423305D01*
X90551321Y76201025D01*
X90532503Y76082216D01*
X90478364Y75975961D01*
X90394039Y75891636D01*
X90287784Y75837497D01*
X90170000Y75818842D01*
X90052216Y75837497D01*
X89945961Y75891636D01*
X89860903Y75976695D01*
X89788679Y76198975D01*
X89807497Y76317784D01*
X89861636Y76424039D01*
X89945961Y76508364D01*
X90052216Y76562503D01*
X90170000Y76581158D01*
X90287784Y76562503D01*
G37*
G36*
X90287784Y75292503D02*
G01*
X90394039Y75238364D01*
X90479097Y75153305D01*
X90551321Y74931025D01*
X90532503Y74812216D01*
X90478364Y74705961D01*
X90394039Y74621636D01*
X90287784Y74567497D01*
X90170000Y74548842D01*
X90052216Y74567497D01*
X89945961Y74621636D01*
X89860903Y74706695D01*
X89788679Y74928975D01*
X89807497Y75047784D01*
X89861636Y75154039D01*
X89945961Y75238364D01*
X90052216Y75292503D01*
X90170000Y75311158D01*
X90287784Y75292503D01*
G37*
G36*
X90287784Y52432503D02*
G01*
X90394039Y52378364D01*
X90479097Y52293305D01*
X90551321Y52071025D01*
X90532503Y51952216D01*
X90478364Y51845961D01*
X90394039Y51761636D01*
X90287784Y51707497D01*
X90170000Y51688842D01*
X90052216Y51707497D01*
X89945961Y51761636D01*
X89860903Y51846695D01*
X89788679Y52068975D01*
X89807497Y52187784D01*
X89861636Y52294039D01*
X89945961Y52378364D01*
X90052216Y52432503D01*
X90170000Y52451158D01*
X90287784Y52432503D01*
G37*
G36*
X90287784Y51162503D02*
G01*
X90394039Y51108364D01*
X90479097Y51023305D01*
X90551321Y50801025D01*
X90532503Y50682216D01*
X90478364Y50575961D01*
X90394039Y50491636D01*
X90287784Y50437497D01*
X90170000Y50418842D01*
X90052216Y50437497D01*
X89945961Y50491636D01*
X89860903Y50576695D01*
X89788679Y50798975D01*
X89807497Y50917784D01*
X89861636Y51024039D01*
X89945961Y51108364D01*
X90052216Y51162503D01*
X90170000Y51181158D01*
X90287784Y51162503D01*
G37*
G36*
X90287784Y49892503D02*
G01*
X90394039Y49838364D01*
X90479097Y49753305D01*
X90551321Y49531025D01*
X90532503Y49412216D01*
X90478364Y49305961D01*
X90394039Y49221636D01*
X90287784Y49167497D01*
X90170000Y49148842D01*
X90052216Y49167497D01*
X89945961Y49221636D01*
X89860903Y49306695D01*
X89788679Y49528975D01*
X89807497Y49647784D01*
X89861636Y49754039D01*
X89945961Y49838364D01*
X90052216Y49892503D01*
X90170000Y49911158D01*
X90287784Y49892503D01*
G37*
G36*
X91557784Y77832503D02*
G01*
X91664039Y77778364D01*
X91749097Y77693305D01*
X91821321Y77471025D01*
X91802503Y77352216D01*
X91748364Y77245961D01*
X91664039Y77161636D01*
X91557784Y77107497D01*
X91440000Y77088842D01*
X91322216Y77107497D01*
X91215961Y77161636D01*
X91130903Y77246695D01*
X91058679Y77468975D01*
X91077497Y77587784D01*
X91131636Y77694039D01*
X91215961Y77778364D01*
X91322216Y77832503D01*
X91440000Y77851158D01*
X91557784Y77832503D01*
G37*
G36*
X91557784Y76562503D02*
G01*
X91664039Y76508364D01*
X91749097Y76423305D01*
X91821321Y76201025D01*
X91802503Y76082216D01*
X91748364Y75975961D01*
X91664039Y75891636D01*
X91557784Y75837497D01*
X91440000Y75818842D01*
X91322216Y75837497D01*
X91215961Y75891636D01*
X91130903Y75976695D01*
X91058679Y76198975D01*
X91077497Y76317784D01*
X91131636Y76424039D01*
X91215961Y76508364D01*
X91322216Y76562503D01*
X91440000Y76581158D01*
X91557784Y76562503D01*
G37*
G36*
X91557784Y75292503D02*
G01*
X91664039Y75238364D01*
X91749097Y75153305D01*
X91821321Y74931025D01*
X91802503Y74812216D01*
X91748364Y74705961D01*
X91664039Y74621636D01*
X91557784Y74567497D01*
X91440000Y74548842D01*
X91322216Y74567497D01*
X91215961Y74621636D01*
X91130903Y74706695D01*
X91058679Y74928975D01*
X91077497Y75047784D01*
X91131636Y75154039D01*
X91215961Y75238364D01*
X91322216Y75292503D01*
X91440000Y75311158D01*
X91557784Y75292503D01*
G37*
G36*
X91557784Y52432503D02*
G01*
X91664039Y52378364D01*
X91749097Y52293305D01*
X91821321Y52071025D01*
X91802503Y51952216D01*
X91748364Y51845961D01*
X91664039Y51761636D01*
X91557784Y51707497D01*
X91440000Y51688842D01*
X91322216Y51707497D01*
X91215961Y51761636D01*
X91130903Y51846695D01*
X91058679Y52068975D01*
X91077497Y52187784D01*
X91131636Y52294039D01*
X91215961Y52378364D01*
X91322216Y52432503D01*
X91440000Y52451158D01*
X91557784Y52432503D01*
G37*
G36*
X91557784Y51162503D02*
G01*
X91664039Y51108364D01*
X91749097Y51023305D01*
X91821321Y50801025D01*
X91802503Y50682216D01*
X91748364Y50575961D01*
X91664039Y50491636D01*
X91557784Y50437497D01*
X91440000Y50418842D01*
X91322216Y50437497D01*
X91215961Y50491636D01*
X91130903Y50576695D01*
X91058679Y50798975D01*
X91077497Y50917784D01*
X91131636Y51024039D01*
X91215961Y51108364D01*
X91322216Y51162503D01*
X91440000Y51181158D01*
X91557784Y51162503D01*
G37*
G36*
X91557784Y49892503D02*
G01*
X91664039Y49838364D01*
X91749097Y49753305D01*
X91821321Y49531025D01*
X91802503Y49412216D01*
X91748364Y49305961D01*
X91664039Y49221636D01*
X91557784Y49167497D01*
X91440000Y49148842D01*
X91322216Y49167497D01*
X91215961Y49221636D01*
X91130903Y49306695D01*
X91058679Y49528975D01*
X91077497Y49647784D01*
X91131636Y49754039D01*
X91215961Y49838364D01*
X91322216Y49892503D01*
X91440000Y49911158D01*
X91557784Y49892503D01*
G37*
G36*
X92827784Y77832503D02*
G01*
X92934039Y77778364D01*
X93019097Y77693305D01*
X93091321Y77471025D01*
X93072503Y77352216D01*
X93018364Y77245961D01*
X92934039Y77161636D01*
X92827784Y77107497D01*
X92710000Y77088842D01*
X92592216Y77107497D01*
X92485961Y77161636D01*
X92400903Y77246695D01*
X92328679Y77468975D01*
X92347497Y77587784D01*
X92401636Y77694039D01*
X92485961Y77778364D01*
X92592216Y77832503D01*
X92710000Y77851158D01*
X92827784Y77832503D01*
G37*
G36*
X92827784Y76562503D02*
G01*
X92934039Y76508364D01*
X93019097Y76423305D01*
X93091321Y76201025D01*
X93072503Y76082216D01*
X93018364Y75975961D01*
X92934039Y75891636D01*
X92827784Y75837497D01*
X92710000Y75818842D01*
X92592216Y75837497D01*
X92485961Y75891636D01*
X92400903Y75976695D01*
X92328679Y76198975D01*
X92347497Y76317784D01*
X92401636Y76424039D01*
X92485961Y76508364D01*
X92592216Y76562503D01*
X92710000Y76581158D01*
X92827784Y76562503D01*
G37*
G36*
X92827784Y75292503D02*
G01*
X92934039Y75238364D01*
X93019097Y75153305D01*
X93091321Y74931025D01*
X93072503Y74812216D01*
X93018364Y74705961D01*
X92934039Y74621636D01*
X92827784Y74567497D01*
X92710000Y74548842D01*
X92592216Y74567497D01*
X92485961Y74621636D01*
X92400903Y74706695D01*
X92328679Y74928975D01*
X92347497Y75047784D01*
X92401636Y75154039D01*
X92485961Y75238364D01*
X92592216Y75292503D01*
X92710000Y75311158D01*
X92827784Y75292503D01*
G37*
G36*
X92827784Y74022503D02*
G01*
X92934039Y73968364D01*
X93019097Y73883305D01*
X93091321Y73661025D01*
X93072503Y73542216D01*
X93018364Y73435961D01*
X92934039Y73351636D01*
X92827784Y73297497D01*
X92710000Y73278842D01*
X92592216Y73297497D01*
X92485961Y73351636D01*
X92400903Y73436695D01*
X92328679Y73658975D01*
X92347497Y73777784D01*
X92401636Y73884039D01*
X92485961Y73968364D01*
X92592216Y74022503D01*
X92710000Y74041158D01*
X92827784Y74022503D01*
G37*
G36*
X92827784Y72752503D02*
G01*
X92934039Y72698364D01*
X93019097Y72613305D01*
X93091321Y72391025D01*
X93072503Y72272216D01*
X93018364Y72165961D01*
X92934039Y72081636D01*
X92827784Y72027497D01*
X92710000Y72008842D01*
X92592216Y72027497D01*
X92485961Y72081636D01*
X92400903Y72166695D01*
X92328679Y72388975D01*
X92347497Y72507784D01*
X92401636Y72614039D01*
X92485961Y72698364D01*
X92592216Y72752503D01*
X92710000Y72771158D01*
X92827784Y72752503D01*
G37*
G36*
X92827784Y71482503D02*
G01*
X92934039Y71428364D01*
X93019097Y71343305D01*
X93091321Y71121025D01*
X93072503Y71002216D01*
X93018364Y70895961D01*
X92934039Y70811636D01*
X92827784Y70757497D01*
X92710000Y70738842D01*
X92592216Y70757497D01*
X92485961Y70811636D01*
X92400903Y70896695D01*
X92328679Y71118975D01*
X92347497Y71237784D01*
X92401636Y71344039D01*
X92485961Y71428364D01*
X92592216Y71482503D01*
X92710000Y71501158D01*
X92827784Y71482503D01*
G37*
G36*
X92827784Y70212503D02*
G01*
X92934039Y70158364D01*
X93019097Y70073305D01*
X93091321Y69851025D01*
X93072503Y69732216D01*
X93018364Y69625961D01*
X92934039Y69541636D01*
X92827784Y69487497D01*
X92710000Y69468842D01*
X92592216Y69487497D01*
X92485961Y69541636D01*
X92400903Y69626695D01*
X92328679Y69848975D01*
X92347497Y69967784D01*
X92401636Y70074039D01*
X92485961Y70158364D01*
X92592216Y70212503D01*
X92710000Y70231158D01*
X92827784Y70212503D01*
G37*
G36*
X92827784Y68942503D02*
G01*
X92934039Y68888364D01*
X93019097Y68803305D01*
X93091321Y68581025D01*
X93072503Y68462216D01*
X93018364Y68355961D01*
X92934039Y68271636D01*
X92827784Y68217497D01*
X92710000Y68198842D01*
X92592216Y68217497D01*
X92485961Y68271636D01*
X92400903Y68356695D01*
X92328679Y68578975D01*
X92347497Y68697784D01*
X92401636Y68804039D01*
X92485961Y68888364D01*
X92592216Y68942503D01*
X92710000Y68961158D01*
X92827784Y68942503D01*
G37*
G36*
X92827784Y67672503D02*
G01*
X92934039Y67618364D01*
X93019097Y67533305D01*
X93091321Y67311025D01*
X93072503Y67192216D01*
X93018364Y67085961D01*
X92934039Y67001636D01*
X92827784Y66947497D01*
X92710000Y66928842D01*
X92592216Y66947497D01*
X92485961Y67001636D01*
X92400903Y67086695D01*
X92328679Y67308975D01*
X92347497Y67427784D01*
X92401636Y67534039D01*
X92485961Y67618364D01*
X92592216Y67672503D01*
X92710000Y67691158D01*
X92827784Y67672503D01*
G37*
G36*
X92827784Y66402503D02*
G01*
X92934039Y66348364D01*
X93019097Y66263305D01*
X93091321Y66041025D01*
X93072503Y65922216D01*
X93018364Y65815961D01*
X92934039Y65731636D01*
X92827784Y65677497D01*
X92710000Y65658842D01*
X92592216Y65677497D01*
X92485961Y65731636D01*
X92400903Y65816695D01*
X92328679Y66038975D01*
X92347497Y66157784D01*
X92401636Y66264039D01*
X92485961Y66348364D01*
X92592216Y66402503D01*
X92710000Y66421158D01*
X92827784Y66402503D01*
G37*
G36*
X92827784Y65132503D02*
G01*
X92934039Y65078364D01*
X93019097Y64993305D01*
X93091321Y64771025D01*
X93072503Y64652216D01*
X93018364Y64545961D01*
X92934039Y64461636D01*
X92827784Y64407497D01*
X92710000Y64388842D01*
X92592216Y64407497D01*
X92485961Y64461636D01*
X92400903Y64546695D01*
X92328679Y64768975D01*
X92347497Y64887784D01*
X92401636Y64994039D01*
X92485961Y65078364D01*
X92592216Y65132503D01*
X92710000Y65151158D01*
X92827784Y65132503D01*
G37*
G36*
X92827784Y63862503D02*
G01*
X92934039Y63808364D01*
X93019097Y63723305D01*
X93091321Y63501025D01*
X93072503Y63382216D01*
X93018364Y63275961D01*
X92934039Y63191636D01*
X92827784Y63137497D01*
X92710000Y63118842D01*
X92592216Y63137497D01*
X92485961Y63191636D01*
X92400903Y63276695D01*
X92328679Y63498975D01*
X92347497Y63617784D01*
X92401636Y63724039D01*
X92485961Y63808364D01*
X92592216Y63862503D01*
X92710000Y63881158D01*
X92827784Y63862503D01*
G37*
G36*
X92827784Y62592503D02*
G01*
X92934039Y62538364D01*
X93019097Y62453305D01*
X93091321Y62231025D01*
X93072503Y62112216D01*
X93018364Y62005961D01*
X92934039Y61921636D01*
X92827784Y61867497D01*
X92710000Y61848842D01*
X92592216Y61867497D01*
X92485961Y61921636D01*
X92400903Y62006695D01*
X92328679Y62228975D01*
X92347497Y62347784D01*
X92401636Y62454039D01*
X92485961Y62538364D01*
X92592216Y62592503D01*
X92710000Y62611158D01*
X92827784Y62592503D01*
G37*
G36*
X92827784Y61322503D02*
G01*
X92934039Y61268364D01*
X93019097Y61183305D01*
X93091321Y60961025D01*
X93072503Y60842216D01*
X93018364Y60735961D01*
X92934039Y60651636D01*
X92827784Y60597497D01*
X92710000Y60578842D01*
X92592216Y60597497D01*
X92485961Y60651636D01*
X92400903Y60736695D01*
X92328679Y60958975D01*
X92347497Y61077784D01*
X92401636Y61184039D01*
X92485961Y61268364D01*
X92592216Y61322503D01*
X92710000Y61341158D01*
X92827784Y61322503D01*
G37*
G36*
X92827784Y60052503D02*
G01*
X92934039Y59998364D01*
X93019097Y59913305D01*
X93091321Y59691025D01*
X93072503Y59572216D01*
X93018364Y59465961D01*
X92934039Y59381636D01*
X92827784Y59327497D01*
X92710000Y59308842D01*
X92592216Y59327497D01*
X92485961Y59381636D01*
X92400903Y59466695D01*
X92328679Y59688975D01*
X92347497Y59807784D01*
X92401636Y59914039D01*
X92485961Y59998364D01*
X92592216Y60052503D01*
X92710000Y60071158D01*
X92827784Y60052503D01*
G37*
G36*
X92827784Y58782503D02*
G01*
X92934039Y58728364D01*
X93019097Y58643305D01*
X93091321Y58421025D01*
X93072503Y58302216D01*
X93018364Y58195961D01*
X92934039Y58111636D01*
X92827784Y58057497D01*
X92710000Y58038842D01*
X92592216Y58057497D01*
X92485961Y58111636D01*
X92400903Y58196695D01*
X92328679Y58418975D01*
X92347497Y58537784D01*
X92401636Y58644039D01*
X92485961Y58728364D01*
X92592216Y58782503D01*
X92710000Y58801158D01*
X92827784Y58782503D01*
G37*
G36*
X92827784Y57512503D02*
G01*
X92934039Y57458364D01*
X93019097Y57373305D01*
X93091321Y57151025D01*
X93072503Y57032216D01*
X93018364Y56925961D01*
X92934039Y56841636D01*
X92827784Y56787497D01*
X92710000Y56768842D01*
X92592216Y56787497D01*
X92485961Y56841636D01*
X92400903Y56926695D01*
X92328679Y57148975D01*
X92347497Y57267784D01*
X92401636Y57374039D01*
X92485961Y57458364D01*
X92592216Y57512503D01*
X92710000Y57531158D01*
X92827784Y57512503D01*
G37*
G36*
X92827784Y56242503D02*
G01*
X92934039Y56188364D01*
X93019097Y56103305D01*
X93091321Y55881025D01*
X93072503Y55762216D01*
X93018364Y55655961D01*
X92934039Y55571636D01*
X92827784Y55517497D01*
X92710000Y55498842D01*
X92592216Y55517497D01*
X92485961Y55571636D01*
X92400903Y55656695D01*
X92328679Y55878975D01*
X92347497Y55997784D01*
X92401636Y56104039D01*
X92485961Y56188364D01*
X92592216Y56242503D01*
X92710000Y56261158D01*
X92827784Y56242503D01*
G37*
G36*
X92827784Y54972503D02*
G01*
X92934039Y54918364D01*
X93019097Y54833305D01*
X93091321Y54611025D01*
X93072503Y54492216D01*
X93018364Y54385961D01*
X92934039Y54301636D01*
X92827784Y54247497D01*
X92710000Y54228842D01*
X92592216Y54247497D01*
X92485961Y54301636D01*
X92400903Y54386695D01*
X92328679Y54608975D01*
X92347497Y54727784D01*
X92401636Y54834039D01*
X92485961Y54918364D01*
X92592216Y54972503D01*
X92710000Y54991158D01*
X92827784Y54972503D01*
G37*
G36*
X92827784Y53702503D02*
G01*
X92934039Y53648364D01*
X93019097Y53563305D01*
X93091321Y53341025D01*
X93072503Y53222216D01*
X93018364Y53115961D01*
X92934039Y53031636D01*
X92827784Y52977497D01*
X92710000Y52958842D01*
X92592216Y52977497D01*
X92485961Y53031636D01*
X92400903Y53116695D01*
X92328679Y53338975D01*
X92347497Y53457784D01*
X92401636Y53564039D01*
X92485961Y53648364D01*
X92592216Y53702503D01*
X92710000Y53721158D01*
X92827784Y53702503D01*
G37*
G36*
X92827784Y52432503D02*
G01*
X92934039Y52378364D01*
X93019097Y52293305D01*
X93091321Y52071025D01*
X93072503Y51952216D01*
X93018364Y51845961D01*
X92934039Y51761636D01*
X92827784Y51707497D01*
X92710000Y51688842D01*
X92592216Y51707497D01*
X92485961Y51761636D01*
X92400903Y51846695D01*
X92328679Y52068975D01*
X92347497Y52187784D01*
X92401636Y52294039D01*
X92485961Y52378364D01*
X92592216Y52432503D01*
X92710000Y52451158D01*
X92827784Y52432503D01*
G37*
G36*
X92827784Y51162503D02*
G01*
X92934039Y51108364D01*
X93019097Y51023305D01*
X93091321Y50801025D01*
X93072503Y50682216D01*
X93018364Y50575961D01*
X92934039Y50491636D01*
X92827784Y50437497D01*
X92710000Y50418842D01*
X92592216Y50437497D01*
X92485961Y50491636D01*
X92400903Y50576695D01*
X92328679Y50798975D01*
X92347497Y50917784D01*
X92401636Y51024039D01*
X92485961Y51108364D01*
X92592216Y51162503D01*
X92710000Y51181158D01*
X92827784Y51162503D01*
G37*
G36*
X92827784Y49892503D02*
G01*
X92934039Y49838364D01*
X93019097Y49753305D01*
X93091321Y49531025D01*
X93072503Y49412216D01*
X93018364Y49305961D01*
X92934039Y49221636D01*
X92827784Y49167497D01*
X92710000Y49148842D01*
X92592216Y49167497D01*
X92485961Y49221636D01*
X92400903Y49306695D01*
X92328679Y49528975D01*
X92347497Y49647784D01*
X92401636Y49754039D01*
X92485961Y49838364D01*
X92592216Y49892503D01*
X92710000Y49911158D01*
X92827784Y49892503D01*
G37*
G36*
X94097784Y77832503D02*
G01*
X94204039Y77778364D01*
X94289097Y77693305D01*
X94361321Y77471025D01*
X94342503Y77352216D01*
X94288364Y77245961D01*
X94204039Y77161636D01*
X94097784Y77107497D01*
X93980000Y77088842D01*
X93862216Y77107497D01*
X93755961Y77161636D01*
X93670903Y77246695D01*
X93598679Y77468975D01*
X93617497Y77587784D01*
X93671636Y77694039D01*
X93755961Y77778364D01*
X93862216Y77832503D01*
X93980000Y77851158D01*
X94097784Y77832503D01*
G37*
G36*
X94097784Y76562503D02*
G01*
X94204039Y76508364D01*
X94289097Y76423305D01*
X94361321Y76201025D01*
X94342503Y76082216D01*
X94288364Y75975961D01*
X94204039Y75891636D01*
X94097784Y75837497D01*
X93980000Y75818842D01*
X93862216Y75837497D01*
X93755961Y75891636D01*
X93670903Y75976695D01*
X93598679Y76198975D01*
X93617497Y76317784D01*
X93671636Y76424039D01*
X93755961Y76508364D01*
X93862216Y76562503D01*
X93980000Y76581158D01*
X94097784Y76562503D01*
G37*
G36*
X94097784Y75292503D02*
G01*
X94204039Y75238364D01*
X94289097Y75153305D01*
X94361321Y74931025D01*
X94342503Y74812216D01*
X94288364Y74705961D01*
X94204039Y74621636D01*
X94097784Y74567497D01*
X93980000Y74548842D01*
X93862216Y74567497D01*
X93755961Y74621636D01*
X93670903Y74706695D01*
X93598679Y74928975D01*
X93617497Y75047784D01*
X93671636Y75154039D01*
X93755961Y75238364D01*
X93862216Y75292503D01*
X93980000Y75311158D01*
X94097784Y75292503D01*
G37*
G36*
X94097784Y74022503D02*
G01*
X94204039Y73968364D01*
X94289097Y73883305D01*
X94361321Y73661025D01*
X94342503Y73542216D01*
X94288364Y73435961D01*
X94204039Y73351636D01*
X94097784Y73297497D01*
X93980000Y73278842D01*
X93862216Y73297497D01*
X93755961Y73351636D01*
X93670903Y73436695D01*
X93598679Y73658975D01*
X93617497Y73777784D01*
X93671636Y73884039D01*
X93755961Y73968364D01*
X93862216Y74022503D01*
X93980000Y74041158D01*
X94097784Y74022503D01*
G37*
G36*
X94097784Y72752503D02*
G01*
X94204039Y72698364D01*
X94289097Y72613305D01*
X94361321Y72391025D01*
X94342503Y72272216D01*
X94288364Y72165961D01*
X94204039Y72081636D01*
X94097784Y72027497D01*
X93980000Y72008842D01*
X93862216Y72027497D01*
X93755961Y72081636D01*
X93670903Y72166695D01*
X93598679Y72388975D01*
X93617497Y72507784D01*
X93671636Y72614039D01*
X93755961Y72698364D01*
X93862216Y72752503D01*
X93980000Y72771158D01*
X94097784Y72752503D01*
G37*
G36*
X94097784Y71482503D02*
G01*
X94204039Y71428364D01*
X94289097Y71343305D01*
X94361321Y71121025D01*
X94342503Y71002216D01*
X94288364Y70895961D01*
X94204039Y70811636D01*
X94097784Y70757497D01*
X93980000Y70738842D01*
X93862216Y70757497D01*
X93755961Y70811636D01*
X93670903Y70896695D01*
X93598679Y71118975D01*
X93617497Y71237784D01*
X93671636Y71344039D01*
X93755961Y71428364D01*
X93862216Y71482503D01*
X93980000Y71501158D01*
X94097784Y71482503D01*
G37*
G36*
X94097784Y70212503D02*
G01*
X94204039Y70158364D01*
X94289097Y70073305D01*
X94361321Y69851025D01*
X94342503Y69732216D01*
X94288364Y69625961D01*
X94204039Y69541636D01*
X94097784Y69487497D01*
X93980000Y69468842D01*
X93862216Y69487497D01*
X93755961Y69541636D01*
X93670903Y69626695D01*
X93598679Y69848975D01*
X93617497Y69967784D01*
X93671636Y70074039D01*
X93755961Y70158364D01*
X93862216Y70212503D01*
X93980000Y70231158D01*
X94097784Y70212503D01*
G37*
G36*
X94097784Y68942503D02*
G01*
X94204039Y68888364D01*
X94289097Y68803305D01*
X94361321Y68581025D01*
X94342503Y68462216D01*
X94288364Y68355961D01*
X94204039Y68271636D01*
X94097784Y68217497D01*
X93980000Y68198842D01*
X93862216Y68217497D01*
X93755961Y68271636D01*
X93670903Y68356695D01*
X93598679Y68578975D01*
X93617497Y68697784D01*
X93671636Y68804039D01*
X93755961Y68888364D01*
X93862216Y68942503D01*
X93980000Y68961158D01*
X94097784Y68942503D01*
G37*
G36*
X94097784Y67672503D02*
G01*
X94204039Y67618364D01*
X94289097Y67533305D01*
X94361321Y67311025D01*
X94342503Y67192216D01*
X94288364Y67085961D01*
X94204039Y67001636D01*
X94097784Y66947497D01*
X93980000Y66928842D01*
X93862216Y66947497D01*
X93755961Y67001636D01*
X93670903Y67086695D01*
X93598679Y67308975D01*
X93617497Y67427784D01*
X93671636Y67534039D01*
X93755961Y67618364D01*
X93862216Y67672503D01*
X93980000Y67691158D01*
X94097784Y67672503D01*
G37*
G36*
X94097784Y66402503D02*
G01*
X94204039Y66348364D01*
X94289097Y66263305D01*
X94361321Y66041025D01*
X94342503Y65922216D01*
X94288364Y65815961D01*
X94204039Y65731636D01*
X94097784Y65677497D01*
X93980000Y65658842D01*
X93862216Y65677497D01*
X93755961Y65731636D01*
X93670903Y65816695D01*
X93598679Y66038975D01*
X93617497Y66157784D01*
X93671636Y66264039D01*
X93755961Y66348364D01*
X93862216Y66402503D01*
X93980000Y66421158D01*
X94097784Y66402503D01*
G37*
G36*
X94097784Y65132503D02*
G01*
X94204039Y65078364D01*
X94289097Y64993305D01*
X94361321Y64771025D01*
X94342503Y64652216D01*
X94288364Y64545961D01*
X94204039Y64461636D01*
X94097784Y64407497D01*
X93980000Y64388842D01*
X93862216Y64407497D01*
X93755961Y64461636D01*
X93670903Y64546695D01*
X93598679Y64768975D01*
X93617497Y64887784D01*
X93671636Y64994039D01*
X93755961Y65078364D01*
X93862216Y65132503D01*
X93980000Y65151158D01*
X94097784Y65132503D01*
G37*
G36*
X94097784Y63862503D02*
G01*
X94204039Y63808364D01*
X94289097Y63723305D01*
X94361321Y63501025D01*
X94342503Y63382216D01*
X94288364Y63275961D01*
X94204039Y63191636D01*
X94097784Y63137497D01*
X93980000Y63118842D01*
X93862216Y63137497D01*
X93755961Y63191636D01*
X93670903Y63276695D01*
X93598679Y63498975D01*
X93617497Y63617784D01*
X93671636Y63724039D01*
X93755961Y63808364D01*
X93862216Y63862503D01*
X93980000Y63881158D01*
X94097784Y63862503D01*
G37*
G36*
X94097784Y62592503D02*
G01*
X94204039Y62538364D01*
X94289097Y62453305D01*
X94361321Y62231025D01*
X94342503Y62112216D01*
X94288364Y62005961D01*
X94204039Y61921636D01*
X94097784Y61867497D01*
X93980000Y61848842D01*
X93862216Y61867497D01*
X93755961Y61921636D01*
X93670903Y62006695D01*
X93598679Y62228975D01*
X93617497Y62347784D01*
X93671636Y62454039D01*
X93755961Y62538364D01*
X93862216Y62592503D01*
X93980000Y62611158D01*
X94097784Y62592503D01*
G37*
G36*
X94097784Y61322503D02*
G01*
X94204039Y61268364D01*
X94289097Y61183305D01*
X94361321Y60961025D01*
X94342503Y60842216D01*
X94288364Y60735961D01*
X94204039Y60651636D01*
X94097784Y60597497D01*
X93980000Y60578842D01*
X93862216Y60597497D01*
X93755961Y60651636D01*
X93670903Y60736695D01*
X93598679Y60958975D01*
X93617497Y61077784D01*
X93671636Y61184039D01*
X93755961Y61268364D01*
X93862216Y61322503D01*
X93980000Y61341158D01*
X94097784Y61322503D01*
G37*
G36*
X94097784Y60052503D02*
G01*
X94204039Y59998364D01*
X94289097Y59913305D01*
X94361321Y59691025D01*
X94342503Y59572216D01*
X94288364Y59465961D01*
X94204039Y59381636D01*
X94097784Y59327497D01*
X93980000Y59308842D01*
X93862216Y59327497D01*
X93755961Y59381636D01*
X93670903Y59466695D01*
X93598679Y59688975D01*
X93617497Y59807784D01*
X93671636Y59914039D01*
X93755961Y59998364D01*
X93862216Y60052503D01*
X93980000Y60071158D01*
X94097784Y60052503D01*
G37*
G36*
X94097784Y58782503D02*
G01*
X94204039Y58728364D01*
X94289097Y58643305D01*
X94361321Y58421025D01*
X94342503Y58302216D01*
X94288364Y58195961D01*
X94204039Y58111636D01*
X94097784Y58057497D01*
X93980000Y58038842D01*
X93862216Y58057497D01*
X93755961Y58111636D01*
X93670903Y58196695D01*
X93598679Y58418975D01*
X93617497Y58537784D01*
X93671636Y58644039D01*
X93755961Y58728364D01*
X93862216Y58782503D01*
X93980000Y58801158D01*
X94097784Y58782503D01*
G37*
G36*
X94097784Y57512503D02*
G01*
X94204039Y57458364D01*
X94289097Y57373305D01*
X94361321Y57151025D01*
X94342503Y57032216D01*
X94288364Y56925961D01*
X94204039Y56841636D01*
X94097784Y56787497D01*
X93980000Y56768842D01*
X93862216Y56787497D01*
X93755961Y56841636D01*
X93670903Y56926695D01*
X93598679Y57148975D01*
X93617497Y57267784D01*
X93671636Y57374039D01*
X93755961Y57458364D01*
X93862216Y57512503D01*
X93980000Y57531158D01*
X94097784Y57512503D01*
G37*
G36*
X94097784Y56242503D02*
G01*
X94204039Y56188364D01*
X94289097Y56103305D01*
X94361321Y55881025D01*
X94342503Y55762216D01*
X94288364Y55655961D01*
X94204039Y55571636D01*
X94097784Y55517497D01*
X93980000Y55498842D01*
X93862216Y55517497D01*
X93755961Y55571636D01*
X93670903Y55656695D01*
X93598679Y55878975D01*
X93617497Y55997784D01*
X93671636Y56104039D01*
X93755961Y56188364D01*
X93862216Y56242503D01*
X93980000Y56261158D01*
X94097784Y56242503D01*
G37*
G36*
X94097784Y54972503D02*
G01*
X94204039Y54918364D01*
X94289097Y54833305D01*
X94361321Y54611025D01*
X94342503Y54492216D01*
X94288364Y54385961D01*
X94204039Y54301636D01*
X94097784Y54247497D01*
X93980000Y54228842D01*
X93862216Y54247497D01*
X93755961Y54301636D01*
X93670903Y54386695D01*
X93598679Y54608975D01*
X93617497Y54727784D01*
X93671636Y54834039D01*
X93755961Y54918364D01*
X93862216Y54972503D01*
X93980000Y54991158D01*
X94097784Y54972503D01*
G37*
G36*
X94097784Y53702503D02*
G01*
X94204039Y53648364D01*
X94289097Y53563305D01*
X94361321Y53341025D01*
X94342503Y53222216D01*
X94288364Y53115961D01*
X94204039Y53031636D01*
X94097784Y52977497D01*
X93980000Y52958842D01*
X93862216Y52977497D01*
X93755961Y53031636D01*
X93670903Y53116695D01*
X93598679Y53338975D01*
X93617497Y53457784D01*
X93671636Y53564039D01*
X93755961Y53648364D01*
X93862216Y53702503D01*
X93980000Y53721158D01*
X94097784Y53702503D01*
G37*
G36*
X94097784Y52432503D02*
G01*
X94204039Y52378364D01*
X94289097Y52293305D01*
X94361321Y52071025D01*
X94342503Y51952216D01*
X94288364Y51845961D01*
X94204039Y51761636D01*
X94097784Y51707497D01*
X93980000Y51688842D01*
X93862216Y51707497D01*
X93755961Y51761636D01*
X93670903Y51846695D01*
X93598679Y52068975D01*
X93617497Y52187784D01*
X93671636Y52294039D01*
X93755961Y52378364D01*
X93862216Y52432503D01*
X93980000Y52451158D01*
X94097784Y52432503D01*
G37*
G36*
X94097784Y51162503D02*
G01*
X94204039Y51108364D01*
X94289097Y51023305D01*
X94361321Y50801025D01*
X94342503Y50682216D01*
X94288364Y50575961D01*
X94204039Y50491636D01*
X94097784Y50437497D01*
X93980000Y50418842D01*
X93862216Y50437497D01*
X93755961Y50491636D01*
X93670903Y50576695D01*
X93598679Y50798975D01*
X93617497Y50917784D01*
X93671636Y51024039D01*
X93755961Y51108364D01*
X93862216Y51162503D01*
X93980000Y51181158D01*
X94097784Y51162503D01*
G37*
G36*
X94097784Y49892503D02*
G01*
X94204039Y49838364D01*
X94289097Y49753305D01*
X94361321Y49531025D01*
X94342503Y49412216D01*
X94288364Y49305961D01*
X94204039Y49221636D01*
X94097784Y49167497D01*
X93980000Y49148842D01*
X93862216Y49167497D01*
X93755961Y49221636D01*
X93670903Y49306695D01*
X93598679Y49528975D01*
X93617497Y49647784D01*
X93671636Y49754039D01*
X93755961Y49838364D01*
X93862216Y49892503D01*
X93980000Y49911158D01*
X94097784Y49892503D01*
G37*
G36*
X95367784Y77832503D02*
G01*
X95474039Y77778364D01*
X95559097Y77693305D01*
X95631321Y77471025D01*
X95612503Y77352216D01*
X95558364Y77245961D01*
X95474039Y77161636D01*
X95367784Y77107497D01*
X95250000Y77088842D01*
X95132216Y77107497D01*
X95025961Y77161636D01*
X94940903Y77246695D01*
X94868679Y77468975D01*
X94887497Y77587784D01*
X94941636Y77694039D01*
X95025961Y77778364D01*
X95132216Y77832503D01*
X95250000Y77851158D01*
X95367784Y77832503D01*
G37*
G36*
X95367784Y76562503D02*
G01*
X95474039Y76508364D01*
X95559097Y76423305D01*
X95631321Y76201025D01*
X95612503Y76082216D01*
X95558364Y75975961D01*
X95474039Y75891636D01*
X95367784Y75837497D01*
X95250000Y75818842D01*
X95132216Y75837497D01*
X95025961Y75891636D01*
X94940903Y75976695D01*
X94868679Y76198975D01*
X94887497Y76317784D01*
X94941636Y76424039D01*
X95025961Y76508364D01*
X95132216Y76562503D01*
X95250000Y76581158D01*
X95367784Y76562503D01*
G37*
G36*
X95367784Y75292503D02*
G01*
X95474039Y75238364D01*
X95559097Y75153305D01*
X95631321Y74931025D01*
X95612503Y74812216D01*
X95558364Y74705961D01*
X95474039Y74621636D01*
X95367784Y74567497D01*
X95250000Y74548842D01*
X95132216Y74567497D01*
X95025961Y74621636D01*
X94940903Y74706695D01*
X94868679Y74928975D01*
X94887497Y75047784D01*
X94941636Y75154039D01*
X95025961Y75238364D01*
X95132216Y75292503D01*
X95250000Y75311158D01*
X95367784Y75292503D01*
G37*
G36*
X95367784Y74022503D02*
G01*
X95474039Y73968364D01*
X95559097Y73883305D01*
X95631321Y73661025D01*
X95612503Y73542216D01*
X95558364Y73435961D01*
X95474039Y73351636D01*
X95367784Y73297497D01*
X95250000Y73278842D01*
X95132216Y73297497D01*
X95025961Y73351636D01*
X94940903Y73436695D01*
X94868679Y73658975D01*
X94887497Y73777784D01*
X94941636Y73884039D01*
X95025961Y73968364D01*
X95132216Y74022503D01*
X95250000Y74041158D01*
X95367784Y74022503D01*
G37*
G36*
X95367784Y72752503D02*
G01*
X95474039Y72698364D01*
X95559097Y72613305D01*
X95631321Y72391025D01*
X95612503Y72272216D01*
X95558364Y72165961D01*
X95474039Y72081636D01*
X95367784Y72027497D01*
X95250000Y72008842D01*
X95132216Y72027497D01*
X95025961Y72081636D01*
X94940903Y72166695D01*
X94868679Y72388975D01*
X94887497Y72507784D01*
X94941636Y72614039D01*
X95025961Y72698364D01*
X95132216Y72752503D01*
X95250000Y72771158D01*
X95367784Y72752503D01*
G37*
G36*
X95367784Y71482503D02*
G01*
X95474039Y71428364D01*
X95559097Y71343305D01*
X95631321Y71121025D01*
X95612503Y71002216D01*
X95558364Y70895961D01*
X95474039Y70811636D01*
X95367784Y70757497D01*
X95250000Y70738842D01*
X95132216Y70757497D01*
X95025961Y70811636D01*
X94940903Y70896695D01*
X94868679Y71118975D01*
X94887497Y71237784D01*
X94941636Y71344039D01*
X95025961Y71428364D01*
X95132216Y71482503D01*
X95250000Y71501158D01*
X95367784Y71482503D01*
G37*
G36*
X95367784Y70212503D02*
G01*
X95474039Y70158364D01*
X95559097Y70073305D01*
X95631321Y69851025D01*
X95612503Y69732216D01*
X95558364Y69625961D01*
X95474039Y69541636D01*
X95367784Y69487497D01*
X95250000Y69468842D01*
X95132216Y69487497D01*
X95025961Y69541636D01*
X94940903Y69626695D01*
X94868679Y69848975D01*
X94887497Y69967784D01*
X94941636Y70074039D01*
X95025961Y70158364D01*
X95132216Y70212503D01*
X95250000Y70231158D01*
X95367784Y70212503D01*
G37*
G36*
X95367784Y68942503D02*
G01*
X95474039Y68888364D01*
X95559097Y68803305D01*
X95631321Y68581025D01*
X95612503Y68462216D01*
X95558364Y68355961D01*
X95474039Y68271636D01*
X95367784Y68217497D01*
X95250000Y68198842D01*
X95132216Y68217497D01*
X95025961Y68271636D01*
X94940903Y68356695D01*
X94868679Y68578975D01*
X94887497Y68697784D01*
X94941636Y68804039D01*
X95025961Y68888364D01*
X95132216Y68942503D01*
X95250000Y68961158D01*
X95367784Y68942503D01*
G37*
G36*
X95367784Y67672503D02*
G01*
X95474039Y67618364D01*
X95559097Y67533305D01*
X95631321Y67311025D01*
X95612503Y67192216D01*
X95558364Y67085961D01*
X95474039Y67001636D01*
X95367784Y66947497D01*
X95250000Y66928842D01*
X95132216Y66947497D01*
X95025961Y67001636D01*
X94940903Y67086695D01*
X94868679Y67308975D01*
X94887497Y67427784D01*
X94941636Y67534039D01*
X95025961Y67618364D01*
X95132216Y67672503D01*
X95250000Y67691158D01*
X95367784Y67672503D01*
G37*
G36*
X95367784Y66402503D02*
G01*
X95474039Y66348364D01*
X95559097Y66263305D01*
X95631321Y66041025D01*
X95612503Y65922216D01*
X95558364Y65815961D01*
X95474039Y65731636D01*
X95367784Y65677497D01*
X95250000Y65658842D01*
X95132216Y65677497D01*
X95025961Y65731636D01*
X94940903Y65816695D01*
X94868679Y66038975D01*
X94887497Y66157784D01*
X94941636Y66264039D01*
X95025961Y66348364D01*
X95132216Y66402503D01*
X95250000Y66421158D01*
X95367784Y66402503D01*
G37*
G36*
X95367784Y65132503D02*
G01*
X95474039Y65078364D01*
X95559097Y64993305D01*
X95631321Y64771025D01*
X95612503Y64652216D01*
X95558364Y64545961D01*
X95474039Y64461636D01*
X95367784Y64407497D01*
X95250000Y64388842D01*
X95132216Y64407497D01*
X95025961Y64461636D01*
X94940903Y64546695D01*
X94868679Y64768975D01*
X94887497Y64887784D01*
X94941636Y64994039D01*
X95025961Y65078364D01*
X95132216Y65132503D01*
X95250000Y65151158D01*
X95367784Y65132503D01*
G37*
G36*
X95367784Y63862503D02*
G01*
X95474039Y63808364D01*
X95559097Y63723305D01*
X95631321Y63501025D01*
X95612503Y63382216D01*
X95558364Y63275961D01*
X95474039Y63191636D01*
X95367784Y63137497D01*
X95250000Y63118842D01*
X95132216Y63137497D01*
X95025961Y63191636D01*
X94940903Y63276695D01*
X94868679Y63498975D01*
X94887497Y63617784D01*
X94941636Y63724039D01*
X95025961Y63808364D01*
X95132216Y63862503D01*
X95250000Y63881158D01*
X95367784Y63862503D01*
G37*
G36*
X95367784Y62592503D02*
G01*
X95474039Y62538364D01*
X95559097Y62453305D01*
X95631321Y62231025D01*
X95612503Y62112216D01*
X95558364Y62005961D01*
X95474039Y61921636D01*
X95367784Y61867497D01*
X95250000Y61848842D01*
X95132216Y61867497D01*
X95025961Y61921636D01*
X94940903Y62006695D01*
X94868679Y62228975D01*
X94887497Y62347784D01*
X94941636Y62454039D01*
X95025961Y62538364D01*
X95132216Y62592503D01*
X95250000Y62611158D01*
X95367784Y62592503D01*
G37*
G36*
X95367784Y61322503D02*
G01*
X95474039Y61268364D01*
X95559097Y61183305D01*
X95631321Y60961025D01*
X95612503Y60842216D01*
X95558364Y60735961D01*
X95474039Y60651636D01*
X95367784Y60597497D01*
X95250000Y60578842D01*
X95132216Y60597497D01*
X95025961Y60651636D01*
X94940903Y60736695D01*
X94868679Y60958975D01*
X94887497Y61077784D01*
X94941636Y61184039D01*
X95025961Y61268364D01*
X95132216Y61322503D01*
X95250000Y61341158D01*
X95367784Y61322503D01*
G37*
G36*
X95367784Y60052503D02*
G01*
X95474039Y59998364D01*
X95559097Y59913305D01*
X95631321Y59691025D01*
X95612503Y59572216D01*
X95558364Y59465961D01*
X95474039Y59381636D01*
X95367784Y59327497D01*
X95250000Y59308842D01*
X95132216Y59327497D01*
X95025961Y59381636D01*
X94940903Y59466695D01*
X94868679Y59688975D01*
X94887497Y59807784D01*
X94941636Y59914039D01*
X95025961Y59998364D01*
X95132216Y60052503D01*
X95250000Y60071158D01*
X95367784Y60052503D01*
G37*
G36*
X95367784Y58782503D02*
G01*
X95474039Y58728364D01*
X95559097Y58643305D01*
X95631321Y58421025D01*
X95612503Y58302216D01*
X95558364Y58195961D01*
X95474039Y58111636D01*
X95367784Y58057497D01*
X95250000Y58038842D01*
X95132216Y58057497D01*
X95025961Y58111636D01*
X94940903Y58196695D01*
X94868679Y58418975D01*
X94887497Y58537784D01*
X94941636Y58644039D01*
X95025961Y58728364D01*
X95132216Y58782503D01*
X95250000Y58801158D01*
X95367784Y58782503D01*
G37*
G36*
X95367784Y57512503D02*
G01*
X95474039Y57458364D01*
X95559097Y57373305D01*
X95631321Y57151025D01*
X95612503Y57032216D01*
X95558364Y56925961D01*
X95474039Y56841636D01*
X95367784Y56787497D01*
X95250000Y56768842D01*
X95132216Y56787497D01*
X95025961Y56841636D01*
X94940903Y56926695D01*
X94868679Y57148975D01*
X94887497Y57267784D01*
X94941636Y57374039D01*
X95025961Y57458364D01*
X95132216Y57512503D01*
X95250000Y57531158D01*
X95367784Y57512503D01*
G37*
G36*
X95367784Y56242503D02*
G01*
X95474039Y56188364D01*
X95559097Y56103305D01*
X95631321Y55881025D01*
X95612503Y55762216D01*
X95558364Y55655961D01*
X95474039Y55571636D01*
X95367784Y55517497D01*
X95250000Y55498842D01*
X95132216Y55517497D01*
X95025961Y55571636D01*
X94940903Y55656695D01*
X94868679Y55878975D01*
X94887497Y55997784D01*
X94941636Y56104039D01*
X95025961Y56188364D01*
X95132216Y56242503D01*
X95250000Y56261158D01*
X95367784Y56242503D01*
G37*
G36*
X95367784Y54972503D02*
G01*
X95474039Y54918364D01*
X95559097Y54833305D01*
X95631321Y54611025D01*
X95612503Y54492216D01*
X95558364Y54385961D01*
X95474039Y54301636D01*
X95367784Y54247497D01*
X95250000Y54228842D01*
X95132216Y54247497D01*
X95025961Y54301636D01*
X94940903Y54386695D01*
X94868679Y54608975D01*
X94887497Y54727784D01*
X94941636Y54834039D01*
X95025961Y54918364D01*
X95132216Y54972503D01*
X95250000Y54991158D01*
X95367784Y54972503D01*
G37*
G36*
X95367784Y53702503D02*
G01*
X95474039Y53648364D01*
X95559097Y53563305D01*
X95631321Y53341025D01*
X95612503Y53222216D01*
X95558364Y53115961D01*
X95474039Y53031636D01*
X95367784Y52977497D01*
X95250000Y52958842D01*
X95132216Y52977497D01*
X95025961Y53031636D01*
X94940903Y53116695D01*
X94868679Y53338975D01*
X94887497Y53457784D01*
X94941636Y53564039D01*
X95025961Y53648364D01*
X95132216Y53702503D01*
X95250000Y53721158D01*
X95367784Y53702503D01*
G37*
G36*
X95367784Y52432503D02*
G01*
X95474039Y52378364D01*
X95559097Y52293305D01*
X95631321Y52071025D01*
X95612503Y51952216D01*
X95558364Y51845961D01*
X95474039Y51761636D01*
X95367784Y51707497D01*
X95250000Y51688842D01*
X95132216Y51707497D01*
X95025961Y51761636D01*
X94940903Y51846695D01*
X94868679Y52068975D01*
X94887497Y52187784D01*
X94941636Y52294039D01*
X95025961Y52378364D01*
X95132216Y52432503D01*
X95250000Y52451158D01*
X95367784Y52432503D01*
G37*
G36*
X95367784Y51162503D02*
G01*
X95474039Y51108364D01*
X95559097Y51023305D01*
X95631321Y50801025D01*
X95612503Y50682216D01*
X95558364Y50575961D01*
X95474039Y50491636D01*
X95367784Y50437497D01*
X95250000Y50418842D01*
X95132216Y50437497D01*
X95025961Y50491636D01*
X94940903Y50576695D01*
X94868679Y50798975D01*
X94887497Y50917784D01*
X94941636Y51024039D01*
X95025961Y51108364D01*
X95132216Y51162503D01*
X95250000Y51181158D01*
X95367784Y51162503D01*
G37*
%TD*%
D12*
%TO.C,R55*%
X111379000Y89725000D03*
X111379000Y88075000D03*
%TD*%
D13*
%TO.C,D1*%
X72108000Y91440000D03*
X71148000Y91440000D03*
%TD*%
D14*
%TO.C,C70*%
X132956000Y95504000D03*
X134506000Y95504000D03*
%TD*%
D15*
%TO.C,R68*%
X103442000Y92456000D03*
X105092000Y92456000D03*
%TD*%
D16*
%TO.C,R9*%
X102235000Y9462000D03*
X102235000Y11112000D03*
%TD*%
D17*
%TO.C,A.1*%
X139839700Y86360000D03*
X138798300Y86360000D03*
%TD*%
D18*
%TO.C,SW2*%
X137450000Y2921000D03*
X141950000Y2921000D03*
D19*
X136200000Y5421000D03*
X143200000Y5421000D03*
%TD*%
D20*
%TO.C,U1*%
X93525000Y40750000D03*
X92255000Y40750000D03*
X90985000Y40750000D03*
X89715000Y40750000D03*
X88445000Y40750000D03*
X87175000Y40750000D03*
X85905000Y40750000D03*
X84635000Y40750000D03*
X83365000Y40750000D03*
X82095000Y40750000D03*
X80825000Y40750000D03*
X79555000Y40750000D03*
X78285000Y40750000D03*
X77015000Y40750000D03*
X75745000Y40750000D03*
X74475000Y40750000D03*
X73205000Y40750000D03*
X71935000Y40750000D03*
X70665000Y40750000D03*
X70665000Y22750000D03*
X71935000Y22750000D03*
X73205000Y22750000D03*
X74475000Y22750000D03*
X75745000Y22750000D03*
X77015000Y22750000D03*
X78285000Y22750000D03*
X79555000Y22750000D03*
X80825000Y22750000D03*
X82095000Y22750000D03*
X83365000Y22750000D03*
X84635000Y22750000D03*
X85905000Y22750000D03*
X87175000Y22750000D03*
X88445000Y22750000D03*
X89715000Y22750000D03*
X90985000Y22750000D03*
X92255000Y22750000D03*
X93525000Y22750000D03*
D21*
X87125000Y34650000D03*
X85725000Y34650000D03*
X84325000Y34650000D03*
X84325000Y33250000D03*
X84325000Y31850000D03*
X85725000Y31850000D03*
X87125000Y31850000D03*
X87125000Y33250000D03*
X85725000Y33250000D03*
%TD*%
D22*
%TO.C,C27*%
X46990000Y61023000D03*
X46990000Y62573000D03*
%TD*%
D23*
%TO.C,C11*%
X43701000Y66802000D03*
X42151000Y66802000D03*
%TD*%
D24*
%TO.C,TP1*%
X31750000Y17780000D03*
%TD*%
D25*
%TO.C,U17*%
X129255900Y94168000D03*
X129255900Y93218000D03*
X129255900Y92268000D03*
X131856100Y92268000D03*
X131856100Y94168000D03*
%TD*%
D26*
%TO.C,C55*%
X106807000Y89675000D03*
X106807000Y88125000D03*
%TD*%
D24*
%TO.C,TP11*%
X100330000Y55880000D03*
%TD*%
D12*
%TO.C,R67*%
X85217000Y89598000D03*
X85217000Y87948000D03*
%TD*%
D23*
%TO.C,C1*%
X91453000Y43434000D03*
X89903000Y43434000D03*
%TD*%
D24*
%TO.C,TP41*%
X63500000Y62230000D03*
%TD*%
D27*
%TO.C,U9*%
X38620000Y87425000D03*
X39120000Y87425000D03*
X39620000Y87425000D03*
X40120000Y87425000D03*
X40120000Y90375000D03*
X39620000Y90375000D03*
X39120000Y90375000D03*
X38620000Y90375000D03*
%TD*%
D24*
%TO.C,TP22*%
X87630000Y82550000D03*
%TD*%
D27*
%TO.C,U8*%
X42430000Y87425000D03*
X42930000Y87425000D03*
X43430000Y87425000D03*
X43930000Y87425000D03*
X43930000Y90375000D03*
X43430000Y90375000D03*
X42930000Y90375000D03*
X42430000Y90375000D03*
%TD*%
D28*
%TO.C,C.1*%
X141478000Y84124800D03*
X142290800Y84124800D03*
%TD*%
D26*
%TO.C,C38*%
X45466000Y26683000D03*
X45466000Y25133000D03*
%TD*%
D22*
%TO.C,C8*%
X87630000Y43294000D03*
X87630000Y44844000D03*
%TD*%
D16*
%TO.C,R37*%
X32639000Y9589000D03*
X32639000Y11239000D03*
%TD*%
D26*
%TO.C,C23*%
X51562000Y62573000D03*
X51562000Y61023000D03*
%TD*%
D29*
%TO.C,R57*%
X126174000Y92456000D03*
X124524000Y92456000D03*
%TD*%
D16*
%TO.C,R65*%
X135001000Y82614000D03*
X135001000Y84264000D03*
%TD*%
D30*
%TO.C,JP7*%
X32385000Y27419300D03*
X32385000Y28460700D03*
%TD*%
D24*
%TO.C,TP21*%
X67310000Y30480000D03*
%TD*%
D31*
%TO.C,F2*%
X111784000Y18669000D03*
X114784000Y18669000D03*
%TD*%
D32*
%TO.C,FID3*%
X5080000Y5080000D03*
%TD*%
D12*
%TO.C,R2*%
X125969000Y19779000D03*
X125969000Y18129000D03*
%TD*%
D33*
%TO.C,U4*%
X48046000Y72870000D03*
X48046000Y72370000D03*
X48046000Y71870000D03*
X48046000Y71370000D03*
X48046000Y70870000D03*
X48046000Y70370000D03*
X48046000Y69870000D03*
X48046000Y69370000D03*
D34*
X48796000Y68620000D03*
X49296000Y68620000D03*
X49796000Y68620000D03*
X50296000Y68620000D03*
X50796000Y68620000D03*
X51296000Y68620000D03*
X51796000Y68620000D03*
X52296000Y68620000D03*
D33*
X53046000Y69370000D03*
X53046000Y69870000D03*
X53046000Y70370000D03*
X53046000Y70870000D03*
X53046000Y71370000D03*
X53046000Y71870000D03*
X53046000Y72370000D03*
X53046000Y72870000D03*
D34*
X52296000Y73620000D03*
X51796000Y73620000D03*
X51296000Y73620000D03*
X50796000Y73620000D03*
X50296000Y73620000D03*
X49796000Y73620000D03*
X49296000Y73620000D03*
X48796000Y73620000D03*
D35*
X50546000Y71120000D03*
%TD*%
D36*
%TO.C,D17*%
X119027000Y95250000D03*
X119987000Y95250000D03*
%TD*%
D15*
%TO.C,R43*%
X140526000Y91604000D03*
X142176000Y91604000D03*
%TD*%
D23*
%TO.C,C88*%
X88278000Y90932000D03*
X86728000Y90932000D03*
%TD*%
D22*
%TO.C,C54*%
X78994000Y14465000D03*
X78994000Y16015000D03*
%TD*%
D16*
%TO.C,R75*%
X80645000Y91123000D03*
X80645000Y92773000D03*
%TD*%
D14*
%TO.C,C81*%
X108826000Y95631000D03*
X110376000Y95631000D03*
%TD*%
D26*
%TO.C,C44*%
X54483000Y85357000D03*
X54483000Y83807000D03*
%TD*%
D23*
%TO.C,C61*%
X140094000Y88302000D03*
X138544000Y88302000D03*
%TD*%
D26*
%TO.C,C28*%
X39116000Y19825000D03*
X39116000Y18275000D03*
%TD*%
D37*
%TO.C,C65*%
X112535000Y24511000D03*
X117335000Y24511000D03*
%TD*%
D24*
%TO.C,TP18*%
X102870000Y59690000D03*
%TD*%
D12*
%TO.C,R29*%
X42672000Y19875000D03*
X42672000Y18225000D03*
%TD*%
%TO.C,R66*%
X82169000Y89598000D03*
X82169000Y87948000D03*
%TD*%
D26*
%TO.C,C56*%
X58445400Y85357000D03*
X58445400Y83807000D03*
%TD*%
D22*
%TO.C,C18*%
X91440000Y82537000D03*
X91440000Y84087000D03*
%TD*%
D15*
%TO.C,R54*%
X111126000Y92456000D03*
X112776000Y92456000D03*
%TD*%
D38*
%TO.C,D6*%
X39050000Y71912100D03*
X38100000Y71912100D03*
X37150000Y71912100D03*
X37150000Y69311900D03*
X38100000Y69312000D03*
X39050000Y69311900D03*
%TD*%
D16*
%TO.C,R25*%
X43942000Y60960000D03*
X43942000Y62610000D03*
%TD*%
D27*
%TO.C,U10*%
X141732000Y87032000D03*
X142232000Y87032000D03*
X142732000Y87032000D03*
X143232000Y87032000D03*
X143232000Y89982000D03*
X142732000Y89982000D03*
X142232000Y89982000D03*
X141732000Y89982000D03*
%TD*%
D14*
%TO.C,C89*%
X100825000Y67564000D03*
X102375000Y67564000D03*
%TD*%
D24*
%TO.C,TP2*%
X52070000Y30480000D03*
%TD*%
D39*
%TO.C,ST3*%
X149860000Y2540000D03*
%TD*%
D15*
%TO.C,R32*%
X127953000Y21717000D03*
X129603000Y21717000D03*
%TD*%
D14*
%TO.C,C90*%
X100825000Y74041000D03*
X102375000Y74041000D03*
%TD*%
D40*
%TO.C,C6*%
X64770000Y27800000D03*
X64770000Y23000000D03*
%TD*%
D14*
%TO.C,C2*%
X93459000Y43434000D03*
X95009000Y43434000D03*
%TD*%
D12*
%TO.C,R42*%
X24130000Y16065000D03*
X24130000Y14415000D03*
%TD*%
D16*
%TO.C,R45*%
X109855000Y88075000D03*
X109855000Y89725000D03*
%TD*%
%TO.C,R52*%
X127635000Y92393000D03*
X127635000Y94043000D03*
%TD*%
D29*
%TO.C,R70*%
X121602000Y93980000D03*
X119952000Y93980000D03*
%TD*%
D26*
%TO.C,C57*%
X60071000Y85344000D03*
X60071000Y83794000D03*
%TD*%
D29*
%TO.C,R48*%
X99440000Y93980000D03*
X97790000Y93980000D03*
%TD*%
D41*
%TO.C,L3*%
X54610000Y39605000D03*
X54610000Y34055000D03*
%TD*%
D15*
%TO.C,R78*%
X74931000Y80645000D03*
X76581000Y80645000D03*
%TD*%
D26*
%TO.C,C30*%
X40894000Y19825000D03*
X40894000Y18275000D03*
%TD*%
D22*
%TO.C,C82*%
X123063000Y93967000D03*
X123063000Y95517000D03*
%TD*%
D24*
%TO.C,TP25*%
X71120000Y11430000D03*
%TD*%
D31*
%TO.C,F1*%
X59714000Y31115000D03*
X62714000Y31115000D03*
%TD*%
D26*
%TO.C,C17*%
X72390000Y45479000D03*
X72390000Y43929000D03*
%TD*%
D23*
%TO.C,C45*%
X51067000Y90424000D03*
X49517000Y90424000D03*
%TD*%
D22*
%TO.C,L2*%
X50038000Y61023000D03*
X50038000Y62573000D03*
%TD*%
D12*
%TO.C,R27*%
X49942500Y19875000D03*
X49942500Y18225000D03*
%TD*%
D42*
%TO.C,*%
X154237500Y104680000D03*
%TD*%
D29*
%TO.C,R73*%
X105600000Y93980000D03*
X103950000Y93980000D03*
%TD*%
D24*
%TO.C,TP9*%
X57150000Y22860000D03*
%TD*%
D14*
%TO.C,C86*%
X86093000Y94615000D03*
X87643000Y94615000D03*
%TD*%
D24*
%TO.C,TP6*%
X100330000Y63500000D03*
%TD*%
D43*
%TO.C,J1*%
X75565000Y99314000D03*
X73025000Y99314000D03*
X78105000Y99314000D03*
%TD*%
D23*
%TO.C,C47*%
X109868000Y24511000D03*
X108318000Y24511000D03*
%TD*%
D37*
%TO.C,C35*%
X25540000Y60960000D03*
X30340000Y60960000D03*
%TD*%
D38*
%TO.C,U23*%
X105217000Y90835100D03*
X104267000Y90835100D03*
X103317000Y90835100D03*
X103317000Y88234900D03*
X105217000Y88234900D03*
%TD*%
D16*
%TO.C,R14*%
X132334000Y10605000D03*
X132334000Y12255000D03*
%TD*%
D22*
%TO.C,C67*%
X103378000Y85077000D03*
X103378000Y86627000D03*
%TD*%
D43*
%TO.C,J3*%
X142240000Y99314000D03*
X139700000Y99314000D03*
X144780000Y99314000D03*
%TD*%
D23*
%TO.C,C87*%
X92863000Y90932000D03*
X91313000Y90932000D03*
%TD*%
%TO.C,C13*%
X43701000Y77470000D03*
X42151000Y77470000D03*
%TD*%
D14*
%TO.C,C39*%
X42405000Y85090000D03*
X43955000Y85090000D03*
%TD*%
D24*
%TO.C,TP3*%
X48260000Y26670000D03*
%TD*%
D23*
%TO.C,C63*%
X140094000Y89826000D03*
X138544000Y89826000D03*
%TD*%
D12*
%TO.C,R53*%
X108331000Y89725000D03*
X108331000Y88075000D03*
%TD*%
D44*
%TO.C,R36*%
X32385000Y24957500D03*
X32385000Y22032500D03*
%TD*%
D24*
%TO.C,TP5*%
X67310000Y44450000D03*
%TD*%
D14*
%TO.C,C12*%
X42151000Y74422000D03*
X43701000Y74422000D03*
%TD*%
D24*
%TO.C,TP14*%
X102870000Y52070000D03*
%TD*%
D29*
%TO.C,R20*%
X43751000Y69850000D03*
X42101000Y69850000D03*
%TD*%
D45*
%TO.C,U13*%
X141730000Y75610000D03*
X141730000Y54610000D03*
X141730000Y33610000D03*
X109730000Y33610000D03*
X109730000Y75610000D03*
%TD*%
D46*
%TO.C,J9*%
X62740000Y95625000D03*
X59240000Y95625000D03*
X55740000Y95625000D03*
X52240000Y95625000D03*
X48740000Y95625000D03*
X45240000Y95625000D03*
X41740000Y95625000D03*
X38240000Y95625000D03*
X34740000Y95625000D03*
X31240000Y95625000D03*
%TD*%
D23*
%TO.C,C71*%
X130963000Y95504000D03*
X129413000Y95504000D03*
%TD*%
D47*
%TO.C,Q1*%
X124079000Y19874000D03*
X123429000Y19874000D03*
X122779000Y19874000D03*
X122779000Y18034000D03*
X123429000Y18034000D03*
X124079000Y18034000D03*
%TD*%
D24*
%TO.C,TP26*%
X81280000Y11430000D03*
%TD*%
D29*
%TO.C,R64*%
X102044000Y88265000D03*
X100394000Y88265000D03*
%TD*%
D37*
%TO.C,C32*%
X52464000Y46355000D03*
X57264000Y46355000D03*
%TD*%
D16*
%TO.C,R10*%
X109220000Y9462000D03*
X109220000Y11112000D03*
%TD*%
D12*
%TO.C,R47*%
X144653000Y93662000D03*
X144653000Y92012000D03*
%TD*%
D39*
%TO.C,ST4*%
X2540000Y2540000D03*
%TD*%
D23*
%TO.C,C22*%
X67083000Y40994000D03*
X65533000Y40994000D03*
%TD*%
D48*
%TO.C,U15*%
X108712000Y92680000D03*
X108712000Y93330000D03*
X108712000Y93980000D03*
X106872000Y93980000D03*
X106872000Y93330000D03*
X106872000Y92680000D03*
%TD*%
D26*
%TO.C,C73*%
X61849000Y59449000D03*
X61849000Y57899000D03*
%TD*%
D14*
%TO.C,C72*%
X134988000Y92456000D03*
X136538000Y92456000D03*
%TD*%
D16*
%TO.C,R7*%
X84582000Y43244000D03*
X84582000Y44894000D03*
%TD*%
D12*
%TO.C,R62*%
X133604000Y27495000D03*
X133604000Y25845000D03*
%TD*%
D49*
%TO.C,U6*%
X26670000Y40640000D03*
X26670000Y45720000D03*
X26670000Y53340000D03*
X46990000Y53340000D03*
X46990000Y43180000D03*
X46990000Y33020000D03*
%TD*%
D23*
%TO.C,C14*%
X43701000Y75946000D03*
X42151000Y75946000D03*
%TD*%
D50*
%TO.C,U11*%
X67283000Y39511500D03*
X66633000Y39511500D03*
X65983000Y39511500D03*
X65333000Y39511500D03*
X65333000Y36761500D03*
X65983000Y36761500D03*
X66633000Y36761500D03*
X67283000Y36761500D03*
D51*
X66308000Y38136500D03*
%TD*%
D32*
%TO.C,FID4*%
X147320000Y96520000D03*
%TD*%
D14*
%TO.C,C76*%
X131940000Y90297000D03*
X133490000Y90297000D03*
%TD*%
D22*
%TO.C,C26*%
X48514000Y61023000D03*
X48514000Y62573000D03*
%TD*%
D23*
%TO.C,C7*%
X62003000Y34644000D03*
X60453000Y34644000D03*
%TD*%
D24*
%TO.C,TP13*%
X102870000Y54610000D03*
%TD*%
D29*
%TO.C,R19*%
X43751000Y68326000D03*
X42101000Y68326000D03*
%TD*%
D43*
%TO.C,J10*%
X97790000Y99314000D03*
X95250000Y99314000D03*
X100330000Y99314000D03*
%TD*%
D39*
%TO.C,ST1*%
X149860000Y99060000D03*
%TD*%
D24*
%TO.C,TP37*%
X119380000Y11430000D03*
%TD*%
D26*
%TO.C,C43*%
X52959000Y85357000D03*
X52959000Y83807000D03*
%TD*%
D12*
%TO.C,R39*%
X19050000Y16065000D03*
X19050000Y14415000D03*
%TD*%
%TO.C,R12*%
X13970000Y16065000D03*
X13970000Y14415000D03*
%TD*%
D23*
%TO.C,C64*%
X107963000Y85090000D03*
X106413000Y85090000D03*
%TD*%
D22*
%TO.C,C4*%
X143764000Y17005000D03*
X143764000Y18555000D03*
%TD*%
D12*
%TO.C,R16*%
X48514000Y85153000D03*
X48514000Y83503000D03*
%TD*%
%TO.C,R13*%
X11430000Y16065000D03*
X11430000Y14415000D03*
%TD*%
%TO.C,R24*%
X46736000Y79057000D03*
X46736000Y77407000D03*
%TD*%
D26*
%TO.C,C74*%
X63500000Y59436000D03*
X63500000Y57886000D03*
%TD*%
D23*
%TO.C,C53*%
X51067000Y87376000D03*
X49517000Y87376000D03*
%TD*%
D38*
%TO.C,D2*%
X106995000Y12730100D03*
X106045000Y12730100D03*
X105095000Y12730100D03*
X105095000Y10129900D03*
X106045000Y10130000D03*
X106995000Y10129900D03*
%TD*%
D12*
%TO.C,R50*%
X130429000Y90360000D03*
X130429000Y88710000D03*
%TD*%
D52*
%TO.C,D12*%
X17780000Y9525000D03*
X17780000Y6985000D03*
X17780000Y4445000D03*
X20320000Y9525000D03*
X20320000Y6985000D03*
X20320000Y4445000D03*
%TD*%
D16*
%TO.C,R8*%
X83058000Y43244000D03*
X83058000Y44894000D03*
%TD*%
%TO.C,R34*%
X51308000Y77407000D03*
X51308000Y79057000D03*
%TD*%
D24*
%TO.C,TP43*%
X97790000Y43180000D03*
%TD*%
D16*
%TO.C,R3*%
X120889000Y18129000D03*
X120889000Y19779000D03*
%TD*%
D53*
%TO.C,J6*%
X42040000Y2032000D03*
X50040000Y2032000D03*
D54*
X49240000Y12532000D03*
X48140000Y12532000D03*
X47040000Y12532000D03*
X45940000Y12532000D03*
X44840000Y12532000D03*
X43740000Y12532000D03*
X42640000Y12532000D03*
X41540000Y12532000D03*
X40440000Y12532000D03*
D55*
X39240000Y11932000D03*
D56*
X39240000Y2432000D03*
X54740000Y2432000D03*
D57*
X53840000Y12032000D03*
%TD*%
D14*
%TO.C,C62*%
X143878000Y85598000D03*
X145428000Y85598000D03*
%TD*%
D28*
%TO.C,D.1*%
X142900400Y93599000D03*
X142087600Y93599000D03*
%TD*%
D22*
%TO.C,C77*%
X124968000Y25895000D03*
X124968000Y27445000D03*
%TD*%
D23*
%TO.C,C48*%
X109868000Y26162000D03*
X108318000Y26162000D03*
%TD*%
D24*
%TO.C,TP7*%
X62230000Y44450000D03*
%TD*%
%TO.C,TP24*%
X80010000Y44450000D03*
%TD*%
D58*
%TO.C,SW4*%
X54463500Y53795500D03*
X57463500Y53795500D03*
D59*
X58463500Y50970500D03*
X55963500Y50970500D03*
X53463500Y50970500D03*
X58463500Y56620500D03*
X55963500Y56620500D03*
X53463500Y56620500D03*
%TD*%
D24*
%TO.C,TP33*%
X129540000Y82550000D03*
%TD*%
D26*
%TO.C,C29*%
X73914000Y45479000D03*
X73914000Y43929000D03*
%TD*%
D22*
%TO.C,L1*%
X59309000Y59423000D03*
X59309000Y60973000D03*
%TD*%
D39*
%TO.C,ST2*%
X2540000Y99060000D03*
%TD*%
D24*
%TO.C,TP27*%
X137160000Y26670000D03*
%TD*%
D16*
%TO.C,R5*%
X93091000Y82487000D03*
X93091000Y84137000D03*
%TD*%
D12*
%TO.C,R30*%
X131699000Y84264000D03*
X131699000Y82614000D03*
%TD*%
D26*
%TO.C,C66*%
X133350000Y84214000D03*
X133350000Y82664000D03*
%TD*%
D60*
%TO.C,J4*%
X125380000Y4905000D03*
X131160000Y4905000D03*
D61*
X127020000Y6010000D03*
X128020000Y6010000D03*
X128520000Y6010000D03*
X129520000Y6010000D03*
X130020000Y6010000D03*
X129020000Y6010000D03*
X127520000Y6010000D03*
X126520000Y6010000D03*
D62*
X125045000Y6010000D03*
X131495000Y6010000D03*
D63*
X123952000Y1255000D03*
D64*
X123952000Y5435000D03*
X132588000Y5435000D03*
D63*
X132588000Y1255000D03*
D62*
X125820000Y6010000D03*
X130720000Y6010000D03*
%TD*%
D22*
%TO.C,C19*%
X89789000Y82537000D03*
X89789000Y84087000D03*
%TD*%
D29*
%TO.C,R61*%
X102044000Y90932000D03*
X100394000Y90932000D03*
%TD*%
D25*
%TO.C,U24*%
X82392900Y92898000D03*
X82392900Y91948000D03*
X82392900Y90998000D03*
X84993100Y90998000D03*
X84993100Y92898000D03*
%TD*%
D26*
%TO.C,C3*%
X76962000Y45479000D03*
X76962000Y43929000D03*
%TD*%
D60*
%TO.C,J2*%
X102520000Y4905000D03*
X108300000Y4905000D03*
D61*
X104160000Y6010000D03*
X105160000Y6010000D03*
X105660000Y6010000D03*
X106660000Y6010000D03*
X107160000Y6010000D03*
X106160000Y6010000D03*
X104660000Y6010000D03*
X103660000Y6010000D03*
D62*
X102185000Y6010000D03*
X108635000Y6010000D03*
D63*
X101092000Y1255000D03*
D64*
X101092000Y5435000D03*
X109728000Y5435000D03*
D63*
X109728000Y1255000D03*
D62*
X102960000Y6010000D03*
X107860000Y6010000D03*
%TD*%
D16*
%TO.C,R51*%
X104902000Y85027000D03*
X104902000Y86677000D03*
%TD*%
D26*
%TO.C,C68*%
X98806000Y90958000D03*
X98806000Y89408000D03*
%TD*%
D16*
%TO.C,R72*%
X113157000Y94044000D03*
X113157000Y95694000D03*
%TD*%
D12*
%TO.C,R77*%
X74930000Y83756000D03*
X74930000Y82106000D03*
%TD*%
D65*
%TO.C,U3*%
X140335000Y20580000D03*
X139065000Y20580000D03*
X137795000Y20580000D03*
X136525000Y20580000D03*
X135255000Y20580000D03*
X133985000Y20580000D03*
X132715000Y20580000D03*
X131445000Y20580000D03*
X131445000Y14980000D03*
X132715000Y14980000D03*
X133985000Y14980000D03*
X135255000Y14980000D03*
X136525000Y14980000D03*
X137795000Y14980000D03*
X139065000Y14980000D03*
X140335000Y14980000D03*
%TD*%
D12*
%TO.C,R4*%
X73406000Y16065000D03*
X73406000Y14415000D03*
%TD*%
D23*
%TO.C,C84*%
X83960000Y94615000D03*
X82410000Y94615000D03*
%TD*%
D24*
%TO.C,TP15*%
X102870000Y57150000D03*
%TD*%
D14*
%TO.C,C10*%
X20180000Y80264000D03*
X21730000Y80264000D03*
%TD*%
D15*
%TO.C,R22*%
X42101000Y71374000D03*
X43751000Y71374000D03*
%TD*%
D22*
%TO.C,C79*%
X126492000Y25895000D03*
X126492000Y27445000D03*
%TD*%
D43*
%TO.C,J8*%
X120015000Y99314000D03*
X117475000Y99314000D03*
X122555000Y99314000D03*
%TD*%
D24*
%TO.C,TP35*%
X137160000Y22860000D03*
%TD*%
D16*
%TO.C,R35*%
X49784000Y77407000D03*
X49784000Y79057000D03*
%TD*%
D66*
%TO.C,D10*%
X52585000Y27432000D03*
X50285000Y27432000D03*
%TD*%
D22*
%TO.C,C51*%
X100965000Y93980000D03*
X100965000Y95530000D03*
%TD*%
D28*
%TO.C,B.1*%
X139827000Y84099400D03*
X139014200Y84099400D03*
%TD*%
D52*
%TO.C,D11*%
X12700000Y9525000D03*
X12700000Y6985000D03*
X12700000Y4445000D03*
X15240000Y9525000D03*
X15240000Y6985000D03*
X15240000Y4445000D03*
%TD*%
D67*
%TO.C,L4*%
X37230000Y25400000D03*
X42780000Y25400000D03*
%TD*%
D38*
%TO.C,U25*%
X100650000Y69819900D03*
X101600000Y69819900D03*
X102550000Y69819900D03*
X102550000Y72420100D03*
X100650000Y72420100D03*
%TD*%
D12*
%TO.C,R33*%
X55372000Y62610000D03*
X55372000Y60960000D03*
%TD*%
D26*
%TO.C,C31*%
X51816000Y19825000D03*
X51816000Y18275000D03*
%TD*%
D68*
%TO.C,U22*%
X110893000Y15355000D03*
X110893000Y14855000D03*
X110893000Y14355000D03*
X110893000Y13855000D03*
X112373000Y13855000D03*
X112373000Y14355000D03*
X112373000Y14855000D03*
X112373000Y15355000D03*
%TD*%
D69*
%TO.C,D9*%
X54483000Y27425000D03*
X54483000Y29725000D03*
%TD*%
D68*
%TO.C,U21*%
X116608000Y15355000D03*
X116608000Y14855000D03*
X116608000Y14355000D03*
X116608000Y13855000D03*
X118088000Y13855000D03*
X118088000Y14355000D03*
X118088000Y14855000D03*
X118088000Y15355000D03*
%TD*%
D29*
%TO.C,R69*%
X126174000Y93980000D03*
X124524000Y93980000D03*
%TD*%
D12*
%TO.C,R18*%
X52832000Y79057000D03*
X52832000Y77407000D03*
%TD*%
D36*
%TO.C,D15*%
X141252000Y95250000D03*
X142212000Y95250000D03*
%TD*%
D70*
%TO.C,D7*%
X46370000Y19850000D03*
X45720000Y19850000D03*
X45070000Y19850000D03*
X45070000Y18250000D03*
X46370000Y18250000D03*
%TD*%
D12*
%TO.C,R17*%
X48260000Y79057000D03*
X48260000Y77407000D03*
%TD*%
D24*
%TO.C,TP34*%
X139700000Y22860000D03*
%TD*%
D18*
%TO.C,SW1*%
X114590000Y3810000D03*
X119090000Y3810000D03*
D19*
X113340000Y6310000D03*
X120340000Y6310000D03*
%TD*%
D12*
%TO.C,R41*%
X46228000Y85153000D03*
X46228000Y83503000D03*
%TD*%
D71*
%TO.C,C9*%
X16305000Y77978000D03*
X19255000Y77978000D03*
%TD*%
D14*
%TO.C,C75*%
X127368000Y90297000D03*
X128918000Y90297000D03*
%TD*%
%TO.C,C40*%
X42405000Y83566000D03*
X43955000Y83566000D03*
%TD*%
D66*
%TO.C,D4*%
X52585000Y25400000D03*
X50285000Y25400000D03*
%TD*%
D23*
%TO.C,C20*%
X67083000Y34644000D03*
X65533000Y34644000D03*
%TD*%
D27*
%TO.C,U12*%
X52844000Y87425000D03*
X53344000Y87425000D03*
X53844000Y87425000D03*
X54344000Y87425000D03*
X54344000Y90375000D03*
X53844000Y90375000D03*
X53344000Y90375000D03*
X52844000Y90375000D03*
%TD*%
D72*
%TO.C,TR1*%
X105645000Y15660000D03*
X105645000Y17360000D03*
X106445000Y15660000D03*
X106445000Y17360000D03*
%TD*%
D24*
%TO.C,TP29*%
X101600000Y80010000D03*
%TD*%
D12*
%TO.C,R38*%
X8890000Y16065000D03*
X8890000Y14415000D03*
%TD*%
D73*
%TO.C,U16*%
X126365000Y82550000D03*
X126365000Y85090000D03*
X126365000Y87630000D03*
X121285000Y87630000D03*
X121285000Y85090000D03*
X121285000Y82550000D03*
%TD*%
D16*
%TO.C,R74*%
X102489000Y93917000D03*
X102489000Y95567000D03*
%TD*%
D12*
%TO.C,R23*%
X54356000Y79057000D03*
X54356000Y77407000D03*
%TD*%
D29*
%TO.C,R44*%
X57975000Y90424000D03*
X56325000Y90424000D03*
%TD*%
D24*
%TO.C,TP40*%
X62230000Y48260000D03*
%TD*%
D12*
%TO.C,R6*%
X71882000Y16065000D03*
X71882000Y14415000D03*
%TD*%
D38*
%TO.C,U20*%
X114681000Y90738200D03*
X113731000Y90738200D03*
X112781000Y90738200D03*
X112781000Y88138000D03*
X114681000Y88138000D03*
%TD*%
D22*
%TO.C,C24*%
X60198000Y88125000D03*
X60198000Y89675000D03*
%TD*%
D42*
%TO.C,*%
X-1837500Y104680000D03*
%TD*%
D74*
%TO.C,J5*%
X20955000Y92202000D03*
X9525000Y92202000D03*
D75*
X20955000Y83312000D03*
X19685000Y85852000D03*
X18415000Y83312000D03*
X17145000Y85852000D03*
X15875000Y83312000D03*
X14605000Y85852000D03*
X13335000Y83312000D03*
X12065000Y85852000D03*
X10795000Y83312000D03*
X9525000Y85852000D03*
X21870000Y96262000D03*
X19330000Y96262000D03*
X11150000Y96262000D03*
X8610000Y96262000D03*
D76*
X23115000Y89152000D03*
X7365000Y89152000D03*
%TD*%
D22*
%TO.C,C85*%
X83693000Y87998000D03*
X83693000Y89548000D03*
%TD*%
D15*
%TO.C,R71*%
X107062000Y91186000D03*
X108712000Y91186000D03*
%TD*%
D24*
%TO.C,TP10*%
X100330000Y53340000D03*
%TD*%
D12*
%TO.C,R76*%
X79121000Y92773000D03*
X79121000Y91123000D03*
%TD*%
D24*
%TO.C,TP28*%
X139700000Y26670000D03*
%TD*%
%TO.C,TP16*%
X100330000Y58420000D03*
%TD*%
D70*
%TO.C,D14*%
X57800000Y88938000D03*
X57150000Y88938000D03*
X56500000Y88938000D03*
X56500000Y87338000D03*
X57800000Y87338000D03*
%TD*%
D24*
%TO.C,TP4*%
X118110000Y17780000D03*
%TD*%
%TO.C,TP19*%
X102870000Y62230000D03*
%TD*%
D22*
%TO.C,C60*%
X80518000Y14465000D03*
X80518000Y16015000D03*
%TD*%
D29*
%TO.C,R79*%
X111632000Y93980000D03*
X109982000Y93980000D03*
%TD*%
D40*
%TO.C,C36*%
X27305000Y27305000D03*
X27305000Y22505000D03*
%TD*%
D26*
%TO.C,C15*%
X42418000Y62560000D03*
X42418000Y61010000D03*
%TD*%
D23*
%TO.C,C83*%
X79134000Y89662000D03*
X77584000Y89662000D03*
%TD*%
D24*
%TO.C,TP38*%
X123190000Y22860000D03*
%TD*%
D15*
%TO.C,R31*%
X127953000Y23241000D03*
X129603000Y23241000D03*
%TD*%
D12*
%TO.C,R59*%
X89789000Y90995000D03*
X89789000Y89345000D03*
%TD*%
D24*
%TO.C,TP17*%
X100330000Y60960000D03*
%TD*%
D68*
%TO.C,U18*%
X112290000Y12053000D03*
X112290000Y11553000D03*
X112290000Y11053000D03*
X112290000Y10553000D03*
X113770000Y10553000D03*
X113770000Y11053000D03*
X113770000Y11553000D03*
X113770000Y12053000D03*
%TD*%
D12*
%TO.C,R11*%
X75438000Y45529000D03*
X75438000Y43879000D03*
%TD*%
D77*
%TO.C,U19*%
X127811000Y26150000D03*
X127811000Y25650000D03*
X127811000Y25150000D03*
X127811000Y24650000D03*
X130761000Y24650000D03*
X130761000Y25150000D03*
X130761000Y25650000D03*
X130761000Y26150000D03*
%TD*%
D27*
%TO.C,U14*%
X63385000Y87425000D03*
X63885000Y87425000D03*
X64385000Y87425000D03*
X64885000Y87425000D03*
X64885000Y90375000D03*
X64385000Y90375000D03*
X63885000Y90375000D03*
X63385000Y90375000D03*
%TD*%
D26*
%TO.C,C25*%
X53086000Y62560000D03*
X53086000Y61010000D03*
%TD*%
D12*
%TO.C,R63*%
X132080000Y27495000D03*
X132080000Y25845000D03*
%TD*%
D24*
%TO.C,TP36*%
X139700000Y11430000D03*
%TD*%
D78*
%TO.C,D8*%
X25400000Y66580000D03*
X25400000Y70580000D03*
%TD*%
D79*
%TO.C,U7*%
X15240000Y74460000D03*
X15240000Y71920000D03*
X15240000Y69380000D03*
X15240000Y66840000D03*
X15240000Y64300000D03*
X15240000Y61760000D03*
X15240000Y31280000D03*
X15240000Y28740000D03*
X15240000Y26200000D03*
X15240000Y23660000D03*
%TD*%
D12*
%TO.C,R60*%
X135128000Y27495000D03*
X135128000Y25845000D03*
%TD*%
D18*
%TO.C,SW3*%
X30770000Y2921000D03*
X35270000Y2921000D03*
D19*
X29520000Y5421000D03*
X36520000Y5421000D03*
%TD*%
D16*
%TO.C,R1*%
X86106000Y43244000D03*
X86106000Y44894000D03*
%TD*%
D12*
%TO.C,R28*%
X48260000Y19875000D03*
X48260000Y18225000D03*
%TD*%
D23*
%TO.C,C58*%
X130074000Y27432000D03*
X128524000Y27432000D03*
%TD*%
%TO.C,C33*%
X54750000Y41910000D03*
X53200000Y41910000D03*
%TD*%
D26*
%TO.C,C37*%
X34925000Y26175000D03*
X34925000Y24625000D03*
%TD*%
D22*
%TO.C,C41*%
X36830000Y89903000D03*
X36830000Y91453000D03*
%TD*%
D26*
%TO.C,C16*%
X70866000Y45479000D03*
X70866000Y43929000D03*
%TD*%
D66*
%TO.C,D5*%
X54476000Y25400000D03*
X56776000Y25400000D03*
%TD*%
D24*
%TO.C,TP12*%
X100330000Y50800000D03*
%TD*%
D23*
%TO.C,C46*%
X51067000Y88900000D03*
X49517000Y88900000D03*
%TD*%
D36*
%TO.C,D16*%
X96830000Y95250000D03*
X97790000Y95250000D03*
%TD*%
D23*
%TO.C,C21*%
X62003000Y40994000D03*
X60453000Y40994000D03*
%TD*%
D24*
%TO.C,TP39*%
X123190000Y15240000D03*
%TD*%
D15*
%TO.C,R21*%
X42101000Y72898000D03*
X43751000Y72898000D03*
%TD*%
D23*
%TO.C,C80*%
X106820000Y95631000D03*
X105270000Y95631000D03*
%TD*%
D12*
%TO.C,R40*%
X21590000Y16065000D03*
X21590000Y14415000D03*
%TD*%
D24*
%TO.C,TP8*%
X52070000Y22860000D03*
%TD*%
%TO.C,TP23*%
X46990000Y58420000D03*
%TD*%
D26*
%TO.C,C42*%
X36830000Y87897000D03*
X36830000Y86347000D03*
%TD*%
D14*
%TO.C,C69*%
X134988000Y93980000D03*
X136538000Y93980000D03*
%TD*%
D38*
%TO.C,D3*%
X129220000Y12730100D03*
X128270000Y12730100D03*
X127320000Y12730100D03*
X127320000Y10129900D03*
X128270000Y10130000D03*
X129220000Y10129900D03*
%TD*%
D16*
%TO.C,R15*%
X124460000Y10605000D03*
X124460000Y12255000D03*
%TD*%
D14*
%TO.C,C34*%
X54470000Y31115000D03*
X56020000Y31115000D03*
%TD*%
D16*
%TO.C,R26*%
X45466000Y60960000D03*
X45466000Y62610000D03*
%TD*%
D70*
%TO.C,D13*%
X47640000Y90970000D03*
X46990000Y90970000D03*
X46340000Y90970000D03*
X46340000Y89370000D03*
X47640000Y89370000D03*
%TD*%
D22*
%TO.C,C50*%
X61722000Y88125000D03*
X61722000Y89675000D03*
%TD*%
D80*
%TO.C,J7*%
X77700000Y11925000D03*
X76700000Y11925000D03*
X75700000Y11925000D03*
X74700000Y11925000D03*
D81*
X79000000Y9500000D03*
X73400000Y9500000D03*
%TD*%
D14*
%TO.C,C59*%
X143878000Y84074000D03*
X145428000Y84074000D03*
%TD*%
D16*
%TO.C,R58*%
X114681000Y92329000D03*
X114681000Y93979000D03*
%TD*%
%TO.C,R56*%
X133477000Y92393000D03*
X133477000Y94043000D03*
%TD*%
D50*
%TO.C,U5*%
X62203000Y39511500D03*
X61553000Y39511500D03*
X60903000Y39511500D03*
X60253000Y39511500D03*
X60253000Y36761500D03*
X60903000Y36761500D03*
X61553000Y36761500D03*
X62203000Y36761500D03*
D51*
X61228000Y38136500D03*
%TD*%
D42*
%TO.C,*%
X-1837500Y-3080000D03*
%TD*%
D22*
%TO.C,C5*%
X142240000Y17005000D03*
X142240000Y18555000D03*
%TD*%
D24*
%TO.C,JP6*%
X57150000Y27940000D03*
X59690000Y27940000D03*
%TD*%
%TO.C,JP4*%
X10160000Y80010000D03*
X10160000Y77470000D03*
%TD*%
%TO.C,JP14*%
X109220000Y17780000D03*
X109220000Y20320000D03*
%TD*%
%TO.C,JP5*%
X7620000Y80010000D03*
X7620000Y77470000D03*
%TD*%
%TO.C,JP3*%
X34290000Y91440000D03*
X34290000Y88900000D03*
%TD*%
%TO.C,JP2*%
X31750000Y91440000D03*
X31750000Y88900000D03*
%TD*%
M02*
