%TF.GenerationSoftware,KiCad,Pcbnew,9.0.1*%
%TF.CreationDate,2025-06-09T10:07:27+01:00*%
%TF.ProjectId,SparkPNT_GNSSDO_Plus_panelized,53706172-6b50-44e5-945f-474e5353444f,rev?*%
%TF.SameCoordinates,Original*%
%TF.FileFunction,Soldermask,Bot*%
%TF.FilePolarity,Negative*%
%FSLAX46Y46*%
G04 Gerber Fmt 4.6, Leading zero omitted, Abs format (unit mm)*
G04 Created by KiCad (PCBNEW 9.0.1) date 2025-06-09 10:07:27*
%MOMM*%
%LPD*%
G01*
G04 APERTURE LIST*
G04 APERTURE END LIST*
G36*
X-1487332Y-1621445D02*
G01*
X-1263475Y-1694181D01*
X-1053752Y-1801040D01*
X-863328Y-1939391D01*
X-696891Y-2105828D01*
X-558540Y-2296252D01*
X-451681Y-2505975D01*
X-378945Y-2729832D01*
X-342124Y-2962311D01*
X-342124Y-3197689D01*
X-378945Y-3430168D01*
X-451681Y-3654025D01*
X-558540Y-3863748D01*
X-696891Y-4054172D01*
X-863328Y-4220609D01*
X-1053752Y-4358960D01*
X-1263475Y-4465819D01*
X-1487332Y-4538555D01*
X-1719811Y-4575376D01*
X-1955189Y-4575376D01*
X-2187668Y-4538555D01*
X-2411525Y-4465819D01*
X-2621248Y-4358960D01*
X-2811672Y-4220609D01*
X-2978109Y-4054172D01*
X-3116460Y-3863748D01*
X-3223319Y-3654025D01*
X-3296055Y-3430168D01*
X-3332876Y-3197689D01*
X-3332876Y-2962311D01*
X-3296055Y-2729832D01*
X-3223319Y-2505975D01*
X-3116460Y-2296252D01*
X-2978109Y-2105828D01*
X-2811672Y-1939391D01*
X-2621248Y-1801040D01*
X-2411525Y-1694181D01*
X-2187668Y-1621445D01*
X-1955189Y-1584624D01*
X-1719811Y-1584624D01*
X-1487332Y-1621445D01*
G37*
G36*
X101283342Y2016940D02*
G01*
X101396381Y1951677D01*
X101488677Y1859381D01*
X101553940Y1746342D01*
X101587722Y1620263D01*
X101592000Y1555000D01*
X101592000Y955000D01*
X101587722Y889737D01*
X101553940Y763658D01*
X101488677Y650619D01*
X101396381Y558323D01*
X101283342Y493060D01*
X101157263Y459278D01*
X101026737Y459278D01*
X100900658Y493060D01*
X100787619Y558323D01*
X100695323Y650619D01*
X100630060Y763658D01*
X100596278Y889737D01*
X100592000Y955000D01*
X100592000Y1555000D01*
X100596278Y1620263D01*
X100630060Y1746342D01*
X100695323Y1859381D01*
X100787619Y1951677D01*
X100900658Y2016940D01*
X101026737Y2050722D01*
X101157263Y2050722D01*
X101283342Y2016940D01*
G37*
G36*
X109919342Y2016940D02*
G01*
X110032381Y1951677D01*
X110124677Y1859381D01*
X110189940Y1746342D01*
X110223722Y1620263D01*
X110228000Y1555000D01*
X110228000Y955000D01*
X110223722Y889737D01*
X110189940Y763658D01*
X110124677Y650619D01*
X110032381Y558323D01*
X109919342Y493060D01*
X109793263Y459278D01*
X109662737Y459278D01*
X109536658Y493060D01*
X109423619Y558323D01*
X109331323Y650619D01*
X109266060Y763658D01*
X109232278Y889737D01*
X109228000Y955000D01*
X109228000Y1555000D01*
X109232278Y1620263D01*
X109266060Y1746342D01*
X109331323Y1859381D01*
X109423619Y1951677D01*
X109536658Y2016940D01*
X109662737Y2050722D01*
X109793263Y2050722D01*
X109919342Y2016940D01*
G37*
G36*
X124143342Y2016940D02*
G01*
X124256381Y1951677D01*
X124348677Y1859381D01*
X124413940Y1746342D01*
X124447722Y1620263D01*
X124452000Y1555000D01*
X124452000Y955000D01*
X124447722Y889737D01*
X124413940Y763658D01*
X124348677Y650619D01*
X124256381Y558323D01*
X124143342Y493060D01*
X124017263Y459278D01*
X123886737Y459278D01*
X123760658Y493060D01*
X123647619Y558323D01*
X123555323Y650619D01*
X123490060Y763658D01*
X123456278Y889737D01*
X123452000Y955000D01*
X123452000Y1555000D01*
X123456278Y1620263D01*
X123490060Y1746342D01*
X123555323Y1859381D01*
X123647619Y1951677D01*
X123760658Y2016940D01*
X123886737Y2050722D01*
X124017263Y2050722D01*
X124143342Y2016940D01*
G37*
G36*
X132779342Y2016940D02*
G01*
X132892381Y1951677D01*
X132984677Y1859381D01*
X133049940Y1746342D01*
X133083722Y1620263D01*
X133088000Y1555000D01*
X133088000Y955000D01*
X133083722Y889737D01*
X133049940Y763658D01*
X132984677Y650619D01*
X132892381Y558323D01*
X132779342Y493060D01*
X132653263Y459278D01*
X132522737Y459278D01*
X132396658Y493060D01*
X132283619Y558323D01*
X132191323Y650619D01*
X132126060Y763658D01*
X132092278Y889737D01*
X132088000Y955000D01*
X132088000Y1555000D01*
X132092278Y1620263D01*
X132126060Y1746342D01*
X132191323Y1859381D01*
X132283619Y1951677D01*
X132396658Y2016940D01*
X132522737Y2050722D01*
X132653263Y2050722D01*
X132779342Y2016940D01*
G37*
G36*
X2901840Y4047173D02*
G01*
X3133159Y3972013D01*
X3349873Y3861592D01*
X3546644Y3718629D01*
X3718629Y3546644D01*
X3861592Y3349873D01*
X3972013Y3133159D01*
X4047173Y2901840D01*
X4085222Y2661612D01*
X4085222Y2418388D01*
X4047173Y2178160D01*
X3972013Y1946841D01*
X3861592Y1730127D01*
X3718629Y1533356D01*
X3546644Y1361371D01*
X3349873Y1218408D01*
X3133159Y1107987D01*
X2901840Y1032827D01*
X2661612Y994778D01*
X2418388Y994778D01*
X2178160Y1032827D01*
X1946841Y1107987D01*
X1730127Y1218408D01*
X1533356Y1361371D01*
X1361371Y1533356D01*
X1218408Y1730127D01*
X1107987Y1946841D01*
X1032827Y2178160D01*
X994778Y2418388D01*
X994778Y2661612D01*
X1032827Y2901840D01*
X1107987Y3133159D01*
X1218408Y3349873D01*
X1361371Y3546644D01*
X1533356Y3718629D01*
X1730127Y3861592D01*
X1946841Y3972013D01*
X2178160Y4047173D01*
X2418388Y4085222D01*
X2661612Y4085222D01*
X2901840Y4047173D01*
G37*
G36*
X150221840Y4047173D02*
G01*
X150453159Y3972013D01*
X150669873Y3861592D01*
X150866644Y3718629D01*
X151038629Y3546644D01*
X151181592Y3349873D01*
X151292013Y3133159D01*
X151367173Y2901840D01*
X151405222Y2661612D01*
X151405222Y2418388D01*
X151367173Y2178160D01*
X151292013Y1946841D01*
X151181592Y1730127D01*
X151038629Y1533356D01*
X150866644Y1361371D01*
X150669873Y1218408D01*
X150453159Y1107987D01*
X150221840Y1032827D01*
X149981612Y994778D01*
X149738388Y994778D01*
X149498160Y1032827D01*
X149266841Y1107987D01*
X149050127Y1218408D01*
X148853356Y1361371D01*
X148681371Y1533356D01*
X148538408Y1730127D01*
X148427987Y1946841D01*
X148352827Y2178160D01*
X148314778Y2418388D01*
X148314778Y2661612D01*
X148352827Y2901840D01*
X148427987Y3133159D01*
X148538408Y3349873D01*
X148681371Y3546644D01*
X148853356Y3718629D01*
X149050127Y3861592D01*
X149266841Y3972013D01*
X149498160Y4047173D01*
X149738388Y4085222D01*
X149981612Y4085222D01*
X150221840Y4047173D01*
G37*
G36*
X42231342Y2493940D02*
G01*
X42344381Y2428677D01*
X42436677Y2336381D01*
X42501940Y2223342D01*
X42535722Y2097263D01*
X42535722Y1966737D01*
X42501940Y1840658D01*
X42436677Y1727619D01*
X42344381Y1635323D01*
X42231342Y1570060D01*
X42105263Y1536278D01*
X41974737Y1536278D01*
X41848658Y1570060D01*
X41735619Y1635323D01*
X41643323Y1727619D01*
X41578060Y1840658D01*
X41544278Y1966737D01*
X41544278Y2097263D01*
X41578060Y2223342D01*
X41643323Y2336381D01*
X41735619Y2428677D01*
X41848658Y2493940D01*
X41974737Y2527722D01*
X42105263Y2527722D01*
X42231342Y2493940D01*
G37*
G36*
X50231342Y2493940D02*
G01*
X50344381Y2428677D01*
X50436677Y2336381D01*
X50501940Y2223342D01*
X50535722Y2097263D01*
X50535722Y1966737D01*
X50501940Y1840658D01*
X50436677Y1727619D01*
X50344381Y1635323D01*
X50231342Y1570060D01*
X50105263Y1536278D01*
X49974737Y1536278D01*
X49848658Y1570060D01*
X49735619Y1635323D01*
X49643323Y1727619D01*
X49578060Y1840658D01*
X49544278Y1966737D01*
X49544278Y2097263D01*
X49578060Y2223342D01*
X49643323Y2336381D01*
X49735619Y2428677D01*
X49848658Y2493940D01*
X49974737Y2527722D01*
X50105263Y2527722D01*
X50231342Y2493940D01*
G37*
G36*
X106045000Y2730500D02*
G01*
X105684788Y2730500D01*
X105655500Y2701212D01*
X105655500Y2378789D01*
X105684789Y2349500D01*
X106045000Y2349500D01*
X106045000Y1689100D01*
X104775000Y1689100D01*
X104775000Y2349500D01*
X105135211Y2349500D01*
X105164500Y2378789D01*
X105164500Y2701212D01*
X105135212Y2730500D01*
X104775000Y2730500D01*
X104775000Y3390900D01*
X106045000Y3390900D01*
X106045000Y2730500D01*
G37*
G36*
X128905000Y2730500D02*
G01*
X128544788Y2730500D01*
X128515500Y2701212D01*
X128515500Y2378789D01*
X128544789Y2349500D01*
X128905000Y2349500D01*
X128905000Y1689100D01*
X127635000Y1689100D01*
X127635000Y2349500D01*
X127995211Y2349500D01*
X128024500Y2378789D01*
X128024500Y2701212D01*
X127995212Y2730500D01*
X127635000Y2730500D01*
X127635000Y3390900D01*
X128905000Y3390900D01*
X128905000Y2730500D01*
G37*
G36*
X31031256Y3782246D02*
G01*
X31194257Y3714729D01*
X31340954Y3616709D01*
X31465709Y3491954D01*
X31563729Y3345257D01*
X31631246Y3182256D01*
X31665666Y3009215D01*
X31665666Y2832785D01*
X31631246Y2659744D01*
X31563729Y2496743D01*
X31465709Y2350046D01*
X31340954Y2225291D01*
X31194257Y2127271D01*
X31031256Y2059754D01*
X30858215Y2025334D01*
X30681785Y2025334D01*
X30508744Y2059754D01*
X30345743Y2127271D01*
X30199046Y2225291D01*
X30074291Y2350046D01*
X29976271Y2496743D01*
X29908754Y2659744D01*
X29874334Y2832785D01*
X29874334Y3009215D01*
X29908754Y3182256D01*
X29976271Y3345257D01*
X30074291Y3491954D01*
X30199046Y3616709D01*
X30345743Y3714729D01*
X30508744Y3782246D01*
X30681785Y3816666D01*
X30858215Y3816666D01*
X31031256Y3782246D01*
G37*
G36*
X35531256Y3782246D02*
G01*
X35694257Y3714729D01*
X35840954Y3616709D01*
X35965709Y3491954D01*
X36063729Y3345257D01*
X36131246Y3182256D01*
X36165666Y3009215D01*
X36165666Y2832785D01*
X36131246Y2659744D01*
X36063729Y2496743D01*
X35965709Y2350046D01*
X35840954Y2225291D01*
X35694257Y2127271D01*
X35531256Y2059754D01*
X35358215Y2025334D01*
X35181785Y2025334D01*
X35008744Y2059754D01*
X34845743Y2127271D01*
X34699046Y2225291D01*
X34574291Y2350046D01*
X34476271Y2496743D01*
X34408754Y2659744D01*
X34374334Y2832785D01*
X34374334Y3009215D01*
X34408754Y3182256D01*
X34476271Y3345257D01*
X34574291Y3491954D01*
X34699046Y3616709D01*
X34845743Y3714729D01*
X35008744Y3782246D01*
X35181785Y3816666D01*
X35358215Y3816666D01*
X35531256Y3782246D01*
G37*
G36*
X137711256Y3782246D02*
G01*
X137874257Y3714729D01*
X138020954Y3616709D01*
X138145709Y3491954D01*
X138243729Y3345257D01*
X138311246Y3182256D01*
X138345666Y3009215D01*
X138345666Y2832785D01*
X138311246Y2659744D01*
X138243729Y2496743D01*
X138145709Y2350046D01*
X138020954Y2225291D01*
X137874257Y2127271D01*
X137711256Y2059754D01*
X137538215Y2025334D01*
X137361785Y2025334D01*
X137188744Y2059754D01*
X137025743Y2127271D01*
X136879046Y2225291D01*
X136754291Y2350046D01*
X136656271Y2496743D01*
X136588754Y2659744D01*
X136554334Y2832785D01*
X136554334Y3009215D01*
X136588754Y3182256D01*
X136656271Y3345257D01*
X136754291Y3491954D01*
X136879046Y3616709D01*
X137025743Y3714729D01*
X137188744Y3782246D01*
X137361785Y3816666D01*
X137538215Y3816666D01*
X137711256Y3782246D01*
G37*
G36*
X142211256Y3782246D02*
G01*
X142374257Y3714729D01*
X142520954Y3616709D01*
X142645709Y3491954D01*
X142743729Y3345257D01*
X142811246Y3182256D01*
X142845666Y3009215D01*
X142845666Y2832785D01*
X142811246Y2659744D01*
X142743729Y2496743D01*
X142645709Y2350046D01*
X142520954Y2225291D01*
X142374257Y2127271D01*
X142211256Y2059754D01*
X142038215Y2025334D01*
X141861785Y2025334D01*
X141688744Y2059754D01*
X141525743Y2127271D01*
X141379046Y2225291D01*
X141254291Y2350046D01*
X141156271Y2496743D01*
X141088754Y2659744D01*
X141054334Y2832785D01*
X141054334Y3009215D01*
X141088754Y3182256D01*
X141156271Y3345257D01*
X141254291Y3491954D01*
X141379046Y3616709D01*
X141525743Y3714729D01*
X141688744Y3782246D01*
X141861785Y3816666D01*
X142038215Y3816666D01*
X142211256Y3782246D01*
G37*
G36*
X114851256Y4671246D02*
G01*
X115014257Y4603729D01*
X115160954Y4505709D01*
X115285709Y4380954D01*
X115383729Y4234257D01*
X115451246Y4071256D01*
X115485666Y3898215D01*
X115485666Y3721785D01*
X115451246Y3548744D01*
X115383729Y3385743D01*
X115285709Y3239046D01*
X115160954Y3114291D01*
X115014257Y3016271D01*
X114851256Y2948754D01*
X114678215Y2914334D01*
X114501785Y2914334D01*
X114328744Y2948754D01*
X114165743Y3016271D01*
X114019046Y3114291D01*
X113894291Y3239046D01*
X113796271Y3385743D01*
X113728754Y3548744D01*
X113694334Y3721785D01*
X113694334Y3898215D01*
X113728754Y4071256D01*
X113796271Y4234257D01*
X113894291Y4380954D01*
X114019046Y4505709D01*
X114165743Y4603729D01*
X114328744Y4671246D01*
X114501785Y4705666D01*
X114678215Y4705666D01*
X114851256Y4671246D01*
G37*
G36*
X119351256Y4671246D02*
G01*
X119514257Y4603729D01*
X119660954Y4505709D01*
X119785709Y4380954D01*
X119883729Y4234257D01*
X119951246Y4071256D01*
X119985666Y3898215D01*
X119985666Y3721785D01*
X119951246Y3548744D01*
X119883729Y3385743D01*
X119785709Y3239046D01*
X119660954Y3114291D01*
X119514257Y3016271D01*
X119351256Y2948754D01*
X119178215Y2914334D01*
X119001785Y2914334D01*
X118828744Y2948754D01*
X118665743Y3016271D01*
X118519046Y3114291D01*
X118394291Y3239046D01*
X118296271Y3385743D01*
X118228754Y3548744D01*
X118194334Y3721785D01*
X118194334Y3898215D01*
X118228754Y4071256D01*
X118296271Y4234257D01*
X118394291Y4380954D01*
X118519046Y4505709D01*
X118665743Y4603729D01*
X118828744Y4671246D01*
X119001785Y4705666D01*
X119178215Y4705666D01*
X119351256Y4671246D01*
G37*
G36*
X12921197Y5174189D02*
G01*
X13059204Y5117024D01*
X13183408Y5034034D01*
X13289034Y4928408D01*
X13372024Y4804204D01*
X13429189Y4666197D01*
X13458331Y4519689D01*
X13458331Y4370311D01*
X13429189Y4223803D01*
X13372024Y4085796D01*
X13289034Y3961592D01*
X13183408Y3855966D01*
X13059204Y3772976D01*
X12921197Y3715811D01*
X12774689Y3686669D01*
X12625311Y3686669D01*
X12478803Y3715811D01*
X12340796Y3772976D01*
X12216592Y3855966D01*
X12110966Y3961592D01*
X12027976Y4085796D01*
X11970811Y4223803D01*
X11941669Y4370311D01*
X11941669Y4519689D01*
X11970811Y4666197D01*
X12027976Y4804204D01*
X12110966Y4928408D01*
X12216592Y5034034D01*
X12340796Y5117024D01*
X12478803Y5174189D01*
X12625311Y5203331D01*
X12774689Y5203331D01*
X12921197Y5174189D01*
G37*
G36*
X15461197Y5174189D02*
G01*
X15599204Y5117024D01*
X15723408Y5034034D01*
X15829034Y4928408D01*
X15912024Y4804204D01*
X15969189Y4666197D01*
X15998331Y4519689D01*
X15998331Y4370311D01*
X15969189Y4223803D01*
X15912024Y4085796D01*
X15829034Y3961592D01*
X15723408Y3855966D01*
X15599204Y3772976D01*
X15461197Y3715811D01*
X15314689Y3686669D01*
X15165311Y3686669D01*
X15018803Y3715811D01*
X14880796Y3772976D01*
X14756592Y3855966D01*
X14650966Y3961592D01*
X14567976Y4085796D01*
X14510811Y4223803D01*
X14481669Y4370311D01*
X14481669Y4519689D01*
X14510811Y4666197D01*
X14567976Y4804204D01*
X14650966Y4928408D01*
X14756592Y5034034D01*
X14880796Y5117024D01*
X15018803Y5174189D01*
X15165311Y5203331D01*
X15314689Y5203331D01*
X15461197Y5174189D01*
G37*
G36*
X18001197Y5174189D02*
G01*
X18139204Y5117024D01*
X18263408Y5034034D01*
X18369034Y4928408D01*
X18452024Y4804204D01*
X18509189Y4666197D01*
X18538331Y4519689D01*
X18538331Y4370311D01*
X18509189Y4223803D01*
X18452024Y4085796D01*
X18369034Y3961592D01*
X18263408Y3855966D01*
X18139204Y3772976D01*
X18001197Y3715811D01*
X17854689Y3686669D01*
X17705311Y3686669D01*
X17558803Y3715811D01*
X17420796Y3772976D01*
X17296592Y3855966D01*
X17190966Y3961592D01*
X17107976Y4085796D01*
X17050811Y4223803D01*
X17021669Y4370311D01*
X17021669Y4519689D01*
X17050811Y4666197D01*
X17107976Y4804204D01*
X17190966Y4928408D01*
X17296592Y5034034D01*
X17420796Y5117024D01*
X17558803Y5174189D01*
X17705311Y5203331D01*
X17854689Y5203331D01*
X18001197Y5174189D01*
G37*
G36*
X20541197Y5174189D02*
G01*
X20679204Y5117024D01*
X20803408Y5034034D01*
X20909034Y4928408D01*
X20992024Y4804204D01*
X21049189Y4666197D01*
X21078331Y4519689D01*
X21078331Y4370311D01*
X21049189Y4223803D01*
X20992024Y4085796D01*
X20909034Y3961592D01*
X20803408Y3855966D01*
X20679204Y3772976D01*
X20541197Y3715811D01*
X20394689Y3686669D01*
X20245311Y3686669D01*
X20098803Y3715811D01*
X19960796Y3772976D01*
X19836592Y3855966D01*
X19730966Y3961592D01*
X19647976Y4085796D01*
X19590811Y4223803D01*
X19561669Y4370311D01*
X19561669Y4519689D01*
X19590811Y4666197D01*
X19647976Y4804204D01*
X19730966Y4928408D01*
X19836592Y5034034D01*
X19960796Y5117024D01*
X20098803Y5174189D01*
X20245311Y5203331D01*
X20394689Y5203331D01*
X20541197Y5174189D01*
G37*
G36*
X101283342Y6446940D02*
G01*
X101396381Y6381677D01*
X101488677Y6289381D01*
X101553940Y6176342D01*
X101587722Y6050263D01*
X101592000Y5985000D01*
X101592000Y4885000D01*
X101587722Y4819737D01*
X101553940Y4693658D01*
X101488677Y4580619D01*
X101396381Y4488323D01*
X101283342Y4423060D01*
X101157263Y4389278D01*
X101026737Y4389278D01*
X100900658Y4423060D01*
X100787619Y4488323D01*
X100695323Y4580619D01*
X100630060Y4693658D01*
X100596278Y4819737D01*
X100592000Y4885000D01*
X100592000Y5985000D01*
X100596278Y6050263D01*
X100630060Y6176342D01*
X100695323Y6289381D01*
X100787619Y6381677D01*
X100900658Y6446940D01*
X101026737Y6480722D01*
X101157263Y6480722D01*
X101283342Y6446940D01*
G37*
G36*
X109919342Y6446940D02*
G01*
X110032381Y6381677D01*
X110124677Y6289381D01*
X110189940Y6176342D01*
X110223722Y6050263D01*
X110228000Y5985000D01*
X110228000Y4885000D01*
X110223722Y4819737D01*
X110189940Y4693658D01*
X110124677Y4580619D01*
X110032381Y4488323D01*
X109919342Y4423060D01*
X109793263Y4389278D01*
X109662737Y4389278D01*
X109536658Y4423060D01*
X109423619Y4488323D01*
X109331323Y4580619D01*
X109266060Y4693658D01*
X109232278Y4819737D01*
X109228000Y4885000D01*
X109228000Y5985000D01*
X109232278Y6050263D01*
X109266060Y6176342D01*
X109331323Y6289381D01*
X109423619Y6381677D01*
X109536658Y6446940D01*
X109662737Y6480722D01*
X109793263Y6480722D01*
X109919342Y6446940D01*
G37*
G36*
X124143342Y6446940D02*
G01*
X124256381Y6381677D01*
X124348677Y6289381D01*
X124413940Y6176342D01*
X124447722Y6050263D01*
X124452000Y5985000D01*
X124452000Y4885000D01*
X124447722Y4819737D01*
X124413940Y4693658D01*
X124348677Y4580619D01*
X124256381Y4488323D01*
X124143342Y4423060D01*
X124017263Y4389278D01*
X123886737Y4389278D01*
X123760658Y4423060D01*
X123647619Y4488323D01*
X123555323Y4580619D01*
X123490060Y4693658D01*
X123456278Y4819737D01*
X123452000Y4885000D01*
X123452000Y5985000D01*
X123456278Y6050263D01*
X123490060Y6176342D01*
X123555323Y6289381D01*
X123647619Y6381677D01*
X123760658Y6446940D01*
X123886737Y6480722D01*
X124017263Y6480722D01*
X124143342Y6446940D01*
G37*
G36*
X132779342Y6446940D02*
G01*
X132892381Y6381677D01*
X132984677Y6289381D01*
X133049940Y6176342D01*
X133083722Y6050263D01*
X133088000Y5985000D01*
X133088000Y4885000D01*
X133083722Y4819737D01*
X133049940Y4693658D01*
X132984677Y4580619D01*
X132892381Y4488323D01*
X132779342Y4423060D01*
X132653263Y4389278D01*
X132522737Y4389278D01*
X132396658Y4423060D01*
X132283619Y4488323D01*
X132191323Y4580619D01*
X132126060Y4693658D01*
X132092278Y4819737D01*
X132088000Y4885000D01*
X132088000Y5985000D01*
X132092278Y6050263D01*
X132126060Y6176342D01*
X132191323Y6289381D01*
X132283619Y6381677D01*
X132396658Y6446940D01*
X132522737Y6480722D01*
X132653263Y6480722D01*
X132779342Y6446940D01*
G37*
G36*
X29810285Y6377940D02*
G01*
X29991397Y6302921D01*
X30154393Y6194010D01*
X30293010Y6055393D01*
X30401921Y5892397D01*
X30476940Y5711285D01*
X30515185Y5519017D01*
X30515185Y5322983D01*
X30476940Y5130715D01*
X30401921Y4949603D01*
X30293010Y4786607D01*
X30154393Y4647990D01*
X29991397Y4539079D01*
X29810285Y4464060D01*
X29618017Y4425815D01*
X29421983Y4425815D01*
X29229715Y4464060D01*
X29048603Y4539079D01*
X28885607Y4647990D01*
X28746990Y4786607D01*
X28638079Y4949603D01*
X28563060Y5130715D01*
X28524815Y5322983D01*
X28524815Y5519017D01*
X28563060Y5711285D01*
X28638079Y5892397D01*
X28746990Y6055393D01*
X28885607Y6194010D01*
X29048603Y6302921D01*
X29229715Y6377940D01*
X29421983Y6416185D01*
X29618017Y6416185D01*
X29810285Y6377940D01*
G37*
G36*
X36810285Y6377940D02*
G01*
X36991397Y6302921D01*
X37154393Y6194010D01*
X37293010Y6055393D01*
X37401921Y5892397D01*
X37476940Y5711285D01*
X37515185Y5519017D01*
X37515185Y5322983D01*
X37476940Y5130715D01*
X37401921Y4949603D01*
X37293010Y4786607D01*
X37154393Y4647990D01*
X36991397Y4539079D01*
X36810285Y4464060D01*
X36618017Y4425815D01*
X36421983Y4425815D01*
X36229715Y4464060D01*
X36048603Y4539079D01*
X35885607Y4647990D01*
X35746990Y4786607D01*
X35638079Y4949603D01*
X35563060Y5130715D01*
X35524815Y5322983D01*
X35524815Y5519017D01*
X35563060Y5711285D01*
X35638079Y5892397D01*
X35746990Y6055393D01*
X35885607Y6194010D01*
X36048603Y6302921D01*
X36229715Y6377940D01*
X36421983Y6416185D01*
X36618017Y6416185D01*
X36810285Y6377940D01*
G37*
G36*
X136490285Y6377940D02*
G01*
X136671397Y6302921D01*
X136834393Y6194010D01*
X136973010Y6055393D01*
X137081921Y5892397D01*
X137156940Y5711285D01*
X137195185Y5519017D01*
X137195185Y5322983D01*
X137156940Y5130715D01*
X137081921Y4949603D01*
X136973010Y4786607D01*
X136834393Y4647990D01*
X136671397Y4539079D01*
X136490285Y4464060D01*
X136298017Y4425815D01*
X136101983Y4425815D01*
X135909715Y4464060D01*
X135728603Y4539079D01*
X135565607Y4647990D01*
X135426990Y4786607D01*
X135318079Y4949603D01*
X135243060Y5130715D01*
X135204815Y5322983D01*
X135204815Y5519017D01*
X135243060Y5711285D01*
X135318079Y5892397D01*
X135426990Y6055393D01*
X135565607Y6194010D01*
X135728603Y6302921D01*
X135909715Y6377940D01*
X136101983Y6416185D01*
X136298017Y6416185D01*
X136490285Y6377940D01*
G37*
G36*
X143490285Y6377940D02*
G01*
X143671397Y6302921D01*
X143834393Y6194010D01*
X143973010Y6055393D01*
X144081921Y5892397D01*
X144156940Y5711285D01*
X144195185Y5519017D01*
X144195185Y5322983D01*
X144156940Y5130715D01*
X144081921Y4949603D01*
X143973010Y4786607D01*
X143834393Y4647990D01*
X143671397Y4539079D01*
X143490285Y4464060D01*
X143298017Y4425815D01*
X143101983Y4425815D01*
X142909715Y4464060D01*
X142728603Y4539079D01*
X142565607Y4647990D01*
X142426990Y4786607D01*
X142318079Y4949603D01*
X142243060Y5130715D01*
X142204815Y5322983D01*
X142204815Y5519017D01*
X142243060Y5711285D01*
X142318079Y5892397D01*
X142426990Y6055393D01*
X142565607Y6194010D01*
X142728603Y6302921D01*
X142909715Y6377940D01*
X143101983Y6416185D01*
X143298017Y6416185D01*
X143490285Y6377940D01*
G37*
G36*
X9220200Y5354788D02*
G01*
X9249488Y5325500D01*
X9571911Y5325500D01*
X9601200Y5354789D01*
X9601200Y5710078D01*
X9601200Y5715000D01*
X10261600Y5715000D01*
X10261600Y4445000D01*
X9601200Y4445000D01*
X9601200Y4805212D01*
X9571912Y4834500D01*
X9249489Y4834500D01*
X9220200Y4805211D01*
X9220200Y4445000D01*
X8559800Y4445000D01*
X8559800Y5715000D01*
X9220200Y5715000D01*
X9220200Y5354788D01*
G37*
G36*
X23418800Y5354788D02*
G01*
X23448088Y5325500D01*
X23770511Y5325500D01*
X23799800Y5354789D01*
X23799800Y5710078D01*
X23799800Y5715000D01*
X24460200Y5715000D01*
X24460200Y4445000D01*
X23799800Y4445000D01*
X23799800Y4805212D01*
X23770512Y4834500D01*
X23448089Y4834500D01*
X23418800Y4805211D01*
X23418800Y4445000D01*
X22758400Y4445000D01*
X22758400Y5715000D01*
X23418800Y5715000D01*
X23418800Y5354788D01*
G37*
G36*
X102644372Y5205261D02*
G01*
X102717847Y5162840D01*
X102777840Y5102847D01*
X102820261Y5029372D01*
X102842220Y4947421D01*
X102842220Y4862579D01*
X102820261Y4780628D01*
X102777840Y4707153D01*
X102717847Y4647160D01*
X102644372Y4604739D01*
X102562421Y4582780D01*
X102477579Y4582780D01*
X102395628Y4604739D01*
X102322153Y4647160D01*
X102262160Y4707153D01*
X102219739Y4780628D01*
X102197780Y4862579D01*
X102197780Y4947421D01*
X102219739Y5029372D01*
X102262160Y5102847D01*
X102322153Y5162840D01*
X102395628Y5205261D01*
X102477579Y5227220D01*
X102562421Y5227220D01*
X102644372Y5205261D01*
G37*
G36*
X108424372Y5205261D02*
G01*
X108497847Y5162840D01*
X108557840Y5102847D01*
X108600261Y5029372D01*
X108622220Y4947421D01*
X108622220Y4862579D01*
X108600261Y4780628D01*
X108557840Y4707153D01*
X108497847Y4647160D01*
X108424372Y4604739D01*
X108342421Y4582780D01*
X108257579Y4582780D01*
X108175628Y4604739D01*
X108102153Y4647160D01*
X108042160Y4707153D01*
X107999739Y4780628D01*
X107977780Y4862579D01*
X107977780Y4947421D01*
X107999739Y5029372D01*
X108042160Y5102847D01*
X108102153Y5162840D01*
X108175628Y5205261D01*
X108257579Y5227220D01*
X108342421Y5227220D01*
X108424372Y5205261D01*
G37*
G36*
X125504372Y5205261D02*
G01*
X125577847Y5162840D01*
X125637840Y5102847D01*
X125680261Y5029372D01*
X125702220Y4947421D01*
X125702220Y4862579D01*
X125680261Y4780628D01*
X125637840Y4707153D01*
X125577847Y4647160D01*
X125504372Y4604739D01*
X125422421Y4582780D01*
X125337579Y4582780D01*
X125255628Y4604739D01*
X125182153Y4647160D01*
X125122160Y4707153D01*
X125079739Y4780628D01*
X125057780Y4862579D01*
X125057780Y4947421D01*
X125079739Y5029372D01*
X125122160Y5102847D01*
X125182153Y5162840D01*
X125255628Y5205261D01*
X125337579Y5227220D01*
X125422421Y5227220D01*
X125504372Y5205261D01*
G37*
G36*
X131284372Y5205261D02*
G01*
X131357847Y5162840D01*
X131417840Y5102847D01*
X131460261Y5029372D01*
X131482220Y4947421D01*
X131482220Y4862579D01*
X131460261Y4780628D01*
X131417840Y4707153D01*
X131357847Y4647160D01*
X131284372Y4604739D01*
X131202421Y4582780D01*
X131117579Y4582780D01*
X131035628Y4604739D01*
X130962153Y4647160D01*
X130902160Y4707153D01*
X130859739Y4780628D01*
X130837780Y4862579D01*
X130837780Y4947421D01*
X130859739Y5029372D01*
X130902160Y5102847D01*
X130962153Y5162840D01*
X131035628Y5205261D01*
X131117579Y5227220D01*
X131202421Y5227220D01*
X131284372Y5205261D01*
G37*
G36*
X33660200Y5765400D02*
G01*
X33299988Y5765400D01*
X33270700Y5736112D01*
X33270700Y5413689D01*
X33299989Y5384400D01*
X33660200Y5384400D01*
X33660200Y4724000D01*
X32390200Y4724000D01*
X32390200Y5384400D01*
X32750411Y5384400D01*
X32779700Y5413689D01*
X32779700Y5736112D01*
X32750412Y5765400D01*
X32390200Y5765400D01*
X32390200Y6425800D01*
X33660200Y6425800D01*
X33660200Y5765400D01*
G37*
G36*
X5120927Y5325196D02*
G01*
X5128773Y5325196D01*
X5143143Y5319244D01*
X5175504Y5310573D01*
X5204519Y5293821D01*
X5218893Y5287867D01*
X5224441Y5282319D01*
X5231925Y5277998D01*
X5277997Y5231926D01*
X5282317Y5224443D01*
X5287867Y5218893D01*
X5293821Y5204518D01*
X5310572Y5175505D01*
X5319242Y5143147D01*
X5325196Y5128773D01*
X5325196Y5120927D01*
X5327433Y5112578D01*
X5327433Y5047423D01*
X5325196Y5039075D01*
X5325196Y5031227D01*
X5319241Y5016852D01*
X5310572Y4984496D01*
X5293823Y4955487D01*
X5287867Y4941107D01*
X5282316Y4935557D01*
X5277997Y4928075D01*
X5231925Y4882003D01*
X5224443Y4877684D01*
X5218893Y4872133D01*
X5204513Y4866177D01*
X5175504Y4849428D01*
X5143147Y4840759D01*
X5128773Y4834804D01*
X5120927Y4834804D01*
X5112578Y4832567D01*
X5047422Y4832567D01*
X5039073Y4834804D01*
X5031227Y4834804D01*
X5016853Y4840758D01*
X4984495Y4849428D01*
X4955482Y4866179D01*
X4941107Y4872133D01*
X4935557Y4877683D01*
X4928074Y4882003D01*
X4882002Y4928075D01*
X4877681Y4935559D01*
X4872133Y4941107D01*
X4866179Y4955481D01*
X4849427Y4984496D01*
X4840757Y5016856D01*
X4834804Y5031227D01*
X4834804Y5039074D01*
X4832567Y5047423D01*
X4832567Y5112578D01*
X4834804Y5120928D01*
X4834804Y5128773D01*
X4840756Y5143144D01*
X4849427Y5175505D01*
X4866180Y5204524D01*
X4872133Y5218893D01*
X4877679Y5224440D01*
X4882002Y5231926D01*
X4928074Y5277998D01*
X4935560Y5282321D01*
X4941107Y5287867D01*
X4955476Y5293820D01*
X4984495Y5310573D01*
X5016856Y5319244D01*
X5031227Y5325196D01*
X5039073Y5325196D01*
X5047422Y5327433D01*
X5112578Y5327433D01*
X5120927Y5325196D01*
G37*
G36*
X113630285Y7266940D02*
G01*
X113811397Y7191921D01*
X113974393Y7083010D01*
X114113010Y6944393D01*
X114221921Y6781397D01*
X114296940Y6600285D01*
X114335185Y6408017D01*
X114335185Y6211983D01*
X114296940Y6019715D01*
X114221921Y5838603D01*
X114113010Y5675607D01*
X113974393Y5536990D01*
X113811397Y5428079D01*
X113630285Y5353060D01*
X113438017Y5314815D01*
X113241983Y5314815D01*
X113049715Y5353060D01*
X112868603Y5428079D01*
X112705607Y5536990D01*
X112566990Y5675607D01*
X112458079Y5838603D01*
X112383060Y6019715D01*
X112344815Y6211983D01*
X112344815Y6408017D01*
X112383060Y6600285D01*
X112458079Y6781397D01*
X112566990Y6944393D01*
X112705607Y7083010D01*
X112868603Y7191921D01*
X113049715Y7266940D01*
X113241983Y7305185D01*
X113438017Y7305185D01*
X113630285Y7266940D01*
G37*
G36*
X120630285Y7266940D02*
G01*
X120811397Y7191921D01*
X120974393Y7083010D01*
X121113010Y6944393D01*
X121221921Y6781397D01*
X121296940Y6600285D01*
X121335185Y6408017D01*
X121335185Y6211983D01*
X121296940Y6019715D01*
X121221921Y5838603D01*
X121113010Y5675607D01*
X120974393Y5536990D01*
X120811397Y5428079D01*
X120630285Y5353060D01*
X120438017Y5314815D01*
X120241983Y5314815D01*
X120049715Y5353060D01*
X119868603Y5428079D01*
X119705607Y5536990D01*
X119566990Y5675607D01*
X119458079Y5838603D01*
X119383060Y6019715D01*
X119344815Y6211983D01*
X119344815Y6408017D01*
X119383060Y6600285D01*
X119458079Y6781397D01*
X119566990Y6944393D01*
X119705607Y7083010D01*
X119868603Y7191921D01*
X120049715Y7266940D01*
X120241983Y7305185D01*
X120438017Y7305185D01*
X120630285Y7266940D01*
G37*
G36*
X117475000Y6540500D02*
G01*
X117114788Y6540500D01*
X117085500Y6511212D01*
X117085500Y6188789D01*
X117114789Y6159500D01*
X117475000Y6159500D01*
X117475000Y5499100D01*
X116205000Y5499100D01*
X116205000Y6159500D01*
X116565211Y6159500D01*
X116594500Y6188789D01*
X116594500Y6511212D01*
X116565212Y6540500D01*
X116205000Y6540500D01*
X116205000Y7200900D01*
X117475000Y7200900D01*
X117475000Y6540500D01*
G37*
G36*
X140335000Y6540500D02*
G01*
X139974788Y6540500D01*
X139945500Y6511212D01*
X139945500Y6188789D01*
X139974789Y6159500D01*
X140335000Y6159500D01*
X140335000Y5499100D01*
X139065000Y5499100D01*
X139065000Y6159500D01*
X139425211Y6159500D01*
X139454500Y6188789D01*
X139454500Y6511212D01*
X139425212Y6540500D01*
X139065000Y6540500D01*
X139065000Y7200900D01*
X140335000Y7200900D01*
X140335000Y6540500D01*
G37*
G36*
X12921197Y7714189D02*
G01*
X13059204Y7657024D01*
X13183408Y7574034D01*
X13289034Y7468408D01*
X13372024Y7344204D01*
X13429189Y7206197D01*
X13458331Y7059689D01*
X13458331Y6910311D01*
X13429189Y6763803D01*
X13372024Y6625796D01*
X13289034Y6501592D01*
X13183408Y6395966D01*
X13059204Y6312976D01*
X12921197Y6255811D01*
X12774689Y6226669D01*
X12625311Y6226669D01*
X12478803Y6255811D01*
X12340796Y6312976D01*
X12216592Y6395966D01*
X12110966Y6501592D01*
X12027976Y6625796D01*
X11970811Y6763803D01*
X11941669Y6910311D01*
X11941669Y7059689D01*
X11970811Y7206197D01*
X12027976Y7344204D01*
X12110966Y7468408D01*
X12216592Y7574034D01*
X12340796Y7657024D01*
X12478803Y7714189D01*
X12625311Y7743331D01*
X12774689Y7743331D01*
X12921197Y7714189D01*
G37*
G36*
X15461197Y7714189D02*
G01*
X15599204Y7657024D01*
X15723408Y7574034D01*
X15829034Y7468408D01*
X15912024Y7344204D01*
X15969189Y7206197D01*
X15998331Y7059689D01*
X15998331Y6910311D01*
X15969189Y6763803D01*
X15912024Y6625796D01*
X15829034Y6501592D01*
X15723408Y6395966D01*
X15599204Y6312976D01*
X15461197Y6255811D01*
X15314689Y6226669D01*
X15165311Y6226669D01*
X15018803Y6255811D01*
X14880796Y6312976D01*
X14756592Y6395966D01*
X14650966Y6501592D01*
X14567976Y6625796D01*
X14510811Y6763803D01*
X14481669Y6910311D01*
X14481669Y7059689D01*
X14510811Y7206197D01*
X14567976Y7344204D01*
X14650966Y7468408D01*
X14756592Y7574034D01*
X14880796Y7657024D01*
X15018803Y7714189D01*
X15165311Y7743331D01*
X15314689Y7743331D01*
X15461197Y7714189D01*
G37*
G36*
X18001197Y7714189D02*
G01*
X18139204Y7657024D01*
X18263408Y7574034D01*
X18369034Y7468408D01*
X18452024Y7344204D01*
X18509189Y7206197D01*
X18538331Y7059689D01*
X18538331Y6910311D01*
X18509189Y6763803D01*
X18452024Y6625796D01*
X18369034Y6501592D01*
X18263408Y6395966D01*
X18139204Y6312976D01*
X18001197Y6255811D01*
X17854689Y6226669D01*
X17705311Y6226669D01*
X17558803Y6255811D01*
X17420796Y6312976D01*
X17296592Y6395966D01*
X17190966Y6501592D01*
X17107976Y6625796D01*
X17050811Y6763803D01*
X17021669Y6910311D01*
X17021669Y7059689D01*
X17050811Y7206197D01*
X17107976Y7344204D01*
X17190966Y7468408D01*
X17296592Y7574034D01*
X17420796Y7657024D01*
X17558803Y7714189D01*
X17705311Y7743331D01*
X17854689Y7743331D01*
X18001197Y7714189D01*
G37*
G36*
X20541197Y7714189D02*
G01*
X20679204Y7657024D01*
X20803408Y7574034D01*
X20909034Y7468408D01*
X20992024Y7344204D01*
X21049189Y7206197D01*
X21078331Y7059689D01*
X21078331Y6910311D01*
X21049189Y6763803D01*
X20992024Y6625796D01*
X20909034Y6501592D01*
X20803408Y6395966D01*
X20679204Y6312976D01*
X20541197Y6255811D01*
X20394689Y6226669D01*
X20245311Y6226669D01*
X20098803Y6255811D01*
X19960796Y6312976D01*
X19836592Y6395966D01*
X19730966Y6501592D01*
X19647976Y6625796D01*
X19590811Y6763803D01*
X19561669Y6910311D01*
X19561669Y7059689D01*
X19590811Y7206197D01*
X19647976Y7344204D01*
X19730966Y7468408D01*
X19836592Y7574034D01*
X19960796Y7657024D01*
X20098803Y7714189D01*
X20245311Y7743331D01*
X20394689Y7743331D01*
X20541197Y7714189D01*
G37*
G36*
X9220200Y7894788D02*
G01*
X9249488Y7865500D01*
X9571911Y7865500D01*
X9601200Y7894789D01*
X9601200Y8250078D01*
X9601200Y8255000D01*
X10261600Y8255000D01*
X10261600Y6985000D01*
X9601200Y6985000D01*
X9601200Y7345212D01*
X9571912Y7374500D01*
X9249489Y7374500D01*
X9220200Y7345211D01*
X9220200Y6985000D01*
X8559800Y6985000D01*
X8559800Y8255000D01*
X9220200Y8255000D01*
X9220200Y7894788D01*
G37*
G36*
X23418800Y7894788D02*
G01*
X23448088Y7865500D01*
X23770511Y7865500D01*
X23799800Y7894789D01*
X23799800Y8250078D01*
X23799800Y8255000D01*
X24460200Y8255000D01*
X24460200Y6985000D01*
X23799800Y6985000D01*
X23799800Y7345212D01*
X23770512Y7374500D01*
X23448089Y7374500D01*
X23418800Y7345211D01*
X23418800Y6985000D01*
X22758400Y6985000D01*
X22758400Y8255000D01*
X23418800Y8255000D01*
X23418800Y7894788D01*
G37*
G36*
X12921197Y10254189D02*
G01*
X13059204Y10197024D01*
X13183408Y10114034D01*
X13289034Y10008408D01*
X13372024Y9884204D01*
X13429189Y9746197D01*
X13458331Y9599689D01*
X13458331Y9450311D01*
X13429189Y9303803D01*
X13372024Y9165796D01*
X13289034Y9041592D01*
X13183408Y8935966D01*
X13059204Y8852976D01*
X12921197Y8795811D01*
X12774689Y8766669D01*
X12625311Y8766669D01*
X12478803Y8795811D01*
X12340796Y8852976D01*
X12216592Y8935966D01*
X12110966Y9041592D01*
X12027976Y9165796D01*
X11970811Y9303803D01*
X11941669Y9450311D01*
X11941669Y9599689D01*
X11970811Y9746197D01*
X12027976Y9884204D01*
X12110966Y10008408D01*
X12216592Y10114034D01*
X12340796Y10197024D01*
X12478803Y10254189D01*
X12625311Y10283331D01*
X12774689Y10283331D01*
X12921197Y10254189D01*
G37*
G36*
X15461197Y10254189D02*
G01*
X15599204Y10197024D01*
X15723408Y10114034D01*
X15829034Y10008408D01*
X15912024Y9884204D01*
X15969189Y9746197D01*
X15998331Y9599689D01*
X15998331Y9450311D01*
X15969189Y9303803D01*
X15912024Y9165796D01*
X15829034Y9041592D01*
X15723408Y8935966D01*
X15599204Y8852976D01*
X15461197Y8795811D01*
X15314689Y8766669D01*
X15165311Y8766669D01*
X15018803Y8795811D01*
X14880796Y8852976D01*
X14756592Y8935966D01*
X14650966Y9041592D01*
X14567976Y9165796D01*
X14510811Y9303803D01*
X14481669Y9450311D01*
X14481669Y9599689D01*
X14510811Y9746197D01*
X14567976Y9884204D01*
X14650966Y10008408D01*
X14756592Y10114034D01*
X14880796Y10197024D01*
X15018803Y10254189D01*
X15165311Y10283331D01*
X15314689Y10283331D01*
X15461197Y10254189D01*
G37*
G36*
X18001197Y10254189D02*
G01*
X18139204Y10197024D01*
X18263408Y10114034D01*
X18369034Y10008408D01*
X18452024Y9884204D01*
X18509189Y9746197D01*
X18538331Y9599689D01*
X18538331Y9450311D01*
X18509189Y9303803D01*
X18452024Y9165796D01*
X18369034Y9041592D01*
X18263408Y8935966D01*
X18139204Y8852976D01*
X18001197Y8795811D01*
X17854689Y8766669D01*
X17705311Y8766669D01*
X17558803Y8795811D01*
X17420796Y8852976D01*
X17296592Y8935966D01*
X17190966Y9041592D01*
X17107976Y9165796D01*
X17050811Y9303803D01*
X17021669Y9450311D01*
X17021669Y9599689D01*
X17050811Y9746197D01*
X17107976Y9884204D01*
X17190966Y10008408D01*
X17296592Y10114034D01*
X17420796Y10197024D01*
X17558803Y10254189D01*
X17705311Y10283331D01*
X17854689Y10283331D01*
X18001197Y10254189D01*
G37*
G36*
X20541197Y10254189D02*
G01*
X20679204Y10197024D01*
X20803408Y10114034D01*
X20909034Y10008408D01*
X20992024Y9884204D01*
X21049189Y9746197D01*
X21078331Y9599689D01*
X21078331Y9450311D01*
X21049189Y9303803D01*
X20992024Y9165796D01*
X20909034Y9041592D01*
X20803408Y8935966D01*
X20679204Y8852976D01*
X20541197Y8795811D01*
X20394689Y8766669D01*
X20245311Y8766669D01*
X20098803Y8795811D01*
X19960796Y8852976D01*
X19836592Y8935966D01*
X19730966Y9041592D01*
X19647976Y9165796D01*
X19590811Y9303803D01*
X19561669Y9450311D01*
X19561669Y9599689D01*
X19590811Y9746197D01*
X19647976Y9884204D01*
X19730966Y10008408D01*
X19836592Y10114034D01*
X19960796Y10197024D01*
X20098803Y10254189D01*
X20245311Y10283331D01*
X20394689Y10283331D01*
X20541197Y10254189D01*
G37*
G36*
X9220200Y10434788D02*
G01*
X9249488Y10405500D01*
X9571911Y10405500D01*
X9601200Y10434789D01*
X9601200Y10790078D01*
X9601200Y10795000D01*
X10261600Y10795000D01*
X10261600Y9525000D01*
X9601200Y9525000D01*
X9601200Y9885212D01*
X9571912Y9914500D01*
X9249489Y9914500D01*
X9220200Y9885211D01*
X9220200Y9525000D01*
X8559800Y9525000D01*
X8559800Y10795000D01*
X9220200Y10795000D01*
X9220200Y10434788D01*
G37*
G36*
X23418800Y10434788D02*
G01*
X23448088Y10405500D01*
X23770511Y10405500D01*
X23799800Y10434789D01*
X23799800Y10790078D01*
X23799800Y10795000D01*
X24460200Y10795000D01*
X24460200Y9525000D01*
X23799800Y9525000D01*
X23799800Y9885212D01*
X23770512Y9914500D01*
X23448089Y9914500D01*
X23418800Y9885211D01*
X23418800Y9525000D01*
X22758400Y9525000D01*
X22758400Y10795000D01*
X23418800Y10795000D01*
X23418800Y10434788D01*
G37*
G36*
X136162810Y12329333D02*
G01*
X136333019Y12258830D01*
X136486203Y12156475D01*
X136616475Y12026203D01*
X136718830Y11873019D01*
X136789333Y11702810D01*
X136825275Y11522117D01*
X136825275Y11337883D01*
X136789333Y11157190D01*
X136718830Y10986981D01*
X136616475Y10833797D01*
X136486203Y10703525D01*
X136333019Y10601170D01*
X136162810Y10530667D01*
X135982117Y10494725D01*
X135797883Y10494725D01*
X135617190Y10530667D01*
X135446981Y10601170D01*
X135293797Y10703525D01*
X135163525Y10833797D01*
X135061170Y10986981D01*
X134990667Y11157190D01*
X134954725Y11337883D01*
X134954725Y11522117D01*
X134990667Y11702810D01*
X135061170Y11873019D01*
X135163525Y12026203D01*
X135293797Y12156475D01*
X135446981Y12258830D01*
X135617190Y12329333D01*
X135797883Y12365275D01*
X135982117Y12365275D01*
X136162810Y12329333D01*
G37*
G36*
X139972810Y12329333D02*
G01*
X140143019Y12258830D01*
X140296203Y12156475D01*
X140426475Y12026203D01*
X140528830Y11873019D01*
X140599333Y11702810D01*
X140635275Y11522117D01*
X140635275Y11337883D01*
X140599333Y11157190D01*
X140528830Y10986981D01*
X140426475Y10833797D01*
X140296203Y10703525D01*
X140143019Y10601170D01*
X139972810Y10530667D01*
X139792117Y10494725D01*
X139607883Y10494725D01*
X139427190Y10530667D01*
X139256981Y10601170D01*
X139103797Y10703525D01*
X138973525Y10833797D01*
X138871170Y10986981D01*
X138800667Y11157190D01*
X138764725Y11337883D01*
X138764725Y11522117D01*
X138800667Y11702810D01*
X138871170Y11873019D01*
X138973525Y12026203D01*
X139103797Y12156475D01*
X139256981Y12258830D01*
X139427190Y12329333D01*
X139607883Y12365275D01*
X139792117Y12365275D01*
X139972810Y12329333D01*
G37*
G36*
X126002810Y16139333D02*
G01*
X126173019Y16068830D01*
X126326203Y15966475D01*
X126456475Y15836203D01*
X126558830Y15683019D01*
X126629333Y15512810D01*
X126665275Y15332117D01*
X126665275Y15147883D01*
X126629333Y14967190D01*
X126558830Y14796981D01*
X126456475Y14643797D01*
X126326203Y14513525D01*
X126173019Y14411170D01*
X126002810Y14340667D01*
X125822117Y14304725D01*
X125637883Y14304725D01*
X125457190Y14340667D01*
X125286981Y14411170D01*
X125133797Y14513525D01*
X125003525Y14643797D01*
X124901170Y14796981D01*
X124830667Y14967190D01*
X124794725Y15147883D01*
X124794725Y15332117D01*
X124830667Y15512810D01*
X124901170Y15683019D01*
X125003525Y15836203D01*
X125133797Y15966475D01*
X125286981Y16068830D01*
X125457190Y16139333D01*
X125637883Y16175275D01*
X125822117Y16175275D01*
X126002810Y16139333D01*
G37*
G36*
X100965000Y17094200D02*
G01*
X100627788Y17094200D01*
X100598500Y17064912D01*
X100598500Y16742489D01*
X100627789Y16713200D01*
X100965000Y16713200D01*
X100965000Y16052800D01*
X100604788Y16052800D01*
X100575500Y16023512D01*
X100575500Y15701089D01*
X100604789Y15671800D01*
X100965000Y15671800D01*
X100965000Y15011400D01*
X99695000Y15011400D01*
X99695000Y15671800D01*
X100055211Y15671800D01*
X100084500Y15701089D01*
X100084500Y16023512D01*
X100055212Y16052800D01*
X99695000Y16052800D01*
X99695000Y16713200D01*
X100078211Y16713200D01*
X100107500Y16742489D01*
X100107500Y17064912D01*
X100078212Y17094200D01*
X99695000Y17094200D01*
X99695000Y17754600D01*
X100965000Y17754600D01*
X100965000Y17094200D01*
G37*
G36*
X32022810Y18679333D02*
G01*
X32193019Y18608830D01*
X32346203Y18506475D01*
X32476475Y18376203D01*
X32578830Y18223019D01*
X32649333Y18052810D01*
X32685275Y17872117D01*
X32685275Y17687883D01*
X32649333Y17507190D01*
X32578830Y17336981D01*
X32476475Y17183797D01*
X32346203Y17053525D01*
X32193019Y16951170D01*
X32022810Y16880667D01*
X31842117Y16844725D01*
X31657883Y16844725D01*
X31477190Y16880667D01*
X31306981Y16951170D01*
X31153797Y17053525D01*
X31023525Y17183797D01*
X30921170Y17336981D01*
X30850667Y17507190D01*
X30814725Y17687883D01*
X30814725Y17872117D01*
X30850667Y18052810D01*
X30921170Y18223019D01*
X31023525Y18376203D01*
X31153797Y18506475D01*
X31306981Y18608830D01*
X31477190Y18679333D01*
X31657883Y18715275D01*
X31842117Y18715275D01*
X32022810Y18679333D01*
G37*
G36*
X109492810Y21219333D02*
G01*
X109663019Y21148830D01*
X109816203Y21046475D01*
X109946475Y20916203D01*
X110048830Y20763019D01*
X110119333Y20592810D01*
X110155275Y20412117D01*
X110155275Y20227883D01*
X110119333Y20047190D01*
X110048830Y19876981D01*
X109946475Y19723797D01*
X109862369Y19639692D01*
X109855000Y19621900D01*
X109855000Y19420667D01*
X109855000Y19338289D01*
X109884289Y19309000D01*
X109933954Y19309000D01*
X109944522Y19304623D01*
X109948900Y19294055D01*
X109948900Y18805946D01*
X109944522Y18795378D01*
X109933954Y18791000D01*
X109884288Y18791000D01*
X109855000Y18761712D01*
X109855000Y18478102D01*
X109862370Y18460308D01*
X109946475Y18376203D01*
X110048830Y18223019D01*
X110119333Y18052810D01*
X110155275Y17872117D01*
X110155275Y17687883D01*
X110119333Y17507190D01*
X110048830Y17336981D01*
X109946475Y17183797D01*
X109816203Y17053525D01*
X109663019Y16951170D01*
X109492810Y16880667D01*
X109312117Y16844725D01*
X109127883Y16844725D01*
X108947190Y16880667D01*
X108776981Y16951170D01*
X108623797Y17053525D01*
X108493525Y17183797D01*
X108391170Y17336981D01*
X108320667Y17507190D01*
X108284725Y17687883D01*
X108284725Y17872117D01*
X108320667Y18052810D01*
X108391170Y18223019D01*
X108493525Y18376203D01*
X108577627Y18460306D01*
X108585000Y18478104D01*
X108585000Y18761711D01*
X108555711Y18791000D01*
X108506046Y18791000D01*
X108495477Y18795378D01*
X108491100Y18805946D01*
X108491100Y19294055D01*
X108495477Y19304623D01*
X108506046Y19309000D01*
X108555712Y19309000D01*
X108585000Y19338288D01*
X108585000Y19621898D01*
X108577628Y19639694D01*
X108493525Y19723797D01*
X108391170Y19876981D01*
X108320667Y20047190D01*
X108284725Y20227883D01*
X108284725Y20412117D01*
X108320667Y20592810D01*
X108391170Y20763019D01*
X108493525Y20916203D01*
X108623797Y21046475D01*
X108776981Y21148830D01*
X108947190Y21219333D01*
X109127883Y21255275D01*
X109312117Y21255275D01*
X109492810Y21219333D01*
G37*
G36*
X118382810Y19949333D02*
G01*
X118553019Y19878830D01*
X118706203Y19776475D01*
X118836475Y19646203D01*
X118938830Y19493019D01*
X119009333Y19322810D01*
X119045275Y19142117D01*
X119045275Y18957883D01*
X119009333Y18777190D01*
X118938830Y18606981D01*
X118836475Y18453797D01*
X118706203Y18323525D01*
X118553019Y18221170D01*
X118382810Y18150667D01*
X118202117Y18114725D01*
X118017883Y18114725D01*
X117837190Y18150667D01*
X117666981Y18221170D01*
X117513797Y18323525D01*
X117383525Y18453797D01*
X117281170Y18606981D01*
X117210667Y18777190D01*
X117174725Y18957883D01*
X117174725Y19142117D01*
X117210667Y19322810D01*
X117281170Y19493019D01*
X117383525Y19646203D01*
X117513797Y19776475D01*
X117666981Y19878830D01*
X117837190Y19949333D01*
X118017883Y19985275D01*
X118202117Y19985275D01*
X118382810Y19949333D01*
G37*
G36*
X33279557Y21100742D02*
G01*
X33303552Y21094312D01*
X33306641Y21091942D01*
X33310317Y21090747D01*
X33322846Y21080046D01*
X33576846Y20826046D01*
X33591617Y20797056D01*
X33604045Y20775531D01*
X33604553Y20771668D01*
X33606307Y20768226D01*
X33607600Y20751800D01*
X33607600Y20624800D01*
X33597537Y20593832D01*
X33591111Y20569848D01*
X33588741Y20566761D01*
X33587547Y20563083D01*
X33576846Y20550554D01*
X33322846Y20296554D01*
X33293847Y20281779D01*
X33272330Y20269355D01*
X33268467Y20268847D01*
X33265026Y20267093D01*
X33248600Y20265800D01*
X33245325Y20265800D01*
X31527982Y20265800D01*
X31521400Y20265800D01*
X31490434Y20275862D01*
X31466447Y20282289D01*
X31463358Y20284659D01*
X31459683Y20285853D01*
X31447154Y20296554D01*
X31193154Y20550554D01*
X31178385Y20579539D01*
X31165954Y20601070D01*
X31165445Y20604935D01*
X31163693Y20608374D01*
X31162400Y20624800D01*
X31162400Y20751800D01*
X31172457Y20782754D01*
X31178888Y20806753D01*
X31181259Y20809844D01*
X31182453Y20813517D01*
X31193154Y20826046D01*
X31195463Y20828356D01*
X31195467Y20828360D01*
X31442501Y21075394D01*
X31442503Y21075396D01*
X31447154Y21080046D01*
X31476129Y21094810D01*
X31497669Y21107246D01*
X31501535Y21107755D01*
X31504974Y21109507D01*
X31521400Y21110800D01*
X33248600Y21110800D01*
X33279557Y21100742D01*
G37*
G36*
X34193957Y23335942D02*
G01*
X34217952Y23329512D01*
X34221041Y23327142D01*
X34224717Y23325947D01*
X34237246Y23315246D01*
X34491246Y23061246D01*
X34506017Y23032256D01*
X34518445Y23010731D01*
X34518953Y23006868D01*
X34520707Y23003426D01*
X34522000Y22987000D01*
X34522000Y21259800D01*
X34511937Y21228832D01*
X34505511Y21204848D01*
X34503141Y21201761D01*
X34501947Y21198083D01*
X34491246Y21185554D01*
X34237246Y20931554D01*
X34208247Y20916779D01*
X34186730Y20904355D01*
X34182867Y20903847D01*
X34179426Y20902093D01*
X34163000Y20900800D01*
X34159725Y20900800D01*
X34042582Y20900800D01*
X34036000Y20900800D01*
X34005034Y20910862D01*
X33981047Y20917289D01*
X33977958Y20919659D01*
X33974283Y20920853D01*
X33961754Y20931554D01*
X33707754Y21185554D01*
X33692985Y21214539D01*
X33680554Y21236070D01*
X33680045Y21239935D01*
X33678293Y21243374D01*
X33677000Y21259800D01*
X33677000Y22987000D01*
X33687057Y23017954D01*
X33693488Y23041953D01*
X33695859Y23045044D01*
X33697053Y23048717D01*
X33707754Y23061246D01*
X33710063Y23063556D01*
X33710067Y23063560D01*
X33957101Y23310594D01*
X33957103Y23310596D01*
X33961754Y23315246D01*
X33990729Y23330010D01*
X34012269Y23342446D01*
X34016135Y23342955D01*
X34019574Y23344707D01*
X34036000Y23346000D01*
X34163000Y23346000D01*
X34193957Y23335942D01*
G37*
G36*
X129455000Y23202500D02*
G01*
X129117788Y23202500D01*
X129088500Y23173212D01*
X129088500Y22850789D01*
X129117789Y22821500D01*
X129455000Y22821500D01*
X129455000Y22161100D01*
X129094788Y22161100D01*
X129065500Y22131812D01*
X129065500Y21809389D01*
X129094789Y21780100D01*
X129455000Y21780100D01*
X129455000Y21119700D01*
X128185000Y21119700D01*
X128185000Y21780100D01*
X128545211Y21780100D01*
X128574500Y21809389D01*
X128574500Y22131812D01*
X128545212Y22161100D01*
X128185000Y22161100D01*
X128185000Y22821500D01*
X128568211Y22821500D01*
X128597500Y22850789D01*
X128597500Y23173212D01*
X128568212Y23202500D01*
X128185000Y23202500D01*
X128185000Y23862900D01*
X129455000Y23862900D01*
X129455000Y23202500D01*
G37*
G36*
X9936014Y32327076D02*
G01*
X9952654Y32322190D01*
X9955302Y32320056D01*
X9957423Y32319284D01*
X9962569Y32314569D01*
X10470569Y31806569D01*
X10484068Y31777619D01*
X10492379Y31762399D01*
X10492742Y31759017D01*
X10493696Y31756972D01*
X10494000Y31750000D01*
X10494000Y21971000D01*
X10483071Y21940975D01*
X10478189Y21924346D01*
X10476056Y21921700D01*
X10475284Y21919577D01*
X10470569Y21914431D01*
X9962569Y21406431D01*
X9933611Y21392929D01*
X9918398Y21384621D01*
X9915016Y21384258D01*
X9912972Y21383304D01*
X9906000Y21383000D01*
X9903324Y21383000D01*
X6357189Y21383000D01*
X6350000Y21383000D01*
X6319978Y21393927D01*
X6303345Y21398811D01*
X6300697Y21400945D01*
X6298577Y21401716D01*
X6293431Y21406431D01*
X5785431Y21914431D01*
X5771933Y21943377D01*
X5763620Y21958602D01*
X5763256Y21961986D01*
X5762304Y21964028D01*
X5762000Y21971000D01*
X5762000Y31750000D01*
X5772923Y31780012D01*
X5777810Y31796655D01*
X5779944Y31799305D01*
X5780716Y31801423D01*
X5785431Y31806569D01*
X6293431Y32314569D01*
X6322369Y32328063D01*
X6337601Y32336380D01*
X6340985Y32336744D01*
X6343028Y32337696D01*
X6350000Y32338000D01*
X9906000Y32338000D01*
X9936014Y32327076D01*
G37*
G36*
X52342810Y23759333D02*
G01*
X52513019Y23688830D01*
X52666203Y23586475D01*
X52796475Y23456203D01*
X52898830Y23303019D01*
X52969333Y23132810D01*
X53005275Y22952117D01*
X53005275Y22767883D01*
X52969333Y22587190D01*
X52898830Y22416981D01*
X52796475Y22263797D01*
X52666203Y22133525D01*
X52513019Y22031170D01*
X52342810Y21960667D01*
X52162117Y21924725D01*
X51977883Y21924725D01*
X51797190Y21960667D01*
X51626981Y22031170D01*
X51473797Y22133525D01*
X51343525Y22263797D01*
X51241170Y22416981D01*
X51170667Y22587190D01*
X51134725Y22767883D01*
X51134725Y22952117D01*
X51170667Y23132810D01*
X51241170Y23303019D01*
X51343525Y23456203D01*
X51473797Y23586475D01*
X51626981Y23688830D01*
X51797190Y23759333D01*
X51977883Y23795275D01*
X52162117Y23795275D01*
X52342810Y23759333D01*
G37*
G36*
X54882810Y23759333D02*
G01*
X55053019Y23688830D01*
X55206203Y23586475D01*
X55336475Y23456203D01*
X55438830Y23303019D01*
X55509333Y23132810D01*
X55545275Y22952117D01*
X55545275Y22767883D01*
X55509333Y22587190D01*
X55438830Y22416981D01*
X55336475Y22263797D01*
X55206203Y22133525D01*
X55053019Y22031170D01*
X54882810Y21960667D01*
X54702117Y21924725D01*
X54517883Y21924725D01*
X54337190Y21960667D01*
X54166981Y22031170D01*
X54013797Y22133525D01*
X53883525Y22263797D01*
X53781170Y22416981D01*
X53710667Y22587190D01*
X53674725Y22767883D01*
X53674725Y22952117D01*
X53710667Y23132810D01*
X53781170Y23303019D01*
X53883525Y23456203D01*
X54013797Y23586475D01*
X54166981Y23688830D01*
X54337190Y23759333D01*
X54517883Y23795275D01*
X54702117Y23795275D01*
X54882810Y23759333D01*
G37*
G36*
X137432810Y23759333D02*
G01*
X137603019Y23688830D01*
X137756203Y23586475D01*
X137886475Y23456203D01*
X137988830Y23303019D01*
X138059333Y23132810D01*
X138095275Y22952117D01*
X138095275Y22767883D01*
X138059333Y22587190D01*
X137988830Y22416981D01*
X137886475Y22263797D01*
X137756203Y22133525D01*
X137603019Y22031170D01*
X137432810Y21960667D01*
X137252117Y21924725D01*
X137067883Y21924725D01*
X136887190Y21960667D01*
X136716981Y22031170D01*
X136563797Y22133525D01*
X136433525Y22263797D01*
X136331170Y22416981D01*
X136260667Y22587190D01*
X136224725Y22767883D01*
X136224725Y22952117D01*
X136260667Y23132810D01*
X136331170Y23303019D01*
X136433525Y23456203D01*
X136563797Y23586475D01*
X136716981Y23688830D01*
X136887190Y23759333D01*
X137067883Y23795275D01*
X137252117Y23795275D01*
X137432810Y23759333D01*
G37*
G36*
X139972810Y23759333D02*
G01*
X140143019Y23688830D01*
X140296203Y23586475D01*
X140426475Y23456203D01*
X140528830Y23303019D01*
X140599333Y23132810D01*
X140635275Y22952117D01*
X140635275Y22767883D01*
X140599333Y22587190D01*
X140528830Y22416981D01*
X140426475Y22263797D01*
X140296203Y22133525D01*
X140143019Y22031170D01*
X139972810Y21960667D01*
X139792117Y21924725D01*
X139607883Y21924725D01*
X139427190Y21960667D01*
X139256981Y22031170D01*
X139103797Y22133525D01*
X138973525Y22263797D01*
X138871170Y22416981D01*
X138800667Y22587190D01*
X138764725Y22767883D01*
X138764725Y22952117D01*
X138800667Y23132810D01*
X138871170Y23303019D01*
X138973525Y23456203D01*
X139103797Y23586475D01*
X139256981Y23688830D01*
X139427190Y23759333D01*
X139607883Y23795275D01*
X139792117Y23795275D01*
X139972810Y23759333D01*
G37*
G36*
X15534929Y24632251D02*
G01*
X15718939Y24556032D01*
X15884544Y24445379D01*
X16025379Y24304544D01*
X16136032Y24138939D01*
X16212251Y23954929D01*
X16251108Y23759585D01*
X16251108Y23560415D01*
X16212251Y23365071D01*
X16136032Y23181061D01*
X16025379Y23015456D01*
X15884544Y22874621D01*
X15718939Y22763968D01*
X15534929Y22687749D01*
X15339585Y22648892D01*
X15140415Y22648892D01*
X14945071Y22687749D01*
X14761061Y22763968D01*
X14595456Y22874621D01*
X14454621Y23015456D01*
X14343968Y23181061D01*
X14267749Y23365071D01*
X14228892Y23560415D01*
X14228892Y23759585D01*
X14267749Y23954929D01*
X14343968Y24138939D01*
X14454621Y24304544D01*
X14595456Y24445379D01*
X14761061Y24556032D01*
X14945071Y24632251D01*
X15140415Y24671108D01*
X15339585Y24671108D01*
X15534929Y24632251D01*
G37*
G36*
X122827810Y25029333D02*
G01*
X122998019Y24958830D01*
X123151203Y24856475D01*
X123281475Y24726203D01*
X123383830Y24573019D01*
X123454333Y24402810D01*
X123490275Y24222117D01*
X123490275Y24037883D01*
X123454333Y23857190D01*
X123383830Y23686981D01*
X123281475Y23533797D01*
X123151203Y23403525D01*
X122998019Y23301170D01*
X122827810Y23230667D01*
X122647117Y23194725D01*
X122462883Y23194725D01*
X122282190Y23230667D01*
X122111981Y23301170D01*
X121958797Y23403525D01*
X121828525Y23533797D01*
X121726170Y23686981D01*
X121655667Y23857190D01*
X121619725Y24037883D01*
X121619725Y24222117D01*
X121655667Y24402810D01*
X121726170Y24573019D01*
X121828525Y24726203D01*
X121958797Y24856475D01*
X122111981Y24958830D01*
X122282190Y25029333D01*
X122462883Y25065275D01*
X122647117Y25065275D01*
X122827810Y25029333D01*
G37*
G36*
X103142810Y26299333D02*
G01*
X103313019Y26228830D01*
X103466203Y26126475D01*
X103596475Y25996203D01*
X103698830Y25843019D01*
X103769333Y25672810D01*
X103805275Y25492117D01*
X103805275Y25307883D01*
X103769333Y25127190D01*
X103698830Y24956981D01*
X103596475Y24803797D01*
X103466203Y24673525D01*
X103313019Y24571170D01*
X103142810Y24500667D01*
X102962117Y24464725D01*
X102777883Y24464725D01*
X102597190Y24500667D01*
X102426981Y24571170D01*
X102273797Y24673525D01*
X102143525Y24803797D01*
X102041170Y24956981D01*
X101970667Y25127190D01*
X101934725Y25307883D01*
X101934725Y25492117D01*
X101970667Y25672810D01*
X102041170Y25843019D01*
X102143525Y25996203D01*
X102273797Y26126475D01*
X102426981Y26228830D01*
X102597190Y26299333D01*
X102777883Y26335275D01*
X102962117Y26335275D01*
X103142810Y26299333D01*
G37*
G36*
X15534929Y27172251D02*
G01*
X15718939Y27096032D01*
X15884544Y26985379D01*
X16025379Y26844544D01*
X16136032Y26678939D01*
X16212251Y26494929D01*
X16251108Y26299585D01*
X16251108Y26100415D01*
X16212251Y25905071D01*
X16136032Y25721061D01*
X16025379Y25555456D01*
X15884544Y25414621D01*
X15718939Y25303968D01*
X15534929Y25227749D01*
X15339585Y25188892D01*
X15140415Y25188892D01*
X14945071Y25227749D01*
X14761061Y25303968D01*
X14595456Y25414621D01*
X14454621Y25555456D01*
X14343968Y25721061D01*
X14267749Y25905071D01*
X14228892Y26100415D01*
X14228892Y26299585D01*
X14267749Y26494929D01*
X14343968Y26678939D01*
X14454621Y26844544D01*
X14595456Y26985379D01*
X14761061Y27096032D01*
X14945071Y27172251D01*
X15140415Y27211108D01*
X15339585Y27211108D01*
X15534929Y27172251D01*
G37*
G36*
X48532810Y27569333D02*
G01*
X48703019Y27498830D01*
X48856203Y27396475D01*
X48986475Y27266203D01*
X49088830Y27113019D01*
X49159333Y26942810D01*
X49195275Y26762117D01*
X49195275Y26577883D01*
X49159333Y26397190D01*
X49088830Y26226981D01*
X48986475Y26073797D01*
X48856203Y25943525D01*
X48703019Y25841170D01*
X48532810Y25770667D01*
X48352117Y25734725D01*
X48167883Y25734725D01*
X47987190Y25770667D01*
X47816981Y25841170D01*
X47663797Y25943525D01*
X47533525Y26073797D01*
X47431170Y26226981D01*
X47360667Y26397190D01*
X47324725Y26577883D01*
X47324725Y26762117D01*
X47360667Y26942810D01*
X47431170Y27113019D01*
X47533525Y27266203D01*
X47663797Y27396475D01*
X47816981Y27498830D01*
X47987190Y27569333D01*
X48167883Y27605275D01*
X48352117Y27605275D01*
X48532810Y27569333D01*
G37*
G36*
X137432810Y27569333D02*
G01*
X137603019Y27498830D01*
X137756203Y27396475D01*
X137886475Y27266203D01*
X137988830Y27113019D01*
X138059333Y26942810D01*
X138095275Y26762117D01*
X138095275Y26577883D01*
X138059333Y26397190D01*
X137988830Y26226981D01*
X137886475Y26073797D01*
X137756203Y25943525D01*
X137603019Y25841170D01*
X137432810Y25770667D01*
X137252117Y25734725D01*
X137067883Y25734725D01*
X136887190Y25770667D01*
X136716981Y25841170D01*
X136563797Y25943525D01*
X136433525Y26073797D01*
X136331170Y26226981D01*
X136260667Y26397190D01*
X136224725Y26577883D01*
X136224725Y26762117D01*
X136260667Y26942810D01*
X136331170Y27113019D01*
X136433525Y27266203D01*
X136563797Y27396475D01*
X136716981Y27498830D01*
X136887190Y27569333D01*
X137067883Y27605275D01*
X137252117Y27605275D01*
X137432810Y27569333D01*
G37*
G36*
X139972810Y27569333D02*
G01*
X140143019Y27498830D01*
X140296203Y27396475D01*
X140426475Y27266203D01*
X140528830Y27113019D01*
X140599333Y26942810D01*
X140635275Y26762117D01*
X140635275Y26577883D01*
X140599333Y26397190D01*
X140528830Y26226981D01*
X140426475Y26073797D01*
X140296203Y25943525D01*
X140143019Y25841170D01*
X139972810Y25770667D01*
X139792117Y25734725D01*
X139607883Y25734725D01*
X139427190Y25770667D01*
X139256981Y25841170D01*
X139103797Y25943525D01*
X138973525Y26073797D01*
X138871170Y26226981D01*
X138800667Y26397190D01*
X138764725Y26577883D01*
X138764725Y26762117D01*
X138800667Y26942810D01*
X138871170Y27113019D01*
X138973525Y27266203D01*
X139103797Y27396475D01*
X139256981Y27498830D01*
X139427190Y27569333D01*
X139607883Y27605275D01*
X139792117Y27605275D01*
X139972810Y27569333D01*
G37*
G36*
X133426200Y26944788D02*
G01*
X133455488Y26915500D01*
X133777911Y26915500D01*
X133807200Y26944789D01*
X133807200Y27300078D01*
X133807200Y27305000D01*
X134467600Y27305000D01*
X134467600Y26921788D01*
X134496888Y26892500D01*
X134819311Y26892500D01*
X134848600Y26921789D01*
X134848600Y27300078D01*
X134848600Y27305000D01*
X135509000Y27305000D01*
X135509000Y26035000D01*
X134848600Y26035000D01*
X134848600Y26372212D01*
X134819312Y26401500D01*
X134496889Y26401500D01*
X134467600Y26372211D01*
X134467600Y26035000D01*
X133807200Y26035000D01*
X133807200Y26395212D01*
X133777912Y26424500D01*
X133455489Y26424500D01*
X133426200Y26395211D01*
X133426200Y26035000D01*
X132765800Y26035000D01*
X132765800Y27305000D01*
X133426200Y27305000D01*
X133426200Y26944788D01*
G37*
G36*
X57422810Y28839333D02*
G01*
X57593019Y28768830D01*
X57746203Y28666475D01*
X57830306Y28582372D01*
X57848103Y28575000D01*
X58131711Y28575000D01*
X58161000Y28604289D01*
X58161000Y28653955D01*
X58165377Y28664523D01*
X58175946Y28668900D01*
X58664054Y28668900D01*
X58674622Y28664523D01*
X58679000Y28653955D01*
X58679000Y28604289D01*
X58708289Y28575000D01*
X58991896Y28575000D01*
X59009694Y28582373D01*
X59093797Y28666475D01*
X59246981Y28768830D01*
X59417190Y28839333D01*
X59597883Y28875275D01*
X59782117Y28875275D01*
X59962810Y28839333D01*
X60133019Y28768830D01*
X60286203Y28666475D01*
X60416475Y28536203D01*
X60518830Y28383019D01*
X60589333Y28212810D01*
X60625275Y28032117D01*
X60625275Y27847883D01*
X60589333Y27667190D01*
X60518830Y27496981D01*
X60416475Y27343797D01*
X60286203Y27213525D01*
X60133019Y27111170D01*
X59962810Y27040667D01*
X59782117Y27004725D01*
X59597883Y27004725D01*
X59417190Y27040667D01*
X59246981Y27111170D01*
X59093797Y27213525D01*
X59009692Y27297630D01*
X58991898Y27305000D01*
X58708288Y27305000D01*
X58679000Y27275712D01*
X58679000Y27226046D01*
X58674622Y27215478D01*
X58664054Y27211100D01*
X58175946Y27211100D01*
X58165377Y27215478D01*
X58161000Y27226046D01*
X58161000Y27275712D01*
X58131712Y27305000D01*
X57848100Y27305000D01*
X57830308Y27297631D01*
X57746203Y27213525D01*
X57593019Y27111170D01*
X57422810Y27040667D01*
X57242117Y27004725D01*
X57057883Y27004725D01*
X56877190Y27040667D01*
X56706981Y27111170D01*
X56553797Y27213525D01*
X56423525Y27343797D01*
X56321170Y27496981D01*
X56250667Y27667190D01*
X56214725Y27847883D01*
X56214725Y28032117D01*
X56250667Y28212810D01*
X56321170Y28383019D01*
X56423525Y28536203D01*
X56553797Y28666475D01*
X56706981Y28768830D01*
X56877190Y28839333D01*
X57057883Y28875275D01*
X57242117Y28875275D01*
X57422810Y28839333D01*
G37*
G36*
X15534929Y29712251D02*
G01*
X15718939Y29636032D01*
X15884544Y29525379D01*
X16025379Y29384544D01*
X16136032Y29218939D01*
X16212251Y29034929D01*
X16251108Y28839585D01*
X16251108Y28640415D01*
X16212251Y28445071D01*
X16136032Y28261061D01*
X16025379Y28095456D01*
X15884544Y27954621D01*
X15718939Y27843968D01*
X15534929Y27767749D01*
X15339585Y27728892D01*
X15140415Y27728892D01*
X14945071Y27767749D01*
X14761061Y27843968D01*
X14595456Y27954621D01*
X14454621Y28095456D01*
X14343968Y28261061D01*
X14267749Y28445071D01*
X14228892Y28640415D01*
X14228892Y28839585D01*
X14267749Y29034929D01*
X14343968Y29218939D01*
X14454621Y29384544D01*
X14595456Y29525379D01*
X14761061Y29636032D01*
X14945071Y29712251D01*
X15140415Y29751108D01*
X15339585Y29751108D01*
X15534929Y29712251D01*
G37*
G36*
X52342810Y31379333D02*
G01*
X52513019Y31308830D01*
X52666203Y31206475D01*
X52796475Y31076203D01*
X52898830Y30923019D01*
X52969333Y30752810D01*
X53005275Y30572117D01*
X53005275Y30387883D01*
X52969333Y30207190D01*
X52898830Y30036981D01*
X52796475Y29883797D01*
X52666203Y29753525D01*
X52513019Y29651170D01*
X52342810Y29580667D01*
X52162117Y29544725D01*
X51977883Y29544725D01*
X51797190Y29580667D01*
X51626981Y29651170D01*
X51473797Y29753525D01*
X51343525Y29883797D01*
X51241170Y30036981D01*
X51170667Y30207190D01*
X51134725Y30387883D01*
X51134725Y30572117D01*
X51170667Y30752810D01*
X51241170Y30923019D01*
X51343525Y31076203D01*
X51473797Y31206475D01*
X51626981Y31308830D01*
X51797190Y31379333D01*
X51977883Y31415275D01*
X52162117Y31415275D01*
X52342810Y31379333D01*
G37*
G36*
X67582810Y31379333D02*
G01*
X67753019Y31308830D01*
X67906203Y31206475D01*
X68036475Y31076203D01*
X68138830Y30923019D01*
X68209333Y30752810D01*
X68245275Y30572117D01*
X68245275Y30387883D01*
X68209333Y30207190D01*
X68138830Y30036981D01*
X68036475Y29883797D01*
X67906203Y29753525D01*
X67753019Y29651170D01*
X67582810Y29580667D01*
X67402117Y29544725D01*
X67217883Y29544725D01*
X67037190Y29580667D01*
X66866981Y29651170D01*
X66713797Y29753525D01*
X66583525Y29883797D01*
X66481170Y30036981D01*
X66410667Y30207190D01*
X66374725Y30387883D01*
X66374725Y30572117D01*
X66410667Y30752810D01*
X66481170Y30923019D01*
X66583525Y31076203D01*
X66713797Y31206475D01*
X66866981Y31308830D01*
X67037190Y31379333D01*
X67217883Y31415275D01*
X67402117Y31415275D01*
X67582810Y31379333D01*
G37*
G36*
X103142810Y31379333D02*
G01*
X103313019Y31308830D01*
X103466203Y31206475D01*
X103596475Y31076203D01*
X103698830Y30923019D01*
X103769333Y30752810D01*
X103805275Y30572117D01*
X103805275Y30387883D01*
X103769333Y30207190D01*
X103698830Y30036981D01*
X103596475Y29883797D01*
X103466203Y29753525D01*
X103313019Y29651170D01*
X103142810Y29580667D01*
X102962117Y29544725D01*
X102777883Y29544725D01*
X102597190Y29580667D01*
X102426981Y29651170D01*
X102273797Y29753525D01*
X102143525Y29883797D01*
X102041170Y30036981D01*
X101970667Y30207190D01*
X101934725Y30387883D01*
X101934725Y30572117D01*
X101970667Y30752810D01*
X102041170Y30923019D01*
X102143525Y31076203D01*
X102273797Y31206475D01*
X102426981Y31308830D01*
X102597190Y31379333D01*
X102777883Y31415275D01*
X102962117Y31415275D01*
X103142810Y31379333D01*
G37*
G36*
X15534929Y32252251D02*
G01*
X15718939Y32176032D01*
X15884544Y32065379D01*
X16025379Y31924544D01*
X16136032Y31758939D01*
X16212251Y31574929D01*
X16251108Y31379585D01*
X16251108Y31180415D01*
X16212251Y30985071D01*
X16136032Y30801061D01*
X16025379Y30635456D01*
X15884544Y30494621D01*
X15718939Y30383968D01*
X15534929Y30307749D01*
X15339585Y30268892D01*
X15140415Y30268892D01*
X14945071Y30307749D01*
X14761061Y30383968D01*
X14595456Y30494621D01*
X14454621Y30635456D01*
X14343968Y30801061D01*
X14267749Y30985071D01*
X14228892Y31180415D01*
X14228892Y31379585D01*
X14267749Y31574929D01*
X14343968Y31758939D01*
X14454621Y31924544D01*
X14595456Y32065379D01*
X14761061Y32176032D01*
X14945071Y32252251D01*
X15140415Y32291108D01*
X15339585Y32291108D01*
X15534929Y32252251D01*
G37*
G36*
X47286476Y34254910D02*
G01*
X47476008Y34193327D01*
X47653573Y34102853D01*
X47814799Y33985716D01*
X47955716Y33844799D01*
X48072853Y33683573D01*
X48163327Y33506008D01*
X48224910Y33316476D01*
X48256085Y33119643D01*
X48256085Y32920357D01*
X48224910Y32723524D01*
X48163327Y32533992D01*
X48072853Y32356427D01*
X47955716Y32195201D01*
X47814799Y32054284D01*
X47653573Y31937147D01*
X47476008Y31846673D01*
X47286476Y31785090D01*
X47089643Y31753915D01*
X46890357Y31753915D01*
X46693524Y31785090D01*
X46503992Y31846673D01*
X46326427Y31937147D01*
X46165201Y32054284D01*
X46024284Y32195201D01*
X45907147Y32356427D01*
X45816673Y32533992D01*
X45755090Y32723524D01*
X45723915Y32920357D01*
X45723915Y33119643D01*
X45755090Y33316476D01*
X45816673Y33506008D01*
X45907147Y33683573D01*
X46024284Y33844799D01*
X46165201Y33985716D01*
X46326427Y34102853D01*
X46503992Y34193327D01*
X46693524Y34254910D01*
X46890357Y34286085D01*
X47089643Y34286085D01*
X47286476Y34254910D01*
G37*
G36*
X110045151Y34922699D02*
G01*
X110246623Y34857237D01*
X110435373Y34761064D01*
X110606755Y34636548D01*
X110756548Y34486755D01*
X110881064Y34315373D01*
X110977237Y34126623D01*
X111042699Y33925151D01*
X111075838Y33715920D01*
X111075838Y33504080D01*
X111042699Y33294849D01*
X110977237Y33093377D01*
X110881064Y32904627D01*
X110756548Y32733245D01*
X110606755Y32583452D01*
X110435373Y32458936D01*
X110246623Y32362763D01*
X110045151Y32297301D01*
X109835920Y32264162D01*
X109624080Y32264162D01*
X109414849Y32297301D01*
X109213377Y32362763D01*
X109024627Y32458936D01*
X108853245Y32583452D01*
X108703452Y32733245D01*
X108578936Y32904627D01*
X108482763Y33093377D01*
X108417301Y33294849D01*
X108384162Y33504080D01*
X108384162Y33715920D01*
X108417301Y33925151D01*
X108482763Y34126623D01*
X108578936Y34315373D01*
X108703452Y34486755D01*
X108853245Y34636548D01*
X109024627Y34761064D01*
X109213377Y34857237D01*
X109414849Y34922699D01*
X109624080Y34955838D01*
X109835920Y34955838D01*
X110045151Y34922699D01*
G37*
G36*
X142045151Y34922699D02*
G01*
X142246623Y34857237D01*
X142435373Y34761064D01*
X142606755Y34636548D01*
X142756548Y34486755D01*
X142881064Y34315373D01*
X142977237Y34126623D01*
X143042699Y33925151D01*
X143075838Y33715920D01*
X143075838Y33504080D01*
X143042699Y33294849D01*
X142977237Y33093377D01*
X142881064Y32904627D01*
X142756548Y32733245D01*
X142606755Y32583452D01*
X142435373Y32458936D01*
X142246623Y32362763D01*
X142045151Y32297301D01*
X141835920Y32264162D01*
X141624080Y32264162D01*
X141414849Y32297301D01*
X141213377Y32362763D01*
X141024627Y32458936D01*
X140853245Y32583452D01*
X140703452Y32733245D01*
X140578936Y32904627D01*
X140482763Y33093377D01*
X140417301Y33294849D01*
X140384162Y33504080D01*
X140384162Y33715920D01*
X140417301Y33925151D01*
X140482763Y34126623D01*
X140578936Y34315373D01*
X140703452Y34486755D01*
X140853245Y34636548D01*
X141024627Y34761064D01*
X141213377Y34857237D01*
X141414849Y34922699D01*
X141624080Y34955838D01*
X141835920Y34955838D01*
X142045151Y34922699D01*
G37*
G36*
X59099957Y39564942D02*
G01*
X59123952Y39558512D01*
X59127041Y39556142D01*
X59130717Y39554947D01*
X59143246Y39544246D01*
X59397246Y39290246D01*
X59412017Y39261256D01*
X59424445Y39239731D01*
X59424953Y39235868D01*
X59426707Y39232426D01*
X59428000Y39216000D01*
X59428000Y37057000D01*
X59417937Y37026032D01*
X59411511Y37002048D01*
X59409141Y36998961D01*
X59407947Y36995283D01*
X59397246Y36982754D01*
X59143246Y36728754D01*
X59114247Y36713979D01*
X59092730Y36701555D01*
X59088867Y36701047D01*
X59085426Y36699293D01*
X59069000Y36698000D01*
X59065725Y36698000D01*
X58948582Y36698000D01*
X58942000Y36698000D01*
X58911034Y36708062D01*
X58887047Y36714489D01*
X58883958Y36716859D01*
X58880283Y36718053D01*
X58867754Y36728754D01*
X58613754Y36982754D01*
X58598985Y37011739D01*
X58586554Y37033270D01*
X58586045Y37037135D01*
X58584293Y37040574D01*
X58583000Y37057000D01*
X58583000Y39216000D01*
X58593057Y39246954D01*
X58599488Y39270953D01*
X58601859Y39274044D01*
X58603053Y39277717D01*
X58613754Y39290246D01*
X58616063Y39292556D01*
X58616067Y39292560D01*
X58863101Y39539594D01*
X58863103Y39539596D01*
X58867754Y39544246D01*
X58896729Y39559010D01*
X58918269Y39571446D01*
X58922135Y39571955D01*
X58925574Y39573707D01*
X58942000Y39575000D01*
X59069000Y39575000D01*
X59099957Y39564942D01*
G37*
G36*
X64179957Y39564942D02*
G01*
X64203952Y39558512D01*
X64207041Y39556142D01*
X64210717Y39554947D01*
X64223246Y39544246D01*
X64477246Y39290246D01*
X64492017Y39261256D01*
X64504445Y39239731D01*
X64504953Y39235868D01*
X64506707Y39232426D01*
X64508000Y39216000D01*
X64508000Y37057000D01*
X64497937Y37026032D01*
X64491511Y37002048D01*
X64489141Y36998961D01*
X64487947Y36995283D01*
X64477246Y36982754D01*
X64223246Y36728754D01*
X64194247Y36713979D01*
X64172730Y36701555D01*
X64168867Y36701047D01*
X64165426Y36699293D01*
X64149000Y36698000D01*
X64145725Y36698000D01*
X63393582Y36698000D01*
X63387000Y36698000D01*
X63356034Y36708062D01*
X63332047Y36714489D01*
X63328958Y36716859D01*
X63325283Y36718053D01*
X63312754Y36728754D01*
X63058754Y36982754D01*
X63043985Y37011739D01*
X63031554Y37033270D01*
X63031045Y37037135D01*
X63029293Y37040574D01*
X63028000Y37057000D01*
X63028000Y39216000D01*
X63038057Y39246954D01*
X63044488Y39270953D01*
X63046859Y39274044D01*
X63048053Y39277717D01*
X63058754Y39290246D01*
X63061063Y39292556D01*
X63061067Y39292560D01*
X63308101Y39539594D01*
X63308103Y39539596D01*
X63312754Y39544246D01*
X63341729Y39559010D01*
X63363269Y39571446D01*
X63367135Y39571955D01*
X63370574Y39573707D01*
X63387000Y39575000D01*
X64149000Y39575000D01*
X64179957Y39564942D01*
G37*
G36*
X68624957Y39564942D02*
G01*
X68648952Y39558512D01*
X68652041Y39556142D01*
X68655717Y39554947D01*
X68668246Y39544246D01*
X68922246Y39290246D01*
X68937017Y39261256D01*
X68949445Y39239731D01*
X68949953Y39235868D01*
X68951707Y39232426D01*
X68953000Y39216000D01*
X68953000Y37057000D01*
X68942937Y37026032D01*
X68936511Y37002048D01*
X68934141Y36998961D01*
X68932947Y36995283D01*
X68922246Y36982754D01*
X68668246Y36728754D01*
X68639247Y36713979D01*
X68617730Y36701555D01*
X68613867Y36701047D01*
X68610426Y36699293D01*
X68594000Y36698000D01*
X68590725Y36698000D01*
X68473582Y36698000D01*
X68467000Y36698000D01*
X68436034Y36708062D01*
X68412047Y36714489D01*
X68408958Y36716859D01*
X68405283Y36718053D01*
X68392754Y36728754D01*
X68138754Y36982754D01*
X68123985Y37011739D01*
X68111554Y37033270D01*
X68111045Y37037135D01*
X68109293Y37040574D01*
X68108000Y37057000D01*
X68108000Y39216000D01*
X68118057Y39246954D01*
X68124488Y39270953D01*
X68126859Y39274044D01*
X68128053Y39277717D01*
X68138754Y39290246D01*
X68141063Y39292556D01*
X68141067Y39292560D01*
X68388101Y39539594D01*
X68388103Y39539596D01*
X68392754Y39544246D01*
X68421729Y39559010D01*
X68443269Y39571446D01*
X68447135Y39571955D01*
X68450574Y39573707D01*
X68467000Y39575000D01*
X68594000Y39575000D01*
X68624957Y39564942D01*
G37*
G36*
X26966476Y41874910D02*
G01*
X27156008Y41813327D01*
X27333573Y41722853D01*
X27494799Y41605716D01*
X27635716Y41464799D01*
X27752853Y41303573D01*
X27843327Y41126008D01*
X27904910Y40936476D01*
X27936085Y40739643D01*
X27936085Y40540357D01*
X27904910Y40343524D01*
X27843327Y40153992D01*
X27752853Y39976427D01*
X27635716Y39815201D01*
X27494799Y39674284D01*
X27333573Y39557147D01*
X27156008Y39466673D01*
X26966476Y39405090D01*
X26769643Y39373915D01*
X26570357Y39373915D01*
X26373524Y39405090D01*
X26183992Y39466673D01*
X26006427Y39557147D01*
X25845201Y39674284D01*
X25704284Y39815201D01*
X25587147Y39976427D01*
X25496673Y40153992D01*
X25435090Y40343524D01*
X25403915Y40540357D01*
X25403915Y40739643D01*
X25435090Y40936476D01*
X25496673Y41126008D01*
X25587147Y41303573D01*
X25704284Y41464799D01*
X25845201Y41605716D01*
X26006427Y41722853D01*
X26183992Y41813327D01*
X26373524Y41874910D01*
X26570357Y41906085D01*
X26769643Y41906085D01*
X26966476Y41874910D01*
G37*
G36*
X47286476Y44414910D02*
G01*
X47476008Y44353327D01*
X47653573Y44262853D01*
X47814799Y44145716D01*
X47955716Y44004799D01*
X48072853Y43843573D01*
X48163327Y43666008D01*
X48224910Y43476476D01*
X48256085Y43279643D01*
X48256085Y43080357D01*
X48224910Y42883524D01*
X48163327Y42693992D01*
X48072853Y42516427D01*
X47955716Y42355201D01*
X47814799Y42214284D01*
X47653573Y42097147D01*
X47476008Y42006673D01*
X47286476Y41945090D01*
X47089643Y41913915D01*
X46890357Y41913915D01*
X46693524Y41945090D01*
X46503992Y42006673D01*
X46326427Y42097147D01*
X46165201Y42214284D01*
X46024284Y42355201D01*
X45907147Y42516427D01*
X45816673Y42693992D01*
X45755090Y42883524D01*
X45723915Y43080357D01*
X45723915Y43279643D01*
X45755090Y43476476D01*
X45816673Y43666008D01*
X45907147Y43843573D01*
X46024284Y44004799D01*
X46165201Y44145716D01*
X46326427Y44262853D01*
X46503992Y44353327D01*
X46693524Y44414910D01*
X46890357Y44446085D01*
X47089643Y44446085D01*
X47286476Y44414910D01*
G37*
G36*
X98062810Y44079333D02*
G01*
X98233019Y44008830D01*
X98386203Y43906475D01*
X98516475Y43776203D01*
X98618830Y43623019D01*
X98689333Y43452810D01*
X98725275Y43272117D01*
X98725275Y43087883D01*
X98689333Y42907190D01*
X98618830Y42736981D01*
X98516475Y42583797D01*
X98386203Y42453525D01*
X98233019Y42351170D01*
X98062810Y42280667D01*
X97882117Y42244725D01*
X97697883Y42244725D01*
X97517190Y42280667D01*
X97346981Y42351170D01*
X97193797Y42453525D01*
X97063525Y42583797D01*
X96961170Y42736981D01*
X96890667Y42907190D01*
X96854725Y43087883D01*
X96854725Y43272117D01*
X96890667Y43452810D01*
X96961170Y43623019D01*
X97063525Y43776203D01*
X97193797Y43906475D01*
X97346981Y44008830D01*
X97517190Y44079333D01*
X97697883Y44115275D01*
X97882117Y44115275D01*
X98062810Y44079333D01*
G37*
G36*
X62502810Y45349333D02*
G01*
X62673019Y45278830D01*
X62826203Y45176475D01*
X62956475Y45046203D01*
X63058830Y44893019D01*
X63129333Y44722810D01*
X63165275Y44542117D01*
X63165275Y44357883D01*
X63129333Y44177190D01*
X63058830Y44006981D01*
X62956475Y43853797D01*
X62826203Y43723525D01*
X62673019Y43621170D01*
X62502810Y43550667D01*
X62322117Y43514725D01*
X62137883Y43514725D01*
X61957190Y43550667D01*
X61786981Y43621170D01*
X61633797Y43723525D01*
X61503525Y43853797D01*
X61401170Y44006981D01*
X61330667Y44177190D01*
X61294725Y44357883D01*
X61294725Y44542117D01*
X61330667Y44722810D01*
X61401170Y44893019D01*
X61503525Y45046203D01*
X61633797Y45176475D01*
X61786981Y45278830D01*
X61957190Y45349333D01*
X62137883Y45385275D01*
X62322117Y45385275D01*
X62502810Y45349333D01*
G37*
G36*
X67582810Y45349333D02*
G01*
X67753019Y45278830D01*
X67906203Y45176475D01*
X68036475Y45046203D01*
X68138830Y44893019D01*
X68209333Y44722810D01*
X68245275Y44542117D01*
X68245275Y44357883D01*
X68209333Y44177190D01*
X68138830Y44006981D01*
X68036475Y43853797D01*
X67906203Y43723525D01*
X67753019Y43621170D01*
X67582810Y43550667D01*
X67402117Y43514725D01*
X67217883Y43514725D01*
X67037190Y43550667D01*
X66866981Y43621170D01*
X66713797Y43723525D01*
X66583525Y43853797D01*
X66481170Y44006981D01*
X66410667Y44177190D01*
X66374725Y44357883D01*
X66374725Y44542117D01*
X66410667Y44722810D01*
X66481170Y44893019D01*
X66583525Y45046203D01*
X66713797Y45176475D01*
X66866981Y45278830D01*
X67037190Y45349333D01*
X67217883Y45385275D01*
X67402117Y45385275D01*
X67582810Y45349333D01*
G37*
G36*
X80282810Y45349333D02*
G01*
X80453019Y45278830D01*
X80606203Y45176475D01*
X80736475Y45046203D01*
X80838830Y44893019D01*
X80909333Y44722810D01*
X80945275Y44542117D01*
X80945275Y44357883D01*
X80909333Y44177190D01*
X80838830Y44006981D01*
X80736475Y43853797D01*
X80606203Y43723525D01*
X80453019Y43621170D01*
X80282810Y43550667D01*
X80102117Y43514725D01*
X79917883Y43514725D01*
X79737190Y43550667D01*
X79566981Y43621170D01*
X79413797Y43723525D01*
X79283525Y43853797D01*
X79181170Y44006981D01*
X79110667Y44177190D01*
X79074725Y44357883D01*
X79074725Y44542117D01*
X79110667Y44722810D01*
X79181170Y44893019D01*
X79283525Y45046203D01*
X79413797Y45176475D01*
X79566981Y45278830D01*
X79737190Y45349333D01*
X79917883Y45385275D01*
X80102117Y45385275D01*
X80282810Y45349333D01*
G37*
G36*
X26966476Y46954910D02*
G01*
X27156008Y46893327D01*
X27333573Y46802853D01*
X27494799Y46685716D01*
X27635716Y46544799D01*
X27752853Y46383573D01*
X27843327Y46206008D01*
X27904910Y46016476D01*
X27936085Y45819643D01*
X27936085Y45620357D01*
X27904910Y45423524D01*
X27843327Y45233992D01*
X27752853Y45056427D01*
X27635716Y44895201D01*
X27494799Y44754284D01*
X27333573Y44637147D01*
X27156008Y44546673D01*
X26966476Y44485090D01*
X26769643Y44453915D01*
X26570357Y44453915D01*
X26373524Y44485090D01*
X26183992Y44546673D01*
X26006427Y44637147D01*
X25845201Y44754284D01*
X25704284Y44895201D01*
X25587147Y45056427D01*
X25496673Y45233992D01*
X25435090Y45423524D01*
X25403915Y45620357D01*
X25403915Y45819643D01*
X25435090Y46016476D01*
X25496673Y46206008D01*
X25587147Y46383573D01*
X25704284Y46544799D01*
X25845201Y46685716D01*
X26006427Y46802853D01*
X26183992Y46893327D01*
X26373524Y46954910D01*
X26570357Y46986085D01*
X26769643Y46986085D01*
X26966476Y46954910D01*
G37*
G36*
X62502810Y49159333D02*
G01*
X62673019Y49088830D01*
X62826203Y48986475D01*
X62956475Y48856203D01*
X63058830Y48703019D01*
X63129333Y48532810D01*
X63165275Y48352117D01*
X63165275Y48167883D01*
X63129333Y47987190D01*
X63058830Y47816981D01*
X62956475Y47663797D01*
X62826203Y47533525D01*
X62673019Y47431170D01*
X62502810Y47360667D01*
X62322117Y47324725D01*
X62137883Y47324725D01*
X61957190Y47360667D01*
X61786981Y47431170D01*
X61633797Y47533525D01*
X61503525Y47663797D01*
X61401170Y47816981D01*
X61330667Y47987190D01*
X61294725Y48167883D01*
X61294725Y48352117D01*
X61330667Y48532810D01*
X61401170Y48703019D01*
X61503525Y48856203D01*
X61633797Y48986475D01*
X61786981Y49088830D01*
X61957190Y49159333D01*
X62137883Y49195275D01*
X62322117Y49195275D01*
X62502810Y49159333D01*
G37*
G36*
X100602810Y51699333D02*
G01*
X100773019Y51628830D01*
X100926203Y51526475D01*
X101056475Y51396203D01*
X101158830Y51243019D01*
X101229333Y51072810D01*
X101265275Y50892117D01*
X101265275Y50707883D01*
X101229333Y50527190D01*
X101158830Y50356981D01*
X101056475Y50203797D01*
X100926203Y50073525D01*
X100773019Y49971170D01*
X100602810Y49900667D01*
X100422117Y49864725D01*
X100237883Y49864725D01*
X100057190Y49900667D01*
X99886981Y49971170D01*
X99733797Y50073525D01*
X99603525Y50203797D01*
X99501170Y50356981D01*
X99430667Y50527190D01*
X99394725Y50707883D01*
X99394725Y50892117D01*
X99430667Y51072810D01*
X99501170Y51243019D01*
X99603525Y51396203D01*
X99733797Y51526475D01*
X99886981Y51628830D01*
X100057190Y51699333D01*
X100237883Y51735275D01*
X100422117Y51735275D01*
X100602810Y51699333D01*
G37*
G36*
X103142810Y52969333D02*
G01*
X103313019Y52898830D01*
X103466203Y52796475D01*
X103596475Y52666203D01*
X103698830Y52513019D01*
X103769333Y52342810D01*
X103805275Y52162117D01*
X103805275Y51977883D01*
X103769333Y51797190D01*
X103698830Y51626981D01*
X103596475Y51473797D01*
X103466203Y51343525D01*
X103313019Y51241170D01*
X103142810Y51170667D01*
X102962117Y51134725D01*
X102777883Y51134725D01*
X102597190Y51170667D01*
X102426981Y51241170D01*
X102273797Y51343525D01*
X102143525Y51473797D01*
X102041170Y51626981D01*
X101970667Y51797190D01*
X101934725Y51977883D01*
X101934725Y52162117D01*
X101970667Y52342810D01*
X102041170Y52513019D01*
X102143525Y52666203D01*
X102273797Y52796475D01*
X102426981Y52898830D01*
X102597190Y52969333D01*
X102777883Y53005275D01*
X102962117Y53005275D01*
X103142810Y52969333D01*
G37*
G36*
X26966476Y54574910D02*
G01*
X27156008Y54513327D01*
X27333573Y54422853D01*
X27494799Y54305716D01*
X27635716Y54164799D01*
X27752853Y54003573D01*
X27843327Y53826008D01*
X27904910Y53636476D01*
X27936085Y53439643D01*
X27936085Y53240357D01*
X27904910Y53043524D01*
X27843327Y52853992D01*
X27752853Y52676427D01*
X27635716Y52515201D01*
X27494799Y52374284D01*
X27333573Y52257147D01*
X27156008Y52166673D01*
X26966476Y52105090D01*
X26769643Y52073915D01*
X26570357Y52073915D01*
X26373524Y52105090D01*
X26183992Y52166673D01*
X26006427Y52257147D01*
X25845201Y52374284D01*
X25704284Y52515201D01*
X25587147Y52676427D01*
X25496673Y52853992D01*
X25435090Y53043524D01*
X25403915Y53240357D01*
X25403915Y53439643D01*
X25435090Y53636476D01*
X25496673Y53826008D01*
X25587147Y54003573D01*
X25704284Y54164799D01*
X25845201Y54305716D01*
X26006427Y54422853D01*
X26183992Y54513327D01*
X26373524Y54574910D01*
X26570357Y54606085D01*
X26769643Y54606085D01*
X26966476Y54574910D01*
G37*
G36*
X47286476Y54574910D02*
G01*
X47476008Y54513327D01*
X47653573Y54422853D01*
X47814799Y54305716D01*
X47955716Y54164799D01*
X48072853Y54003573D01*
X48163327Y53826008D01*
X48224910Y53636476D01*
X48256085Y53439643D01*
X48256085Y53240357D01*
X48224910Y53043524D01*
X48163327Y52853992D01*
X48072853Y52676427D01*
X47955716Y52515201D01*
X47814799Y52374284D01*
X47653573Y52257147D01*
X47476008Y52166673D01*
X47286476Y52105090D01*
X47089643Y52073915D01*
X46890357Y52073915D01*
X46693524Y52105090D01*
X46503992Y52166673D01*
X46326427Y52257147D01*
X46165201Y52374284D01*
X46024284Y52515201D01*
X45907147Y52676427D01*
X45816673Y52853992D01*
X45755090Y53043524D01*
X45723915Y53240357D01*
X45723915Y53439643D01*
X45755090Y53636476D01*
X45816673Y53826008D01*
X45907147Y54003573D01*
X46024284Y54164799D01*
X46165201Y54305716D01*
X46326427Y54422853D01*
X46503992Y54513327D01*
X46693524Y54574910D01*
X46890357Y54606085D01*
X47089643Y54606085D01*
X47286476Y54574910D01*
G37*
G36*
X100602810Y54239333D02*
G01*
X100773019Y54168830D01*
X100926203Y54066475D01*
X101056475Y53936203D01*
X101158830Y53783019D01*
X101229333Y53612810D01*
X101265275Y53432117D01*
X101265275Y53247883D01*
X101229333Y53067190D01*
X101158830Y52896981D01*
X101056475Y52743797D01*
X100926203Y52613525D01*
X100773019Y52511170D01*
X100602810Y52440667D01*
X100422117Y52404725D01*
X100237883Y52404725D01*
X100057190Y52440667D01*
X99886981Y52511170D01*
X99733797Y52613525D01*
X99603525Y52743797D01*
X99501170Y52896981D01*
X99430667Y53067190D01*
X99394725Y53247883D01*
X99394725Y53432117D01*
X99430667Y53612810D01*
X99501170Y53783019D01*
X99603525Y53936203D01*
X99733797Y54066475D01*
X99886981Y54168830D01*
X100057190Y54239333D01*
X100237883Y54275275D01*
X100422117Y54275275D01*
X100602810Y54239333D01*
G37*
G36*
X142045151Y55922699D02*
G01*
X142246623Y55857237D01*
X142435373Y55761064D01*
X142606755Y55636548D01*
X142756548Y55486755D01*
X142881064Y55315373D01*
X142977237Y55126623D01*
X143042699Y54925151D01*
X143075838Y54715920D01*
X143075838Y54504080D01*
X143042699Y54294849D01*
X142977237Y54093377D01*
X142881064Y53904627D01*
X142756548Y53733245D01*
X142606755Y53583452D01*
X142435373Y53458936D01*
X142246623Y53362763D01*
X142045151Y53297301D01*
X141835920Y53264162D01*
X141624080Y53264162D01*
X141414849Y53297301D01*
X141213377Y53362763D01*
X141024627Y53458936D01*
X140853245Y53583452D01*
X140703452Y53733245D01*
X140578936Y53904627D01*
X140482763Y54093377D01*
X140417301Y54294849D01*
X140384162Y54504080D01*
X140384162Y54715920D01*
X140417301Y54925151D01*
X140482763Y55126623D01*
X140578936Y55315373D01*
X140703452Y55486755D01*
X140853245Y55636548D01*
X141024627Y55761064D01*
X141213377Y55857237D01*
X141414849Y55922699D01*
X141624080Y55955838D01*
X141835920Y55955838D01*
X142045151Y55922699D01*
G37*
G36*
X54626140Y54188149D02*
G01*
X54722224Y54132675D01*
X54800675Y54054224D01*
X54856149Y53958140D01*
X54884864Y53850974D01*
X54884864Y53740026D01*
X54856149Y53632860D01*
X54800675Y53536776D01*
X54722224Y53458325D01*
X54626140Y53402851D01*
X54518974Y53374136D01*
X54408026Y53374136D01*
X54300860Y53402851D01*
X54204776Y53458325D01*
X54126325Y53536776D01*
X54070851Y53632860D01*
X54042136Y53740026D01*
X54042136Y53850974D01*
X54070851Y53958140D01*
X54126325Y54054224D01*
X54204776Y54132675D01*
X54300860Y54188149D01*
X54408026Y54216864D01*
X54518974Y54216864D01*
X54626140Y54188149D01*
G37*
G36*
X57626140Y54188149D02*
G01*
X57722224Y54132675D01*
X57800675Y54054224D01*
X57856149Y53958140D01*
X57884864Y53850974D01*
X57884864Y53740026D01*
X57856149Y53632860D01*
X57800675Y53536776D01*
X57722224Y53458325D01*
X57626140Y53402851D01*
X57518974Y53374136D01*
X57408026Y53374136D01*
X57300860Y53402851D01*
X57204776Y53458325D01*
X57126325Y53536776D01*
X57070851Y53632860D01*
X57042136Y53740026D01*
X57042136Y53850974D01*
X57070851Y53958140D01*
X57126325Y54054224D01*
X57204776Y54132675D01*
X57300860Y54188149D01*
X57408026Y54216864D01*
X57518974Y54216864D01*
X57626140Y54188149D01*
G37*
G36*
X103142810Y55509333D02*
G01*
X103313019Y55438830D01*
X103466203Y55336475D01*
X103596475Y55206203D01*
X103698830Y55053019D01*
X103769333Y54882810D01*
X103805275Y54702117D01*
X103805275Y54517883D01*
X103769333Y54337190D01*
X103698830Y54166981D01*
X103596475Y54013797D01*
X103466203Y53883525D01*
X103313019Y53781170D01*
X103142810Y53710667D01*
X102962117Y53674725D01*
X102777883Y53674725D01*
X102597190Y53710667D01*
X102426981Y53781170D01*
X102273797Y53883525D01*
X102143525Y54013797D01*
X102041170Y54166981D01*
X101970667Y54337190D01*
X101934725Y54517883D01*
X101934725Y54702117D01*
X101970667Y54882810D01*
X102041170Y55053019D01*
X102143525Y55206203D01*
X102273797Y55336475D01*
X102426981Y55438830D01*
X102597190Y55509333D01*
X102777883Y55545275D01*
X102962117Y55545275D01*
X103142810Y55509333D01*
G37*
G36*
X100602810Y56779333D02*
G01*
X100773019Y56708830D01*
X100926203Y56606475D01*
X101056475Y56476203D01*
X101158830Y56323019D01*
X101229333Y56152810D01*
X101265275Y55972117D01*
X101265275Y55787883D01*
X101229333Y55607190D01*
X101158830Y55436981D01*
X101056475Y55283797D01*
X100926203Y55153525D01*
X100773019Y55051170D01*
X100602810Y54980667D01*
X100422117Y54944725D01*
X100237883Y54944725D01*
X100057190Y54980667D01*
X99886981Y55051170D01*
X99733797Y55153525D01*
X99603525Y55283797D01*
X99501170Y55436981D01*
X99430667Y55607190D01*
X99394725Y55787883D01*
X99394725Y55972117D01*
X99430667Y56152810D01*
X99501170Y56323019D01*
X99603525Y56476203D01*
X99733797Y56606475D01*
X99886981Y56708830D01*
X100057190Y56779333D01*
X100237883Y56815275D01*
X100422117Y56815275D01*
X100602810Y56779333D01*
G37*
G36*
X103142810Y58049333D02*
G01*
X103313019Y57978830D01*
X103466203Y57876475D01*
X103596475Y57746203D01*
X103698830Y57593019D01*
X103769333Y57422810D01*
X103805275Y57242117D01*
X103805275Y57057883D01*
X103769333Y56877190D01*
X103698830Y56706981D01*
X103596475Y56553797D01*
X103466203Y56423525D01*
X103313019Y56321170D01*
X103142810Y56250667D01*
X102962117Y56214725D01*
X102777883Y56214725D01*
X102597190Y56250667D01*
X102426981Y56321170D01*
X102273797Y56423525D01*
X102143525Y56553797D01*
X102041170Y56706981D01*
X101970667Y56877190D01*
X101934725Y57057883D01*
X101934725Y57242117D01*
X101970667Y57422810D01*
X102041170Y57593019D01*
X102143525Y57746203D01*
X102273797Y57876475D01*
X102426981Y57978830D01*
X102597190Y58049333D01*
X102777883Y58085275D01*
X102962117Y58085275D01*
X103142810Y58049333D01*
G37*
G36*
X47262810Y59319333D02*
G01*
X47433019Y59248830D01*
X47586203Y59146475D01*
X47716475Y59016203D01*
X47818830Y58863019D01*
X47889333Y58692810D01*
X47925275Y58512117D01*
X47925275Y58327883D01*
X47889333Y58147190D01*
X47818830Y57976981D01*
X47716475Y57823797D01*
X47586203Y57693525D01*
X47433019Y57591170D01*
X47262810Y57520667D01*
X47082117Y57484725D01*
X46897883Y57484725D01*
X46717190Y57520667D01*
X46546981Y57591170D01*
X46393797Y57693525D01*
X46263525Y57823797D01*
X46161170Y57976981D01*
X46090667Y58147190D01*
X46054725Y58327883D01*
X46054725Y58512117D01*
X46090667Y58692810D01*
X46161170Y58863019D01*
X46263525Y59016203D01*
X46393797Y59146475D01*
X46546981Y59248830D01*
X46717190Y59319333D01*
X46897883Y59355275D01*
X47082117Y59355275D01*
X47262810Y59319333D01*
G37*
G36*
X100602810Y59319333D02*
G01*
X100773019Y59248830D01*
X100926203Y59146475D01*
X101056475Y59016203D01*
X101158830Y58863019D01*
X101229333Y58692810D01*
X101265275Y58512117D01*
X101265275Y58327883D01*
X101229333Y58147190D01*
X101158830Y57976981D01*
X101056475Y57823797D01*
X100926203Y57693525D01*
X100773019Y57591170D01*
X100602810Y57520667D01*
X100422117Y57484725D01*
X100237883Y57484725D01*
X100057190Y57520667D01*
X99886981Y57591170D01*
X99733797Y57693525D01*
X99603525Y57823797D01*
X99501170Y57976981D01*
X99430667Y58147190D01*
X99394725Y58327883D01*
X99394725Y58512117D01*
X99430667Y58692810D01*
X99501170Y58863019D01*
X99603525Y59016203D01*
X99733797Y59146475D01*
X99886981Y59248830D01*
X100057190Y59319333D01*
X100237883Y59355275D01*
X100422117Y59355275D01*
X100602810Y59319333D01*
G37*
G36*
X103142810Y60589333D02*
G01*
X103313019Y60518830D01*
X103466203Y60416475D01*
X103596475Y60286203D01*
X103698830Y60133019D01*
X103769333Y59962810D01*
X103805275Y59782117D01*
X103805275Y59597883D01*
X103769333Y59417190D01*
X103698830Y59246981D01*
X103596475Y59093797D01*
X103466203Y58963525D01*
X103313019Y58861170D01*
X103142810Y58790667D01*
X102962117Y58754725D01*
X102777883Y58754725D01*
X102597190Y58790667D01*
X102426981Y58861170D01*
X102273797Y58963525D01*
X102143525Y59093797D01*
X102041170Y59246981D01*
X101970667Y59417190D01*
X101934725Y59597883D01*
X101934725Y59782117D01*
X101970667Y59962810D01*
X102041170Y60133019D01*
X102143525Y60286203D01*
X102273797Y60416475D01*
X102426981Y60518830D01*
X102597190Y60589333D01*
X102777883Y60625275D01*
X102962117Y60625275D01*
X103142810Y60589333D01*
G37*
G36*
X100602810Y61859333D02*
G01*
X100773019Y61788830D01*
X100926203Y61686475D01*
X101056475Y61556203D01*
X101158830Y61403019D01*
X101229333Y61232810D01*
X101265275Y61052117D01*
X101265275Y60867883D01*
X101229333Y60687190D01*
X101158830Y60516981D01*
X101056475Y60363797D01*
X100926203Y60233525D01*
X100773019Y60131170D01*
X100602810Y60060667D01*
X100422117Y60024725D01*
X100237883Y60024725D01*
X100057190Y60060667D01*
X99886981Y60131170D01*
X99733797Y60233525D01*
X99603525Y60363797D01*
X99501170Y60516981D01*
X99430667Y60687190D01*
X99394725Y60867883D01*
X99394725Y61052117D01*
X99430667Y61232810D01*
X99501170Y61403019D01*
X99603525Y61556203D01*
X99733797Y61686475D01*
X99886981Y61788830D01*
X100057190Y61859333D01*
X100237883Y61895275D01*
X100422117Y61895275D01*
X100602810Y61859333D01*
G37*
G36*
X63772810Y63129333D02*
G01*
X63943019Y63058830D01*
X64096203Y62956475D01*
X64226475Y62826203D01*
X64328830Y62673019D01*
X64399333Y62502810D01*
X64435275Y62322117D01*
X64435275Y62137883D01*
X64399333Y61957190D01*
X64328830Y61786981D01*
X64226475Y61633797D01*
X64096203Y61503525D01*
X63943019Y61401170D01*
X63772810Y61330667D01*
X63592117Y61294725D01*
X63407883Y61294725D01*
X63227190Y61330667D01*
X63056981Y61401170D01*
X62903797Y61503525D01*
X62773525Y61633797D01*
X62671170Y61786981D01*
X62600667Y61957190D01*
X62564725Y62137883D01*
X62564725Y62322117D01*
X62600667Y62502810D01*
X62671170Y62673019D01*
X62773525Y62826203D01*
X62903797Y62956475D01*
X63056981Y63058830D01*
X63227190Y63129333D01*
X63407883Y63165275D01*
X63592117Y63165275D01*
X63772810Y63129333D01*
G37*
G36*
X103142810Y63129333D02*
G01*
X103313019Y63058830D01*
X103466203Y62956475D01*
X103596475Y62826203D01*
X103698830Y62673019D01*
X103769333Y62502810D01*
X103805275Y62322117D01*
X103805275Y62137883D01*
X103769333Y61957190D01*
X103698830Y61786981D01*
X103596475Y61633797D01*
X103466203Y61503525D01*
X103313019Y61401170D01*
X103142810Y61330667D01*
X102962117Y61294725D01*
X102777883Y61294725D01*
X102597190Y61330667D01*
X102426981Y61401170D01*
X102273797Y61503525D01*
X102143525Y61633797D01*
X102041170Y61786981D01*
X101970667Y61957190D01*
X101934725Y62137883D01*
X101934725Y62322117D01*
X101970667Y62502810D01*
X102041170Y62673019D01*
X102143525Y62826203D01*
X102273797Y62956475D01*
X102426981Y63058830D01*
X102597190Y63129333D01*
X102777883Y63165275D01*
X102962117Y63165275D01*
X103142810Y63129333D01*
G37*
G36*
X100602810Y64399333D02*
G01*
X100773019Y64328830D01*
X100926203Y64226475D01*
X101056475Y64096203D01*
X101158830Y63943019D01*
X101229333Y63772810D01*
X101265275Y63592117D01*
X101265275Y63407883D01*
X101229333Y63227190D01*
X101158830Y63056981D01*
X101056475Y62903797D01*
X100926203Y62773525D01*
X100773019Y62671170D01*
X100602810Y62600667D01*
X100422117Y62564725D01*
X100237883Y62564725D01*
X100057190Y62600667D01*
X99886981Y62671170D01*
X99733797Y62773525D01*
X99603525Y62903797D01*
X99501170Y63056981D01*
X99430667Y63227190D01*
X99394725Y63407883D01*
X99394725Y63592117D01*
X99430667Y63772810D01*
X99501170Y63943019D01*
X99603525Y64096203D01*
X99733797Y64226475D01*
X99886981Y64328830D01*
X100057190Y64399333D01*
X100237883Y64435275D01*
X100422117Y64435275D01*
X100602810Y64399333D01*
G37*
G36*
X15534929Y67812251D02*
G01*
X15718939Y67736032D01*
X15884544Y67625379D01*
X16025379Y67484544D01*
X16136032Y67318939D01*
X16212251Y67134929D01*
X16251108Y66939585D01*
X16251108Y66740415D01*
X16212251Y66545071D01*
X16136032Y66361061D01*
X16025379Y66195456D01*
X15884544Y66054621D01*
X15718939Y65943968D01*
X15534929Y65867749D01*
X15339585Y65828892D01*
X15140415Y65828892D01*
X14945071Y65867749D01*
X14761061Y65943968D01*
X14595456Y66054621D01*
X14454621Y66195456D01*
X14343968Y66361061D01*
X14267749Y66545071D01*
X14228892Y66740415D01*
X14228892Y66939585D01*
X14267749Y67134929D01*
X14343968Y67318939D01*
X14454621Y67484544D01*
X14595456Y67625379D01*
X14761061Y67736032D01*
X14945071Y67812251D01*
X15140415Y67851108D01*
X15339585Y67851108D01*
X15534929Y67812251D01*
G37*
G36*
X15534929Y70352251D02*
G01*
X15718939Y70276032D01*
X15884544Y70165379D01*
X16025379Y70024544D01*
X16136032Y69858939D01*
X16212251Y69674929D01*
X16251108Y69479585D01*
X16251108Y69280415D01*
X16212251Y69085071D01*
X16136032Y68901061D01*
X16025379Y68735456D01*
X15884544Y68594621D01*
X15718939Y68483968D01*
X15534929Y68407749D01*
X15339585Y68368892D01*
X15140415Y68368892D01*
X14945071Y68407749D01*
X14761061Y68483968D01*
X14595456Y68594621D01*
X14454621Y68735456D01*
X14343968Y68901061D01*
X14267749Y69085071D01*
X14228892Y69280415D01*
X14228892Y69479585D01*
X14267749Y69674929D01*
X14343968Y69858939D01*
X14454621Y70024544D01*
X14595456Y70165379D01*
X14761061Y70276032D01*
X14945071Y70352251D01*
X15140415Y70391108D01*
X15339585Y70391108D01*
X15534929Y70352251D01*
G37*
G36*
X15534929Y72892251D02*
G01*
X15718939Y72816032D01*
X15884544Y72705379D01*
X16025379Y72564544D01*
X16136032Y72398939D01*
X16212251Y72214929D01*
X16251108Y72019585D01*
X16251108Y71820415D01*
X16212251Y71625071D01*
X16136032Y71441061D01*
X16025379Y71275456D01*
X15884544Y71134621D01*
X15718939Y71023968D01*
X15534929Y70947749D01*
X15339585Y70908892D01*
X15140415Y70908892D01*
X14945071Y70947749D01*
X14761061Y71023968D01*
X14595456Y71134621D01*
X14454621Y71275456D01*
X14343968Y71441061D01*
X14267749Y71625071D01*
X14228892Y71820415D01*
X14228892Y72019585D01*
X14267749Y72214929D01*
X14343968Y72398939D01*
X14454621Y72564544D01*
X14595456Y72705379D01*
X14761061Y72816032D01*
X14945071Y72892251D01*
X15140415Y72931108D01*
X15339585Y72931108D01*
X15534929Y72892251D01*
G37*
G36*
X15534929Y75432251D02*
G01*
X15718939Y75356032D01*
X15884544Y75245379D01*
X16025379Y75104544D01*
X16136032Y74938939D01*
X16212251Y74754929D01*
X16251108Y74559585D01*
X16251108Y74360415D01*
X16212251Y74165071D01*
X16136032Y73981061D01*
X16025379Y73815456D01*
X15884544Y73674621D01*
X15718939Y73563968D01*
X15534929Y73487749D01*
X15339585Y73448892D01*
X15140415Y73448892D01*
X14945071Y73487749D01*
X14761061Y73563968D01*
X14595456Y73674621D01*
X14454621Y73815456D01*
X14343968Y73981061D01*
X14267749Y74165071D01*
X14228892Y74360415D01*
X14228892Y74559585D01*
X14267749Y74754929D01*
X14343968Y74938939D01*
X14454621Y75104544D01*
X14595456Y75245379D01*
X14761061Y75356032D01*
X14945071Y75432251D01*
X15140415Y75471108D01*
X15339585Y75471108D01*
X15534929Y75432251D01*
G37*
G36*
X110045151Y76922699D02*
G01*
X110246623Y76857237D01*
X110435373Y76761064D01*
X110606755Y76636548D01*
X110756548Y76486755D01*
X110881064Y76315373D01*
X110977237Y76126623D01*
X111042699Y75925151D01*
X111075838Y75715920D01*
X111075838Y75504080D01*
X111042699Y75294849D01*
X110977237Y75093377D01*
X110881064Y74904627D01*
X110756548Y74733245D01*
X110606755Y74583452D01*
X110435373Y74458936D01*
X110246623Y74362763D01*
X110045151Y74297301D01*
X109835920Y74264162D01*
X109624080Y74264162D01*
X109414849Y74297301D01*
X109213377Y74362763D01*
X109024627Y74458936D01*
X108853245Y74583452D01*
X108703452Y74733245D01*
X108578936Y74904627D01*
X108482763Y75093377D01*
X108417301Y75294849D01*
X108384162Y75504080D01*
X108384162Y75715920D01*
X108417301Y75925151D01*
X108482763Y76126623D01*
X108578936Y76315373D01*
X108703452Y76486755D01*
X108853245Y76636548D01*
X109024627Y76761064D01*
X109213377Y76857237D01*
X109414849Y76922699D01*
X109624080Y76955838D01*
X109835920Y76955838D01*
X110045151Y76922699D01*
G37*
G36*
X142045151Y76922699D02*
G01*
X142246623Y76857237D01*
X142435373Y76761064D01*
X142606755Y76636548D01*
X142756548Y76486755D01*
X142881064Y76315373D01*
X142977237Y76126623D01*
X143042699Y75925151D01*
X143075838Y75715920D01*
X143075838Y75504080D01*
X143042699Y75294849D01*
X142977237Y75093377D01*
X142881064Y74904627D01*
X142756548Y74733245D01*
X142606755Y74583452D01*
X142435373Y74458936D01*
X142246623Y74362763D01*
X142045151Y74297301D01*
X141835920Y74264162D01*
X141624080Y74264162D01*
X141414849Y74297301D01*
X141213377Y74362763D01*
X141024627Y74458936D01*
X140853245Y74583452D01*
X140703452Y74733245D01*
X140578936Y74904627D01*
X140482763Y75093377D01*
X140417301Y75294849D01*
X140384162Y75504080D01*
X140384162Y75715920D01*
X140417301Y75925151D01*
X140482763Y76126623D01*
X140578936Y76315373D01*
X140703452Y76486755D01*
X140853245Y76636548D01*
X141024627Y76761064D01*
X141213377Y76857237D01*
X141414849Y76922699D01*
X141624080Y76955838D01*
X141835920Y76955838D01*
X142045151Y76922699D01*
G37*
G36*
X7892810Y80909333D02*
G01*
X8063019Y80838830D01*
X8216203Y80736475D01*
X8346475Y80606203D01*
X8448830Y80453019D01*
X8519333Y80282810D01*
X8555275Y80102117D01*
X8555275Y79917883D01*
X8519333Y79737190D01*
X8448830Y79566981D01*
X8346475Y79413797D01*
X8262369Y79329692D01*
X8255000Y79311900D01*
X8255000Y79110898D01*
X8255000Y79028289D01*
X8284289Y78999000D01*
X8333954Y78999000D01*
X8344522Y78994623D01*
X8348900Y78984055D01*
X8348900Y78495946D01*
X8344522Y78485378D01*
X8333954Y78481000D01*
X8284288Y78481000D01*
X8255000Y78451712D01*
X8255000Y78168102D01*
X8262370Y78150308D01*
X8346475Y78066203D01*
X8448830Y77913019D01*
X8519333Y77742810D01*
X8555275Y77562117D01*
X8555275Y77377883D01*
X8519333Y77197190D01*
X8448830Y77026981D01*
X8346475Y76873797D01*
X8216203Y76743525D01*
X8063019Y76641170D01*
X7892810Y76570667D01*
X7712117Y76534725D01*
X7527883Y76534725D01*
X7347190Y76570667D01*
X7176981Y76641170D01*
X7023797Y76743525D01*
X6893525Y76873797D01*
X6791170Y77026981D01*
X6720667Y77197190D01*
X6684725Y77377883D01*
X6684725Y77562117D01*
X6720667Y77742810D01*
X6791170Y77913019D01*
X6893525Y78066203D01*
X6977627Y78150306D01*
X6985000Y78168104D01*
X6985000Y78451711D01*
X6955711Y78481000D01*
X6906046Y78481000D01*
X6895477Y78485378D01*
X6891100Y78495946D01*
X6891100Y78984055D01*
X6895477Y78994623D01*
X6906046Y78999000D01*
X6955712Y78999000D01*
X6985000Y79028288D01*
X6985000Y79311898D01*
X6977628Y79329694D01*
X6893525Y79413797D01*
X6791170Y79566981D01*
X6720667Y79737190D01*
X6684725Y79917883D01*
X6684725Y80102117D01*
X6720667Y80282810D01*
X6791170Y80453019D01*
X6893525Y80606203D01*
X7023797Y80736475D01*
X7176981Y80838830D01*
X7347190Y80909333D01*
X7527883Y80945275D01*
X7712117Y80945275D01*
X7892810Y80909333D01*
G37*
G36*
X10432810Y80909333D02*
G01*
X10603019Y80838830D01*
X10756203Y80736475D01*
X10886475Y80606203D01*
X10988830Y80453019D01*
X11059333Y80282810D01*
X11095275Y80102117D01*
X11095275Y79917883D01*
X11059333Y79737190D01*
X10988830Y79566981D01*
X10886475Y79413797D01*
X10802369Y79329692D01*
X10795000Y79311900D01*
X10795000Y79110898D01*
X10795000Y79028289D01*
X10824289Y78999000D01*
X10873954Y78999000D01*
X10884522Y78994623D01*
X10888900Y78984055D01*
X10888900Y78495946D01*
X10884522Y78485378D01*
X10873954Y78481000D01*
X10824288Y78481000D01*
X10795000Y78451712D01*
X10795000Y78168102D01*
X10802370Y78150308D01*
X10886475Y78066203D01*
X10988830Y77913019D01*
X11059333Y77742810D01*
X11095275Y77562117D01*
X11095275Y77377883D01*
X11059333Y77197190D01*
X10988830Y77026981D01*
X10886475Y76873797D01*
X10756203Y76743525D01*
X10603019Y76641170D01*
X10432810Y76570667D01*
X10252117Y76534725D01*
X10067883Y76534725D01*
X9887190Y76570667D01*
X9716981Y76641170D01*
X9563797Y76743525D01*
X9433525Y76873797D01*
X9331170Y77026981D01*
X9260667Y77197190D01*
X9224725Y77377883D01*
X9224725Y77562117D01*
X9260667Y77742810D01*
X9331170Y77913019D01*
X9433525Y78066203D01*
X9517627Y78150306D01*
X9525000Y78168104D01*
X9525000Y78451711D01*
X9495711Y78481000D01*
X9446046Y78481000D01*
X9435477Y78485378D01*
X9431100Y78495946D01*
X9431100Y78984055D01*
X9435477Y78994623D01*
X9446046Y78999000D01*
X9495712Y78999000D01*
X9525000Y79028288D01*
X9525000Y79311898D01*
X9517628Y79329694D01*
X9433525Y79413797D01*
X9331170Y79566981D01*
X9260667Y79737190D01*
X9224725Y79917883D01*
X9224725Y80102117D01*
X9260667Y80282810D01*
X9331170Y80453019D01*
X9433525Y80606203D01*
X9563797Y80736475D01*
X9716981Y80838830D01*
X9887190Y80909333D01*
X10067883Y80945275D01*
X10252117Y80945275D01*
X10432810Y80909333D01*
G37*
G36*
X101872810Y80909333D02*
G01*
X102043019Y80838830D01*
X102196203Y80736475D01*
X102326475Y80606203D01*
X102428830Y80453019D01*
X102499333Y80282810D01*
X102535275Y80102117D01*
X102535275Y79917883D01*
X102499333Y79737190D01*
X102428830Y79566981D01*
X102326475Y79413797D01*
X102196203Y79283525D01*
X102043019Y79181170D01*
X101872810Y79110667D01*
X101692117Y79074725D01*
X101507883Y79074725D01*
X101327190Y79110667D01*
X101156981Y79181170D01*
X101003797Y79283525D01*
X100873525Y79413797D01*
X100771170Y79566981D01*
X100700667Y79737190D01*
X100664725Y79917883D01*
X100664725Y80102117D01*
X100700667Y80282810D01*
X100771170Y80453019D01*
X100873525Y80606203D01*
X101003797Y80736475D01*
X101156981Y80838830D01*
X101327190Y80909333D01*
X101507883Y80945275D01*
X101692117Y80945275D01*
X101872810Y80909333D01*
G37*
G36*
X87902810Y83449333D02*
G01*
X88073019Y83378830D01*
X88226203Y83276475D01*
X88356475Y83146203D01*
X88458830Y82993019D01*
X88529333Y82822810D01*
X88565275Y82642117D01*
X88565275Y82457883D01*
X88529333Y82277190D01*
X88458830Y82106981D01*
X88356475Y81953797D01*
X88226203Y81823525D01*
X88073019Y81721170D01*
X87902810Y81650667D01*
X87722117Y81614725D01*
X87537883Y81614725D01*
X87357190Y81650667D01*
X87186981Y81721170D01*
X87033797Y81823525D01*
X86903525Y81953797D01*
X86801170Y82106981D01*
X86730667Y82277190D01*
X86694725Y82457883D01*
X86694725Y82642117D01*
X86730667Y82822810D01*
X86801170Y82993019D01*
X86903525Y83146203D01*
X87033797Y83276475D01*
X87186981Y83378830D01*
X87357190Y83449333D01*
X87537883Y83485275D01*
X87722117Y83485275D01*
X87902810Y83449333D01*
G37*
G36*
X129812810Y83449333D02*
G01*
X129983019Y83378830D01*
X130136203Y83276475D01*
X130266475Y83146203D01*
X130368830Y82993019D01*
X130439333Y82822810D01*
X130475275Y82642117D01*
X130475275Y82457883D01*
X130439333Y82277190D01*
X130368830Y82106981D01*
X130266475Y81953797D01*
X130136203Y81823525D01*
X129983019Y81721170D01*
X129812810Y81650667D01*
X129632117Y81614725D01*
X129447883Y81614725D01*
X129267190Y81650667D01*
X129096981Y81721170D01*
X128943797Y81823525D01*
X128813525Y81953797D01*
X128711170Y82106981D01*
X128640667Y82277190D01*
X128604725Y82457883D01*
X128604725Y82642117D01*
X128640667Y82822810D01*
X128711170Y82993019D01*
X128813525Y83146203D01*
X128943797Y83276475D01*
X129096981Y83378830D01*
X129267190Y83449333D01*
X129447883Y83485275D01*
X129632117Y83485275D01*
X129812810Y83449333D01*
G37*
G36*
X11012714Y84029705D02*
G01*
X11148548Y83973441D01*
X11270795Y83891758D01*
X11374758Y83787795D01*
X11456441Y83665548D01*
X11512705Y83529714D01*
X11541389Y83385513D01*
X11541389Y83238487D01*
X11512705Y83094286D01*
X11456441Y82958452D01*
X11374758Y82836205D01*
X11270795Y82732242D01*
X11148548Y82650559D01*
X11012714Y82594295D01*
X10868513Y82565611D01*
X10721487Y82565611D01*
X10577286Y82594295D01*
X10441452Y82650559D01*
X10319205Y82732242D01*
X10215242Y82836205D01*
X10133559Y82958452D01*
X10077295Y83094286D01*
X10048611Y83238487D01*
X10048611Y83385513D01*
X10077295Y83529714D01*
X10133559Y83665548D01*
X10215242Y83787795D01*
X10319205Y83891758D01*
X10441452Y83973441D01*
X10577286Y84029705D01*
X10721487Y84058389D01*
X10868513Y84058389D01*
X11012714Y84029705D01*
G37*
G36*
X13552714Y84029705D02*
G01*
X13688548Y83973441D01*
X13810795Y83891758D01*
X13914758Y83787795D01*
X13996441Y83665548D01*
X14052705Y83529714D01*
X14081389Y83385513D01*
X14081389Y83238487D01*
X14052705Y83094286D01*
X13996441Y82958452D01*
X13914758Y82836205D01*
X13810795Y82732242D01*
X13688548Y82650559D01*
X13552714Y82594295D01*
X13408513Y82565611D01*
X13261487Y82565611D01*
X13117286Y82594295D01*
X12981452Y82650559D01*
X12859205Y82732242D01*
X12755242Y82836205D01*
X12673559Y82958452D01*
X12617295Y83094286D01*
X12588611Y83238487D01*
X12588611Y83385513D01*
X12617295Y83529714D01*
X12673559Y83665548D01*
X12755242Y83787795D01*
X12859205Y83891758D01*
X12981452Y83973441D01*
X13117286Y84029705D01*
X13261487Y84058389D01*
X13408513Y84058389D01*
X13552714Y84029705D01*
G37*
G36*
X16092714Y84029705D02*
G01*
X16228548Y83973441D01*
X16350795Y83891758D01*
X16454758Y83787795D01*
X16536441Y83665548D01*
X16592705Y83529714D01*
X16621389Y83385513D01*
X16621389Y83238487D01*
X16592705Y83094286D01*
X16536441Y82958452D01*
X16454758Y82836205D01*
X16350795Y82732242D01*
X16228548Y82650559D01*
X16092714Y82594295D01*
X15948513Y82565611D01*
X15801487Y82565611D01*
X15657286Y82594295D01*
X15521452Y82650559D01*
X15399205Y82732242D01*
X15295242Y82836205D01*
X15213559Y82958452D01*
X15157295Y83094286D01*
X15128611Y83238487D01*
X15128611Y83385513D01*
X15157295Y83529714D01*
X15213559Y83665548D01*
X15295242Y83787795D01*
X15399205Y83891758D01*
X15521452Y83973441D01*
X15657286Y84029705D01*
X15801487Y84058389D01*
X15948513Y84058389D01*
X16092714Y84029705D01*
G37*
G36*
X18632714Y84029705D02*
G01*
X18768548Y83973441D01*
X18890795Y83891758D01*
X18994758Y83787795D01*
X19076441Y83665548D01*
X19132705Y83529714D01*
X19161389Y83385513D01*
X19161389Y83238487D01*
X19132705Y83094286D01*
X19076441Y82958452D01*
X18994758Y82836205D01*
X18890795Y82732242D01*
X18768548Y82650559D01*
X18632714Y82594295D01*
X18488513Y82565611D01*
X18341487Y82565611D01*
X18197286Y82594295D01*
X18061452Y82650559D01*
X17939205Y82732242D01*
X17835242Y82836205D01*
X17753559Y82958452D01*
X17697295Y83094286D01*
X17668611Y83238487D01*
X17668611Y83385513D01*
X17697295Y83529714D01*
X17753559Y83665548D01*
X17835242Y83787795D01*
X17939205Y83891758D01*
X18061452Y83973441D01*
X18197286Y84029705D01*
X18341487Y84058389D01*
X18488513Y84058389D01*
X18632714Y84029705D01*
G37*
G36*
X21172714Y84029705D02*
G01*
X21308548Y83973441D01*
X21430795Y83891758D01*
X21534758Y83787795D01*
X21616441Y83665548D01*
X21672705Y83529714D01*
X21701389Y83385513D01*
X21701389Y83238487D01*
X21672705Y83094286D01*
X21616441Y82958452D01*
X21534758Y82836205D01*
X21430795Y82732242D01*
X21308548Y82650559D01*
X21172714Y82594295D01*
X21028513Y82565611D01*
X20881487Y82565611D01*
X20737286Y82594295D01*
X20601452Y82650559D01*
X20479205Y82732242D01*
X20375242Y82836205D01*
X20293559Y82958452D01*
X20237295Y83094286D01*
X20208611Y83238487D01*
X20208611Y83385513D01*
X20237295Y83529714D01*
X20293559Y83665548D01*
X20375242Y83787795D01*
X20479205Y83891758D01*
X20601452Y83973441D01*
X20737286Y84029705D01*
X20881487Y84058389D01*
X21028513Y84058389D01*
X21172714Y84029705D01*
G37*
G36*
X9742714Y86569705D02*
G01*
X9878548Y86513441D01*
X10000795Y86431758D01*
X10104758Y86327795D01*
X10186441Y86205548D01*
X10242705Y86069714D01*
X10271389Y85925513D01*
X10271389Y85778487D01*
X10242705Y85634286D01*
X10186441Y85498452D01*
X10104758Y85376205D01*
X10000795Y85272242D01*
X9878548Y85190559D01*
X9742714Y85134295D01*
X9598513Y85105611D01*
X9451487Y85105611D01*
X9307286Y85134295D01*
X9171452Y85190559D01*
X9049205Y85272242D01*
X8945242Y85376205D01*
X8863559Y85498452D01*
X8807295Y85634286D01*
X8778611Y85778487D01*
X8778611Y85925513D01*
X8807295Y86069714D01*
X8863559Y86205548D01*
X8945242Y86327795D01*
X9049205Y86431758D01*
X9171452Y86513441D01*
X9307286Y86569705D01*
X9451487Y86598389D01*
X9598513Y86598389D01*
X9742714Y86569705D01*
G37*
G36*
X12282714Y86569705D02*
G01*
X12418548Y86513441D01*
X12540795Y86431758D01*
X12644758Y86327795D01*
X12726441Y86205548D01*
X12782705Y86069714D01*
X12811389Y85925513D01*
X12811389Y85778487D01*
X12782705Y85634286D01*
X12726441Y85498452D01*
X12644758Y85376205D01*
X12540795Y85272242D01*
X12418548Y85190559D01*
X12282714Y85134295D01*
X12138513Y85105611D01*
X11991487Y85105611D01*
X11847286Y85134295D01*
X11711452Y85190559D01*
X11589205Y85272242D01*
X11485242Y85376205D01*
X11403559Y85498452D01*
X11347295Y85634286D01*
X11318611Y85778487D01*
X11318611Y85925513D01*
X11347295Y86069714D01*
X11403559Y86205548D01*
X11485242Y86327795D01*
X11589205Y86431758D01*
X11711452Y86513441D01*
X11847286Y86569705D01*
X11991487Y86598389D01*
X12138513Y86598389D01*
X12282714Y86569705D01*
G37*
G36*
X14822714Y86569705D02*
G01*
X14958548Y86513441D01*
X15080795Y86431758D01*
X15184758Y86327795D01*
X15266441Y86205548D01*
X15322705Y86069714D01*
X15351389Y85925513D01*
X15351389Y85778487D01*
X15322705Y85634286D01*
X15266441Y85498452D01*
X15184758Y85376205D01*
X15080795Y85272242D01*
X14958548Y85190559D01*
X14822714Y85134295D01*
X14678513Y85105611D01*
X14531487Y85105611D01*
X14387286Y85134295D01*
X14251452Y85190559D01*
X14129205Y85272242D01*
X14025242Y85376205D01*
X13943559Y85498452D01*
X13887295Y85634286D01*
X13858611Y85778487D01*
X13858611Y85925513D01*
X13887295Y86069714D01*
X13943559Y86205548D01*
X14025242Y86327795D01*
X14129205Y86431758D01*
X14251452Y86513441D01*
X14387286Y86569705D01*
X14531487Y86598389D01*
X14678513Y86598389D01*
X14822714Y86569705D01*
G37*
G36*
X17362714Y86569705D02*
G01*
X17498548Y86513441D01*
X17620795Y86431758D01*
X17724758Y86327795D01*
X17806441Y86205548D01*
X17862705Y86069714D01*
X17891389Y85925513D01*
X17891389Y85778487D01*
X17862705Y85634286D01*
X17806441Y85498452D01*
X17724758Y85376205D01*
X17620795Y85272242D01*
X17498548Y85190559D01*
X17362714Y85134295D01*
X17218513Y85105611D01*
X17071487Y85105611D01*
X16927286Y85134295D01*
X16791452Y85190559D01*
X16669205Y85272242D01*
X16565242Y85376205D01*
X16483559Y85498452D01*
X16427295Y85634286D01*
X16398611Y85778487D01*
X16398611Y85925513D01*
X16427295Y86069714D01*
X16483559Y86205548D01*
X16565242Y86327795D01*
X16669205Y86431758D01*
X16791452Y86513441D01*
X16927286Y86569705D01*
X17071487Y86598389D01*
X17218513Y86598389D01*
X17362714Y86569705D01*
G37*
G36*
X19902714Y86569705D02*
G01*
X20038548Y86513441D01*
X20160795Y86431758D01*
X20264758Y86327795D01*
X20346441Y86205548D01*
X20402705Y86069714D01*
X20431389Y85925513D01*
X20431389Y85778487D01*
X20402705Y85634286D01*
X20346441Y85498452D01*
X20264758Y85376205D01*
X20160795Y85272242D01*
X20038548Y85190559D01*
X19902714Y85134295D01*
X19758513Y85105611D01*
X19611487Y85105611D01*
X19467286Y85134295D01*
X19331452Y85190559D01*
X19209205Y85272242D01*
X19105242Y85376205D01*
X19023559Y85498452D01*
X18967295Y85634286D01*
X18938611Y85778487D01*
X18938611Y85925513D01*
X18967295Y86069714D01*
X19023559Y86205548D01*
X19105242Y86327795D01*
X19209205Y86431758D01*
X19331452Y86513441D01*
X19467286Y86569705D01*
X19611487Y86598389D01*
X19758513Y86598389D01*
X19902714Y86569705D01*
G37*
G36*
X7645134Y90318844D02*
G01*
X7824220Y90260655D01*
X7991998Y90175168D01*
X8144338Y90064487D01*
X8277487Y89931338D01*
X8388168Y89778998D01*
X8473655Y89611220D01*
X8531844Y89432134D01*
X8561301Y89246151D01*
X8561301Y89057849D01*
X8531844Y88871866D01*
X8473655Y88692780D01*
X8388168Y88525002D01*
X8277487Y88372662D01*
X8144338Y88239513D01*
X7991998Y88128832D01*
X7824220Y88043345D01*
X7645134Y87985156D01*
X7459151Y87955699D01*
X7270849Y87955699D01*
X7084866Y87985156D01*
X6905780Y88043345D01*
X6738002Y88128832D01*
X6585662Y88239513D01*
X6452513Y88372662D01*
X6341832Y88525002D01*
X6256345Y88692780D01*
X6198156Y88871866D01*
X6168699Y89057849D01*
X6168699Y89246151D01*
X6198156Y89432134D01*
X6256345Y89611220D01*
X6341832Y89778998D01*
X6452513Y89931338D01*
X6585662Y90064487D01*
X6738002Y90175168D01*
X6905780Y90260655D01*
X7084866Y90318844D01*
X7270849Y90348301D01*
X7459151Y90348301D01*
X7645134Y90318844D01*
G37*
G36*
X23395134Y90318844D02*
G01*
X23574220Y90260655D01*
X23741998Y90175168D01*
X23894338Y90064487D01*
X24027487Y89931338D01*
X24138168Y89778998D01*
X24223655Y89611220D01*
X24281844Y89432134D01*
X24311301Y89246151D01*
X24311301Y89057849D01*
X24281844Y88871866D01*
X24223655Y88692780D01*
X24138168Y88525002D01*
X24027487Y88372662D01*
X23894338Y88239513D01*
X23741998Y88128832D01*
X23574220Y88043345D01*
X23395134Y87985156D01*
X23209151Y87955699D01*
X23020849Y87955699D01*
X22834866Y87985156D01*
X22655780Y88043345D01*
X22488002Y88128832D01*
X22335662Y88239513D01*
X22202513Y88372662D01*
X22091832Y88525002D01*
X22006345Y88692780D01*
X21948156Y88871866D01*
X21918699Y89057849D01*
X21918699Y89246151D01*
X21948156Y89432134D01*
X22006345Y89611220D01*
X22091832Y89778998D01*
X22202513Y89931338D01*
X22335662Y90064487D01*
X22488002Y90175168D01*
X22655780Y90260655D01*
X22834866Y90318844D01*
X23020849Y90348301D01*
X23209151Y90348301D01*
X23395134Y90318844D01*
G37*
G36*
X32022810Y92339333D02*
G01*
X32193019Y92268830D01*
X32346203Y92166475D01*
X32476475Y92036203D01*
X32578830Y91883019D01*
X32649333Y91712810D01*
X32685275Y91532117D01*
X32685275Y91347883D01*
X32649333Y91167190D01*
X32578830Y90996981D01*
X32476475Y90843797D01*
X32392369Y90759692D01*
X32385000Y90741900D01*
X32385000Y90582009D01*
X32385000Y90458289D01*
X32414289Y90429000D01*
X32463954Y90429000D01*
X32474522Y90424623D01*
X32478900Y90414055D01*
X32478900Y89925946D01*
X32474522Y89915378D01*
X32463954Y89911000D01*
X32414288Y89911000D01*
X32385000Y89881712D01*
X32385000Y89598102D01*
X32392370Y89580308D01*
X32476475Y89496203D01*
X32578830Y89343019D01*
X32649333Y89172810D01*
X32685275Y88992117D01*
X32685275Y88807883D01*
X32649333Y88627190D01*
X32578830Y88456981D01*
X32476475Y88303797D01*
X32346203Y88173525D01*
X32193019Y88071170D01*
X32022810Y88000667D01*
X31842117Y87964725D01*
X31657883Y87964725D01*
X31477190Y88000667D01*
X31306981Y88071170D01*
X31153797Y88173525D01*
X31023525Y88303797D01*
X30921170Y88456981D01*
X30850667Y88627190D01*
X30814725Y88807883D01*
X30814725Y88992117D01*
X30850667Y89172810D01*
X30921170Y89343019D01*
X31023525Y89496203D01*
X31107627Y89580306D01*
X31115000Y89598104D01*
X31115000Y89881711D01*
X31085711Y89911000D01*
X31036046Y89911000D01*
X31025477Y89915378D01*
X31021100Y89925946D01*
X31021100Y90414055D01*
X31025477Y90424623D01*
X31036046Y90429000D01*
X31085712Y90429000D01*
X31115000Y90458288D01*
X31115000Y90741898D01*
X31107628Y90759694D01*
X31023525Y90843797D01*
X30921170Y90996981D01*
X30850667Y91167190D01*
X30814725Y91347883D01*
X30814725Y91532117D01*
X30850667Y91712810D01*
X30921170Y91883019D01*
X31023525Y92036203D01*
X31153797Y92166475D01*
X31306981Y92268830D01*
X31477190Y92339333D01*
X31657883Y92375275D01*
X31842117Y92375275D01*
X32022810Y92339333D01*
G37*
G36*
X34562810Y92339333D02*
G01*
X34733019Y92268830D01*
X34886203Y92166475D01*
X35016475Y92036203D01*
X35118830Y91883019D01*
X35189333Y91712810D01*
X35225275Y91532117D01*
X35225275Y91347883D01*
X35189333Y91167190D01*
X35118830Y90996981D01*
X35016475Y90843797D01*
X34932369Y90759692D01*
X34925000Y90741900D01*
X34925000Y90582009D01*
X34925000Y90458289D01*
X34954289Y90429000D01*
X35003954Y90429000D01*
X35014522Y90424623D01*
X35018900Y90414055D01*
X35018900Y89925946D01*
X35014522Y89915378D01*
X35003954Y89911000D01*
X34954288Y89911000D01*
X34925000Y89881712D01*
X34925000Y89598102D01*
X34932370Y89580308D01*
X35016475Y89496203D01*
X35118830Y89343019D01*
X35189333Y89172810D01*
X35225275Y88992117D01*
X35225275Y88807883D01*
X35189333Y88627190D01*
X35118830Y88456981D01*
X35016475Y88303797D01*
X34886203Y88173525D01*
X34733019Y88071170D01*
X34562810Y88000667D01*
X34382117Y87964725D01*
X34197883Y87964725D01*
X34017190Y88000667D01*
X33846981Y88071170D01*
X33693797Y88173525D01*
X33563525Y88303797D01*
X33461170Y88456981D01*
X33390667Y88627190D01*
X33354725Y88807883D01*
X33354725Y88992117D01*
X33390667Y89172810D01*
X33461170Y89343019D01*
X33563525Y89496203D01*
X33647627Y89580306D01*
X33655000Y89598104D01*
X33655000Y89881711D01*
X33625711Y89911000D01*
X33576046Y89911000D01*
X33565477Y89915378D01*
X33561100Y89925946D01*
X33561100Y90414055D01*
X33565477Y90424623D01*
X33576046Y90429000D01*
X33625712Y90429000D01*
X33655000Y90458288D01*
X33655000Y90741898D01*
X33647628Y90759694D01*
X33563525Y90843797D01*
X33461170Y90996981D01*
X33390667Y91167190D01*
X33354725Y91347883D01*
X33354725Y91532117D01*
X33390667Y91712810D01*
X33461170Y91883019D01*
X33563525Y92036203D01*
X33693797Y92166475D01*
X33846981Y92268830D01*
X34017190Y92339333D01*
X34197883Y92375275D01*
X34382117Y92375275D01*
X34562810Y92339333D01*
G37*
G36*
X52705000Y88557100D02*
G01*
X51435000Y88557100D01*
X51435000Y89192100D01*
X52705000Y89192100D01*
X52705000Y88557100D01*
G37*
G36*
X52705000Y89369900D02*
G01*
X51435000Y89369900D01*
X51435000Y90004900D01*
X52705000Y90004900D01*
X52705000Y89369900D01*
G37*
G36*
X9642084Y93821991D02*
G01*
X9652496Y93821991D01*
X9703779Y93813869D01*
X9842000Y93795671D01*
X9875724Y93786635D01*
X9904349Y93782101D01*
X9959393Y93764216D01*
X10047303Y93740661D01*
X10103395Y93717427D01*
X10146861Y93703304D01*
X10187579Y93682557D01*
X10243676Y93659321D01*
X10322513Y93613805D01*
X10374060Y93587540D01*
X10397492Y93570516D01*
X10427740Y93553052D01*
X10538364Y93468166D01*
X10580353Y93437660D01*
X10587714Y93430299D01*
X10596362Y93423663D01*
X10746662Y93273363D01*
X10753297Y93264716D01*
X10760660Y93257353D01*
X10791170Y93215360D01*
X10876051Y93104741D01*
X10893513Y93074496D01*
X10910540Y93051060D01*
X10936807Y92999508D01*
X10982320Y92920677D01*
X11005553Y92864586D01*
X11026304Y92823861D01*
X11040428Y92780390D01*
X11063660Y92724304D01*
X11087211Y92636407D01*
X11105101Y92581349D01*
X11109635Y92552718D01*
X11118670Y92519001D01*
X11136866Y92380791D01*
X11144991Y92329496D01*
X11144991Y92319084D01*
X11146414Y92308275D01*
X11146414Y92095726D01*
X11144991Y92084918D01*
X11144991Y92074504D01*
X11136865Y92023205D01*
X11118670Y91885000D01*
X11109636Y91851286D01*
X11105101Y91822651D01*
X11087210Y91767590D01*
X11063660Y91679697D01*
X11040430Y91623616D01*
X11026304Y91580139D01*
X11005551Y91539410D01*
X10982320Y91483324D01*
X10936811Y91404502D01*
X10910540Y91352940D01*
X10893510Y91329501D01*
X10876051Y91299260D01*
X10791183Y91188660D01*
X10760660Y91146647D01*
X10753294Y91139282D01*
X10746662Y91130638D01*
X10596362Y90980338D01*
X10587718Y90973706D01*
X10580353Y90966340D01*
X10538340Y90935817D01*
X10427740Y90850949D01*
X10397499Y90833490D01*
X10374060Y90816460D01*
X10322498Y90790189D01*
X10243676Y90744680D01*
X10187590Y90721449D01*
X10146861Y90700696D01*
X10103384Y90686570D01*
X10047303Y90663340D01*
X9959410Y90639790D01*
X9904349Y90621899D01*
X9875714Y90617364D01*
X9842000Y90608330D01*
X9703791Y90590134D01*
X9652496Y90582009D01*
X9642083Y90582009D01*
X9631275Y90580586D01*
X9418725Y90580586D01*
X9407917Y90582009D01*
X9397504Y90582009D01*
X9346209Y90590134D01*
X9207999Y90608330D01*
X9174282Y90617365D01*
X9145651Y90621899D01*
X9090593Y90639789D01*
X9002696Y90663340D01*
X8946610Y90686572D01*
X8903139Y90700696D01*
X8862414Y90721447D01*
X8806323Y90744680D01*
X8727492Y90790193D01*
X8675940Y90816460D01*
X8652504Y90833487D01*
X8622259Y90850949D01*
X8511640Y90935830D01*
X8469647Y90966340D01*
X8462284Y90973703D01*
X8453637Y90980338D01*
X8303337Y91130638D01*
X8296701Y91139286D01*
X8289340Y91146647D01*
X8258834Y91188636D01*
X8173948Y91299260D01*
X8156484Y91329508D01*
X8139460Y91352940D01*
X8113195Y91404487D01*
X8067679Y91483324D01*
X8044443Y91539421D01*
X8023696Y91580139D01*
X8009573Y91623605D01*
X7986339Y91679697D01*
X7962784Y91767607D01*
X7944899Y91822651D01*
X7940365Y91851276D01*
X7931329Y91885000D01*
X7913132Y92023218D01*
X7905009Y92074504D01*
X7905009Y92084918D01*
X7903586Y92095726D01*
X7903586Y92308275D01*
X7905009Y92319084D01*
X7905009Y92329496D01*
X7913131Y92380778D01*
X7931329Y92519001D01*
X7940365Y92552727D01*
X7944899Y92581349D01*
X7962782Y92636389D01*
X7986339Y92724304D01*
X8009574Y92780401D01*
X8023696Y92823861D01*
X8044440Y92864576D01*
X8067679Y92920677D01*
X8113199Y92999522D01*
X8139460Y93051060D01*
X8156481Y93074489D01*
X8173948Y93104741D01*
X8258847Y93215384D01*
X8289340Y93257353D01*
X8296698Y93264712D01*
X8303337Y93273363D01*
X8453637Y93423663D01*
X8462288Y93430302D01*
X8469647Y93437660D01*
X8511616Y93468153D01*
X8622259Y93553052D01*
X8652511Y93570519D01*
X8675940Y93587540D01*
X8727478Y93613801D01*
X8806323Y93659321D01*
X8862424Y93682560D01*
X8903139Y93703304D01*
X8946599Y93717426D01*
X9002696Y93740661D01*
X9090611Y93764218D01*
X9145651Y93782101D01*
X9174273Y93786635D01*
X9207999Y93795671D01*
X9346222Y93813869D01*
X9397504Y93821991D01*
X9407916Y93821991D01*
X9418725Y93823414D01*
X9631275Y93823414D01*
X9642084Y93821991D01*
G37*
G36*
X21072084Y93821991D02*
G01*
X21082496Y93821991D01*
X21133779Y93813869D01*
X21272000Y93795671D01*
X21305724Y93786635D01*
X21334349Y93782101D01*
X21389393Y93764216D01*
X21477303Y93740661D01*
X21533395Y93717427D01*
X21576861Y93703304D01*
X21617579Y93682557D01*
X21673676Y93659321D01*
X21752513Y93613805D01*
X21804060Y93587540D01*
X21827492Y93570516D01*
X21857740Y93553052D01*
X21968364Y93468166D01*
X22010353Y93437660D01*
X22017714Y93430299D01*
X22026362Y93423663D01*
X22176662Y93273363D01*
X22183297Y93264716D01*
X22190660Y93257353D01*
X22221170Y93215360D01*
X22306051Y93104741D01*
X22323513Y93074496D01*
X22340540Y93051060D01*
X22366807Y92999508D01*
X22412320Y92920677D01*
X22435553Y92864586D01*
X22456304Y92823861D01*
X22470428Y92780390D01*
X22493660Y92724304D01*
X22517211Y92636407D01*
X22535101Y92581349D01*
X22539635Y92552718D01*
X22548670Y92519001D01*
X22566866Y92380791D01*
X22574991Y92329496D01*
X22574991Y92319084D01*
X22576414Y92308275D01*
X22576414Y92095726D01*
X22574991Y92084918D01*
X22574991Y92074504D01*
X22566865Y92023205D01*
X22548670Y91885000D01*
X22539636Y91851286D01*
X22535101Y91822651D01*
X22517210Y91767590D01*
X22493660Y91679697D01*
X22470430Y91623616D01*
X22456304Y91580139D01*
X22435551Y91539410D01*
X22412320Y91483324D01*
X22366811Y91404502D01*
X22340540Y91352940D01*
X22323510Y91329501D01*
X22306051Y91299260D01*
X22221183Y91188660D01*
X22190660Y91146647D01*
X22183294Y91139282D01*
X22176662Y91130638D01*
X22026362Y90980338D01*
X22017718Y90973706D01*
X22010353Y90966340D01*
X21968340Y90935817D01*
X21857740Y90850949D01*
X21827499Y90833490D01*
X21804060Y90816460D01*
X21752498Y90790189D01*
X21673676Y90744680D01*
X21617590Y90721449D01*
X21576861Y90700696D01*
X21533384Y90686570D01*
X21477303Y90663340D01*
X21389410Y90639790D01*
X21334349Y90621899D01*
X21305714Y90617364D01*
X21272000Y90608330D01*
X21133791Y90590134D01*
X21082496Y90582009D01*
X21072083Y90582009D01*
X21061275Y90580586D01*
X20848725Y90580586D01*
X20837917Y90582009D01*
X20827504Y90582009D01*
X20776209Y90590134D01*
X20637999Y90608330D01*
X20604282Y90617365D01*
X20575651Y90621899D01*
X20520593Y90639789D01*
X20432696Y90663340D01*
X20376610Y90686572D01*
X20333139Y90700696D01*
X20292414Y90721447D01*
X20236323Y90744680D01*
X20157492Y90790193D01*
X20105940Y90816460D01*
X20082504Y90833487D01*
X20052259Y90850949D01*
X19941640Y90935830D01*
X19899647Y90966340D01*
X19892284Y90973703D01*
X19883637Y90980338D01*
X19733337Y91130638D01*
X19726701Y91139286D01*
X19719340Y91146647D01*
X19688834Y91188636D01*
X19603948Y91299260D01*
X19586484Y91329508D01*
X19569460Y91352940D01*
X19543195Y91404487D01*
X19497679Y91483324D01*
X19474443Y91539421D01*
X19453696Y91580139D01*
X19439573Y91623605D01*
X19416339Y91679697D01*
X19392784Y91767607D01*
X19374899Y91822651D01*
X19370365Y91851276D01*
X19361329Y91885000D01*
X19343132Y92023218D01*
X19335009Y92074504D01*
X19335009Y92084918D01*
X19333586Y92095726D01*
X19333586Y92308275D01*
X19335009Y92319084D01*
X19335009Y92329496D01*
X19343131Y92380778D01*
X19361329Y92519001D01*
X19370365Y92552727D01*
X19374899Y92581349D01*
X19392782Y92636389D01*
X19416339Y92724304D01*
X19439574Y92780401D01*
X19453696Y92823861D01*
X19474440Y92864576D01*
X19497679Y92920677D01*
X19543199Y92999522D01*
X19569460Y93051060D01*
X19586481Y93074489D01*
X19603948Y93104741D01*
X19688847Y93215384D01*
X19719340Y93257353D01*
X19726698Y93264712D01*
X19733337Y93273363D01*
X19883637Y93423663D01*
X19892288Y93430302D01*
X19899647Y93437660D01*
X19941616Y93468153D01*
X20052259Y93553052D01*
X20082511Y93570519D01*
X20105940Y93587540D01*
X20157478Y93613801D01*
X20236323Y93659321D01*
X20292424Y93682560D01*
X20333139Y93703304D01*
X20376599Y93717426D01*
X20432696Y93740661D01*
X20520611Y93764218D01*
X20575651Y93782101D01*
X20604273Y93786635D01*
X20637999Y93795671D01*
X20776222Y93813869D01*
X20827504Y93821991D01*
X20837916Y93821991D01*
X20848725Y93823414D01*
X21061275Y93823414D01*
X21072084Y93821991D01*
G37*
G36*
X31496790Y97794607D02*
G01*
X31660952Y97741267D01*
X31814748Y97662904D01*
X31954393Y97561447D01*
X32076447Y97439393D01*
X32177904Y97299748D01*
X32256267Y97145952D01*
X32309607Y96981790D01*
X32336609Y96811305D01*
X32340000Y96725000D01*
X32340000Y94525000D01*
X32336609Y94438695D01*
X32309607Y94268210D01*
X32256267Y94104048D01*
X32177904Y93950252D01*
X32076447Y93810607D01*
X31954393Y93688553D01*
X31814748Y93587096D01*
X31660952Y93508733D01*
X31496790Y93455393D01*
X31326305Y93428391D01*
X31153695Y93428391D01*
X30983210Y93455393D01*
X30819048Y93508733D01*
X30665252Y93587096D01*
X30525607Y93688553D01*
X30403553Y93810607D01*
X30302096Y93950252D01*
X30223733Y94104048D01*
X30170393Y94268210D01*
X30143391Y94438695D01*
X30140000Y94525000D01*
X30140000Y96725000D01*
X30143391Y96811305D01*
X30170393Y96981790D01*
X30223733Y97145952D01*
X30302096Y97299748D01*
X30403553Y97439393D01*
X30525607Y97561447D01*
X30665252Y97662904D01*
X30819048Y97741267D01*
X30983210Y97794607D01*
X31153695Y97821609D01*
X31326305Y97821609D01*
X31496790Y97794607D01*
G37*
G36*
X34996790Y97794607D02*
G01*
X35160952Y97741267D01*
X35314748Y97662904D01*
X35454393Y97561447D01*
X35576447Y97439393D01*
X35677904Y97299748D01*
X35756267Y97145952D01*
X35809607Y96981790D01*
X35836609Y96811305D01*
X35840000Y96725000D01*
X35840000Y94525000D01*
X35836609Y94438695D01*
X35809607Y94268210D01*
X35756267Y94104048D01*
X35677904Y93950252D01*
X35576447Y93810607D01*
X35454393Y93688553D01*
X35314748Y93587096D01*
X35160952Y93508733D01*
X34996790Y93455393D01*
X34826305Y93428391D01*
X34653695Y93428391D01*
X34483210Y93455393D01*
X34319048Y93508733D01*
X34165252Y93587096D01*
X34025607Y93688553D01*
X33903553Y93810607D01*
X33802096Y93950252D01*
X33723733Y94104048D01*
X33670393Y94268210D01*
X33643391Y94438695D01*
X33640000Y94525000D01*
X33640000Y96725000D01*
X33643391Y96811305D01*
X33670393Y96981790D01*
X33723733Y97145952D01*
X33802096Y97299748D01*
X33903553Y97439393D01*
X34025607Y97561447D01*
X34165252Y97662904D01*
X34319048Y97741267D01*
X34483210Y97794607D01*
X34653695Y97821609D01*
X34826305Y97821609D01*
X34996790Y97794607D01*
G37*
G36*
X38496790Y97794607D02*
G01*
X38660952Y97741267D01*
X38814748Y97662904D01*
X38954393Y97561447D01*
X39076447Y97439393D01*
X39177904Y97299748D01*
X39256267Y97145952D01*
X39309607Y96981790D01*
X39336609Y96811305D01*
X39340000Y96725000D01*
X39340000Y94525000D01*
X39336609Y94438695D01*
X39309607Y94268210D01*
X39256267Y94104048D01*
X39177904Y93950252D01*
X39076447Y93810607D01*
X38954393Y93688553D01*
X38814748Y93587096D01*
X38660952Y93508733D01*
X38496790Y93455393D01*
X38326305Y93428391D01*
X38153695Y93428391D01*
X37983210Y93455393D01*
X37819048Y93508733D01*
X37665252Y93587096D01*
X37525607Y93688553D01*
X37403553Y93810607D01*
X37302096Y93950252D01*
X37223733Y94104048D01*
X37170393Y94268210D01*
X37143391Y94438695D01*
X37140000Y94525000D01*
X37140000Y96725000D01*
X37143391Y96811305D01*
X37170393Y96981790D01*
X37223733Y97145952D01*
X37302096Y97299748D01*
X37403553Y97439393D01*
X37525607Y97561447D01*
X37665252Y97662904D01*
X37819048Y97741267D01*
X37983210Y97794607D01*
X38153695Y97821609D01*
X38326305Y97821609D01*
X38496790Y97794607D01*
G37*
G36*
X41996790Y97794607D02*
G01*
X42160952Y97741267D01*
X42314748Y97662904D01*
X42454393Y97561447D01*
X42576447Y97439393D01*
X42677904Y97299748D01*
X42756267Y97145952D01*
X42809607Y96981790D01*
X42836609Y96811305D01*
X42840000Y96725000D01*
X42840000Y94525000D01*
X42836609Y94438695D01*
X42809607Y94268210D01*
X42756267Y94104048D01*
X42677904Y93950252D01*
X42576447Y93810607D01*
X42454393Y93688553D01*
X42314748Y93587096D01*
X42160952Y93508733D01*
X41996790Y93455393D01*
X41826305Y93428391D01*
X41653695Y93428391D01*
X41483210Y93455393D01*
X41319048Y93508733D01*
X41165252Y93587096D01*
X41025607Y93688553D01*
X40903553Y93810607D01*
X40802096Y93950252D01*
X40723733Y94104048D01*
X40670393Y94268210D01*
X40643391Y94438695D01*
X40640000Y94525000D01*
X40640000Y96725000D01*
X40643391Y96811305D01*
X40670393Y96981790D01*
X40723733Y97145952D01*
X40802096Y97299748D01*
X40903553Y97439393D01*
X41025607Y97561447D01*
X41165252Y97662904D01*
X41319048Y97741267D01*
X41483210Y97794607D01*
X41653695Y97821609D01*
X41826305Y97821609D01*
X41996790Y97794607D01*
G37*
G36*
X45496790Y97794607D02*
G01*
X45660952Y97741267D01*
X45814748Y97662904D01*
X45954393Y97561447D01*
X46076447Y97439393D01*
X46177904Y97299748D01*
X46256267Y97145952D01*
X46309607Y96981790D01*
X46336609Y96811305D01*
X46340000Y96725000D01*
X46340000Y94525000D01*
X46336609Y94438695D01*
X46309607Y94268210D01*
X46256267Y94104048D01*
X46177904Y93950252D01*
X46076447Y93810607D01*
X45954393Y93688553D01*
X45814748Y93587096D01*
X45660952Y93508733D01*
X45496790Y93455393D01*
X45326305Y93428391D01*
X45153695Y93428391D01*
X44983210Y93455393D01*
X44819048Y93508733D01*
X44665252Y93587096D01*
X44525607Y93688553D01*
X44403553Y93810607D01*
X44302096Y93950252D01*
X44223733Y94104048D01*
X44170393Y94268210D01*
X44143391Y94438695D01*
X44140000Y94525000D01*
X44140000Y96725000D01*
X44143391Y96811305D01*
X44170393Y96981790D01*
X44223733Y97145952D01*
X44302096Y97299748D01*
X44403553Y97439393D01*
X44525607Y97561447D01*
X44665252Y97662904D01*
X44819048Y97741267D01*
X44983210Y97794607D01*
X45153695Y97821609D01*
X45326305Y97821609D01*
X45496790Y97794607D01*
G37*
G36*
X48996790Y97794607D02*
G01*
X49160952Y97741267D01*
X49314748Y97662904D01*
X49454393Y97561447D01*
X49576447Y97439393D01*
X49677904Y97299748D01*
X49756267Y97145952D01*
X49809607Y96981790D01*
X49836609Y96811305D01*
X49840000Y96725000D01*
X49840000Y94525000D01*
X49836609Y94438695D01*
X49809607Y94268210D01*
X49756267Y94104048D01*
X49677904Y93950252D01*
X49576447Y93810607D01*
X49454393Y93688553D01*
X49314748Y93587096D01*
X49160952Y93508733D01*
X48996790Y93455393D01*
X48826305Y93428391D01*
X48653695Y93428391D01*
X48483210Y93455393D01*
X48319048Y93508733D01*
X48165252Y93587096D01*
X48025607Y93688553D01*
X47903553Y93810607D01*
X47802096Y93950252D01*
X47723733Y94104048D01*
X47670393Y94268210D01*
X47643391Y94438695D01*
X47640000Y94525000D01*
X47640000Y96725000D01*
X47643391Y96811305D01*
X47670393Y96981790D01*
X47723733Y97145952D01*
X47802096Y97299748D01*
X47903553Y97439393D01*
X48025607Y97561447D01*
X48165252Y97662904D01*
X48319048Y97741267D01*
X48483210Y97794607D01*
X48653695Y97821609D01*
X48826305Y97821609D01*
X48996790Y97794607D01*
G37*
G36*
X52496790Y97794607D02*
G01*
X52660952Y97741267D01*
X52814748Y97662904D01*
X52954393Y97561447D01*
X53076447Y97439393D01*
X53177904Y97299748D01*
X53256267Y97145952D01*
X53309607Y96981790D01*
X53336609Y96811305D01*
X53340000Y96725000D01*
X53340000Y94525000D01*
X53336609Y94438695D01*
X53309607Y94268210D01*
X53256267Y94104048D01*
X53177904Y93950252D01*
X53076447Y93810607D01*
X52954393Y93688553D01*
X52814748Y93587096D01*
X52660952Y93508733D01*
X52496790Y93455393D01*
X52326305Y93428391D01*
X52153695Y93428391D01*
X51983210Y93455393D01*
X51819048Y93508733D01*
X51665252Y93587096D01*
X51525607Y93688553D01*
X51403553Y93810607D01*
X51302096Y93950252D01*
X51223733Y94104048D01*
X51170393Y94268210D01*
X51143391Y94438695D01*
X51140000Y94525000D01*
X51140000Y96725000D01*
X51143391Y96811305D01*
X51170393Y96981790D01*
X51223733Y97145952D01*
X51302096Y97299748D01*
X51403553Y97439393D01*
X51525607Y97561447D01*
X51665252Y97662904D01*
X51819048Y97741267D01*
X51983210Y97794607D01*
X52153695Y97821609D01*
X52326305Y97821609D01*
X52496790Y97794607D01*
G37*
G36*
X55996790Y97794607D02*
G01*
X56160952Y97741267D01*
X56314748Y97662904D01*
X56454393Y97561447D01*
X56576447Y97439393D01*
X56677904Y97299748D01*
X56756267Y97145952D01*
X56809607Y96981790D01*
X56836609Y96811305D01*
X56840000Y96725000D01*
X56840000Y94525000D01*
X56836609Y94438695D01*
X56809607Y94268210D01*
X56756267Y94104048D01*
X56677904Y93950252D01*
X56576447Y93810607D01*
X56454393Y93688553D01*
X56314748Y93587096D01*
X56160952Y93508733D01*
X55996790Y93455393D01*
X55826305Y93428391D01*
X55653695Y93428391D01*
X55483210Y93455393D01*
X55319048Y93508733D01*
X55165252Y93587096D01*
X55025607Y93688553D01*
X54903553Y93810607D01*
X54802096Y93950252D01*
X54723733Y94104048D01*
X54670393Y94268210D01*
X54643391Y94438695D01*
X54640000Y94525000D01*
X54640000Y96725000D01*
X54643391Y96811305D01*
X54670393Y96981790D01*
X54723733Y97145952D01*
X54802096Y97299748D01*
X54903553Y97439393D01*
X55025607Y97561447D01*
X55165252Y97662904D01*
X55319048Y97741267D01*
X55483210Y97794607D01*
X55653695Y97821609D01*
X55826305Y97821609D01*
X55996790Y97794607D01*
G37*
G36*
X59496790Y97794607D02*
G01*
X59660952Y97741267D01*
X59814748Y97662904D01*
X59954393Y97561447D01*
X60076447Y97439393D01*
X60177904Y97299748D01*
X60256267Y97145952D01*
X60309607Y96981790D01*
X60336609Y96811305D01*
X60340000Y96725000D01*
X60340000Y94525000D01*
X60336609Y94438695D01*
X60309607Y94268210D01*
X60256267Y94104048D01*
X60177904Y93950252D01*
X60076447Y93810607D01*
X59954393Y93688553D01*
X59814748Y93587096D01*
X59660952Y93508733D01*
X59496790Y93455393D01*
X59326305Y93428391D01*
X59153695Y93428391D01*
X58983210Y93455393D01*
X58819048Y93508733D01*
X58665252Y93587096D01*
X58525607Y93688553D01*
X58403553Y93810607D01*
X58302096Y93950252D01*
X58223733Y94104048D01*
X58170393Y94268210D01*
X58143391Y94438695D01*
X58140000Y94525000D01*
X58140000Y96725000D01*
X58143391Y96811305D01*
X58170393Y96981790D01*
X58223733Y97145952D01*
X58302096Y97299748D01*
X58403553Y97439393D01*
X58525607Y97561447D01*
X58665252Y97662904D01*
X58819048Y97741267D01*
X58983210Y97794607D01*
X59153695Y97821609D01*
X59326305Y97821609D01*
X59496790Y97794607D01*
G37*
G36*
X62996790Y97794607D02*
G01*
X63160952Y97741267D01*
X63314748Y97662904D01*
X63454393Y97561447D01*
X63576447Y97439393D01*
X63677904Y97299748D01*
X63756267Y97145952D01*
X63809607Y96981790D01*
X63836609Y96811305D01*
X63840000Y96725000D01*
X63840000Y94525000D01*
X63836609Y94438695D01*
X63809607Y94268210D01*
X63756267Y94104048D01*
X63677904Y93950252D01*
X63576447Y93810607D01*
X63454393Y93688553D01*
X63314748Y93587096D01*
X63160952Y93508733D01*
X62996790Y93455393D01*
X62826305Y93428391D01*
X62653695Y93428391D01*
X62483210Y93455393D01*
X62319048Y93508733D01*
X62165252Y93587096D01*
X62025607Y93688553D01*
X61903553Y93810607D01*
X61802096Y93950252D01*
X61723733Y94104048D01*
X61670393Y94268210D01*
X61643391Y94438695D01*
X61640000Y94525000D01*
X61640000Y96725000D01*
X61643391Y96811305D01*
X61670393Y96981790D01*
X61723733Y97145952D01*
X61802096Y97299748D01*
X61903553Y97439393D01*
X62025607Y97561447D01*
X62165252Y97662904D01*
X62319048Y97741267D01*
X62483210Y97794607D01*
X62653695Y97821609D01*
X62826305Y97821609D01*
X62996790Y97794607D01*
G37*
G36*
X8827714Y96979705D02*
G01*
X8963548Y96923441D01*
X9085795Y96841758D01*
X9189758Y96737795D01*
X9271441Y96615548D01*
X9327705Y96479714D01*
X9356389Y96335513D01*
X9356389Y96188487D01*
X9327705Y96044286D01*
X9271441Y95908452D01*
X9189758Y95786205D01*
X9085795Y95682242D01*
X8963548Y95600559D01*
X8827714Y95544295D01*
X8683513Y95515611D01*
X8536487Y95515611D01*
X8392286Y95544295D01*
X8256452Y95600559D01*
X8134205Y95682242D01*
X8030242Y95786205D01*
X7948559Y95908452D01*
X7892295Y96044286D01*
X7863611Y96188487D01*
X7863611Y96335513D01*
X7892295Y96479714D01*
X7948559Y96615548D01*
X8030242Y96737795D01*
X8134205Y96841758D01*
X8256452Y96923441D01*
X8392286Y96979705D01*
X8536487Y97008389D01*
X8683513Y97008389D01*
X8827714Y96979705D01*
G37*
G36*
X11367714Y96979705D02*
G01*
X11503548Y96923441D01*
X11625795Y96841758D01*
X11729758Y96737795D01*
X11811441Y96615548D01*
X11867705Y96479714D01*
X11896389Y96335513D01*
X11896389Y96188487D01*
X11867705Y96044286D01*
X11811441Y95908452D01*
X11729758Y95786205D01*
X11625795Y95682242D01*
X11503548Y95600559D01*
X11367714Y95544295D01*
X11223513Y95515611D01*
X11076487Y95515611D01*
X10932286Y95544295D01*
X10796452Y95600559D01*
X10674205Y95682242D01*
X10570242Y95786205D01*
X10488559Y95908452D01*
X10432295Y96044286D01*
X10403611Y96188487D01*
X10403611Y96335513D01*
X10432295Y96479714D01*
X10488559Y96615548D01*
X10570242Y96737795D01*
X10674205Y96841758D01*
X10796452Y96923441D01*
X10932286Y96979705D01*
X11076487Y97008389D01*
X11223513Y97008389D01*
X11367714Y96979705D01*
G37*
G36*
X19547714Y96979705D02*
G01*
X19683548Y96923441D01*
X19805795Y96841758D01*
X19909758Y96737795D01*
X19991441Y96615548D01*
X20047705Y96479714D01*
X20076389Y96335513D01*
X20076389Y96188487D01*
X20047705Y96044286D01*
X19991441Y95908452D01*
X19909758Y95786205D01*
X19805795Y95682242D01*
X19683548Y95600559D01*
X19547714Y95544295D01*
X19403513Y95515611D01*
X19256487Y95515611D01*
X19112286Y95544295D01*
X18976452Y95600559D01*
X18854205Y95682242D01*
X18750242Y95786205D01*
X18668559Y95908452D01*
X18612295Y96044286D01*
X18583611Y96188487D01*
X18583611Y96335513D01*
X18612295Y96479714D01*
X18668559Y96615548D01*
X18750242Y96737795D01*
X18854205Y96841758D01*
X18976452Y96923441D01*
X19112286Y96979705D01*
X19256487Y97008389D01*
X19403513Y97008389D01*
X19547714Y96979705D01*
G37*
G36*
X22087714Y96979705D02*
G01*
X22223548Y96923441D01*
X22345795Y96841758D01*
X22449758Y96737795D01*
X22531441Y96615548D01*
X22587705Y96479714D01*
X22616389Y96335513D01*
X22616389Y96188487D01*
X22587705Y96044286D01*
X22531441Y95908452D01*
X22449758Y95786205D01*
X22345795Y95682242D01*
X22223548Y95600559D01*
X22087714Y95544295D01*
X21943513Y95515611D01*
X21796487Y95515611D01*
X21652286Y95544295D01*
X21516452Y95600559D01*
X21394205Y95682242D01*
X21290242Y95786205D01*
X21208559Y95908452D01*
X21152295Y96044286D01*
X21123611Y96188487D01*
X21123611Y96335513D01*
X21152295Y96479714D01*
X21208559Y96615548D01*
X21290242Y96737795D01*
X21394205Y96841758D01*
X21516452Y96923441D01*
X21652286Y96979705D01*
X21796487Y97008389D01*
X21943513Y97008389D01*
X22087714Y96979705D01*
G37*
G36*
X147360927Y96765196D02*
G01*
X147368773Y96765196D01*
X147383143Y96759244D01*
X147415504Y96750573D01*
X147444519Y96733821D01*
X147458893Y96727867D01*
X147464441Y96722319D01*
X147471925Y96717998D01*
X147517997Y96671926D01*
X147522317Y96664443D01*
X147527867Y96658893D01*
X147533821Y96644518D01*
X147550572Y96615505D01*
X147559242Y96583147D01*
X147565196Y96568773D01*
X147565196Y96560927D01*
X147567433Y96552578D01*
X147567433Y96487423D01*
X147565196Y96479075D01*
X147565196Y96471227D01*
X147559241Y96456852D01*
X147550572Y96424496D01*
X147533823Y96395487D01*
X147527867Y96381107D01*
X147522316Y96375557D01*
X147517997Y96368075D01*
X147471925Y96322003D01*
X147464443Y96317684D01*
X147458893Y96312133D01*
X147444513Y96306177D01*
X147415504Y96289428D01*
X147383147Y96280759D01*
X147368773Y96274804D01*
X147360927Y96274804D01*
X147352578Y96272567D01*
X147287422Y96272567D01*
X147279073Y96274804D01*
X147271227Y96274804D01*
X147256853Y96280758D01*
X147224495Y96289428D01*
X147195482Y96306179D01*
X147181107Y96312133D01*
X147175557Y96317683D01*
X147168074Y96322003D01*
X147122002Y96368075D01*
X147117681Y96375559D01*
X147112133Y96381107D01*
X147106179Y96395481D01*
X147089427Y96424496D01*
X147080757Y96456856D01*
X147074804Y96471227D01*
X147074804Y96479074D01*
X147072567Y96487423D01*
X147072567Y96552578D01*
X147074804Y96560928D01*
X147074804Y96568773D01*
X147080756Y96583144D01*
X147089427Y96615505D01*
X147106180Y96644524D01*
X147112133Y96658893D01*
X147117679Y96664440D01*
X147122002Y96671926D01*
X147168074Y96717998D01*
X147175560Y96722321D01*
X147181107Y96727867D01*
X147195476Y96733820D01*
X147224495Y96750573D01*
X147256856Y96759244D01*
X147271227Y96765196D01*
X147279073Y96765196D01*
X147287422Y96767433D01*
X147352578Y96767433D01*
X147360927Y96765196D01*
G37*
G36*
X73775000Y97314000D02*
G01*
X72275000Y97314000D01*
X72275000Y101314000D01*
X73775000Y101314000D01*
X73775000Y97314000D01*
G37*
G36*
X78855000Y97314000D02*
G01*
X77355000Y97314000D01*
X77355000Y101314000D01*
X78855000Y101314000D01*
X78855000Y97314000D01*
G37*
G36*
X96000000Y97314000D02*
G01*
X94500000Y97314000D01*
X94500000Y101314000D01*
X96000000Y101314000D01*
X96000000Y97314000D01*
G37*
G36*
X101080000Y97314000D02*
G01*
X99580000Y97314000D01*
X99580000Y101314000D01*
X101080000Y101314000D01*
X101080000Y97314000D01*
G37*
G36*
X118225000Y97314000D02*
G01*
X116725000Y97314000D01*
X116725000Y101314000D01*
X118225000Y101314000D01*
X118225000Y97314000D01*
G37*
G36*
X123305000Y97314000D02*
G01*
X121805000Y97314000D01*
X121805000Y101314000D01*
X123305000Y101314000D01*
X123305000Y97314000D01*
G37*
G36*
X140450000Y97314000D02*
G01*
X138950000Y97314000D01*
X138950000Y101314000D01*
X140450000Y101314000D01*
X140450000Y97314000D01*
G37*
G36*
X145530000Y97314000D02*
G01*
X144030000Y97314000D01*
X144030000Y101314000D01*
X145530000Y101314000D01*
X145530000Y97314000D01*
G37*
G36*
X2901840Y100567173D02*
G01*
X3133159Y100492013D01*
X3349873Y100381592D01*
X3546644Y100238629D01*
X3718629Y100066644D01*
X3861592Y99869873D01*
X3972013Y99653159D01*
X4047173Y99421840D01*
X4085222Y99181612D01*
X4085222Y98938388D01*
X4047173Y98698160D01*
X3972013Y98466841D01*
X3861592Y98250127D01*
X3718629Y98053356D01*
X3546644Y97881371D01*
X3349873Y97738408D01*
X3133159Y97627987D01*
X2901840Y97552827D01*
X2661612Y97514778D01*
X2418388Y97514778D01*
X2178160Y97552827D01*
X1946841Y97627987D01*
X1730127Y97738408D01*
X1533356Y97881371D01*
X1361371Y98053356D01*
X1218408Y98250127D01*
X1107987Y98466841D01*
X1032827Y98698160D01*
X994778Y98938388D01*
X994778Y99181612D01*
X1032827Y99421840D01*
X1107987Y99653159D01*
X1218408Y99869873D01*
X1361371Y100066644D01*
X1533356Y100238629D01*
X1730127Y100381592D01*
X1946841Y100492013D01*
X2178160Y100567173D01*
X2418388Y100605222D01*
X2661612Y100605222D01*
X2901840Y100567173D01*
G37*
G36*
X150221840Y100567173D02*
G01*
X150453159Y100492013D01*
X150669873Y100381592D01*
X150866644Y100238629D01*
X151038629Y100066644D01*
X151181592Y99869873D01*
X151292013Y99653159D01*
X151367173Y99421840D01*
X151405222Y99181612D01*
X151405222Y98938388D01*
X151367173Y98698160D01*
X151292013Y98466841D01*
X151181592Y98250127D01*
X151038629Y98053356D01*
X150866644Y97881371D01*
X150669873Y97738408D01*
X150453159Y97627987D01*
X150221840Y97552827D01*
X149981612Y97514778D01*
X149738388Y97514778D01*
X149498160Y97552827D01*
X149266841Y97627987D01*
X149050127Y97738408D01*
X148853356Y97881371D01*
X148681371Y98053356D01*
X148538408Y98250127D01*
X148427987Y98466841D01*
X148352827Y98698160D01*
X148314778Y98938388D01*
X148314778Y99181612D01*
X148352827Y99421840D01*
X148427987Y99653159D01*
X148538408Y99869873D01*
X148681371Y100066644D01*
X148853356Y100238629D01*
X149050127Y100381592D01*
X149266841Y100492013D01*
X149498160Y100567173D01*
X149738388Y100605222D01*
X149981612Y100605222D01*
X150221840Y100567173D01*
G37*
G36*
X9969500Y99334788D02*
G01*
X9998788Y99305500D01*
X10321211Y99305500D01*
X10350500Y99334789D01*
X10350500Y99690078D01*
X10350500Y99695000D01*
X11010900Y99695000D01*
X11010900Y98425000D01*
X10350500Y98425000D01*
X10350500Y98785212D01*
X10321212Y98814500D01*
X9998789Y98814500D01*
X9969500Y98785211D01*
X9969500Y98425000D01*
X9309100Y98425000D01*
X9309100Y99695000D01*
X9969500Y99695000D01*
X9969500Y99334788D01*
G37*
G36*
X20129500Y99334788D02*
G01*
X20158788Y99305500D01*
X20481211Y99305500D01*
X20510500Y99334789D01*
X20510500Y99690078D01*
X20510500Y99695000D01*
X21170900Y99695000D01*
X21170900Y98425000D01*
X20510500Y98425000D01*
X20510500Y98785212D01*
X20481212Y98814500D01*
X20158789Y98814500D01*
X20129500Y98785211D01*
X20129500Y98425000D01*
X19469100Y98425000D01*
X19469100Y99695000D01*
X20129500Y99695000D01*
X20129500Y99334788D01*
G37*
G36*
X42007772Y99677305D02*
G01*
X42014761Y99675275D01*
X42021863Y99674629D01*
X42089083Y99653682D01*
X42158217Y99633597D01*
X42163428Y99630515D01*
X42166358Y99629602D01*
X42228839Y99591832D01*
X42293067Y99553847D01*
X42295197Y99551717D01*
X42295220Y99551703D01*
X42401702Y99445221D01*
X42401715Y99445199D01*
X42403847Y99443067D01*
X42441848Y99378810D01*
X42479601Y99316359D01*
X42480513Y99313432D01*
X42483597Y99308217D01*
X42503689Y99239059D01*
X42524628Y99171865D01*
X42525273Y99164767D01*
X42527305Y99157772D01*
X42535000Y99060000D01*
X42527305Y98962228D01*
X42525272Y98955234D01*
X42524628Y98948137D01*
X42503695Y98880964D01*
X42483597Y98811783D01*
X42480512Y98806568D01*
X42479601Y98803642D01*
X42441876Y98741238D01*
X42403847Y98676933D01*
X42401714Y98674801D01*
X42401702Y98674780D01*
X42295220Y98568298D01*
X42295199Y98568286D01*
X42293067Y98566153D01*
X42228762Y98528124D01*
X42166358Y98490399D01*
X42163432Y98489488D01*
X42158217Y98486403D01*
X42089044Y98466307D01*
X42021864Y98445372D01*
X42014766Y98444728D01*
X42007772Y98442695D01*
X41910000Y98435000D01*
X41812228Y98442695D01*
X41805233Y98444727D01*
X41798136Y98445372D01*
X41730949Y98466309D01*
X41661783Y98486403D01*
X41656568Y98489487D01*
X41653641Y98490399D01*
X41591190Y98528152D01*
X41526933Y98566153D01*
X41524801Y98568285D01*
X41524779Y98568298D01*
X41418297Y98674780D01*
X41418283Y98674803D01*
X41416153Y98676933D01*
X41378168Y98741161D01*
X41340398Y98803642D01*
X41339485Y98806572D01*
X41336403Y98811783D01*
X41316320Y98880909D01*
X41295371Y98948136D01*
X41294725Y98955239D01*
X41292695Y98962228D01*
X41285000Y99060000D01*
X41292695Y99157772D01*
X41294725Y99164762D01*
X41295371Y99171864D01*
X41316322Y99239099D01*
X41336403Y99308217D01*
X41339484Y99313428D01*
X41340398Y99316359D01*
X41378196Y99378886D01*
X41416153Y99443067D01*
X41418281Y99445196D01*
X41418297Y99445221D01*
X41524779Y99551703D01*
X41524804Y99551719D01*
X41526933Y99553847D01*
X41591114Y99591804D01*
X41653641Y99629602D01*
X41656572Y99630516D01*
X41661783Y99633597D01*
X41730893Y99653676D01*
X41798135Y99674629D01*
X41805238Y99675275D01*
X41812228Y99677305D01*
X41910000Y99685000D01*
X42007772Y99677305D01*
G37*
G36*
X44547772Y99677305D02*
G01*
X44554761Y99675275D01*
X44561863Y99674629D01*
X44629083Y99653682D01*
X44698217Y99633597D01*
X44703428Y99630515D01*
X44706358Y99629602D01*
X44768839Y99591832D01*
X44833067Y99553847D01*
X44835197Y99551717D01*
X44835220Y99551703D01*
X44941702Y99445221D01*
X44941715Y99445199D01*
X44943847Y99443067D01*
X44981848Y99378810D01*
X45019601Y99316359D01*
X45020513Y99313432D01*
X45023597Y99308217D01*
X45043689Y99239059D01*
X45064628Y99171865D01*
X45065273Y99164767D01*
X45067305Y99157772D01*
X45075000Y99060000D01*
X45067305Y98962228D01*
X45065272Y98955234D01*
X45064628Y98948137D01*
X45043695Y98880964D01*
X45023597Y98811783D01*
X45020512Y98806568D01*
X45019601Y98803642D01*
X44981876Y98741238D01*
X44943847Y98676933D01*
X44941714Y98674801D01*
X44941702Y98674780D01*
X44835220Y98568298D01*
X44835199Y98568286D01*
X44833067Y98566153D01*
X44768762Y98528124D01*
X44706358Y98490399D01*
X44703432Y98489488D01*
X44698217Y98486403D01*
X44629044Y98466307D01*
X44561864Y98445372D01*
X44554766Y98444728D01*
X44547772Y98442695D01*
X44450000Y98435000D01*
X44352228Y98442695D01*
X44345233Y98444727D01*
X44338136Y98445372D01*
X44270949Y98466309D01*
X44201783Y98486403D01*
X44196568Y98489487D01*
X44193641Y98490399D01*
X44131190Y98528152D01*
X44066933Y98566153D01*
X44064801Y98568285D01*
X44064779Y98568298D01*
X43958297Y98674780D01*
X43958283Y98674803D01*
X43956153Y98676933D01*
X43918168Y98741161D01*
X43880398Y98803642D01*
X43879485Y98806572D01*
X43876403Y98811783D01*
X43856320Y98880909D01*
X43835371Y98948136D01*
X43834725Y98955239D01*
X43832695Y98962228D01*
X43825000Y99060000D01*
X43832695Y99157772D01*
X43834725Y99164762D01*
X43835371Y99171864D01*
X43856322Y99239099D01*
X43876403Y99308217D01*
X43879484Y99313428D01*
X43880398Y99316359D01*
X43918196Y99378886D01*
X43956153Y99443067D01*
X43958281Y99445196D01*
X43958297Y99445221D01*
X44064779Y99551703D01*
X44064804Y99551719D01*
X44066933Y99553847D01*
X44131114Y99591804D01*
X44193641Y99629602D01*
X44196572Y99630516D01*
X44201783Y99633597D01*
X44270893Y99653676D01*
X44338135Y99674629D01*
X44345238Y99675275D01*
X44352228Y99677305D01*
X44450000Y99685000D01*
X44547772Y99677305D01*
G37*
G36*
X49627772Y99677305D02*
G01*
X49634761Y99675275D01*
X49641863Y99674629D01*
X49709083Y99653682D01*
X49778217Y99633597D01*
X49783428Y99630515D01*
X49786358Y99629602D01*
X49848839Y99591832D01*
X49913067Y99553847D01*
X49915197Y99551717D01*
X49915220Y99551703D01*
X50021702Y99445221D01*
X50021715Y99445199D01*
X50023847Y99443067D01*
X50061848Y99378810D01*
X50099601Y99316359D01*
X50100513Y99313432D01*
X50103597Y99308217D01*
X50123689Y99239059D01*
X50144628Y99171865D01*
X50145273Y99164767D01*
X50147305Y99157772D01*
X50155000Y99060000D01*
X50147305Y98962228D01*
X50145272Y98955234D01*
X50144628Y98948137D01*
X50123695Y98880964D01*
X50103597Y98811783D01*
X50100512Y98806568D01*
X50099601Y98803642D01*
X50061876Y98741238D01*
X50023847Y98676933D01*
X50021714Y98674801D01*
X50021702Y98674780D01*
X49915220Y98568298D01*
X49915199Y98568286D01*
X49913067Y98566153D01*
X49848762Y98528124D01*
X49786358Y98490399D01*
X49783432Y98489488D01*
X49778217Y98486403D01*
X49709044Y98466307D01*
X49641864Y98445372D01*
X49634766Y98444728D01*
X49627772Y98442695D01*
X49530000Y98435000D01*
X49432228Y98442695D01*
X49425233Y98444727D01*
X49418136Y98445372D01*
X49350949Y98466309D01*
X49281783Y98486403D01*
X49276568Y98489487D01*
X49273641Y98490399D01*
X49211190Y98528152D01*
X49146933Y98566153D01*
X49144801Y98568285D01*
X49144779Y98568298D01*
X49038297Y98674780D01*
X49038283Y98674803D01*
X49036153Y98676933D01*
X48998168Y98741161D01*
X48960398Y98803642D01*
X48959485Y98806572D01*
X48956403Y98811783D01*
X48936320Y98880909D01*
X48915371Y98948136D01*
X48914725Y98955239D01*
X48912695Y98962228D01*
X48905000Y99060000D01*
X48912695Y99157772D01*
X48914725Y99164762D01*
X48915371Y99171864D01*
X48936322Y99239099D01*
X48956403Y99308217D01*
X48959484Y99313428D01*
X48960398Y99316359D01*
X48998196Y99378886D01*
X49036153Y99443067D01*
X49038281Y99445196D01*
X49038297Y99445221D01*
X49144779Y99551703D01*
X49144804Y99551719D01*
X49146933Y99553847D01*
X49211114Y99591804D01*
X49273641Y99629602D01*
X49276572Y99630516D01*
X49281783Y99633597D01*
X49350893Y99653676D01*
X49418135Y99674629D01*
X49425238Y99675275D01*
X49432228Y99677305D01*
X49530000Y99685000D01*
X49627772Y99677305D01*
G37*
G36*
X52167772Y99677305D02*
G01*
X52174761Y99675275D01*
X52181863Y99674629D01*
X52249083Y99653682D01*
X52318217Y99633597D01*
X52323428Y99630515D01*
X52326358Y99629602D01*
X52388839Y99591832D01*
X52453067Y99553847D01*
X52455197Y99551717D01*
X52455220Y99551703D01*
X52561702Y99445221D01*
X52561715Y99445199D01*
X52563847Y99443067D01*
X52601848Y99378810D01*
X52639601Y99316359D01*
X52640513Y99313432D01*
X52643597Y99308217D01*
X52663689Y99239059D01*
X52684628Y99171865D01*
X52685273Y99164767D01*
X52687305Y99157772D01*
X52695000Y99060000D01*
X52687305Y98962228D01*
X52685272Y98955234D01*
X52684628Y98948137D01*
X52663695Y98880964D01*
X52643597Y98811783D01*
X52640512Y98806568D01*
X52639601Y98803642D01*
X52601876Y98741238D01*
X52563847Y98676933D01*
X52561714Y98674801D01*
X52561702Y98674780D01*
X52455220Y98568298D01*
X52455199Y98568286D01*
X52453067Y98566153D01*
X52388762Y98528124D01*
X52326358Y98490399D01*
X52323432Y98489488D01*
X52318217Y98486403D01*
X52249044Y98466307D01*
X52181864Y98445372D01*
X52174766Y98444728D01*
X52167772Y98442695D01*
X52070000Y98435000D01*
X51972228Y98442695D01*
X51965233Y98444727D01*
X51958136Y98445372D01*
X51890949Y98466309D01*
X51821783Y98486403D01*
X51816568Y98489487D01*
X51813641Y98490399D01*
X51751190Y98528152D01*
X51686933Y98566153D01*
X51684801Y98568285D01*
X51684779Y98568298D01*
X51578297Y98674780D01*
X51578283Y98674803D01*
X51576153Y98676933D01*
X51538168Y98741161D01*
X51500398Y98803642D01*
X51499485Y98806572D01*
X51496403Y98811783D01*
X51476320Y98880909D01*
X51455371Y98948136D01*
X51454725Y98955239D01*
X51452695Y98962228D01*
X51445000Y99060000D01*
X51452695Y99157772D01*
X51454725Y99164762D01*
X51455371Y99171864D01*
X51476322Y99239099D01*
X51496403Y99308217D01*
X51499484Y99313428D01*
X51500398Y99316359D01*
X51538196Y99378886D01*
X51576153Y99443067D01*
X51578281Y99445196D01*
X51578297Y99445221D01*
X51684779Y99551703D01*
X51684804Y99551719D01*
X51686933Y99553847D01*
X51751114Y99591804D01*
X51813641Y99629602D01*
X51816572Y99630516D01*
X51821783Y99633597D01*
X51890893Y99653676D01*
X51958135Y99674629D01*
X51965238Y99675275D01*
X51972228Y99677305D01*
X52070000Y99685000D01*
X52167772Y99677305D01*
G37*
G36*
X54707772Y99677305D02*
G01*
X54714761Y99675275D01*
X54721863Y99674629D01*
X54789083Y99653682D01*
X54858217Y99633597D01*
X54863428Y99630515D01*
X54866358Y99629602D01*
X54928839Y99591832D01*
X54993067Y99553847D01*
X54995197Y99551717D01*
X54995220Y99551703D01*
X55101702Y99445221D01*
X55101715Y99445199D01*
X55103847Y99443067D01*
X55141848Y99378810D01*
X55179601Y99316359D01*
X55180513Y99313432D01*
X55183597Y99308217D01*
X55203689Y99239059D01*
X55224628Y99171865D01*
X55225273Y99164767D01*
X55227305Y99157772D01*
X55235000Y99060000D01*
X55227305Y98962228D01*
X55225272Y98955234D01*
X55224628Y98948137D01*
X55203695Y98880964D01*
X55183597Y98811783D01*
X55180512Y98806568D01*
X55179601Y98803642D01*
X55141876Y98741238D01*
X55103847Y98676933D01*
X55101714Y98674801D01*
X55101702Y98674780D01*
X54995220Y98568298D01*
X54995199Y98568286D01*
X54993067Y98566153D01*
X54928762Y98528124D01*
X54866358Y98490399D01*
X54863432Y98489488D01*
X54858217Y98486403D01*
X54789044Y98466307D01*
X54721864Y98445372D01*
X54714766Y98444728D01*
X54707772Y98442695D01*
X54610000Y98435000D01*
X54512228Y98442695D01*
X54505233Y98444727D01*
X54498136Y98445372D01*
X54430949Y98466309D01*
X54361783Y98486403D01*
X54356568Y98489487D01*
X54353641Y98490399D01*
X54291190Y98528152D01*
X54226933Y98566153D01*
X54224801Y98568285D01*
X54224779Y98568298D01*
X54118297Y98674780D01*
X54118283Y98674803D01*
X54116153Y98676933D01*
X54078168Y98741161D01*
X54040398Y98803642D01*
X54039485Y98806572D01*
X54036403Y98811783D01*
X54016320Y98880909D01*
X53995371Y98948136D01*
X53994725Y98955239D01*
X53992695Y98962228D01*
X53985000Y99060000D01*
X53992695Y99157772D01*
X53994725Y99164762D01*
X53995371Y99171864D01*
X54016322Y99239099D01*
X54036403Y99308217D01*
X54039484Y99313428D01*
X54040398Y99316359D01*
X54078196Y99378886D01*
X54116153Y99443067D01*
X54118281Y99445196D01*
X54118297Y99445221D01*
X54224779Y99551703D01*
X54224804Y99551719D01*
X54226933Y99553847D01*
X54291114Y99591804D01*
X54353641Y99629602D01*
X54356572Y99630516D01*
X54361783Y99633597D01*
X54430893Y99653676D01*
X54498135Y99674629D01*
X54505238Y99675275D01*
X54512228Y99677305D01*
X54610000Y99685000D01*
X54707772Y99677305D01*
G37*
G36*
X59787772Y99677305D02*
G01*
X59794761Y99675275D01*
X59801863Y99674629D01*
X59869083Y99653682D01*
X59938217Y99633597D01*
X59943428Y99630515D01*
X59946358Y99629602D01*
X60008839Y99591832D01*
X60073067Y99553847D01*
X60075197Y99551717D01*
X60075220Y99551703D01*
X60181702Y99445221D01*
X60181715Y99445199D01*
X60183847Y99443067D01*
X60221848Y99378810D01*
X60259601Y99316359D01*
X60260513Y99313432D01*
X60263597Y99308217D01*
X60283689Y99239059D01*
X60304628Y99171865D01*
X60305273Y99164767D01*
X60307305Y99157772D01*
X60315000Y99060000D01*
X60307305Y98962228D01*
X60305272Y98955234D01*
X60304628Y98948137D01*
X60283695Y98880964D01*
X60263597Y98811783D01*
X60260512Y98806568D01*
X60259601Y98803642D01*
X60221876Y98741238D01*
X60183847Y98676933D01*
X60181714Y98674801D01*
X60181702Y98674780D01*
X60075220Y98568298D01*
X60075199Y98568286D01*
X60073067Y98566153D01*
X60008762Y98528124D01*
X59946358Y98490399D01*
X59943432Y98489488D01*
X59938217Y98486403D01*
X59869044Y98466307D01*
X59801864Y98445372D01*
X59794766Y98444728D01*
X59787772Y98442695D01*
X59690000Y98435000D01*
X59592228Y98442695D01*
X59585233Y98444727D01*
X59578136Y98445372D01*
X59510949Y98466309D01*
X59441783Y98486403D01*
X59436568Y98489487D01*
X59433641Y98490399D01*
X59371190Y98528152D01*
X59306933Y98566153D01*
X59304801Y98568285D01*
X59304779Y98568298D01*
X59198297Y98674780D01*
X59198283Y98674803D01*
X59196153Y98676933D01*
X59158168Y98741161D01*
X59120398Y98803642D01*
X59119485Y98806572D01*
X59116403Y98811783D01*
X59096320Y98880909D01*
X59075371Y98948136D01*
X59074725Y98955239D01*
X59072695Y98962228D01*
X59065000Y99060000D01*
X59072695Y99157772D01*
X59074725Y99164762D01*
X59075371Y99171864D01*
X59096322Y99239099D01*
X59116403Y99308217D01*
X59119484Y99313428D01*
X59120398Y99316359D01*
X59158196Y99378886D01*
X59196153Y99443067D01*
X59198281Y99445196D01*
X59198297Y99445221D01*
X59304779Y99551703D01*
X59304804Y99551719D01*
X59306933Y99553847D01*
X59371114Y99591804D01*
X59433641Y99629602D01*
X59436572Y99630516D01*
X59441783Y99633597D01*
X59510893Y99653676D01*
X59578135Y99674629D01*
X59585238Y99675275D01*
X59592228Y99677305D01*
X59690000Y99685000D01*
X59787772Y99677305D01*
G37*
G36*
X62327772Y99677305D02*
G01*
X62334761Y99675275D01*
X62341863Y99674629D01*
X62409083Y99653682D01*
X62478217Y99633597D01*
X62483428Y99630515D01*
X62486358Y99629602D01*
X62548839Y99591832D01*
X62613067Y99553847D01*
X62615197Y99551717D01*
X62615220Y99551703D01*
X62721702Y99445221D01*
X62721715Y99445199D01*
X62723847Y99443067D01*
X62761848Y99378810D01*
X62799601Y99316359D01*
X62800513Y99313432D01*
X62803597Y99308217D01*
X62823689Y99239059D01*
X62844628Y99171865D01*
X62845273Y99164767D01*
X62847305Y99157772D01*
X62855000Y99060000D01*
X62847305Y98962228D01*
X62845272Y98955234D01*
X62844628Y98948137D01*
X62823695Y98880964D01*
X62803597Y98811783D01*
X62800512Y98806568D01*
X62799601Y98803642D01*
X62761876Y98741238D01*
X62723847Y98676933D01*
X62721714Y98674801D01*
X62721702Y98674780D01*
X62615220Y98568298D01*
X62615199Y98568286D01*
X62613067Y98566153D01*
X62548762Y98528124D01*
X62486358Y98490399D01*
X62483432Y98489488D01*
X62478217Y98486403D01*
X62409044Y98466307D01*
X62341864Y98445372D01*
X62334766Y98444728D01*
X62327772Y98442695D01*
X62230000Y98435000D01*
X62132228Y98442695D01*
X62125233Y98444727D01*
X62118136Y98445372D01*
X62050949Y98466309D01*
X61981783Y98486403D01*
X61976568Y98489487D01*
X61973641Y98490399D01*
X61911190Y98528152D01*
X61846933Y98566153D01*
X61844801Y98568285D01*
X61844779Y98568298D01*
X61738297Y98674780D01*
X61738283Y98674803D01*
X61736153Y98676933D01*
X61698168Y98741161D01*
X61660398Y98803642D01*
X61659485Y98806572D01*
X61656403Y98811783D01*
X61636320Y98880909D01*
X61615371Y98948136D01*
X61614725Y98955239D01*
X61612695Y98962228D01*
X61605000Y99060000D01*
X61612695Y99157772D01*
X61614725Y99164762D01*
X61615371Y99171864D01*
X61636322Y99239099D01*
X61656403Y99308217D01*
X61659484Y99313428D01*
X61660398Y99316359D01*
X61698196Y99378886D01*
X61736153Y99443067D01*
X61738281Y99445196D01*
X61738297Y99445221D01*
X61844779Y99551703D01*
X61844804Y99551719D01*
X61846933Y99553847D01*
X61911114Y99591804D01*
X61973641Y99629602D01*
X61976572Y99630516D01*
X61981783Y99633597D01*
X62050893Y99653676D01*
X62118135Y99674629D01*
X62125238Y99675275D01*
X62132228Y99677305D01*
X62230000Y99685000D01*
X62327772Y99677305D01*
G37*
G36*
X97887772Y99931305D02*
G01*
X97894761Y99929275D01*
X97901863Y99928629D01*
X97969083Y99907682D01*
X98038217Y99887597D01*
X98043428Y99884515D01*
X98046358Y99883602D01*
X98108839Y99845832D01*
X98173067Y99807847D01*
X98175197Y99805717D01*
X98175220Y99805703D01*
X98281702Y99699221D01*
X98281715Y99699199D01*
X98283847Y99697067D01*
X98321848Y99632810D01*
X98359601Y99570359D01*
X98360513Y99567432D01*
X98363597Y99562217D01*
X98383689Y99493059D01*
X98404628Y99425865D01*
X98405273Y99418767D01*
X98407305Y99411772D01*
X98415000Y99314000D01*
X98407305Y99216228D01*
X98405272Y99209234D01*
X98404628Y99202137D01*
X98383695Y99134964D01*
X98363597Y99065783D01*
X98360512Y99060568D01*
X98359601Y99057642D01*
X98321876Y98995238D01*
X98283847Y98930933D01*
X98281714Y98928801D01*
X98281702Y98928780D01*
X98175220Y98822298D01*
X98175199Y98822286D01*
X98173067Y98820153D01*
X98108762Y98782124D01*
X98046358Y98744399D01*
X98043432Y98743488D01*
X98038217Y98740403D01*
X97969044Y98720307D01*
X97901864Y98699372D01*
X97894766Y98698728D01*
X97887772Y98696695D01*
X97790000Y98689000D01*
X97692228Y98696695D01*
X97685233Y98698727D01*
X97678136Y98699372D01*
X97610949Y98720309D01*
X97541783Y98740403D01*
X97536568Y98743487D01*
X97533641Y98744399D01*
X97471190Y98782152D01*
X97406933Y98820153D01*
X97404801Y98822285D01*
X97404779Y98822298D01*
X97298297Y98928780D01*
X97298283Y98928803D01*
X97296153Y98930933D01*
X97258168Y98995161D01*
X97220398Y99057642D01*
X97219485Y99060572D01*
X97216403Y99065783D01*
X97196320Y99134909D01*
X97175371Y99202136D01*
X97174725Y99209239D01*
X97172695Y99216228D01*
X97165000Y99314000D01*
X97172695Y99411772D01*
X97174725Y99418762D01*
X97175371Y99425864D01*
X97196322Y99493099D01*
X97216403Y99562217D01*
X97219484Y99567428D01*
X97220398Y99570359D01*
X97258196Y99632886D01*
X97296153Y99697067D01*
X97298281Y99699196D01*
X97298297Y99699221D01*
X97404779Y99805703D01*
X97404804Y99805719D01*
X97406933Y99807847D01*
X97471114Y99845804D01*
X97533641Y99883602D01*
X97536572Y99884516D01*
X97541783Y99887597D01*
X97610893Y99907676D01*
X97678135Y99928629D01*
X97685238Y99929275D01*
X97692228Y99931305D01*
X97790000Y99939000D01*
X97887772Y99931305D01*
G37*
G36*
X120112772Y99931305D02*
G01*
X120119761Y99929275D01*
X120126863Y99928629D01*
X120194083Y99907682D01*
X120263217Y99887597D01*
X120268428Y99884515D01*
X120271358Y99883602D01*
X120333839Y99845832D01*
X120398067Y99807847D01*
X120400197Y99805717D01*
X120400220Y99805703D01*
X120506702Y99699221D01*
X120506715Y99699199D01*
X120508847Y99697067D01*
X120546848Y99632810D01*
X120584601Y99570359D01*
X120585513Y99567432D01*
X120588597Y99562217D01*
X120608689Y99493059D01*
X120629628Y99425865D01*
X120630273Y99418767D01*
X120632305Y99411772D01*
X120640000Y99314000D01*
X120632305Y99216228D01*
X120630272Y99209234D01*
X120629628Y99202137D01*
X120608695Y99134964D01*
X120588597Y99065783D01*
X120585512Y99060568D01*
X120584601Y99057642D01*
X120546876Y98995238D01*
X120508847Y98930933D01*
X120506714Y98928801D01*
X120506702Y98928780D01*
X120400220Y98822298D01*
X120400199Y98822286D01*
X120398067Y98820153D01*
X120333762Y98782124D01*
X120271358Y98744399D01*
X120268432Y98743488D01*
X120263217Y98740403D01*
X120194044Y98720307D01*
X120126864Y98699372D01*
X120119766Y98698728D01*
X120112772Y98696695D01*
X120015000Y98689000D01*
X119917228Y98696695D01*
X119910233Y98698727D01*
X119903136Y98699372D01*
X119835949Y98720309D01*
X119766783Y98740403D01*
X119761568Y98743487D01*
X119758641Y98744399D01*
X119696190Y98782152D01*
X119631933Y98820153D01*
X119629801Y98822285D01*
X119629779Y98822298D01*
X119523297Y98928780D01*
X119523283Y98928803D01*
X119521153Y98930933D01*
X119483168Y98995161D01*
X119445398Y99057642D01*
X119444485Y99060572D01*
X119441403Y99065783D01*
X119421320Y99134909D01*
X119400371Y99202136D01*
X119399725Y99209239D01*
X119397695Y99216228D01*
X119390000Y99314000D01*
X119397695Y99411772D01*
X119399725Y99418762D01*
X119400371Y99425864D01*
X119421322Y99493099D01*
X119441403Y99562217D01*
X119444484Y99567428D01*
X119445398Y99570359D01*
X119483196Y99632886D01*
X119521153Y99697067D01*
X119523281Y99699196D01*
X119523297Y99699221D01*
X119629779Y99805703D01*
X119629804Y99805719D01*
X119631933Y99807847D01*
X119696114Y99845804D01*
X119758641Y99883602D01*
X119761572Y99884516D01*
X119766783Y99887597D01*
X119835893Y99907676D01*
X119903135Y99928629D01*
X119910238Y99929275D01*
X119917228Y99931305D01*
X120015000Y99939000D01*
X120112772Y99931305D01*
G37*
G36*
X142337772Y99931305D02*
G01*
X142344761Y99929275D01*
X142351863Y99928629D01*
X142419083Y99907682D01*
X142488217Y99887597D01*
X142493428Y99884515D01*
X142496358Y99883602D01*
X142558839Y99845832D01*
X142623067Y99807847D01*
X142625197Y99805717D01*
X142625220Y99805703D01*
X142731702Y99699221D01*
X142731715Y99699199D01*
X142733847Y99697067D01*
X142771848Y99632810D01*
X142809601Y99570359D01*
X142810513Y99567432D01*
X142813597Y99562217D01*
X142833689Y99493059D01*
X142854628Y99425865D01*
X142855273Y99418767D01*
X142857305Y99411772D01*
X142865000Y99314000D01*
X142857305Y99216228D01*
X142855272Y99209234D01*
X142854628Y99202137D01*
X142833695Y99134964D01*
X142813597Y99065783D01*
X142810512Y99060568D01*
X142809601Y99057642D01*
X142771876Y98995238D01*
X142733847Y98930933D01*
X142731714Y98928801D01*
X142731702Y98928780D01*
X142625220Y98822298D01*
X142625199Y98822286D01*
X142623067Y98820153D01*
X142558762Y98782124D01*
X142496358Y98744399D01*
X142493432Y98743488D01*
X142488217Y98740403D01*
X142419044Y98720307D01*
X142351864Y98699372D01*
X142344766Y98698728D01*
X142337772Y98696695D01*
X142240000Y98689000D01*
X142142228Y98696695D01*
X142135233Y98698727D01*
X142128136Y98699372D01*
X142060949Y98720309D01*
X141991783Y98740403D01*
X141986568Y98743487D01*
X141983641Y98744399D01*
X141921190Y98782152D01*
X141856933Y98820153D01*
X141854801Y98822285D01*
X141854779Y98822298D01*
X141748297Y98928780D01*
X141748283Y98928803D01*
X141746153Y98930933D01*
X141708168Y98995161D01*
X141670398Y99057642D01*
X141669485Y99060572D01*
X141666403Y99065783D01*
X141646320Y99134909D01*
X141625371Y99202136D01*
X141624725Y99209239D01*
X141622695Y99216228D01*
X141615000Y99314000D01*
X141622695Y99411772D01*
X141624725Y99418762D01*
X141625371Y99425864D01*
X141646322Y99493099D01*
X141666403Y99562217D01*
X141669484Y99567428D01*
X141670398Y99570359D01*
X141708196Y99632886D01*
X141746153Y99697067D01*
X141748281Y99699196D01*
X141748297Y99699221D01*
X141854779Y99805703D01*
X141854804Y99805719D01*
X141856933Y99807847D01*
X141921114Y99845804D01*
X141983641Y99883602D01*
X141986572Y99884516D01*
X141991783Y99887597D01*
X142060893Y99907676D01*
X142128135Y99928629D01*
X142135238Y99929275D01*
X142142228Y99931305D01*
X142240000Y99939000D01*
X142337772Y99931305D01*
G37*
G36*
X-1487332Y106138555D02*
G01*
X-1263475Y106065819D01*
X-1053752Y105958960D01*
X-863328Y105820609D01*
X-696891Y105654172D01*
X-558540Y105463748D01*
X-451681Y105254025D01*
X-378945Y105030168D01*
X-342124Y104797689D01*
X-342124Y104562311D01*
X-378945Y104329832D01*
X-451681Y104105975D01*
X-558540Y103896252D01*
X-696891Y103705828D01*
X-863328Y103539391D01*
X-1053752Y103401040D01*
X-1263475Y103294181D01*
X-1487332Y103221445D01*
X-1719811Y103184624D01*
X-1955189Y103184624D01*
X-2187668Y103221445D01*
X-2411525Y103294181D01*
X-2621248Y103401040D01*
X-2811672Y103539391D01*
X-2978109Y103705828D01*
X-3116460Y103896252D01*
X-3223319Y104105975D01*
X-3296055Y104329832D01*
X-3332876Y104562311D01*
X-3332876Y104797689D01*
X-3296055Y105030168D01*
X-3223319Y105254025D01*
X-3116460Y105463748D01*
X-2978109Y105654172D01*
X-2811672Y105820609D01*
X-2621248Y105958960D01*
X-2411525Y106065819D01*
X-2187668Y106138555D01*
X-1955189Y106175376D01*
X-1719811Y106175376D01*
X-1487332Y106138555D01*
G37*
G36*
X154587668Y106138555D02*
G01*
X154811525Y106065819D01*
X155021248Y105958960D01*
X155211672Y105820609D01*
X155378109Y105654172D01*
X155516460Y105463748D01*
X155623319Y105254025D01*
X155696055Y105030168D01*
X155732876Y104797689D01*
X155732876Y104562311D01*
X155696055Y104329832D01*
X155623319Y104105975D01*
X155516460Y103896252D01*
X155378109Y103705828D01*
X155211672Y103539391D01*
X155021248Y103401040D01*
X154811525Y103294181D01*
X154587668Y103221445D01*
X154355189Y103184624D01*
X154119811Y103184624D01*
X153887332Y103221445D01*
X153663475Y103294181D01*
X153453752Y103401040D01*
X153263328Y103539391D01*
X153096891Y103705828D01*
X152958540Y103896252D01*
X152851681Y104105975D01*
X152778945Y104329832D01*
X152742124Y104562311D01*
X152742124Y104797689D01*
X152778945Y105030168D01*
X152851681Y105254025D01*
X152958540Y105463748D01*
X153096891Y105654172D01*
X153263328Y105820609D01*
X153453752Y105958960D01*
X153663475Y106065819D01*
X153887332Y106138555D01*
X154119811Y106175376D01*
X154355189Y106175376D01*
X154587668Y106138555D01*
G37*
M02*
