%TF.GenerationSoftware,KiCad,Pcbnew,8.0.3*%
%TF.CreationDate,2024-07-26T12:58:37+01:00*%
%TF.ProjectId,SparkFun_RTK_mosaic-T_panelized,53706172-6b46-4756-9e5f-52544b5f6d6f,rev?*%
%TF.SameCoordinates,Original*%
%TF.FileFunction,Paste,Top*%
%TF.FilePolarity,Positive*%
%FSLAX46Y46*%
G04 Gerber Fmt 4.6, Leading zero omitted, Abs format (unit mm)*
G04 Created by KiCad (PCBNEW 8.0.3) date 2024-07-26 12:58:37*
%MOMM*%
%LPD*%
G01*
G04 APERTURE LIST*
G04 Aperture macros list*
%AMRoundRect*
0 Rectangle with rounded corners*
0 $1 Rounding radius*
0 $2 $3 $4 $5 $6 $7 $8 $9 X,Y pos of 4 corners*
0 Add a 4 corners polygon primitive as box body*
4,1,4,$2,$3,$4,$5,$6,$7,$8,$9,$2,$3,0*
0 Add four circle primitives for the rounded corners*
1,1,$1+$1,$2,$3*
1,1,$1+$1,$4,$5*
1,1,$1+$1,$6,$7*
1,1,$1+$1,$8,$9*
0 Add four rect primitives between the rounded corners*
20,1,$1+$1,$2,$3,$4,$5,0*
20,1,$1+$1,$4,$5,$6,$7,0*
20,1,$1+$1,$6,$7,$8,$9,0*
20,1,$1+$1,$8,$9,$2,$3,0*%
G04 Aperture macros list end*
%ADD10C,0.000000*%
%ADD11RoundRect,0.140000X-0.140000X-0.170000X0.140000X-0.170000X0.140000X0.170000X-0.140000X0.170000X0*%
%ADD12RoundRect,0.200000X-0.275000X0.200000X-0.275000X-0.200000X0.275000X-0.200000X0.275000X0.200000X0*%
%ADD13R,0.900000X0.900000*%
%ADD14RoundRect,0.250000X-0.250000X-0.475000X0.250000X-0.475000X0.250000X0.475000X-0.250000X0.475000X0*%
%ADD15RoundRect,0.225000X0.250000X-0.225000X0.250000X0.225000X-0.250000X0.225000X-0.250000X-0.225000X0*%
%ADD16RoundRect,0.225000X0.225000X0.250000X-0.225000X0.250000X-0.225000X-0.250000X0.225000X-0.250000X0*%
%ADD17RoundRect,0.030000X0.120000X-0.245000X0.120000X0.245000X-0.120000X0.245000X-0.120000X-0.245000X0*%
%ADD18RoundRect,0.225000X-0.250000X0.225000X-0.250000X-0.225000X0.250000X-0.225000X0.250000X0.225000X0*%
%ADD19RoundRect,0.200000X0.275000X-0.200000X0.275000X0.200000X-0.275000X0.200000X-0.275000X-0.200000X0*%
%ADD20R,0.800000X0.284600*%
%ADD21R,0.284600X0.800000*%
%ADD22RoundRect,0.225000X-0.225000X-0.250000X0.225000X-0.250000X0.225000X0.250000X-0.225000X0.250000X0*%
%ADD23RoundRect,0.200000X0.200000X0.275000X-0.200000X0.275000X-0.200000X-0.275000X0.200000X-0.275000X0*%
%ADD24R,0.550000X1.200000*%
%ADD25R,1.400000X3.000000*%
%ADD26RoundRect,0.250000X-0.375000X-0.850000X0.375000X-0.850000X0.375000X0.850000X-0.375000X0.850000X0*%
%ADD27R,1.000000X2.800000*%
%ADD28R,1.000000X1.050000*%
%ADD29R,0.850000X2.200000*%
%ADD30RoundRect,0.250000X0.625000X-0.312500X0.625000X0.312500X-0.625000X0.312500X-0.625000X-0.312500X0*%
%ADD31RoundRect,0.200000X-0.200000X-0.275000X0.200000X-0.275000X0.200000X0.275000X-0.200000X0.275000X0*%
%ADD32R,1.050000X1.150000*%
%ADD33R,1.350000X0.700000*%
%ADD34R,0.700000X1.150000*%
%ADD35R,0.300000X0.660000*%
%ADD36R,3.000000X1.400000*%
%ADD37RoundRect,0.030000X-0.245000X-0.120000X0.245000X-0.120000X0.245000X0.120000X-0.245000X0.120000X0*%
%ADD38R,1.200000X0.550000*%
%ADD39R,0.700000X1.600000*%
%ADD40R,1.200000X1.600000*%
%ADD41R,1.200000X2.200000*%
%ADD42R,1.600000X1.400000*%
%ADD43R,1.000000X1.150000*%
%ADD44R,0.300000X1.000000*%
%ADD45R,0.600000X1.000000*%
%ADD46O,1.000000X1.600000*%
%ADD47O,1.000000X2.100000*%
%ADD48R,1.200000X0.600000*%
%ADD49R,0.630000X0.830000*%
%ADD50RoundRect,0.250000X-0.850000X0.375000X-0.850000X-0.375000X0.850000X-0.375000X0.850000X0.375000X0*%
%ADD51R,0.300000X0.700000*%
%ADD52RoundRect,0.250000X-0.325000X-0.650000X0.325000X-0.650000X0.325000X0.650000X-0.325000X0.650000X0*%
%ADD53R,0.400000X0.900000*%
%ADD54RoundRect,0.030000X-0.120000X0.245000X-0.120000X-0.245000X0.120000X-0.245000X0.120000X0.245000X0*%
%ADD55RoundRect,0.208333X-0.541667X-0.891667X0.541667X-0.891667X0.541667X0.891667X-0.541667X0.891667X0*%
%ADD56R,4.000000X1.250000*%
%ADD57R,0.600000X1.550000*%
%ADD58R,1.200000X2.000000*%
G04 APERTURE END LIST*
D10*
%TO.C,U1*%
G36*
X125145000Y48390000D02*
G01*
X123345000Y48390000D01*
X123345000Y49390000D01*
X125145000Y49390000D01*
X125145000Y48390000D01*
G37*
G36*
X125150000Y71250000D02*
G01*
X123350000Y71250000D01*
X123350000Y72250000D01*
X125150000Y72250000D01*
X125150000Y71250000D01*
G37*
G36*
X125150000Y69975000D02*
G01*
X123350000Y69975000D01*
X123350000Y70975000D01*
X125150000Y70975000D01*
X125150000Y69975000D01*
G37*
G36*
X125150000Y68710000D02*
G01*
X123350000Y68710000D01*
X123350000Y69710000D01*
X125150000Y69710000D01*
X125150000Y68710000D01*
G37*
G36*
X125150000Y67440000D02*
G01*
X123350000Y67440000D01*
X123350000Y68440000D01*
X125150000Y68440000D01*
X125150000Y67440000D01*
G37*
G36*
X125150000Y66175000D02*
G01*
X123350000Y66175000D01*
X123350000Y67175000D01*
X125150000Y67175000D01*
X125150000Y66175000D01*
G37*
G36*
X125150000Y64900000D02*
G01*
X123350000Y64900000D01*
X123350000Y65900000D01*
X125150000Y65900000D01*
X125150000Y64900000D01*
G37*
G36*
X125150000Y63630000D02*
G01*
X123350000Y63630000D01*
X123350000Y64630000D01*
X125150000Y64630000D01*
X125150000Y63630000D01*
G37*
G36*
X125150000Y62360000D02*
G01*
X123350000Y62360000D01*
X123350000Y63360000D01*
X125150000Y63360000D01*
X125150000Y62360000D01*
G37*
G36*
X125150000Y61090000D02*
G01*
X123350000Y61090000D01*
X123350000Y62090000D01*
X125150000Y62090000D01*
X125150000Y61090000D01*
G37*
G36*
X125150000Y59820000D02*
G01*
X123350000Y59820000D01*
X123350000Y60820000D01*
X125150000Y60820000D01*
X125150000Y59820000D01*
G37*
G36*
X125150000Y58550000D02*
G01*
X123350000Y58550000D01*
X123350000Y59550000D01*
X125150000Y59550000D01*
X125150000Y58550000D01*
G37*
G36*
X125150000Y57275000D02*
G01*
X123350000Y57275000D01*
X123350000Y58275000D01*
X125150000Y58275000D01*
X125150000Y57275000D01*
G37*
G36*
X125150000Y56010000D02*
G01*
X123350000Y56010000D01*
X123350000Y57010000D01*
X125150000Y57010000D01*
X125150000Y56010000D01*
G37*
G36*
X125150000Y54740000D02*
G01*
X123350000Y54740000D01*
X123350000Y55740000D01*
X125150000Y55740000D01*
X125150000Y54740000D01*
G37*
G36*
X125150000Y53475000D02*
G01*
X123350000Y53475000D01*
X123350000Y54475000D01*
X125150000Y54475000D01*
X125150000Y53475000D01*
G37*
G36*
X125150000Y52200000D02*
G01*
X123350000Y52200000D01*
X123350000Y53200000D01*
X125150000Y53200000D01*
X125150000Y52200000D01*
G37*
G36*
X125150000Y50925000D02*
G01*
X123350000Y50925000D01*
X123350000Y51925000D01*
X125150000Y51925000D01*
X125150000Y50925000D01*
G37*
G36*
X125150000Y49660000D02*
G01*
X123350000Y49660000D01*
X123350000Y50660000D01*
X125150000Y50660000D01*
X125150000Y49660000D01*
G37*
G36*
X143350000Y71250000D02*
G01*
X141550000Y71250000D01*
X141550000Y72250000D01*
X143350000Y72250000D01*
X143350000Y71250000D01*
G37*
G36*
X143350000Y69975000D02*
G01*
X141550000Y69975000D01*
X141550000Y70975000D01*
X143350000Y70975000D01*
X143350000Y69975000D01*
G37*
G36*
X143350000Y68710000D02*
G01*
X141550000Y68710000D01*
X141550000Y69710000D01*
X143350000Y69710000D01*
X143350000Y68710000D01*
G37*
G36*
X143350000Y67440000D02*
G01*
X141550000Y67440000D01*
X141550000Y68440000D01*
X143350000Y68440000D01*
X143350000Y67440000D01*
G37*
G36*
X143350000Y66175000D02*
G01*
X141550000Y66175000D01*
X141550000Y67175000D01*
X143350000Y67175000D01*
X143350000Y66175000D01*
G37*
G36*
X143350000Y64900000D02*
G01*
X141550000Y64900000D01*
X141550000Y65900000D01*
X143350000Y65900000D01*
X143350000Y64900000D01*
G37*
G36*
X143350000Y63630000D02*
G01*
X141550000Y63630000D01*
X141550000Y64630000D01*
X143350000Y64630000D01*
X143350000Y63630000D01*
G37*
G36*
X143350000Y62360000D02*
G01*
X141550000Y62360000D01*
X141550000Y63360000D01*
X143350000Y63360000D01*
X143350000Y62360000D01*
G37*
G36*
X143350000Y61090000D02*
G01*
X141550000Y61090000D01*
X141550000Y62090000D01*
X143350000Y62090000D01*
X143350000Y61090000D01*
G37*
G36*
X143350000Y59825000D02*
G01*
X141550000Y59825000D01*
X141550000Y60825000D01*
X143350000Y60825000D01*
X143350000Y59825000D01*
G37*
G36*
X143350000Y58550000D02*
G01*
X141550000Y58550000D01*
X141550000Y59550000D01*
X143350000Y59550000D01*
X143350000Y58550000D01*
G37*
G36*
X143350000Y57275000D02*
G01*
X141550000Y57275000D01*
X141550000Y58275000D01*
X143350000Y58275000D01*
X143350000Y57275000D01*
G37*
G36*
X143350000Y56010000D02*
G01*
X141550000Y56010000D01*
X141550000Y57010000D01*
X143350000Y57010000D01*
X143350000Y56010000D01*
G37*
G36*
X143350000Y54740000D02*
G01*
X141550000Y54740000D01*
X141550000Y55740000D01*
X143350000Y55740000D01*
X143350000Y54740000D01*
G37*
G36*
X143350000Y53470000D02*
G01*
X141550000Y53470000D01*
X141550000Y54470000D01*
X143350000Y54470000D01*
X143350000Y53470000D01*
G37*
G36*
X143350000Y52200000D02*
G01*
X141550000Y52200000D01*
X141550000Y53200000D01*
X143350000Y53200000D01*
X143350000Y52200000D01*
G37*
G36*
X143350000Y50930000D02*
G01*
X141550000Y50930000D01*
X141550000Y51930000D01*
X143350000Y51930000D01*
X143350000Y50930000D01*
G37*
G36*
X143350000Y49660000D02*
G01*
X141550000Y49660000D01*
X141550000Y50660000D01*
X143350000Y50660000D01*
X143350000Y49660000D01*
G37*
G36*
X143350000Y48390000D02*
G01*
X141550000Y48390000D01*
X141550000Y49390000D01*
X143350000Y49390000D01*
X143350000Y48390000D01*
G37*
%TO.C,U4*%
G36*
X50246000Y71420000D02*
G01*
X49246000Y71420000D01*
X49246000Y72420000D01*
X50246000Y72420000D01*
X50246000Y71420000D01*
G37*
G36*
X50246000Y69820000D02*
G01*
X49246000Y69820000D01*
X49246000Y70820000D01*
X50246000Y70820000D01*
X50246000Y69820000D01*
G37*
G36*
X51846000Y71420000D02*
G01*
X50746000Y71420000D01*
X50746000Y72420000D01*
X51846000Y72420000D01*
X51846000Y71420000D01*
G37*
G36*
X51846000Y69820000D02*
G01*
X50846000Y69820000D01*
X50846000Y70820000D01*
X51846000Y70820000D01*
X51846000Y69820000D01*
G37*
%TO.C,U2*%
G36*
X71872784Y77832503D02*
G01*
X71979039Y77778364D01*
X72064097Y77693305D01*
X72136321Y77471025D01*
X72117503Y77352216D01*
X72063364Y77245961D01*
X71979039Y77161636D01*
X71872784Y77107497D01*
X71755000Y77088842D01*
X71637216Y77107497D01*
X71530961Y77161636D01*
X71445903Y77246695D01*
X71373679Y77468975D01*
X71392497Y77587784D01*
X71446636Y77694039D01*
X71530961Y77778364D01*
X71637216Y77832503D01*
X71755000Y77851158D01*
X71872784Y77832503D01*
G37*
G36*
X71872784Y76562503D02*
G01*
X71979039Y76508364D01*
X72064097Y76423305D01*
X72136321Y76201025D01*
X72117503Y76082216D01*
X72063364Y75975961D01*
X71979039Y75891636D01*
X71872784Y75837497D01*
X71755000Y75818842D01*
X71637216Y75837497D01*
X71530961Y75891636D01*
X71445903Y75976695D01*
X71373679Y76198975D01*
X71392497Y76317784D01*
X71446636Y76424039D01*
X71530961Y76508364D01*
X71637216Y76562503D01*
X71755000Y76581158D01*
X71872784Y76562503D01*
G37*
G36*
X71872784Y75292503D02*
G01*
X71979039Y75238364D01*
X72064097Y75153305D01*
X72136321Y74931025D01*
X72117503Y74812216D01*
X72063364Y74705961D01*
X71979039Y74621636D01*
X71872784Y74567497D01*
X71755000Y74548842D01*
X71637216Y74567497D01*
X71530961Y74621636D01*
X71445903Y74706695D01*
X71373679Y74928975D01*
X71392497Y75047784D01*
X71446636Y75154039D01*
X71530961Y75238364D01*
X71637216Y75292503D01*
X71755000Y75311158D01*
X71872784Y75292503D01*
G37*
G36*
X71872784Y74022503D02*
G01*
X71979039Y73968364D01*
X72064097Y73883305D01*
X72136321Y73661025D01*
X72117503Y73542216D01*
X72063364Y73435961D01*
X71979039Y73351636D01*
X71872784Y73297497D01*
X71755000Y73278842D01*
X71637216Y73297497D01*
X71530961Y73351636D01*
X71445903Y73436695D01*
X71373679Y73658975D01*
X71392497Y73777784D01*
X71446636Y73884039D01*
X71530961Y73968364D01*
X71637216Y74022503D01*
X71755000Y74041158D01*
X71872784Y74022503D01*
G37*
G36*
X71872784Y72752503D02*
G01*
X71979039Y72698364D01*
X72064097Y72613305D01*
X72136321Y72391025D01*
X72117503Y72272216D01*
X72063364Y72165961D01*
X71979039Y72081636D01*
X71872784Y72027497D01*
X71755000Y72008842D01*
X71637216Y72027497D01*
X71530961Y72081636D01*
X71445903Y72166695D01*
X71373679Y72388975D01*
X71392497Y72507784D01*
X71446636Y72614039D01*
X71530961Y72698364D01*
X71637216Y72752503D01*
X71755000Y72771158D01*
X71872784Y72752503D01*
G37*
G36*
X71872784Y71482503D02*
G01*
X71979039Y71428364D01*
X72064097Y71343305D01*
X72136321Y71121025D01*
X72117503Y71002216D01*
X72063364Y70895961D01*
X71979039Y70811636D01*
X71872784Y70757497D01*
X71755000Y70738842D01*
X71637216Y70757497D01*
X71530961Y70811636D01*
X71445903Y70896695D01*
X71373679Y71118975D01*
X71392497Y71237784D01*
X71446636Y71344039D01*
X71530961Y71428364D01*
X71637216Y71482503D01*
X71755000Y71501158D01*
X71872784Y71482503D01*
G37*
G36*
X71872784Y70212503D02*
G01*
X71979039Y70158364D01*
X72064097Y70073305D01*
X72136321Y69851025D01*
X72117503Y69732216D01*
X72063364Y69625961D01*
X71979039Y69541636D01*
X71872784Y69487497D01*
X71755000Y69468842D01*
X71637216Y69487497D01*
X71530961Y69541636D01*
X71445903Y69626695D01*
X71373679Y69848975D01*
X71392497Y69967784D01*
X71446636Y70074039D01*
X71530961Y70158364D01*
X71637216Y70212503D01*
X71755000Y70231158D01*
X71872784Y70212503D01*
G37*
G36*
X71872784Y68942503D02*
G01*
X71979039Y68888364D01*
X72064097Y68803305D01*
X72136321Y68581025D01*
X72117503Y68462216D01*
X72063364Y68355961D01*
X71979039Y68271636D01*
X71872784Y68217497D01*
X71755000Y68198842D01*
X71637216Y68217497D01*
X71530961Y68271636D01*
X71445903Y68356695D01*
X71373679Y68578975D01*
X71392497Y68697784D01*
X71446636Y68804039D01*
X71530961Y68888364D01*
X71637216Y68942503D01*
X71755000Y68961158D01*
X71872784Y68942503D01*
G37*
G36*
X71872784Y67672503D02*
G01*
X71979039Y67618364D01*
X72064097Y67533305D01*
X72136321Y67311025D01*
X72117503Y67192216D01*
X72063364Y67085961D01*
X71979039Y67001636D01*
X71872784Y66947497D01*
X71755000Y66928842D01*
X71637216Y66947497D01*
X71530961Y67001636D01*
X71445903Y67086695D01*
X71373679Y67308975D01*
X71392497Y67427784D01*
X71446636Y67534039D01*
X71530961Y67618364D01*
X71637216Y67672503D01*
X71755000Y67691158D01*
X71872784Y67672503D01*
G37*
G36*
X71872784Y66402503D02*
G01*
X71979039Y66348364D01*
X72064097Y66263305D01*
X72136321Y66041025D01*
X72117503Y65922216D01*
X72063364Y65815961D01*
X71979039Y65731636D01*
X71872784Y65677497D01*
X71755000Y65658842D01*
X71637216Y65677497D01*
X71530961Y65731636D01*
X71445903Y65816695D01*
X71373679Y66038975D01*
X71392497Y66157784D01*
X71446636Y66264039D01*
X71530961Y66348364D01*
X71637216Y66402503D01*
X71755000Y66421158D01*
X71872784Y66402503D01*
G37*
G36*
X71872784Y65132503D02*
G01*
X71979039Y65078364D01*
X72064097Y64993305D01*
X72136321Y64771025D01*
X72117503Y64652216D01*
X72063364Y64545961D01*
X71979039Y64461636D01*
X71872784Y64407497D01*
X71755000Y64388842D01*
X71637216Y64407497D01*
X71530961Y64461636D01*
X71445903Y64546695D01*
X71373679Y64768975D01*
X71392497Y64887784D01*
X71446636Y64994039D01*
X71530961Y65078364D01*
X71637216Y65132503D01*
X71755000Y65151158D01*
X71872784Y65132503D01*
G37*
G36*
X71872784Y63862503D02*
G01*
X71979039Y63808364D01*
X72064097Y63723305D01*
X72136321Y63501025D01*
X72117503Y63382216D01*
X72063364Y63275961D01*
X71979039Y63191636D01*
X71872784Y63137497D01*
X71755000Y63118842D01*
X71637216Y63137497D01*
X71530961Y63191636D01*
X71445903Y63276695D01*
X71373679Y63498975D01*
X71392497Y63617784D01*
X71446636Y63724039D01*
X71530961Y63808364D01*
X71637216Y63862503D01*
X71755000Y63881158D01*
X71872784Y63862503D01*
G37*
G36*
X71872784Y62592503D02*
G01*
X71979039Y62538364D01*
X72064097Y62453305D01*
X72136321Y62231025D01*
X72117503Y62112216D01*
X72063364Y62005961D01*
X71979039Y61921636D01*
X71872784Y61867497D01*
X71755000Y61848842D01*
X71637216Y61867497D01*
X71530961Y61921636D01*
X71445903Y62006695D01*
X71373679Y62228975D01*
X71392497Y62347784D01*
X71446636Y62454039D01*
X71530961Y62538364D01*
X71637216Y62592503D01*
X71755000Y62611158D01*
X71872784Y62592503D01*
G37*
G36*
X71872784Y61322503D02*
G01*
X71979039Y61268364D01*
X72064097Y61183305D01*
X72136321Y60961025D01*
X72117503Y60842216D01*
X72063364Y60735961D01*
X71979039Y60651636D01*
X71872784Y60597497D01*
X71755000Y60578842D01*
X71637216Y60597497D01*
X71530961Y60651636D01*
X71445903Y60736695D01*
X71373679Y60958975D01*
X71392497Y61077784D01*
X71446636Y61184039D01*
X71530961Y61268364D01*
X71637216Y61322503D01*
X71755000Y61341158D01*
X71872784Y61322503D01*
G37*
G36*
X71872784Y60052503D02*
G01*
X71979039Y59998364D01*
X72064097Y59913305D01*
X72136321Y59691025D01*
X72117503Y59572216D01*
X72063364Y59465961D01*
X71979039Y59381636D01*
X71872784Y59327497D01*
X71755000Y59308842D01*
X71637216Y59327497D01*
X71530961Y59381636D01*
X71445903Y59466695D01*
X71373679Y59688975D01*
X71392497Y59807784D01*
X71446636Y59914039D01*
X71530961Y59998364D01*
X71637216Y60052503D01*
X71755000Y60071158D01*
X71872784Y60052503D01*
G37*
G36*
X71872784Y58782503D02*
G01*
X71979039Y58728364D01*
X72064097Y58643305D01*
X72136321Y58421025D01*
X72117503Y58302216D01*
X72063364Y58195961D01*
X71979039Y58111636D01*
X71872784Y58057497D01*
X71755000Y58038842D01*
X71637216Y58057497D01*
X71530961Y58111636D01*
X71445903Y58196695D01*
X71373679Y58418975D01*
X71392497Y58537784D01*
X71446636Y58644039D01*
X71530961Y58728364D01*
X71637216Y58782503D01*
X71755000Y58801158D01*
X71872784Y58782503D01*
G37*
G36*
X71872784Y57512503D02*
G01*
X71979039Y57458364D01*
X72064097Y57373305D01*
X72136321Y57151025D01*
X72117503Y57032216D01*
X72063364Y56925961D01*
X71979039Y56841636D01*
X71872784Y56787497D01*
X71755000Y56768842D01*
X71637216Y56787497D01*
X71530961Y56841636D01*
X71445903Y56926695D01*
X71373679Y57148975D01*
X71392497Y57267784D01*
X71446636Y57374039D01*
X71530961Y57458364D01*
X71637216Y57512503D01*
X71755000Y57531158D01*
X71872784Y57512503D01*
G37*
G36*
X71872784Y56242503D02*
G01*
X71979039Y56188364D01*
X72064097Y56103305D01*
X72136321Y55881025D01*
X72117503Y55762216D01*
X72063364Y55655961D01*
X71979039Y55571636D01*
X71872784Y55517497D01*
X71755000Y55498842D01*
X71637216Y55517497D01*
X71530961Y55571636D01*
X71445903Y55656695D01*
X71373679Y55878975D01*
X71392497Y55997784D01*
X71446636Y56104039D01*
X71530961Y56188364D01*
X71637216Y56242503D01*
X71755000Y56261158D01*
X71872784Y56242503D01*
G37*
G36*
X71872784Y54972503D02*
G01*
X71979039Y54918364D01*
X72064097Y54833305D01*
X72136321Y54611025D01*
X72117503Y54492216D01*
X72063364Y54385961D01*
X71979039Y54301636D01*
X71872784Y54247497D01*
X71755000Y54228842D01*
X71637216Y54247497D01*
X71530961Y54301636D01*
X71445903Y54386695D01*
X71373679Y54608975D01*
X71392497Y54727784D01*
X71446636Y54834039D01*
X71530961Y54918364D01*
X71637216Y54972503D01*
X71755000Y54991158D01*
X71872784Y54972503D01*
G37*
G36*
X71872784Y53702503D02*
G01*
X71979039Y53648364D01*
X72064097Y53563305D01*
X72136321Y53341025D01*
X72117503Y53222216D01*
X72063364Y53115961D01*
X71979039Y53031636D01*
X71872784Y52977497D01*
X71755000Y52958842D01*
X71637216Y52977497D01*
X71530961Y53031636D01*
X71445903Y53116695D01*
X71373679Y53338975D01*
X71392497Y53457784D01*
X71446636Y53564039D01*
X71530961Y53648364D01*
X71637216Y53702503D01*
X71755000Y53721158D01*
X71872784Y53702503D01*
G37*
G36*
X71872784Y52432503D02*
G01*
X71979039Y52378364D01*
X72064097Y52293305D01*
X72136321Y52071025D01*
X72117503Y51952216D01*
X72063364Y51845961D01*
X71979039Y51761636D01*
X71872784Y51707497D01*
X71755000Y51688842D01*
X71637216Y51707497D01*
X71530961Y51761636D01*
X71445903Y51846695D01*
X71373679Y52068975D01*
X71392497Y52187784D01*
X71446636Y52294039D01*
X71530961Y52378364D01*
X71637216Y52432503D01*
X71755000Y52451158D01*
X71872784Y52432503D01*
G37*
G36*
X71872784Y51162503D02*
G01*
X71979039Y51108364D01*
X72064097Y51023305D01*
X72136321Y50801025D01*
X72117503Y50682216D01*
X72063364Y50575961D01*
X71979039Y50491636D01*
X71872784Y50437497D01*
X71755000Y50418842D01*
X71637216Y50437497D01*
X71530961Y50491636D01*
X71445903Y50576695D01*
X71373679Y50798975D01*
X71392497Y50917784D01*
X71446636Y51024039D01*
X71530961Y51108364D01*
X71637216Y51162503D01*
X71755000Y51181158D01*
X71872784Y51162503D01*
G37*
G36*
X71872784Y49892503D02*
G01*
X71979039Y49838364D01*
X72064097Y49753305D01*
X72136321Y49531025D01*
X72117503Y49412216D01*
X72063364Y49305961D01*
X71979039Y49221636D01*
X71872784Y49167497D01*
X71755000Y49148842D01*
X71637216Y49167497D01*
X71530961Y49221636D01*
X71445903Y49306695D01*
X71373679Y49528975D01*
X71392497Y49647784D01*
X71446636Y49754039D01*
X71530961Y49838364D01*
X71637216Y49892503D01*
X71755000Y49911158D01*
X71872784Y49892503D01*
G37*
G36*
X73142784Y77832503D02*
G01*
X73249039Y77778364D01*
X73334097Y77693305D01*
X73406321Y77471025D01*
X73387503Y77352216D01*
X73333364Y77245961D01*
X73249039Y77161636D01*
X73142784Y77107497D01*
X73025000Y77088842D01*
X72907216Y77107497D01*
X72800961Y77161636D01*
X72715903Y77246695D01*
X72643679Y77468975D01*
X72662497Y77587784D01*
X72716636Y77694039D01*
X72800961Y77778364D01*
X72907216Y77832503D01*
X73025000Y77851158D01*
X73142784Y77832503D01*
G37*
G36*
X73142784Y76562503D02*
G01*
X73249039Y76508364D01*
X73334097Y76423305D01*
X73406321Y76201025D01*
X73387503Y76082216D01*
X73333364Y75975961D01*
X73249039Y75891636D01*
X73142784Y75837497D01*
X73025000Y75818842D01*
X72907216Y75837497D01*
X72800961Y75891636D01*
X72715903Y75976695D01*
X72643679Y76198975D01*
X72662497Y76317784D01*
X72716636Y76424039D01*
X72800961Y76508364D01*
X72907216Y76562503D01*
X73025000Y76581158D01*
X73142784Y76562503D01*
G37*
G36*
X73142784Y75292503D02*
G01*
X73249039Y75238364D01*
X73334097Y75153305D01*
X73406321Y74931025D01*
X73387503Y74812216D01*
X73333364Y74705961D01*
X73249039Y74621636D01*
X73142784Y74567497D01*
X73025000Y74548842D01*
X72907216Y74567497D01*
X72800961Y74621636D01*
X72715903Y74706695D01*
X72643679Y74928975D01*
X72662497Y75047784D01*
X72716636Y75154039D01*
X72800961Y75238364D01*
X72907216Y75292503D01*
X73025000Y75311158D01*
X73142784Y75292503D01*
G37*
G36*
X73142784Y74022503D02*
G01*
X73249039Y73968364D01*
X73334097Y73883305D01*
X73406321Y73661025D01*
X73387503Y73542216D01*
X73333364Y73435961D01*
X73249039Y73351636D01*
X73142784Y73297497D01*
X73025000Y73278842D01*
X72907216Y73297497D01*
X72800961Y73351636D01*
X72715903Y73436695D01*
X72643679Y73658975D01*
X72662497Y73777784D01*
X72716636Y73884039D01*
X72800961Y73968364D01*
X72907216Y74022503D01*
X73025000Y74041158D01*
X73142784Y74022503D01*
G37*
G36*
X73142784Y72752503D02*
G01*
X73249039Y72698364D01*
X73334097Y72613305D01*
X73406321Y72391025D01*
X73387503Y72272216D01*
X73333364Y72165961D01*
X73249039Y72081636D01*
X73142784Y72027497D01*
X73025000Y72008842D01*
X72907216Y72027497D01*
X72800961Y72081636D01*
X72715903Y72166695D01*
X72643679Y72388975D01*
X72662497Y72507784D01*
X72716636Y72614039D01*
X72800961Y72698364D01*
X72907216Y72752503D01*
X73025000Y72771158D01*
X73142784Y72752503D01*
G37*
G36*
X73142784Y71482503D02*
G01*
X73249039Y71428364D01*
X73334097Y71343305D01*
X73406321Y71121025D01*
X73387503Y71002216D01*
X73333364Y70895961D01*
X73249039Y70811636D01*
X73142784Y70757497D01*
X73025000Y70738842D01*
X72907216Y70757497D01*
X72800961Y70811636D01*
X72715903Y70896695D01*
X72643679Y71118975D01*
X72662497Y71237784D01*
X72716636Y71344039D01*
X72800961Y71428364D01*
X72907216Y71482503D01*
X73025000Y71501158D01*
X73142784Y71482503D01*
G37*
G36*
X73142784Y70212503D02*
G01*
X73249039Y70158364D01*
X73334097Y70073305D01*
X73406321Y69851025D01*
X73387503Y69732216D01*
X73333364Y69625961D01*
X73249039Y69541636D01*
X73142784Y69487497D01*
X73025000Y69468842D01*
X72907216Y69487497D01*
X72800961Y69541636D01*
X72715903Y69626695D01*
X72643679Y69848975D01*
X72662497Y69967784D01*
X72716636Y70074039D01*
X72800961Y70158364D01*
X72907216Y70212503D01*
X73025000Y70231158D01*
X73142784Y70212503D01*
G37*
G36*
X73142784Y68942503D02*
G01*
X73249039Y68888364D01*
X73334097Y68803305D01*
X73406321Y68581025D01*
X73387503Y68462216D01*
X73333364Y68355961D01*
X73249039Y68271636D01*
X73142784Y68217497D01*
X73025000Y68198842D01*
X72907216Y68217497D01*
X72800961Y68271636D01*
X72715903Y68356695D01*
X72643679Y68578975D01*
X72662497Y68697784D01*
X72716636Y68804039D01*
X72800961Y68888364D01*
X72907216Y68942503D01*
X73025000Y68961158D01*
X73142784Y68942503D01*
G37*
G36*
X73142784Y67672503D02*
G01*
X73249039Y67618364D01*
X73334097Y67533305D01*
X73406321Y67311025D01*
X73387503Y67192216D01*
X73333364Y67085961D01*
X73249039Y67001636D01*
X73142784Y66947497D01*
X73025000Y66928842D01*
X72907216Y66947497D01*
X72800961Y67001636D01*
X72715903Y67086695D01*
X72643679Y67308975D01*
X72662497Y67427784D01*
X72716636Y67534039D01*
X72800961Y67618364D01*
X72907216Y67672503D01*
X73025000Y67691158D01*
X73142784Y67672503D01*
G37*
G36*
X73142784Y66402503D02*
G01*
X73249039Y66348364D01*
X73334097Y66263305D01*
X73406321Y66041025D01*
X73387503Y65922216D01*
X73333364Y65815961D01*
X73249039Y65731636D01*
X73142784Y65677497D01*
X73025000Y65658842D01*
X72907216Y65677497D01*
X72800961Y65731636D01*
X72715903Y65816695D01*
X72643679Y66038975D01*
X72662497Y66157784D01*
X72716636Y66264039D01*
X72800961Y66348364D01*
X72907216Y66402503D01*
X73025000Y66421158D01*
X73142784Y66402503D01*
G37*
G36*
X73142784Y65132503D02*
G01*
X73249039Y65078364D01*
X73334097Y64993305D01*
X73406321Y64771025D01*
X73387503Y64652216D01*
X73333364Y64545961D01*
X73249039Y64461636D01*
X73142784Y64407497D01*
X73025000Y64388842D01*
X72907216Y64407497D01*
X72800961Y64461636D01*
X72715903Y64546695D01*
X72643679Y64768975D01*
X72662497Y64887784D01*
X72716636Y64994039D01*
X72800961Y65078364D01*
X72907216Y65132503D01*
X73025000Y65151158D01*
X73142784Y65132503D01*
G37*
G36*
X73142784Y63862503D02*
G01*
X73249039Y63808364D01*
X73334097Y63723305D01*
X73406321Y63501025D01*
X73387503Y63382216D01*
X73333364Y63275961D01*
X73249039Y63191636D01*
X73142784Y63137497D01*
X73025000Y63118842D01*
X72907216Y63137497D01*
X72800961Y63191636D01*
X72715903Y63276695D01*
X72643679Y63498975D01*
X72662497Y63617784D01*
X72716636Y63724039D01*
X72800961Y63808364D01*
X72907216Y63862503D01*
X73025000Y63881158D01*
X73142784Y63862503D01*
G37*
G36*
X73142784Y62592503D02*
G01*
X73249039Y62538364D01*
X73334097Y62453305D01*
X73406321Y62231025D01*
X73387503Y62112216D01*
X73333364Y62005961D01*
X73249039Y61921636D01*
X73142784Y61867497D01*
X73025000Y61848842D01*
X72907216Y61867497D01*
X72800961Y61921636D01*
X72715903Y62006695D01*
X72643679Y62228975D01*
X72662497Y62347784D01*
X72716636Y62454039D01*
X72800961Y62538364D01*
X72907216Y62592503D01*
X73025000Y62611158D01*
X73142784Y62592503D01*
G37*
G36*
X73142784Y61322503D02*
G01*
X73249039Y61268364D01*
X73334097Y61183305D01*
X73406321Y60961025D01*
X73387503Y60842216D01*
X73333364Y60735961D01*
X73249039Y60651636D01*
X73142784Y60597497D01*
X73025000Y60578842D01*
X72907216Y60597497D01*
X72800961Y60651636D01*
X72715903Y60736695D01*
X72643679Y60958975D01*
X72662497Y61077784D01*
X72716636Y61184039D01*
X72800961Y61268364D01*
X72907216Y61322503D01*
X73025000Y61341158D01*
X73142784Y61322503D01*
G37*
G36*
X73142784Y60052503D02*
G01*
X73249039Y59998364D01*
X73334097Y59913305D01*
X73406321Y59691025D01*
X73387503Y59572216D01*
X73333364Y59465961D01*
X73249039Y59381636D01*
X73142784Y59327497D01*
X73025000Y59308842D01*
X72907216Y59327497D01*
X72800961Y59381636D01*
X72715903Y59466695D01*
X72643679Y59688975D01*
X72662497Y59807784D01*
X72716636Y59914039D01*
X72800961Y59998364D01*
X72907216Y60052503D01*
X73025000Y60071158D01*
X73142784Y60052503D01*
G37*
G36*
X73142784Y58782503D02*
G01*
X73249039Y58728364D01*
X73334097Y58643305D01*
X73406321Y58421025D01*
X73387503Y58302216D01*
X73333364Y58195961D01*
X73249039Y58111636D01*
X73142784Y58057497D01*
X73025000Y58038842D01*
X72907216Y58057497D01*
X72800961Y58111636D01*
X72715903Y58196695D01*
X72643679Y58418975D01*
X72662497Y58537784D01*
X72716636Y58644039D01*
X72800961Y58728364D01*
X72907216Y58782503D01*
X73025000Y58801158D01*
X73142784Y58782503D01*
G37*
G36*
X73142784Y57512503D02*
G01*
X73249039Y57458364D01*
X73334097Y57373305D01*
X73406321Y57151025D01*
X73387503Y57032216D01*
X73333364Y56925961D01*
X73249039Y56841636D01*
X73142784Y56787497D01*
X73025000Y56768842D01*
X72907216Y56787497D01*
X72800961Y56841636D01*
X72715903Y56926695D01*
X72643679Y57148975D01*
X72662497Y57267784D01*
X72716636Y57374039D01*
X72800961Y57458364D01*
X72907216Y57512503D01*
X73025000Y57531158D01*
X73142784Y57512503D01*
G37*
G36*
X73142784Y56242503D02*
G01*
X73249039Y56188364D01*
X73334097Y56103305D01*
X73406321Y55881025D01*
X73387503Y55762216D01*
X73333364Y55655961D01*
X73249039Y55571636D01*
X73142784Y55517497D01*
X73025000Y55498842D01*
X72907216Y55517497D01*
X72800961Y55571636D01*
X72715903Y55656695D01*
X72643679Y55878975D01*
X72662497Y55997784D01*
X72716636Y56104039D01*
X72800961Y56188364D01*
X72907216Y56242503D01*
X73025000Y56261158D01*
X73142784Y56242503D01*
G37*
G36*
X73142784Y54972503D02*
G01*
X73249039Y54918364D01*
X73334097Y54833305D01*
X73406321Y54611025D01*
X73387503Y54492216D01*
X73333364Y54385961D01*
X73249039Y54301636D01*
X73142784Y54247497D01*
X73025000Y54228842D01*
X72907216Y54247497D01*
X72800961Y54301636D01*
X72715903Y54386695D01*
X72643679Y54608975D01*
X72662497Y54727784D01*
X72716636Y54834039D01*
X72800961Y54918364D01*
X72907216Y54972503D01*
X73025000Y54991158D01*
X73142784Y54972503D01*
G37*
G36*
X73142784Y53702503D02*
G01*
X73249039Y53648364D01*
X73334097Y53563305D01*
X73406321Y53341025D01*
X73387503Y53222216D01*
X73333364Y53115961D01*
X73249039Y53031636D01*
X73142784Y52977497D01*
X73025000Y52958842D01*
X72907216Y52977497D01*
X72800961Y53031636D01*
X72715903Y53116695D01*
X72643679Y53338975D01*
X72662497Y53457784D01*
X72716636Y53564039D01*
X72800961Y53648364D01*
X72907216Y53702503D01*
X73025000Y53721158D01*
X73142784Y53702503D01*
G37*
G36*
X73142784Y52432503D02*
G01*
X73249039Y52378364D01*
X73334097Y52293305D01*
X73406321Y52071025D01*
X73387503Y51952216D01*
X73333364Y51845961D01*
X73249039Y51761636D01*
X73142784Y51707497D01*
X73025000Y51688842D01*
X72907216Y51707497D01*
X72800961Y51761636D01*
X72715903Y51846695D01*
X72643679Y52068975D01*
X72662497Y52187784D01*
X72716636Y52294039D01*
X72800961Y52378364D01*
X72907216Y52432503D01*
X73025000Y52451158D01*
X73142784Y52432503D01*
G37*
G36*
X73142784Y51162503D02*
G01*
X73249039Y51108364D01*
X73334097Y51023305D01*
X73406321Y50801025D01*
X73387503Y50682216D01*
X73333364Y50575961D01*
X73249039Y50491636D01*
X73142784Y50437497D01*
X73025000Y50418842D01*
X72907216Y50437497D01*
X72800961Y50491636D01*
X72715903Y50576695D01*
X72643679Y50798975D01*
X72662497Y50917784D01*
X72716636Y51024039D01*
X72800961Y51108364D01*
X72907216Y51162503D01*
X73025000Y51181158D01*
X73142784Y51162503D01*
G37*
G36*
X73142784Y49892503D02*
G01*
X73249039Y49838364D01*
X73334097Y49753305D01*
X73406321Y49531025D01*
X73387503Y49412216D01*
X73333364Y49305961D01*
X73249039Y49221636D01*
X73142784Y49167497D01*
X73025000Y49148842D01*
X72907216Y49167497D01*
X72800961Y49221636D01*
X72715903Y49306695D01*
X72643679Y49528975D01*
X72662497Y49647784D01*
X72716636Y49754039D01*
X72800961Y49838364D01*
X72907216Y49892503D01*
X73025000Y49911158D01*
X73142784Y49892503D01*
G37*
G36*
X74412784Y77832503D02*
G01*
X74519039Y77778364D01*
X74604097Y77693305D01*
X74676321Y77471025D01*
X74657503Y77352216D01*
X74603364Y77245961D01*
X74519039Y77161636D01*
X74412784Y77107497D01*
X74295000Y77088842D01*
X74177216Y77107497D01*
X74070961Y77161636D01*
X73985903Y77246695D01*
X73913679Y77468975D01*
X73932497Y77587784D01*
X73986636Y77694039D01*
X74070961Y77778364D01*
X74177216Y77832503D01*
X74295000Y77851158D01*
X74412784Y77832503D01*
G37*
G36*
X74412784Y76562503D02*
G01*
X74519039Y76508364D01*
X74604097Y76423305D01*
X74676321Y76201025D01*
X74657503Y76082216D01*
X74603364Y75975961D01*
X74519039Y75891636D01*
X74412784Y75837497D01*
X74295000Y75818842D01*
X74177216Y75837497D01*
X74070961Y75891636D01*
X73985903Y75976695D01*
X73913679Y76198975D01*
X73932497Y76317784D01*
X73986636Y76424039D01*
X74070961Y76508364D01*
X74177216Y76562503D01*
X74295000Y76581158D01*
X74412784Y76562503D01*
G37*
G36*
X74412784Y75292503D02*
G01*
X74519039Y75238364D01*
X74604097Y75153305D01*
X74676321Y74931025D01*
X74657503Y74812216D01*
X74603364Y74705961D01*
X74519039Y74621636D01*
X74412784Y74567497D01*
X74295000Y74548842D01*
X74177216Y74567497D01*
X74070961Y74621636D01*
X73985903Y74706695D01*
X73913679Y74928975D01*
X73932497Y75047784D01*
X73986636Y75154039D01*
X74070961Y75238364D01*
X74177216Y75292503D01*
X74295000Y75311158D01*
X74412784Y75292503D01*
G37*
G36*
X74412784Y74022503D02*
G01*
X74519039Y73968364D01*
X74604097Y73883305D01*
X74676321Y73661025D01*
X74657503Y73542216D01*
X74603364Y73435961D01*
X74519039Y73351636D01*
X74412784Y73297497D01*
X74295000Y73278842D01*
X74177216Y73297497D01*
X74070961Y73351636D01*
X73985903Y73436695D01*
X73913679Y73658975D01*
X73932497Y73777784D01*
X73986636Y73884039D01*
X74070961Y73968364D01*
X74177216Y74022503D01*
X74295000Y74041158D01*
X74412784Y74022503D01*
G37*
G36*
X74412784Y72752503D02*
G01*
X74519039Y72698364D01*
X74604097Y72613305D01*
X74676321Y72391025D01*
X74657503Y72272216D01*
X74603364Y72165961D01*
X74519039Y72081636D01*
X74412784Y72027497D01*
X74295000Y72008842D01*
X74177216Y72027497D01*
X74070961Y72081636D01*
X73985903Y72166695D01*
X73913679Y72388975D01*
X73932497Y72507784D01*
X73986636Y72614039D01*
X74070961Y72698364D01*
X74177216Y72752503D01*
X74295000Y72771158D01*
X74412784Y72752503D01*
G37*
G36*
X74412784Y71482503D02*
G01*
X74519039Y71428364D01*
X74604097Y71343305D01*
X74676321Y71121025D01*
X74657503Y71002216D01*
X74603364Y70895961D01*
X74519039Y70811636D01*
X74412784Y70757497D01*
X74295000Y70738842D01*
X74177216Y70757497D01*
X74070961Y70811636D01*
X73985903Y70896695D01*
X73913679Y71118975D01*
X73932497Y71237784D01*
X73986636Y71344039D01*
X74070961Y71428364D01*
X74177216Y71482503D01*
X74295000Y71501158D01*
X74412784Y71482503D01*
G37*
G36*
X74412784Y70212503D02*
G01*
X74519039Y70158364D01*
X74604097Y70073305D01*
X74676321Y69851025D01*
X74657503Y69732216D01*
X74603364Y69625961D01*
X74519039Y69541636D01*
X74412784Y69487497D01*
X74295000Y69468842D01*
X74177216Y69487497D01*
X74070961Y69541636D01*
X73985903Y69626695D01*
X73913679Y69848975D01*
X73932497Y69967784D01*
X73986636Y70074039D01*
X74070961Y70158364D01*
X74177216Y70212503D01*
X74295000Y70231158D01*
X74412784Y70212503D01*
G37*
G36*
X74412784Y68942503D02*
G01*
X74519039Y68888364D01*
X74604097Y68803305D01*
X74676321Y68581025D01*
X74657503Y68462216D01*
X74603364Y68355961D01*
X74519039Y68271636D01*
X74412784Y68217497D01*
X74295000Y68198842D01*
X74177216Y68217497D01*
X74070961Y68271636D01*
X73985903Y68356695D01*
X73913679Y68578975D01*
X73932497Y68697784D01*
X73986636Y68804039D01*
X74070961Y68888364D01*
X74177216Y68942503D01*
X74295000Y68961158D01*
X74412784Y68942503D01*
G37*
G36*
X74412784Y67672503D02*
G01*
X74519039Y67618364D01*
X74604097Y67533305D01*
X74676321Y67311025D01*
X74657503Y67192216D01*
X74603364Y67085961D01*
X74519039Y67001636D01*
X74412784Y66947497D01*
X74295000Y66928842D01*
X74177216Y66947497D01*
X74070961Y67001636D01*
X73985903Y67086695D01*
X73913679Y67308975D01*
X73932497Y67427784D01*
X73986636Y67534039D01*
X74070961Y67618364D01*
X74177216Y67672503D01*
X74295000Y67691158D01*
X74412784Y67672503D01*
G37*
G36*
X74412784Y66402503D02*
G01*
X74519039Y66348364D01*
X74604097Y66263305D01*
X74676321Y66041025D01*
X74657503Y65922216D01*
X74603364Y65815961D01*
X74519039Y65731636D01*
X74412784Y65677497D01*
X74295000Y65658842D01*
X74177216Y65677497D01*
X74070961Y65731636D01*
X73985903Y65816695D01*
X73913679Y66038975D01*
X73932497Y66157784D01*
X73986636Y66264039D01*
X74070961Y66348364D01*
X74177216Y66402503D01*
X74295000Y66421158D01*
X74412784Y66402503D01*
G37*
G36*
X74412784Y65132503D02*
G01*
X74519039Y65078364D01*
X74604097Y64993305D01*
X74676321Y64771025D01*
X74657503Y64652216D01*
X74603364Y64545961D01*
X74519039Y64461636D01*
X74412784Y64407497D01*
X74295000Y64388842D01*
X74177216Y64407497D01*
X74070961Y64461636D01*
X73985903Y64546695D01*
X73913679Y64768975D01*
X73932497Y64887784D01*
X73986636Y64994039D01*
X74070961Y65078364D01*
X74177216Y65132503D01*
X74295000Y65151158D01*
X74412784Y65132503D01*
G37*
G36*
X74412784Y63862503D02*
G01*
X74519039Y63808364D01*
X74604097Y63723305D01*
X74676321Y63501025D01*
X74657503Y63382216D01*
X74603364Y63275961D01*
X74519039Y63191636D01*
X74412784Y63137497D01*
X74295000Y63118842D01*
X74177216Y63137497D01*
X74070961Y63191636D01*
X73985903Y63276695D01*
X73913679Y63498975D01*
X73932497Y63617784D01*
X73986636Y63724039D01*
X74070961Y63808364D01*
X74177216Y63862503D01*
X74295000Y63881158D01*
X74412784Y63862503D01*
G37*
G36*
X74412784Y62592503D02*
G01*
X74519039Y62538364D01*
X74604097Y62453305D01*
X74676321Y62231025D01*
X74657503Y62112216D01*
X74603364Y62005961D01*
X74519039Y61921636D01*
X74412784Y61867497D01*
X74295000Y61848842D01*
X74177216Y61867497D01*
X74070961Y61921636D01*
X73985903Y62006695D01*
X73913679Y62228975D01*
X73932497Y62347784D01*
X73986636Y62454039D01*
X74070961Y62538364D01*
X74177216Y62592503D01*
X74295000Y62611158D01*
X74412784Y62592503D01*
G37*
G36*
X74412784Y61322503D02*
G01*
X74519039Y61268364D01*
X74604097Y61183305D01*
X74676321Y60961025D01*
X74657503Y60842216D01*
X74603364Y60735961D01*
X74519039Y60651636D01*
X74412784Y60597497D01*
X74295000Y60578842D01*
X74177216Y60597497D01*
X74070961Y60651636D01*
X73985903Y60736695D01*
X73913679Y60958975D01*
X73932497Y61077784D01*
X73986636Y61184039D01*
X74070961Y61268364D01*
X74177216Y61322503D01*
X74295000Y61341158D01*
X74412784Y61322503D01*
G37*
G36*
X74412784Y60052503D02*
G01*
X74519039Y59998364D01*
X74604097Y59913305D01*
X74676321Y59691025D01*
X74657503Y59572216D01*
X74603364Y59465961D01*
X74519039Y59381636D01*
X74412784Y59327497D01*
X74295000Y59308842D01*
X74177216Y59327497D01*
X74070961Y59381636D01*
X73985903Y59466695D01*
X73913679Y59688975D01*
X73932497Y59807784D01*
X73986636Y59914039D01*
X74070961Y59998364D01*
X74177216Y60052503D01*
X74295000Y60071158D01*
X74412784Y60052503D01*
G37*
G36*
X74412784Y58782503D02*
G01*
X74519039Y58728364D01*
X74604097Y58643305D01*
X74676321Y58421025D01*
X74657503Y58302216D01*
X74603364Y58195961D01*
X74519039Y58111636D01*
X74412784Y58057497D01*
X74295000Y58038842D01*
X74177216Y58057497D01*
X74070961Y58111636D01*
X73985903Y58196695D01*
X73913679Y58418975D01*
X73932497Y58537784D01*
X73986636Y58644039D01*
X74070961Y58728364D01*
X74177216Y58782503D01*
X74295000Y58801158D01*
X74412784Y58782503D01*
G37*
G36*
X74412784Y57512503D02*
G01*
X74519039Y57458364D01*
X74604097Y57373305D01*
X74676321Y57151025D01*
X74657503Y57032216D01*
X74603364Y56925961D01*
X74519039Y56841636D01*
X74412784Y56787497D01*
X74295000Y56768842D01*
X74177216Y56787497D01*
X74070961Y56841636D01*
X73985903Y56926695D01*
X73913679Y57148975D01*
X73932497Y57267784D01*
X73986636Y57374039D01*
X74070961Y57458364D01*
X74177216Y57512503D01*
X74295000Y57531158D01*
X74412784Y57512503D01*
G37*
G36*
X74412784Y56242503D02*
G01*
X74519039Y56188364D01*
X74604097Y56103305D01*
X74676321Y55881025D01*
X74657503Y55762216D01*
X74603364Y55655961D01*
X74519039Y55571636D01*
X74412784Y55517497D01*
X74295000Y55498842D01*
X74177216Y55517497D01*
X74070961Y55571636D01*
X73985903Y55656695D01*
X73913679Y55878975D01*
X73932497Y55997784D01*
X73986636Y56104039D01*
X74070961Y56188364D01*
X74177216Y56242503D01*
X74295000Y56261158D01*
X74412784Y56242503D01*
G37*
G36*
X74412784Y54972503D02*
G01*
X74519039Y54918364D01*
X74604097Y54833305D01*
X74676321Y54611025D01*
X74657503Y54492216D01*
X74603364Y54385961D01*
X74519039Y54301636D01*
X74412784Y54247497D01*
X74295000Y54228842D01*
X74177216Y54247497D01*
X74070961Y54301636D01*
X73985903Y54386695D01*
X73913679Y54608975D01*
X73932497Y54727784D01*
X73986636Y54834039D01*
X74070961Y54918364D01*
X74177216Y54972503D01*
X74295000Y54991158D01*
X74412784Y54972503D01*
G37*
G36*
X74412784Y53702503D02*
G01*
X74519039Y53648364D01*
X74604097Y53563305D01*
X74676321Y53341025D01*
X74657503Y53222216D01*
X74603364Y53115961D01*
X74519039Y53031636D01*
X74412784Y52977497D01*
X74295000Y52958842D01*
X74177216Y52977497D01*
X74070961Y53031636D01*
X73985903Y53116695D01*
X73913679Y53338975D01*
X73932497Y53457784D01*
X73986636Y53564039D01*
X74070961Y53648364D01*
X74177216Y53702503D01*
X74295000Y53721158D01*
X74412784Y53702503D01*
G37*
G36*
X74412784Y52432503D02*
G01*
X74519039Y52378364D01*
X74604097Y52293305D01*
X74676321Y52071025D01*
X74657503Y51952216D01*
X74603364Y51845961D01*
X74519039Y51761636D01*
X74412784Y51707497D01*
X74295000Y51688842D01*
X74177216Y51707497D01*
X74070961Y51761636D01*
X73985903Y51846695D01*
X73913679Y52068975D01*
X73932497Y52187784D01*
X73986636Y52294039D01*
X74070961Y52378364D01*
X74177216Y52432503D01*
X74295000Y52451158D01*
X74412784Y52432503D01*
G37*
G36*
X74412784Y51162503D02*
G01*
X74519039Y51108364D01*
X74604097Y51023305D01*
X74676321Y50801025D01*
X74657503Y50682216D01*
X74603364Y50575961D01*
X74519039Y50491636D01*
X74412784Y50437497D01*
X74295000Y50418842D01*
X74177216Y50437497D01*
X74070961Y50491636D01*
X73985903Y50576695D01*
X73913679Y50798975D01*
X73932497Y50917784D01*
X73986636Y51024039D01*
X74070961Y51108364D01*
X74177216Y51162503D01*
X74295000Y51181158D01*
X74412784Y51162503D01*
G37*
G36*
X74412784Y49892503D02*
G01*
X74519039Y49838364D01*
X74604097Y49753305D01*
X74676321Y49531025D01*
X74657503Y49412216D01*
X74603364Y49305961D01*
X74519039Y49221636D01*
X74412784Y49167497D01*
X74295000Y49148842D01*
X74177216Y49167497D01*
X74070961Y49221636D01*
X73985903Y49306695D01*
X73913679Y49528975D01*
X73932497Y49647784D01*
X73986636Y49754039D01*
X74070961Y49838364D01*
X74177216Y49892503D01*
X74295000Y49911158D01*
X74412784Y49892503D01*
G37*
G36*
X75682784Y77832503D02*
G01*
X75789039Y77778364D01*
X75874097Y77693305D01*
X75946321Y77471025D01*
X75927503Y77352216D01*
X75873364Y77245961D01*
X75789039Y77161636D01*
X75682784Y77107497D01*
X75565000Y77088842D01*
X75447216Y77107497D01*
X75340961Y77161636D01*
X75255903Y77246695D01*
X75183679Y77468975D01*
X75202497Y77587784D01*
X75256636Y77694039D01*
X75340961Y77778364D01*
X75447216Y77832503D01*
X75565000Y77851158D01*
X75682784Y77832503D01*
G37*
G36*
X75682784Y76562503D02*
G01*
X75789039Y76508364D01*
X75874097Y76423305D01*
X75946321Y76201025D01*
X75927503Y76082216D01*
X75873364Y75975961D01*
X75789039Y75891636D01*
X75682784Y75837497D01*
X75565000Y75818842D01*
X75447216Y75837497D01*
X75340961Y75891636D01*
X75255903Y75976695D01*
X75183679Y76198975D01*
X75202497Y76317784D01*
X75256636Y76424039D01*
X75340961Y76508364D01*
X75447216Y76562503D01*
X75565000Y76581158D01*
X75682784Y76562503D01*
G37*
G36*
X75682784Y75292503D02*
G01*
X75789039Y75238364D01*
X75874097Y75153305D01*
X75946321Y74931025D01*
X75927503Y74812216D01*
X75873364Y74705961D01*
X75789039Y74621636D01*
X75682784Y74567497D01*
X75565000Y74548842D01*
X75447216Y74567497D01*
X75340961Y74621636D01*
X75255903Y74706695D01*
X75183679Y74928975D01*
X75202497Y75047784D01*
X75256636Y75154039D01*
X75340961Y75238364D01*
X75447216Y75292503D01*
X75565000Y75311158D01*
X75682784Y75292503D01*
G37*
G36*
X75682784Y52432503D02*
G01*
X75789039Y52378364D01*
X75874097Y52293305D01*
X75946321Y52071025D01*
X75927503Y51952216D01*
X75873364Y51845961D01*
X75789039Y51761636D01*
X75682784Y51707497D01*
X75565000Y51688842D01*
X75447216Y51707497D01*
X75340961Y51761636D01*
X75255903Y51846695D01*
X75183679Y52068975D01*
X75202497Y52187784D01*
X75256636Y52294039D01*
X75340961Y52378364D01*
X75447216Y52432503D01*
X75565000Y52451158D01*
X75682784Y52432503D01*
G37*
G36*
X75682784Y51162503D02*
G01*
X75789039Y51108364D01*
X75874097Y51023305D01*
X75946321Y50801025D01*
X75927503Y50682216D01*
X75873364Y50575961D01*
X75789039Y50491636D01*
X75682784Y50437497D01*
X75565000Y50418842D01*
X75447216Y50437497D01*
X75340961Y50491636D01*
X75255903Y50576695D01*
X75183679Y50798975D01*
X75202497Y50917784D01*
X75256636Y51024039D01*
X75340961Y51108364D01*
X75447216Y51162503D01*
X75565000Y51181158D01*
X75682784Y51162503D01*
G37*
G36*
X75682784Y49892503D02*
G01*
X75789039Y49838364D01*
X75874097Y49753305D01*
X75946321Y49531025D01*
X75927503Y49412216D01*
X75873364Y49305961D01*
X75789039Y49221636D01*
X75682784Y49167497D01*
X75565000Y49148842D01*
X75447216Y49167497D01*
X75340961Y49221636D01*
X75255903Y49306695D01*
X75183679Y49528975D01*
X75202497Y49647784D01*
X75256636Y49754039D01*
X75340961Y49838364D01*
X75447216Y49892503D01*
X75565000Y49911158D01*
X75682784Y49892503D01*
G37*
G36*
X76952784Y77832503D02*
G01*
X77059039Y77778364D01*
X77144097Y77693305D01*
X77216321Y77471025D01*
X77197503Y77352216D01*
X77143364Y77245961D01*
X77059039Y77161636D01*
X76952784Y77107497D01*
X76835000Y77088842D01*
X76717216Y77107497D01*
X76610961Y77161636D01*
X76525903Y77246695D01*
X76453679Y77468975D01*
X76472497Y77587784D01*
X76526636Y77694039D01*
X76610961Y77778364D01*
X76717216Y77832503D01*
X76835000Y77851158D01*
X76952784Y77832503D01*
G37*
G36*
X76952784Y76562503D02*
G01*
X77059039Y76508364D01*
X77144097Y76423305D01*
X77216321Y76201025D01*
X77197503Y76082216D01*
X77143364Y75975961D01*
X77059039Y75891636D01*
X76952784Y75837497D01*
X76835000Y75818842D01*
X76717216Y75837497D01*
X76610961Y75891636D01*
X76525903Y75976695D01*
X76453679Y76198975D01*
X76472497Y76317784D01*
X76526636Y76424039D01*
X76610961Y76508364D01*
X76717216Y76562503D01*
X76835000Y76581158D01*
X76952784Y76562503D01*
G37*
G36*
X76952784Y75292503D02*
G01*
X77059039Y75238364D01*
X77144097Y75153305D01*
X77216321Y74931025D01*
X77197503Y74812216D01*
X77143364Y74705961D01*
X77059039Y74621636D01*
X76952784Y74567497D01*
X76835000Y74548842D01*
X76717216Y74567497D01*
X76610961Y74621636D01*
X76525903Y74706695D01*
X76453679Y74928975D01*
X76472497Y75047784D01*
X76526636Y75154039D01*
X76610961Y75238364D01*
X76717216Y75292503D01*
X76835000Y75311158D01*
X76952784Y75292503D01*
G37*
G36*
X76952784Y52432503D02*
G01*
X77059039Y52378364D01*
X77144097Y52293305D01*
X77216321Y52071025D01*
X77197503Y51952216D01*
X77143364Y51845961D01*
X77059039Y51761636D01*
X76952784Y51707497D01*
X76835000Y51688842D01*
X76717216Y51707497D01*
X76610961Y51761636D01*
X76525903Y51846695D01*
X76453679Y52068975D01*
X76472497Y52187784D01*
X76526636Y52294039D01*
X76610961Y52378364D01*
X76717216Y52432503D01*
X76835000Y52451158D01*
X76952784Y52432503D01*
G37*
G36*
X76952784Y51162503D02*
G01*
X77059039Y51108364D01*
X77144097Y51023305D01*
X77216321Y50801025D01*
X77197503Y50682216D01*
X77143364Y50575961D01*
X77059039Y50491636D01*
X76952784Y50437497D01*
X76835000Y50418842D01*
X76717216Y50437497D01*
X76610961Y50491636D01*
X76525903Y50576695D01*
X76453679Y50798975D01*
X76472497Y50917784D01*
X76526636Y51024039D01*
X76610961Y51108364D01*
X76717216Y51162503D01*
X76835000Y51181158D01*
X76952784Y51162503D01*
G37*
G36*
X76952784Y49892503D02*
G01*
X77059039Y49838364D01*
X77144097Y49753305D01*
X77216321Y49531025D01*
X77197503Y49412216D01*
X77143364Y49305961D01*
X77059039Y49221636D01*
X76952784Y49167497D01*
X76835000Y49148842D01*
X76717216Y49167497D01*
X76610961Y49221636D01*
X76525903Y49306695D01*
X76453679Y49528975D01*
X76472497Y49647784D01*
X76526636Y49754039D01*
X76610961Y49838364D01*
X76717216Y49892503D01*
X76835000Y49911158D01*
X76952784Y49892503D01*
G37*
G36*
X78222784Y77832503D02*
G01*
X78329039Y77778364D01*
X78414097Y77693305D01*
X78486321Y77471025D01*
X78467503Y77352216D01*
X78413364Y77245961D01*
X78329039Y77161636D01*
X78222784Y77107497D01*
X78105000Y77088842D01*
X77987216Y77107497D01*
X77880961Y77161636D01*
X77795903Y77246695D01*
X77723679Y77468975D01*
X77742497Y77587784D01*
X77796636Y77694039D01*
X77880961Y77778364D01*
X77987216Y77832503D01*
X78105000Y77851158D01*
X78222784Y77832503D01*
G37*
G36*
X78222784Y76562503D02*
G01*
X78329039Y76508364D01*
X78414097Y76423305D01*
X78486321Y76201025D01*
X78467503Y76082216D01*
X78413364Y75975961D01*
X78329039Y75891636D01*
X78222784Y75837497D01*
X78105000Y75818842D01*
X77987216Y75837497D01*
X77880961Y75891636D01*
X77795903Y75976695D01*
X77723679Y76198975D01*
X77742497Y76317784D01*
X77796636Y76424039D01*
X77880961Y76508364D01*
X77987216Y76562503D01*
X78105000Y76581158D01*
X78222784Y76562503D01*
G37*
G36*
X78222784Y75292503D02*
G01*
X78329039Y75238364D01*
X78414097Y75153305D01*
X78486321Y74931025D01*
X78467503Y74812216D01*
X78413364Y74705961D01*
X78329039Y74621636D01*
X78222784Y74567497D01*
X78105000Y74548842D01*
X77987216Y74567497D01*
X77880961Y74621636D01*
X77795903Y74706695D01*
X77723679Y74928975D01*
X77742497Y75047784D01*
X77796636Y75154039D01*
X77880961Y75238364D01*
X77987216Y75292503D01*
X78105000Y75311158D01*
X78222784Y75292503D01*
G37*
G36*
X78222784Y52432503D02*
G01*
X78329039Y52378364D01*
X78414097Y52293305D01*
X78486321Y52071025D01*
X78467503Y51952216D01*
X78413364Y51845961D01*
X78329039Y51761636D01*
X78222784Y51707497D01*
X78105000Y51688842D01*
X77987216Y51707497D01*
X77880961Y51761636D01*
X77795903Y51846695D01*
X77723679Y52068975D01*
X77742497Y52187784D01*
X77796636Y52294039D01*
X77880961Y52378364D01*
X77987216Y52432503D01*
X78105000Y52451158D01*
X78222784Y52432503D01*
G37*
G36*
X78222784Y51162503D02*
G01*
X78329039Y51108364D01*
X78414097Y51023305D01*
X78486321Y50801025D01*
X78467503Y50682216D01*
X78413364Y50575961D01*
X78329039Y50491636D01*
X78222784Y50437497D01*
X78105000Y50418842D01*
X77987216Y50437497D01*
X77880961Y50491636D01*
X77795903Y50576695D01*
X77723679Y50798975D01*
X77742497Y50917784D01*
X77796636Y51024039D01*
X77880961Y51108364D01*
X77987216Y51162503D01*
X78105000Y51181158D01*
X78222784Y51162503D01*
G37*
G36*
X78222784Y49892503D02*
G01*
X78329039Y49838364D01*
X78414097Y49753305D01*
X78486321Y49531025D01*
X78467503Y49412216D01*
X78413364Y49305961D01*
X78329039Y49221636D01*
X78222784Y49167497D01*
X78105000Y49148842D01*
X77987216Y49167497D01*
X77880961Y49221636D01*
X77795903Y49306695D01*
X77723679Y49528975D01*
X77742497Y49647784D01*
X77796636Y49754039D01*
X77880961Y49838364D01*
X77987216Y49892503D01*
X78105000Y49911158D01*
X78222784Y49892503D01*
G37*
G36*
X79492784Y77832503D02*
G01*
X79599039Y77778364D01*
X79684097Y77693305D01*
X79756321Y77471025D01*
X79737503Y77352216D01*
X79683364Y77245961D01*
X79599039Y77161636D01*
X79492784Y77107497D01*
X79375000Y77088842D01*
X79257216Y77107497D01*
X79150961Y77161636D01*
X79065903Y77246695D01*
X78993679Y77468975D01*
X79012497Y77587784D01*
X79066636Y77694039D01*
X79150961Y77778364D01*
X79257216Y77832503D01*
X79375000Y77851158D01*
X79492784Y77832503D01*
G37*
G36*
X79492784Y76562503D02*
G01*
X79599039Y76508364D01*
X79684097Y76423305D01*
X79756321Y76201025D01*
X79737503Y76082216D01*
X79683364Y75975961D01*
X79599039Y75891636D01*
X79492784Y75837497D01*
X79375000Y75818842D01*
X79257216Y75837497D01*
X79150961Y75891636D01*
X79065903Y75976695D01*
X78993679Y76198975D01*
X79012497Y76317784D01*
X79066636Y76424039D01*
X79150961Y76508364D01*
X79257216Y76562503D01*
X79375000Y76581158D01*
X79492784Y76562503D01*
G37*
G36*
X79492784Y75292503D02*
G01*
X79599039Y75238364D01*
X79684097Y75153305D01*
X79756321Y74931025D01*
X79737503Y74812216D01*
X79683364Y74705961D01*
X79599039Y74621636D01*
X79492784Y74567497D01*
X79375000Y74548842D01*
X79257216Y74567497D01*
X79150961Y74621636D01*
X79065903Y74706695D01*
X78993679Y74928975D01*
X79012497Y75047784D01*
X79066636Y75154039D01*
X79150961Y75238364D01*
X79257216Y75292503D01*
X79375000Y75311158D01*
X79492784Y75292503D01*
G37*
G36*
X79492784Y52432503D02*
G01*
X79599039Y52378364D01*
X79684097Y52293305D01*
X79756321Y52071025D01*
X79737503Y51952216D01*
X79683364Y51845961D01*
X79599039Y51761636D01*
X79492784Y51707497D01*
X79375000Y51688842D01*
X79257216Y51707497D01*
X79150961Y51761636D01*
X79065903Y51846695D01*
X78993679Y52068975D01*
X79012497Y52187784D01*
X79066636Y52294039D01*
X79150961Y52378364D01*
X79257216Y52432503D01*
X79375000Y52451158D01*
X79492784Y52432503D01*
G37*
G36*
X79492784Y51162503D02*
G01*
X79599039Y51108364D01*
X79684097Y51023305D01*
X79756321Y50801025D01*
X79737503Y50682216D01*
X79683364Y50575961D01*
X79599039Y50491636D01*
X79492784Y50437497D01*
X79375000Y50418842D01*
X79257216Y50437497D01*
X79150961Y50491636D01*
X79065903Y50576695D01*
X78993679Y50798975D01*
X79012497Y50917784D01*
X79066636Y51024039D01*
X79150961Y51108364D01*
X79257216Y51162503D01*
X79375000Y51181158D01*
X79492784Y51162503D01*
G37*
G36*
X79492784Y49892503D02*
G01*
X79599039Y49838364D01*
X79684097Y49753305D01*
X79756321Y49531025D01*
X79737503Y49412216D01*
X79683364Y49305961D01*
X79599039Y49221636D01*
X79492784Y49167497D01*
X79375000Y49148842D01*
X79257216Y49167497D01*
X79150961Y49221636D01*
X79065903Y49306695D01*
X78993679Y49528975D01*
X79012497Y49647784D01*
X79066636Y49754039D01*
X79150961Y49838364D01*
X79257216Y49892503D01*
X79375000Y49911158D01*
X79492784Y49892503D01*
G37*
G36*
X80762784Y77832503D02*
G01*
X80869039Y77778364D01*
X80954097Y77693305D01*
X81026321Y77471025D01*
X81007503Y77352216D01*
X80953364Y77245961D01*
X80869039Y77161636D01*
X80762784Y77107497D01*
X80645000Y77088842D01*
X80527216Y77107497D01*
X80420961Y77161636D01*
X80335903Y77246695D01*
X80263679Y77468975D01*
X80282497Y77587784D01*
X80336636Y77694039D01*
X80420961Y77778364D01*
X80527216Y77832503D01*
X80645000Y77851158D01*
X80762784Y77832503D01*
G37*
G36*
X80762784Y76562503D02*
G01*
X80869039Y76508364D01*
X80954097Y76423305D01*
X81026321Y76201025D01*
X81007503Y76082216D01*
X80953364Y75975961D01*
X80869039Y75891636D01*
X80762784Y75837497D01*
X80645000Y75818842D01*
X80527216Y75837497D01*
X80420961Y75891636D01*
X80335903Y75976695D01*
X80263679Y76198975D01*
X80282497Y76317784D01*
X80336636Y76424039D01*
X80420961Y76508364D01*
X80527216Y76562503D01*
X80645000Y76581158D01*
X80762784Y76562503D01*
G37*
G36*
X80762784Y75292503D02*
G01*
X80869039Y75238364D01*
X80954097Y75153305D01*
X81026321Y74931025D01*
X81007503Y74812216D01*
X80953364Y74705961D01*
X80869039Y74621636D01*
X80762784Y74567497D01*
X80645000Y74548842D01*
X80527216Y74567497D01*
X80420961Y74621636D01*
X80335903Y74706695D01*
X80263679Y74928975D01*
X80282497Y75047784D01*
X80336636Y75154039D01*
X80420961Y75238364D01*
X80527216Y75292503D01*
X80645000Y75311158D01*
X80762784Y75292503D01*
G37*
G36*
X80762784Y52432503D02*
G01*
X80869039Y52378364D01*
X80954097Y52293305D01*
X81026321Y52071025D01*
X81007503Y51952216D01*
X80953364Y51845961D01*
X80869039Y51761636D01*
X80762784Y51707497D01*
X80645000Y51688842D01*
X80527216Y51707497D01*
X80420961Y51761636D01*
X80335903Y51846695D01*
X80263679Y52068975D01*
X80282497Y52187784D01*
X80336636Y52294039D01*
X80420961Y52378364D01*
X80527216Y52432503D01*
X80645000Y52451158D01*
X80762784Y52432503D01*
G37*
G36*
X80762784Y51162503D02*
G01*
X80869039Y51108364D01*
X80954097Y51023305D01*
X81026321Y50801025D01*
X81007503Y50682216D01*
X80953364Y50575961D01*
X80869039Y50491636D01*
X80762784Y50437497D01*
X80645000Y50418842D01*
X80527216Y50437497D01*
X80420961Y50491636D01*
X80335903Y50576695D01*
X80263679Y50798975D01*
X80282497Y50917784D01*
X80336636Y51024039D01*
X80420961Y51108364D01*
X80527216Y51162503D01*
X80645000Y51181158D01*
X80762784Y51162503D01*
G37*
G36*
X80762784Y49892503D02*
G01*
X80869039Y49838364D01*
X80954097Y49753305D01*
X81026321Y49531025D01*
X81007503Y49412216D01*
X80953364Y49305961D01*
X80869039Y49221636D01*
X80762784Y49167497D01*
X80645000Y49148842D01*
X80527216Y49167497D01*
X80420961Y49221636D01*
X80335903Y49306695D01*
X80263679Y49528975D01*
X80282497Y49647784D01*
X80336636Y49754039D01*
X80420961Y49838364D01*
X80527216Y49892503D01*
X80645000Y49911158D01*
X80762784Y49892503D01*
G37*
G36*
X82032784Y77832503D02*
G01*
X82139039Y77778364D01*
X82224097Y77693305D01*
X82296321Y77471025D01*
X82277503Y77352216D01*
X82223364Y77245961D01*
X82139039Y77161636D01*
X82032784Y77107497D01*
X81915000Y77088842D01*
X81797216Y77107497D01*
X81690961Y77161636D01*
X81605903Y77246695D01*
X81533679Y77468975D01*
X81552497Y77587784D01*
X81606636Y77694039D01*
X81690961Y77778364D01*
X81797216Y77832503D01*
X81915000Y77851158D01*
X82032784Y77832503D01*
G37*
G36*
X82032784Y76562503D02*
G01*
X82139039Y76508364D01*
X82224097Y76423305D01*
X82296321Y76201025D01*
X82277503Y76082216D01*
X82223364Y75975961D01*
X82139039Y75891636D01*
X82032784Y75837497D01*
X81915000Y75818842D01*
X81797216Y75837497D01*
X81690961Y75891636D01*
X81605903Y75976695D01*
X81533679Y76198975D01*
X81552497Y76317784D01*
X81606636Y76424039D01*
X81690961Y76508364D01*
X81797216Y76562503D01*
X81915000Y76581158D01*
X82032784Y76562503D01*
G37*
G36*
X82032784Y75292503D02*
G01*
X82139039Y75238364D01*
X82224097Y75153305D01*
X82296321Y74931025D01*
X82277503Y74812216D01*
X82223364Y74705961D01*
X82139039Y74621636D01*
X82032784Y74567497D01*
X81915000Y74548842D01*
X81797216Y74567497D01*
X81690961Y74621636D01*
X81605903Y74706695D01*
X81533679Y74928975D01*
X81552497Y75047784D01*
X81606636Y75154039D01*
X81690961Y75238364D01*
X81797216Y75292503D01*
X81915000Y75311158D01*
X82032784Y75292503D01*
G37*
G36*
X82032784Y52432503D02*
G01*
X82139039Y52378364D01*
X82224097Y52293305D01*
X82296321Y52071025D01*
X82277503Y51952216D01*
X82223364Y51845961D01*
X82139039Y51761636D01*
X82032784Y51707497D01*
X81915000Y51688842D01*
X81797216Y51707497D01*
X81690961Y51761636D01*
X81605903Y51846695D01*
X81533679Y52068975D01*
X81552497Y52187784D01*
X81606636Y52294039D01*
X81690961Y52378364D01*
X81797216Y52432503D01*
X81915000Y52451158D01*
X82032784Y52432503D01*
G37*
G36*
X82032784Y51162503D02*
G01*
X82139039Y51108364D01*
X82224097Y51023305D01*
X82296321Y50801025D01*
X82277503Y50682216D01*
X82223364Y50575961D01*
X82139039Y50491636D01*
X82032784Y50437497D01*
X81915000Y50418842D01*
X81797216Y50437497D01*
X81690961Y50491636D01*
X81605903Y50576695D01*
X81533679Y50798975D01*
X81552497Y50917784D01*
X81606636Y51024039D01*
X81690961Y51108364D01*
X81797216Y51162503D01*
X81915000Y51181158D01*
X82032784Y51162503D01*
G37*
G36*
X82032784Y49892503D02*
G01*
X82139039Y49838364D01*
X82224097Y49753305D01*
X82296321Y49531025D01*
X82277503Y49412216D01*
X82223364Y49305961D01*
X82139039Y49221636D01*
X82032784Y49167497D01*
X81915000Y49148842D01*
X81797216Y49167497D01*
X81690961Y49221636D01*
X81605903Y49306695D01*
X81533679Y49528975D01*
X81552497Y49647784D01*
X81606636Y49754039D01*
X81690961Y49838364D01*
X81797216Y49892503D01*
X81915000Y49911158D01*
X82032784Y49892503D01*
G37*
G36*
X83302784Y77832503D02*
G01*
X83409039Y77778364D01*
X83494097Y77693305D01*
X83566321Y77471025D01*
X83547503Y77352216D01*
X83493364Y77245961D01*
X83409039Y77161636D01*
X83302784Y77107497D01*
X83185000Y77088842D01*
X83067216Y77107497D01*
X82960961Y77161636D01*
X82875903Y77246695D01*
X82803679Y77468975D01*
X82822497Y77587784D01*
X82876636Y77694039D01*
X82960961Y77778364D01*
X83067216Y77832503D01*
X83185000Y77851158D01*
X83302784Y77832503D01*
G37*
G36*
X83302784Y76562503D02*
G01*
X83409039Y76508364D01*
X83494097Y76423305D01*
X83566321Y76201025D01*
X83547503Y76082216D01*
X83493364Y75975961D01*
X83409039Y75891636D01*
X83302784Y75837497D01*
X83185000Y75818842D01*
X83067216Y75837497D01*
X82960961Y75891636D01*
X82875903Y75976695D01*
X82803679Y76198975D01*
X82822497Y76317784D01*
X82876636Y76424039D01*
X82960961Y76508364D01*
X83067216Y76562503D01*
X83185000Y76581158D01*
X83302784Y76562503D01*
G37*
G36*
X83302784Y75292503D02*
G01*
X83409039Y75238364D01*
X83494097Y75153305D01*
X83566321Y74931025D01*
X83547503Y74812216D01*
X83493364Y74705961D01*
X83409039Y74621636D01*
X83302784Y74567497D01*
X83185000Y74548842D01*
X83067216Y74567497D01*
X82960961Y74621636D01*
X82875903Y74706695D01*
X82803679Y74928975D01*
X82822497Y75047784D01*
X82876636Y75154039D01*
X82960961Y75238364D01*
X83067216Y75292503D01*
X83185000Y75311158D01*
X83302784Y75292503D01*
G37*
G36*
X83302784Y52432503D02*
G01*
X83409039Y52378364D01*
X83494097Y52293305D01*
X83566321Y52071025D01*
X83547503Y51952216D01*
X83493364Y51845961D01*
X83409039Y51761636D01*
X83302784Y51707497D01*
X83185000Y51688842D01*
X83067216Y51707497D01*
X82960961Y51761636D01*
X82875903Y51846695D01*
X82803679Y52068975D01*
X82822497Y52187784D01*
X82876636Y52294039D01*
X82960961Y52378364D01*
X83067216Y52432503D01*
X83185000Y52451158D01*
X83302784Y52432503D01*
G37*
G36*
X83302784Y51162503D02*
G01*
X83409039Y51108364D01*
X83494097Y51023305D01*
X83566321Y50801025D01*
X83547503Y50682216D01*
X83493364Y50575961D01*
X83409039Y50491636D01*
X83302784Y50437497D01*
X83185000Y50418842D01*
X83067216Y50437497D01*
X82960961Y50491636D01*
X82875903Y50576695D01*
X82803679Y50798975D01*
X82822497Y50917784D01*
X82876636Y51024039D01*
X82960961Y51108364D01*
X83067216Y51162503D01*
X83185000Y51181158D01*
X83302784Y51162503D01*
G37*
G36*
X83302784Y49892503D02*
G01*
X83409039Y49838364D01*
X83494097Y49753305D01*
X83566321Y49531025D01*
X83547503Y49412216D01*
X83493364Y49305961D01*
X83409039Y49221636D01*
X83302784Y49167497D01*
X83185000Y49148842D01*
X83067216Y49167497D01*
X82960961Y49221636D01*
X82875903Y49306695D01*
X82803679Y49528975D01*
X82822497Y49647784D01*
X82876636Y49754039D01*
X82960961Y49838364D01*
X83067216Y49892503D01*
X83185000Y49911158D01*
X83302784Y49892503D01*
G37*
G36*
X84572784Y77832503D02*
G01*
X84679039Y77778364D01*
X84764097Y77693305D01*
X84836321Y77471025D01*
X84817503Y77352216D01*
X84763364Y77245961D01*
X84679039Y77161636D01*
X84572784Y77107497D01*
X84455000Y77088842D01*
X84337216Y77107497D01*
X84230961Y77161636D01*
X84145903Y77246695D01*
X84073679Y77468975D01*
X84092497Y77587784D01*
X84146636Y77694039D01*
X84230961Y77778364D01*
X84337216Y77832503D01*
X84455000Y77851158D01*
X84572784Y77832503D01*
G37*
G36*
X84572784Y76562503D02*
G01*
X84679039Y76508364D01*
X84764097Y76423305D01*
X84836321Y76201025D01*
X84817503Y76082216D01*
X84763364Y75975961D01*
X84679039Y75891636D01*
X84572784Y75837497D01*
X84455000Y75818842D01*
X84337216Y75837497D01*
X84230961Y75891636D01*
X84145903Y75976695D01*
X84073679Y76198975D01*
X84092497Y76317784D01*
X84146636Y76424039D01*
X84230961Y76508364D01*
X84337216Y76562503D01*
X84455000Y76581158D01*
X84572784Y76562503D01*
G37*
G36*
X84572784Y75292503D02*
G01*
X84679039Y75238364D01*
X84764097Y75153305D01*
X84836321Y74931025D01*
X84817503Y74812216D01*
X84763364Y74705961D01*
X84679039Y74621636D01*
X84572784Y74567497D01*
X84455000Y74548842D01*
X84337216Y74567497D01*
X84230961Y74621636D01*
X84145903Y74706695D01*
X84073679Y74928975D01*
X84092497Y75047784D01*
X84146636Y75154039D01*
X84230961Y75238364D01*
X84337216Y75292503D01*
X84455000Y75311158D01*
X84572784Y75292503D01*
G37*
G36*
X84572784Y52432503D02*
G01*
X84679039Y52378364D01*
X84764097Y52293305D01*
X84836321Y52071025D01*
X84817503Y51952216D01*
X84763364Y51845961D01*
X84679039Y51761636D01*
X84572784Y51707497D01*
X84455000Y51688842D01*
X84337216Y51707497D01*
X84230961Y51761636D01*
X84145903Y51846695D01*
X84073679Y52068975D01*
X84092497Y52187784D01*
X84146636Y52294039D01*
X84230961Y52378364D01*
X84337216Y52432503D01*
X84455000Y52451158D01*
X84572784Y52432503D01*
G37*
G36*
X84572784Y51162503D02*
G01*
X84679039Y51108364D01*
X84764097Y51023305D01*
X84836321Y50801025D01*
X84817503Y50682216D01*
X84763364Y50575961D01*
X84679039Y50491636D01*
X84572784Y50437497D01*
X84455000Y50418842D01*
X84337216Y50437497D01*
X84230961Y50491636D01*
X84145903Y50576695D01*
X84073679Y50798975D01*
X84092497Y50917784D01*
X84146636Y51024039D01*
X84230961Y51108364D01*
X84337216Y51162503D01*
X84455000Y51181158D01*
X84572784Y51162503D01*
G37*
G36*
X84572784Y49892503D02*
G01*
X84679039Y49838364D01*
X84764097Y49753305D01*
X84836321Y49531025D01*
X84817503Y49412216D01*
X84763364Y49305961D01*
X84679039Y49221636D01*
X84572784Y49167497D01*
X84455000Y49148842D01*
X84337216Y49167497D01*
X84230961Y49221636D01*
X84145903Y49306695D01*
X84073679Y49528975D01*
X84092497Y49647784D01*
X84146636Y49754039D01*
X84230961Y49838364D01*
X84337216Y49892503D01*
X84455000Y49911158D01*
X84572784Y49892503D01*
G37*
G36*
X85842784Y77832503D02*
G01*
X85949039Y77778364D01*
X86034097Y77693305D01*
X86106321Y77471025D01*
X86087503Y77352216D01*
X86033364Y77245961D01*
X85949039Y77161636D01*
X85842784Y77107497D01*
X85725000Y77088842D01*
X85607216Y77107497D01*
X85500961Y77161636D01*
X85415903Y77246695D01*
X85343679Y77468975D01*
X85362497Y77587784D01*
X85416636Y77694039D01*
X85500961Y77778364D01*
X85607216Y77832503D01*
X85725000Y77851158D01*
X85842784Y77832503D01*
G37*
G36*
X85842784Y76562503D02*
G01*
X85949039Y76508364D01*
X86034097Y76423305D01*
X86106321Y76201025D01*
X86087503Y76082216D01*
X86033364Y75975961D01*
X85949039Y75891636D01*
X85842784Y75837497D01*
X85725000Y75818842D01*
X85607216Y75837497D01*
X85500961Y75891636D01*
X85415903Y75976695D01*
X85343679Y76198975D01*
X85362497Y76317784D01*
X85416636Y76424039D01*
X85500961Y76508364D01*
X85607216Y76562503D01*
X85725000Y76581158D01*
X85842784Y76562503D01*
G37*
G36*
X85842784Y75292503D02*
G01*
X85949039Y75238364D01*
X86034097Y75153305D01*
X86106321Y74931025D01*
X86087503Y74812216D01*
X86033364Y74705961D01*
X85949039Y74621636D01*
X85842784Y74567497D01*
X85725000Y74548842D01*
X85607216Y74567497D01*
X85500961Y74621636D01*
X85415903Y74706695D01*
X85343679Y74928975D01*
X85362497Y75047784D01*
X85416636Y75154039D01*
X85500961Y75238364D01*
X85607216Y75292503D01*
X85725000Y75311158D01*
X85842784Y75292503D01*
G37*
G36*
X85842784Y52432503D02*
G01*
X85949039Y52378364D01*
X86034097Y52293305D01*
X86106321Y52071025D01*
X86087503Y51952216D01*
X86033364Y51845961D01*
X85949039Y51761636D01*
X85842784Y51707497D01*
X85725000Y51688842D01*
X85607216Y51707497D01*
X85500961Y51761636D01*
X85415903Y51846695D01*
X85343679Y52068975D01*
X85362497Y52187784D01*
X85416636Y52294039D01*
X85500961Y52378364D01*
X85607216Y52432503D01*
X85725000Y52451158D01*
X85842784Y52432503D01*
G37*
G36*
X85842784Y51162503D02*
G01*
X85949039Y51108364D01*
X86034097Y51023305D01*
X86106321Y50801025D01*
X86087503Y50682216D01*
X86033364Y50575961D01*
X85949039Y50491636D01*
X85842784Y50437497D01*
X85725000Y50418842D01*
X85607216Y50437497D01*
X85500961Y50491636D01*
X85415903Y50576695D01*
X85343679Y50798975D01*
X85362497Y50917784D01*
X85416636Y51024039D01*
X85500961Y51108364D01*
X85607216Y51162503D01*
X85725000Y51181158D01*
X85842784Y51162503D01*
G37*
G36*
X85842784Y49892503D02*
G01*
X85949039Y49838364D01*
X86034097Y49753305D01*
X86106321Y49531025D01*
X86087503Y49412216D01*
X86033364Y49305961D01*
X85949039Y49221636D01*
X85842784Y49167497D01*
X85725000Y49148842D01*
X85607216Y49167497D01*
X85500961Y49221636D01*
X85415903Y49306695D01*
X85343679Y49528975D01*
X85362497Y49647784D01*
X85416636Y49754039D01*
X85500961Y49838364D01*
X85607216Y49892503D01*
X85725000Y49911158D01*
X85842784Y49892503D01*
G37*
G36*
X87112784Y77832503D02*
G01*
X87219039Y77778364D01*
X87304097Y77693305D01*
X87376321Y77471025D01*
X87357503Y77352216D01*
X87303364Y77245961D01*
X87219039Y77161636D01*
X87112784Y77107497D01*
X86995000Y77088842D01*
X86877216Y77107497D01*
X86770961Y77161636D01*
X86685903Y77246695D01*
X86613679Y77468975D01*
X86632497Y77587784D01*
X86686636Y77694039D01*
X86770961Y77778364D01*
X86877216Y77832503D01*
X86995000Y77851158D01*
X87112784Y77832503D01*
G37*
G36*
X87112784Y76562503D02*
G01*
X87219039Y76508364D01*
X87304097Y76423305D01*
X87376321Y76201025D01*
X87357503Y76082216D01*
X87303364Y75975961D01*
X87219039Y75891636D01*
X87112784Y75837497D01*
X86995000Y75818842D01*
X86877216Y75837497D01*
X86770961Y75891636D01*
X86685903Y75976695D01*
X86613679Y76198975D01*
X86632497Y76317784D01*
X86686636Y76424039D01*
X86770961Y76508364D01*
X86877216Y76562503D01*
X86995000Y76581158D01*
X87112784Y76562503D01*
G37*
G36*
X87112784Y75292503D02*
G01*
X87219039Y75238364D01*
X87304097Y75153305D01*
X87376321Y74931025D01*
X87357503Y74812216D01*
X87303364Y74705961D01*
X87219039Y74621636D01*
X87112784Y74567497D01*
X86995000Y74548842D01*
X86877216Y74567497D01*
X86770961Y74621636D01*
X86685903Y74706695D01*
X86613679Y74928975D01*
X86632497Y75047784D01*
X86686636Y75154039D01*
X86770961Y75238364D01*
X86877216Y75292503D01*
X86995000Y75311158D01*
X87112784Y75292503D01*
G37*
G36*
X87112784Y52432503D02*
G01*
X87219039Y52378364D01*
X87304097Y52293305D01*
X87376321Y52071025D01*
X87357503Y51952216D01*
X87303364Y51845961D01*
X87219039Y51761636D01*
X87112784Y51707497D01*
X86995000Y51688842D01*
X86877216Y51707497D01*
X86770961Y51761636D01*
X86685903Y51846695D01*
X86613679Y52068975D01*
X86632497Y52187784D01*
X86686636Y52294039D01*
X86770961Y52378364D01*
X86877216Y52432503D01*
X86995000Y52451158D01*
X87112784Y52432503D01*
G37*
G36*
X87112784Y51162503D02*
G01*
X87219039Y51108364D01*
X87304097Y51023305D01*
X87376321Y50801025D01*
X87357503Y50682216D01*
X87303364Y50575961D01*
X87219039Y50491636D01*
X87112784Y50437497D01*
X86995000Y50418842D01*
X86877216Y50437497D01*
X86770961Y50491636D01*
X86685903Y50576695D01*
X86613679Y50798975D01*
X86632497Y50917784D01*
X86686636Y51024039D01*
X86770961Y51108364D01*
X86877216Y51162503D01*
X86995000Y51181158D01*
X87112784Y51162503D01*
G37*
G36*
X87112784Y49892503D02*
G01*
X87219039Y49838364D01*
X87304097Y49753305D01*
X87376321Y49531025D01*
X87357503Y49412216D01*
X87303364Y49305961D01*
X87219039Y49221636D01*
X87112784Y49167497D01*
X86995000Y49148842D01*
X86877216Y49167497D01*
X86770961Y49221636D01*
X86685903Y49306695D01*
X86613679Y49528975D01*
X86632497Y49647784D01*
X86686636Y49754039D01*
X86770961Y49838364D01*
X86877216Y49892503D01*
X86995000Y49911158D01*
X87112784Y49892503D01*
G37*
G36*
X88382784Y77832503D02*
G01*
X88489039Y77778364D01*
X88574097Y77693305D01*
X88646321Y77471025D01*
X88627503Y77352216D01*
X88573364Y77245961D01*
X88489039Y77161636D01*
X88382784Y77107497D01*
X88265000Y77088842D01*
X88147216Y77107497D01*
X88040961Y77161636D01*
X87955903Y77246695D01*
X87883679Y77468975D01*
X87902497Y77587784D01*
X87956636Y77694039D01*
X88040961Y77778364D01*
X88147216Y77832503D01*
X88265000Y77851158D01*
X88382784Y77832503D01*
G37*
G36*
X88382784Y76562503D02*
G01*
X88489039Y76508364D01*
X88574097Y76423305D01*
X88646321Y76201025D01*
X88627503Y76082216D01*
X88573364Y75975961D01*
X88489039Y75891636D01*
X88382784Y75837497D01*
X88265000Y75818842D01*
X88147216Y75837497D01*
X88040961Y75891636D01*
X87955903Y75976695D01*
X87883679Y76198975D01*
X87902497Y76317784D01*
X87956636Y76424039D01*
X88040961Y76508364D01*
X88147216Y76562503D01*
X88265000Y76581158D01*
X88382784Y76562503D01*
G37*
G36*
X88382784Y75292503D02*
G01*
X88489039Y75238364D01*
X88574097Y75153305D01*
X88646321Y74931025D01*
X88627503Y74812216D01*
X88573364Y74705961D01*
X88489039Y74621636D01*
X88382784Y74567497D01*
X88265000Y74548842D01*
X88147216Y74567497D01*
X88040961Y74621636D01*
X87955903Y74706695D01*
X87883679Y74928975D01*
X87902497Y75047784D01*
X87956636Y75154039D01*
X88040961Y75238364D01*
X88147216Y75292503D01*
X88265000Y75311158D01*
X88382784Y75292503D01*
G37*
G36*
X88382784Y52432503D02*
G01*
X88489039Y52378364D01*
X88574097Y52293305D01*
X88646321Y52071025D01*
X88627503Y51952216D01*
X88573364Y51845961D01*
X88489039Y51761636D01*
X88382784Y51707497D01*
X88265000Y51688842D01*
X88147216Y51707497D01*
X88040961Y51761636D01*
X87955903Y51846695D01*
X87883679Y52068975D01*
X87902497Y52187784D01*
X87956636Y52294039D01*
X88040961Y52378364D01*
X88147216Y52432503D01*
X88265000Y52451158D01*
X88382784Y52432503D01*
G37*
G36*
X88382784Y51162503D02*
G01*
X88489039Y51108364D01*
X88574097Y51023305D01*
X88646321Y50801025D01*
X88627503Y50682216D01*
X88573364Y50575961D01*
X88489039Y50491636D01*
X88382784Y50437497D01*
X88265000Y50418842D01*
X88147216Y50437497D01*
X88040961Y50491636D01*
X87955903Y50576695D01*
X87883679Y50798975D01*
X87902497Y50917784D01*
X87956636Y51024039D01*
X88040961Y51108364D01*
X88147216Y51162503D01*
X88265000Y51181158D01*
X88382784Y51162503D01*
G37*
G36*
X88382784Y49892503D02*
G01*
X88489039Y49838364D01*
X88574097Y49753305D01*
X88646321Y49531025D01*
X88627503Y49412216D01*
X88573364Y49305961D01*
X88489039Y49221636D01*
X88382784Y49167497D01*
X88265000Y49148842D01*
X88147216Y49167497D01*
X88040961Y49221636D01*
X87955903Y49306695D01*
X87883679Y49528975D01*
X87902497Y49647784D01*
X87956636Y49754039D01*
X88040961Y49838364D01*
X88147216Y49892503D01*
X88265000Y49911158D01*
X88382784Y49892503D01*
G37*
G36*
X89652784Y77832503D02*
G01*
X89759039Y77778364D01*
X89844097Y77693305D01*
X89916321Y77471025D01*
X89897503Y77352216D01*
X89843364Y77245961D01*
X89759039Y77161636D01*
X89652784Y77107497D01*
X89535000Y77088842D01*
X89417216Y77107497D01*
X89310961Y77161636D01*
X89225903Y77246695D01*
X89153679Y77468975D01*
X89172497Y77587784D01*
X89226636Y77694039D01*
X89310961Y77778364D01*
X89417216Y77832503D01*
X89535000Y77851158D01*
X89652784Y77832503D01*
G37*
G36*
X89652784Y76562503D02*
G01*
X89759039Y76508364D01*
X89844097Y76423305D01*
X89916321Y76201025D01*
X89897503Y76082216D01*
X89843364Y75975961D01*
X89759039Y75891636D01*
X89652784Y75837497D01*
X89535000Y75818842D01*
X89417216Y75837497D01*
X89310961Y75891636D01*
X89225903Y75976695D01*
X89153679Y76198975D01*
X89172497Y76317784D01*
X89226636Y76424039D01*
X89310961Y76508364D01*
X89417216Y76562503D01*
X89535000Y76581158D01*
X89652784Y76562503D01*
G37*
G36*
X89652784Y75292503D02*
G01*
X89759039Y75238364D01*
X89844097Y75153305D01*
X89916321Y74931025D01*
X89897503Y74812216D01*
X89843364Y74705961D01*
X89759039Y74621636D01*
X89652784Y74567497D01*
X89535000Y74548842D01*
X89417216Y74567497D01*
X89310961Y74621636D01*
X89225903Y74706695D01*
X89153679Y74928975D01*
X89172497Y75047784D01*
X89226636Y75154039D01*
X89310961Y75238364D01*
X89417216Y75292503D01*
X89535000Y75311158D01*
X89652784Y75292503D01*
G37*
G36*
X89652784Y52432503D02*
G01*
X89759039Y52378364D01*
X89844097Y52293305D01*
X89916321Y52071025D01*
X89897503Y51952216D01*
X89843364Y51845961D01*
X89759039Y51761636D01*
X89652784Y51707497D01*
X89535000Y51688842D01*
X89417216Y51707497D01*
X89310961Y51761636D01*
X89225903Y51846695D01*
X89153679Y52068975D01*
X89172497Y52187784D01*
X89226636Y52294039D01*
X89310961Y52378364D01*
X89417216Y52432503D01*
X89535000Y52451158D01*
X89652784Y52432503D01*
G37*
G36*
X89652784Y51162503D02*
G01*
X89759039Y51108364D01*
X89844097Y51023305D01*
X89916321Y50801025D01*
X89897503Y50682216D01*
X89843364Y50575961D01*
X89759039Y50491636D01*
X89652784Y50437497D01*
X89535000Y50418842D01*
X89417216Y50437497D01*
X89310961Y50491636D01*
X89225903Y50576695D01*
X89153679Y50798975D01*
X89172497Y50917784D01*
X89226636Y51024039D01*
X89310961Y51108364D01*
X89417216Y51162503D01*
X89535000Y51181158D01*
X89652784Y51162503D01*
G37*
G36*
X89652784Y49892503D02*
G01*
X89759039Y49838364D01*
X89844097Y49753305D01*
X89916321Y49531025D01*
X89897503Y49412216D01*
X89843364Y49305961D01*
X89759039Y49221636D01*
X89652784Y49167497D01*
X89535000Y49148842D01*
X89417216Y49167497D01*
X89310961Y49221636D01*
X89225903Y49306695D01*
X89153679Y49528975D01*
X89172497Y49647784D01*
X89226636Y49754039D01*
X89310961Y49838364D01*
X89417216Y49892503D01*
X89535000Y49911158D01*
X89652784Y49892503D01*
G37*
G36*
X90922784Y77832503D02*
G01*
X91029039Y77778364D01*
X91114097Y77693305D01*
X91186321Y77471025D01*
X91167503Y77352216D01*
X91113364Y77245961D01*
X91029039Y77161636D01*
X90922784Y77107497D01*
X90805000Y77088842D01*
X90687216Y77107497D01*
X90580961Y77161636D01*
X90495903Y77246695D01*
X90423679Y77468975D01*
X90442497Y77587784D01*
X90496636Y77694039D01*
X90580961Y77778364D01*
X90687216Y77832503D01*
X90805000Y77851158D01*
X90922784Y77832503D01*
G37*
G36*
X90922784Y76562503D02*
G01*
X91029039Y76508364D01*
X91114097Y76423305D01*
X91186321Y76201025D01*
X91167503Y76082216D01*
X91113364Y75975961D01*
X91029039Y75891636D01*
X90922784Y75837497D01*
X90805000Y75818842D01*
X90687216Y75837497D01*
X90580961Y75891636D01*
X90495903Y75976695D01*
X90423679Y76198975D01*
X90442497Y76317784D01*
X90496636Y76424039D01*
X90580961Y76508364D01*
X90687216Y76562503D01*
X90805000Y76581158D01*
X90922784Y76562503D01*
G37*
G36*
X90922784Y75292503D02*
G01*
X91029039Y75238364D01*
X91114097Y75153305D01*
X91186321Y74931025D01*
X91167503Y74812216D01*
X91113364Y74705961D01*
X91029039Y74621636D01*
X90922784Y74567497D01*
X90805000Y74548842D01*
X90687216Y74567497D01*
X90580961Y74621636D01*
X90495903Y74706695D01*
X90423679Y74928975D01*
X90442497Y75047784D01*
X90496636Y75154039D01*
X90580961Y75238364D01*
X90687216Y75292503D01*
X90805000Y75311158D01*
X90922784Y75292503D01*
G37*
G36*
X90922784Y52432503D02*
G01*
X91029039Y52378364D01*
X91114097Y52293305D01*
X91186321Y52071025D01*
X91167503Y51952216D01*
X91113364Y51845961D01*
X91029039Y51761636D01*
X90922784Y51707497D01*
X90805000Y51688842D01*
X90687216Y51707497D01*
X90580961Y51761636D01*
X90495903Y51846695D01*
X90423679Y52068975D01*
X90442497Y52187784D01*
X90496636Y52294039D01*
X90580961Y52378364D01*
X90687216Y52432503D01*
X90805000Y52451158D01*
X90922784Y52432503D01*
G37*
G36*
X90922784Y51162503D02*
G01*
X91029039Y51108364D01*
X91114097Y51023305D01*
X91186321Y50801025D01*
X91167503Y50682216D01*
X91113364Y50575961D01*
X91029039Y50491636D01*
X90922784Y50437497D01*
X90805000Y50418842D01*
X90687216Y50437497D01*
X90580961Y50491636D01*
X90495903Y50576695D01*
X90423679Y50798975D01*
X90442497Y50917784D01*
X90496636Y51024039D01*
X90580961Y51108364D01*
X90687216Y51162503D01*
X90805000Y51181158D01*
X90922784Y51162503D01*
G37*
G36*
X90922784Y49892503D02*
G01*
X91029039Y49838364D01*
X91114097Y49753305D01*
X91186321Y49531025D01*
X91167503Y49412216D01*
X91113364Y49305961D01*
X91029039Y49221636D01*
X90922784Y49167497D01*
X90805000Y49148842D01*
X90687216Y49167497D01*
X90580961Y49221636D01*
X90495903Y49306695D01*
X90423679Y49528975D01*
X90442497Y49647784D01*
X90496636Y49754039D01*
X90580961Y49838364D01*
X90687216Y49892503D01*
X90805000Y49911158D01*
X90922784Y49892503D01*
G37*
G36*
X92192784Y77832503D02*
G01*
X92299039Y77778364D01*
X92384097Y77693305D01*
X92456321Y77471025D01*
X92437503Y77352216D01*
X92383364Y77245961D01*
X92299039Y77161636D01*
X92192784Y77107497D01*
X92075000Y77088842D01*
X91957216Y77107497D01*
X91850961Y77161636D01*
X91765903Y77246695D01*
X91693679Y77468975D01*
X91712497Y77587784D01*
X91766636Y77694039D01*
X91850961Y77778364D01*
X91957216Y77832503D01*
X92075000Y77851158D01*
X92192784Y77832503D01*
G37*
G36*
X92192784Y76562503D02*
G01*
X92299039Y76508364D01*
X92384097Y76423305D01*
X92456321Y76201025D01*
X92437503Y76082216D01*
X92383364Y75975961D01*
X92299039Y75891636D01*
X92192784Y75837497D01*
X92075000Y75818842D01*
X91957216Y75837497D01*
X91850961Y75891636D01*
X91765903Y75976695D01*
X91693679Y76198975D01*
X91712497Y76317784D01*
X91766636Y76424039D01*
X91850961Y76508364D01*
X91957216Y76562503D01*
X92075000Y76581158D01*
X92192784Y76562503D01*
G37*
G36*
X92192784Y75292503D02*
G01*
X92299039Y75238364D01*
X92384097Y75153305D01*
X92456321Y74931025D01*
X92437503Y74812216D01*
X92383364Y74705961D01*
X92299039Y74621636D01*
X92192784Y74567497D01*
X92075000Y74548842D01*
X91957216Y74567497D01*
X91850961Y74621636D01*
X91765903Y74706695D01*
X91693679Y74928975D01*
X91712497Y75047784D01*
X91766636Y75154039D01*
X91850961Y75238364D01*
X91957216Y75292503D01*
X92075000Y75311158D01*
X92192784Y75292503D01*
G37*
G36*
X92192784Y52432503D02*
G01*
X92299039Y52378364D01*
X92384097Y52293305D01*
X92456321Y52071025D01*
X92437503Y51952216D01*
X92383364Y51845961D01*
X92299039Y51761636D01*
X92192784Y51707497D01*
X92075000Y51688842D01*
X91957216Y51707497D01*
X91850961Y51761636D01*
X91765903Y51846695D01*
X91693679Y52068975D01*
X91712497Y52187784D01*
X91766636Y52294039D01*
X91850961Y52378364D01*
X91957216Y52432503D01*
X92075000Y52451158D01*
X92192784Y52432503D01*
G37*
G36*
X92192784Y51162503D02*
G01*
X92299039Y51108364D01*
X92384097Y51023305D01*
X92456321Y50801025D01*
X92437503Y50682216D01*
X92383364Y50575961D01*
X92299039Y50491636D01*
X92192784Y50437497D01*
X92075000Y50418842D01*
X91957216Y50437497D01*
X91850961Y50491636D01*
X91765903Y50576695D01*
X91693679Y50798975D01*
X91712497Y50917784D01*
X91766636Y51024039D01*
X91850961Y51108364D01*
X91957216Y51162503D01*
X92075000Y51181158D01*
X92192784Y51162503D01*
G37*
G36*
X92192784Y49892503D02*
G01*
X92299039Y49838364D01*
X92384097Y49753305D01*
X92456321Y49531025D01*
X92437503Y49412216D01*
X92383364Y49305961D01*
X92299039Y49221636D01*
X92192784Y49167497D01*
X92075000Y49148842D01*
X91957216Y49167497D01*
X91850961Y49221636D01*
X91765903Y49306695D01*
X91693679Y49528975D01*
X91712497Y49647784D01*
X91766636Y49754039D01*
X91850961Y49838364D01*
X91957216Y49892503D01*
X92075000Y49911158D01*
X92192784Y49892503D01*
G37*
G36*
X93462784Y77832503D02*
G01*
X93569039Y77778364D01*
X93654097Y77693305D01*
X93726321Y77471025D01*
X93707503Y77352216D01*
X93653364Y77245961D01*
X93569039Y77161636D01*
X93462784Y77107497D01*
X93345000Y77088842D01*
X93227216Y77107497D01*
X93120961Y77161636D01*
X93035903Y77246695D01*
X92963679Y77468975D01*
X92982497Y77587784D01*
X93036636Y77694039D01*
X93120961Y77778364D01*
X93227216Y77832503D01*
X93345000Y77851158D01*
X93462784Y77832503D01*
G37*
G36*
X93462784Y76562503D02*
G01*
X93569039Y76508364D01*
X93654097Y76423305D01*
X93726321Y76201025D01*
X93707503Y76082216D01*
X93653364Y75975961D01*
X93569039Y75891636D01*
X93462784Y75837497D01*
X93345000Y75818842D01*
X93227216Y75837497D01*
X93120961Y75891636D01*
X93035903Y75976695D01*
X92963679Y76198975D01*
X92982497Y76317784D01*
X93036636Y76424039D01*
X93120961Y76508364D01*
X93227216Y76562503D01*
X93345000Y76581158D01*
X93462784Y76562503D01*
G37*
G36*
X93462784Y75292503D02*
G01*
X93569039Y75238364D01*
X93654097Y75153305D01*
X93726321Y74931025D01*
X93707503Y74812216D01*
X93653364Y74705961D01*
X93569039Y74621636D01*
X93462784Y74567497D01*
X93345000Y74548842D01*
X93227216Y74567497D01*
X93120961Y74621636D01*
X93035903Y74706695D01*
X92963679Y74928975D01*
X92982497Y75047784D01*
X93036636Y75154039D01*
X93120961Y75238364D01*
X93227216Y75292503D01*
X93345000Y75311158D01*
X93462784Y75292503D01*
G37*
G36*
X93462784Y52432503D02*
G01*
X93569039Y52378364D01*
X93654097Y52293305D01*
X93726321Y52071025D01*
X93707503Y51952216D01*
X93653364Y51845961D01*
X93569039Y51761636D01*
X93462784Y51707497D01*
X93345000Y51688842D01*
X93227216Y51707497D01*
X93120961Y51761636D01*
X93035903Y51846695D01*
X92963679Y52068975D01*
X92982497Y52187784D01*
X93036636Y52294039D01*
X93120961Y52378364D01*
X93227216Y52432503D01*
X93345000Y52451158D01*
X93462784Y52432503D01*
G37*
G36*
X93462784Y51162503D02*
G01*
X93569039Y51108364D01*
X93654097Y51023305D01*
X93726321Y50801025D01*
X93707503Y50682216D01*
X93653364Y50575961D01*
X93569039Y50491636D01*
X93462784Y50437497D01*
X93345000Y50418842D01*
X93227216Y50437497D01*
X93120961Y50491636D01*
X93035903Y50576695D01*
X92963679Y50798975D01*
X92982497Y50917784D01*
X93036636Y51024039D01*
X93120961Y51108364D01*
X93227216Y51162503D01*
X93345000Y51181158D01*
X93462784Y51162503D01*
G37*
G36*
X93462784Y49892503D02*
G01*
X93569039Y49838364D01*
X93654097Y49753305D01*
X93726321Y49531025D01*
X93707503Y49412216D01*
X93653364Y49305961D01*
X93569039Y49221636D01*
X93462784Y49167497D01*
X93345000Y49148842D01*
X93227216Y49167497D01*
X93120961Y49221636D01*
X93035903Y49306695D01*
X92963679Y49528975D01*
X92982497Y49647784D01*
X93036636Y49754039D01*
X93120961Y49838364D01*
X93227216Y49892503D01*
X93345000Y49911158D01*
X93462784Y49892503D01*
G37*
G36*
X94732784Y77832503D02*
G01*
X94839039Y77778364D01*
X94924097Y77693305D01*
X94996321Y77471025D01*
X94977503Y77352216D01*
X94923364Y77245961D01*
X94839039Y77161636D01*
X94732784Y77107497D01*
X94615000Y77088842D01*
X94497216Y77107497D01*
X94390961Y77161636D01*
X94305903Y77246695D01*
X94233679Y77468975D01*
X94252497Y77587784D01*
X94306636Y77694039D01*
X94390961Y77778364D01*
X94497216Y77832503D01*
X94615000Y77851158D01*
X94732784Y77832503D01*
G37*
G36*
X94732784Y76562503D02*
G01*
X94839039Y76508364D01*
X94924097Y76423305D01*
X94996321Y76201025D01*
X94977503Y76082216D01*
X94923364Y75975961D01*
X94839039Y75891636D01*
X94732784Y75837497D01*
X94615000Y75818842D01*
X94497216Y75837497D01*
X94390961Y75891636D01*
X94305903Y75976695D01*
X94233679Y76198975D01*
X94252497Y76317784D01*
X94306636Y76424039D01*
X94390961Y76508364D01*
X94497216Y76562503D01*
X94615000Y76581158D01*
X94732784Y76562503D01*
G37*
G36*
X94732784Y75292503D02*
G01*
X94839039Y75238364D01*
X94924097Y75153305D01*
X94996321Y74931025D01*
X94977503Y74812216D01*
X94923364Y74705961D01*
X94839039Y74621636D01*
X94732784Y74567497D01*
X94615000Y74548842D01*
X94497216Y74567497D01*
X94390961Y74621636D01*
X94305903Y74706695D01*
X94233679Y74928975D01*
X94252497Y75047784D01*
X94306636Y75154039D01*
X94390961Y75238364D01*
X94497216Y75292503D01*
X94615000Y75311158D01*
X94732784Y75292503D01*
G37*
G36*
X94732784Y52432503D02*
G01*
X94839039Y52378364D01*
X94924097Y52293305D01*
X94996321Y52071025D01*
X94977503Y51952216D01*
X94923364Y51845961D01*
X94839039Y51761636D01*
X94732784Y51707497D01*
X94615000Y51688842D01*
X94497216Y51707497D01*
X94390961Y51761636D01*
X94305903Y51846695D01*
X94233679Y52068975D01*
X94252497Y52187784D01*
X94306636Y52294039D01*
X94390961Y52378364D01*
X94497216Y52432503D01*
X94615000Y52451158D01*
X94732784Y52432503D01*
G37*
G36*
X94732784Y51162503D02*
G01*
X94839039Y51108364D01*
X94924097Y51023305D01*
X94996321Y50801025D01*
X94977503Y50682216D01*
X94923364Y50575961D01*
X94839039Y50491636D01*
X94732784Y50437497D01*
X94615000Y50418842D01*
X94497216Y50437497D01*
X94390961Y50491636D01*
X94305903Y50576695D01*
X94233679Y50798975D01*
X94252497Y50917784D01*
X94306636Y51024039D01*
X94390961Y51108364D01*
X94497216Y51162503D01*
X94615000Y51181158D01*
X94732784Y51162503D01*
G37*
G36*
X94732784Y49892503D02*
G01*
X94839039Y49838364D01*
X94924097Y49753305D01*
X94996321Y49531025D01*
X94977503Y49412216D01*
X94923364Y49305961D01*
X94839039Y49221636D01*
X94732784Y49167497D01*
X94615000Y49148842D01*
X94497216Y49167497D01*
X94390961Y49221636D01*
X94305903Y49306695D01*
X94233679Y49528975D01*
X94252497Y49647784D01*
X94306636Y49754039D01*
X94390961Y49838364D01*
X94497216Y49892503D01*
X94615000Y49911158D01*
X94732784Y49892503D01*
G37*
G36*
X96002784Y77832503D02*
G01*
X96109039Y77778364D01*
X96194097Y77693305D01*
X96266321Y77471025D01*
X96247503Y77352216D01*
X96193364Y77245961D01*
X96109039Y77161636D01*
X96002784Y77107497D01*
X95885000Y77088842D01*
X95767216Y77107497D01*
X95660961Y77161636D01*
X95575903Y77246695D01*
X95503679Y77468975D01*
X95522497Y77587784D01*
X95576636Y77694039D01*
X95660961Y77778364D01*
X95767216Y77832503D01*
X95885000Y77851158D01*
X96002784Y77832503D01*
G37*
G36*
X96002784Y76562503D02*
G01*
X96109039Y76508364D01*
X96194097Y76423305D01*
X96266321Y76201025D01*
X96247503Y76082216D01*
X96193364Y75975961D01*
X96109039Y75891636D01*
X96002784Y75837497D01*
X95885000Y75818842D01*
X95767216Y75837497D01*
X95660961Y75891636D01*
X95575903Y75976695D01*
X95503679Y76198975D01*
X95522497Y76317784D01*
X95576636Y76424039D01*
X95660961Y76508364D01*
X95767216Y76562503D01*
X95885000Y76581158D01*
X96002784Y76562503D01*
G37*
G36*
X96002784Y75292503D02*
G01*
X96109039Y75238364D01*
X96194097Y75153305D01*
X96266321Y74931025D01*
X96247503Y74812216D01*
X96193364Y74705961D01*
X96109039Y74621636D01*
X96002784Y74567497D01*
X95885000Y74548842D01*
X95767216Y74567497D01*
X95660961Y74621636D01*
X95575903Y74706695D01*
X95503679Y74928975D01*
X95522497Y75047784D01*
X95576636Y75154039D01*
X95660961Y75238364D01*
X95767216Y75292503D01*
X95885000Y75311158D01*
X96002784Y75292503D01*
G37*
G36*
X96002784Y52432503D02*
G01*
X96109039Y52378364D01*
X96194097Y52293305D01*
X96266321Y52071025D01*
X96247503Y51952216D01*
X96193364Y51845961D01*
X96109039Y51761636D01*
X96002784Y51707497D01*
X95885000Y51688842D01*
X95767216Y51707497D01*
X95660961Y51761636D01*
X95575903Y51846695D01*
X95503679Y52068975D01*
X95522497Y52187784D01*
X95576636Y52294039D01*
X95660961Y52378364D01*
X95767216Y52432503D01*
X95885000Y52451158D01*
X96002784Y52432503D01*
G37*
G36*
X96002784Y51162503D02*
G01*
X96109039Y51108364D01*
X96194097Y51023305D01*
X96266321Y50801025D01*
X96247503Y50682216D01*
X96193364Y50575961D01*
X96109039Y50491636D01*
X96002784Y50437497D01*
X95885000Y50418842D01*
X95767216Y50437497D01*
X95660961Y50491636D01*
X95575903Y50576695D01*
X95503679Y50798975D01*
X95522497Y50917784D01*
X95576636Y51024039D01*
X95660961Y51108364D01*
X95767216Y51162503D01*
X95885000Y51181158D01*
X96002784Y51162503D01*
G37*
G36*
X96002784Y49892503D02*
G01*
X96109039Y49838364D01*
X96194097Y49753305D01*
X96266321Y49531025D01*
X96247503Y49412216D01*
X96193364Y49305961D01*
X96109039Y49221636D01*
X96002784Y49167497D01*
X95885000Y49148842D01*
X95767216Y49167497D01*
X95660961Y49221636D01*
X95575903Y49306695D01*
X95503679Y49528975D01*
X95522497Y49647784D01*
X95576636Y49754039D01*
X95660961Y49838364D01*
X95767216Y49892503D01*
X95885000Y49911158D01*
X96002784Y49892503D01*
G37*
G36*
X97272784Y77832503D02*
G01*
X97379039Y77778364D01*
X97464097Y77693305D01*
X97536321Y77471025D01*
X97517503Y77352216D01*
X97463364Y77245961D01*
X97379039Y77161636D01*
X97272784Y77107497D01*
X97155000Y77088842D01*
X97037216Y77107497D01*
X96930961Y77161636D01*
X96845903Y77246695D01*
X96773679Y77468975D01*
X96792497Y77587784D01*
X96846636Y77694039D01*
X96930961Y77778364D01*
X97037216Y77832503D01*
X97155000Y77851158D01*
X97272784Y77832503D01*
G37*
G36*
X97272784Y76562503D02*
G01*
X97379039Y76508364D01*
X97464097Y76423305D01*
X97536321Y76201025D01*
X97517503Y76082216D01*
X97463364Y75975961D01*
X97379039Y75891636D01*
X97272784Y75837497D01*
X97155000Y75818842D01*
X97037216Y75837497D01*
X96930961Y75891636D01*
X96845903Y75976695D01*
X96773679Y76198975D01*
X96792497Y76317784D01*
X96846636Y76424039D01*
X96930961Y76508364D01*
X97037216Y76562503D01*
X97155000Y76581158D01*
X97272784Y76562503D01*
G37*
G36*
X97272784Y75292503D02*
G01*
X97379039Y75238364D01*
X97464097Y75153305D01*
X97536321Y74931025D01*
X97517503Y74812216D01*
X97463364Y74705961D01*
X97379039Y74621636D01*
X97272784Y74567497D01*
X97155000Y74548842D01*
X97037216Y74567497D01*
X96930961Y74621636D01*
X96845903Y74706695D01*
X96773679Y74928975D01*
X96792497Y75047784D01*
X96846636Y75154039D01*
X96930961Y75238364D01*
X97037216Y75292503D01*
X97155000Y75311158D01*
X97272784Y75292503D01*
G37*
G36*
X97272784Y74022503D02*
G01*
X97379039Y73968364D01*
X97464097Y73883305D01*
X97536321Y73661025D01*
X97517503Y73542216D01*
X97463364Y73435961D01*
X97379039Y73351636D01*
X97272784Y73297497D01*
X97155000Y73278842D01*
X97037216Y73297497D01*
X96930961Y73351636D01*
X96845903Y73436695D01*
X96773679Y73658975D01*
X96792497Y73777784D01*
X96846636Y73884039D01*
X96930961Y73968364D01*
X97037216Y74022503D01*
X97155000Y74041158D01*
X97272784Y74022503D01*
G37*
G36*
X97272784Y72752503D02*
G01*
X97379039Y72698364D01*
X97464097Y72613305D01*
X97536321Y72391025D01*
X97517503Y72272216D01*
X97463364Y72165961D01*
X97379039Y72081636D01*
X97272784Y72027497D01*
X97155000Y72008842D01*
X97037216Y72027497D01*
X96930961Y72081636D01*
X96845903Y72166695D01*
X96773679Y72388975D01*
X96792497Y72507784D01*
X96846636Y72614039D01*
X96930961Y72698364D01*
X97037216Y72752503D01*
X97155000Y72771158D01*
X97272784Y72752503D01*
G37*
G36*
X97272784Y71482503D02*
G01*
X97379039Y71428364D01*
X97464097Y71343305D01*
X97536321Y71121025D01*
X97517503Y71002216D01*
X97463364Y70895961D01*
X97379039Y70811636D01*
X97272784Y70757497D01*
X97155000Y70738842D01*
X97037216Y70757497D01*
X96930961Y70811636D01*
X96845903Y70896695D01*
X96773679Y71118975D01*
X96792497Y71237784D01*
X96846636Y71344039D01*
X96930961Y71428364D01*
X97037216Y71482503D01*
X97155000Y71501158D01*
X97272784Y71482503D01*
G37*
G36*
X97272784Y70212503D02*
G01*
X97379039Y70158364D01*
X97464097Y70073305D01*
X97536321Y69851025D01*
X97517503Y69732216D01*
X97463364Y69625961D01*
X97379039Y69541636D01*
X97272784Y69487497D01*
X97155000Y69468842D01*
X97037216Y69487497D01*
X96930961Y69541636D01*
X96845903Y69626695D01*
X96773679Y69848975D01*
X96792497Y69967784D01*
X96846636Y70074039D01*
X96930961Y70158364D01*
X97037216Y70212503D01*
X97155000Y70231158D01*
X97272784Y70212503D01*
G37*
G36*
X97272784Y68942503D02*
G01*
X97379039Y68888364D01*
X97464097Y68803305D01*
X97536321Y68581025D01*
X97517503Y68462216D01*
X97463364Y68355961D01*
X97379039Y68271636D01*
X97272784Y68217497D01*
X97155000Y68198842D01*
X97037216Y68217497D01*
X96930961Y68271636D01*
X96845903Y68356695D01*
X96773679Y68578975D01*
X96792497Y68697784D01*
X96846636Y68804039D01*
X96930961Y68888364D01*
X97037216Y68942503D01*
X97155000Y68961158D01*
X97272784Y68942503D01*
G37*
G36*
X97272784Y67672503D02*
G01*
X97379039Y67618364D01*
X97464097Y67533305D01*
X97536321Y67311025D01*
X97517503Y67192216D01*
X97463364Y67085961D01*
X97379039Y67001636D01*
X97272784Y66947497D01*
X97155000Y66928842D01*
X97037216Y66947497D01*
X96930961Y67001636D01*
X96845903Y67086695D01*
X96773679Y67308975D01*
X96792497Y67427784D01*
X96846636Y67534039D01*
X96930961Y67618364D01*
X97037216Y67672503D01*
X97155000Y67691158D01*
X97272784Y67672503D01*
G37*
G36*
X97272784Y66402503D02*
G01*
X97379039Y66348364D01*
X97464097Y66263305D01*
X97536321Y66041025D01*
X97517503Y65922216D01*
X97463364Y65815961D01*
X97379039Y65731636D01*
X97272784Y65677497D01*
X97155000Y65658842D01*
X97037216Y65677497D01*
X96930961Y65731636D01*
X96845903Y65816695D01*
X96773679Y66038975D01*
X96792497Y66157784D01*
X96846636Y66264039D01*
X96930961Y66348364D01*
X97037216Y66402503D01*
X97155000Y66421158D01*
X97272784Y66402503D01*
G37*
G36*
X97272784Y65132503D02*
G01*
X97379039Y65078364D01*
X97464097Y64993305D01*
X97536321Y64771025D01*
X97517503Y64652216D01*
X97463364Y64545961D01*
X97379039Y64461636D01*
X97272784Y64407497D01*
X97155000Y64388842D01*
X97037216Y64407497D01*
X96930961Y64461636D01*
X96845903Y64546695D01*
X96773679Y64768975D01*
X96792497Y64887784D01*
X96846636Y64994039D01*
X96930961Y65078364D01*
X97037216Y65132503D01*
X97155000Y65151158D01*
X97272784Y65132503D01*
G37*
G36*
X97272784Y63862503D02*
G01*
X97379039Y63808364D01*
X97464097Y63723305D01*
X97536321Y63501025D01*
X97517503Y63382216D01*
X97463364Y63275961D01*
X97379039Y63191636D01*
X97272784Y63137497D01*
X97155000Y63118842D01*
X97037216Y63137497D01*
X96930961Y63191636D01*
X96845903Y63276695D01*
X96773679Y63498975D01*
X96792497Y63617784D01*
X96846636Y63724039D01*
X96930961Y63808364D01*
X97037216Y63862503D01*
X97155000Y63881158D01*
X97272784Y63862503D01*
G37*
G36*
X97272784Y62592503D02*
G01*
X97379039Y62538364D01*
X97464097Y62453305D01*
X97536321Y62231025D01*
X97517503Y62112216D01*
X97463364Y62005961D01*
X97379039Y61921636D01*
X97272784Y61867497D01*
X97155000Y61848842D01*
X97037216Y61867497D01*
X96930961Y61921636D01*
X96845903Y62006695D01*
X96773679Y62228975D01*
X96792497Y62347784D01*
X96846636Y62454039D01*
X96930961Y62538364D01*
X97037216Y62592503D01*
X97155000Y62611158D01*
X97272784Y62592503D01*
G37*
G36*
X97272784Y61322503D02*
G01*
X97379039Y61268364D01*
X97464097Y61183305D01*
X97536321Y60961025D01*
X97517503Y60842216D01*
X97463364Y60735961D01*
X97379039Y60651636D01*
X97272784Y60597497D01*
X97155000Y60578842D01*
X97037216Y60597497D01*
X96930961Y60651636D01*
X96845903Y60736695D01*
X96773679Y60958975D01*
X96792497Y61077784D01*
X96846636Y61184039D01*
X96930961Y61268364D01*
X97037216Y61322503D01*
X97155000Y61341158D01*
X97272784Y61322503D01*
G37*
G36*
X97272784Y60052503D02*
G01*
X97379039Y59998364D01*
X97464097Y59913305D01*
X97536321Y59691025D01*
X97517503Y59572216D01*
X97463364Y59465961D01*
X97379039Y59381636D01*
X97272784Y59327497D01*
X97155000Y59308842D01*
X97037216Y59327497D01*
X96930961Y59381636D01*
X96845903Y59466695D01*
X96773679Y59688975D01*
X96792497Y59807784D01*
X96846636Y59914039D01*
X96930961Y59998364D01*
X97037216Y60052503D01*
X97155000Y60071158D01*
X97272784Y60052503D01*
G37*
G36*
X97272784Y58782503D02*
G01*
X97379039Y58728364D01*
X97464097Y58643305D01*
X97536321Y58421025D01*
X97517503Y58302216D01*
X97463364Y58195961D01*
X97379039Y58111636D01*
X97272784Y58057497D01*
X97155000Y58038842D01*
X97037216Y58057497D01*
X96930961Y58111636D01*
X96845903Y58196695D01*
X96773679Y58418975D01*
X96792497Y58537784D01*
X96846636Y58644039D01*
X96930961Y58728364D01*
X97037216Y58782503D01*
X97155000Y58801158D01*
X97272784Y58782503D01*
G37*
G36*
X97272784Y57512503D02*
G01*
X97379039Y57458364D01*
X97464097Y57373305D01*
X97536321Y57151025D01*
X97517503Y57032216D01*
X97463364Y56925961D01*
X97379039Y56841636D01*
X97272784Y56787497D01*
X97155000Y56768842D01*
X97037216Y56787497D01*
X96930961Y56841636D01*
X96845903Y56926695D01*
X96773679Y57148975D01*
X96792497Y57267784D01*
X96846636Y57374039D01*
X96930961Y57458364D01*
X97037216Y57512503D01*
X97155000Y57531158D01*
X97272784Y57512503D01*
G37*
G36*
X97272784Y56242503D02*
G01*
X97379039Y56188364D01*
X97464097Y56103305D01*
X97536321Y55881025D01*
X97517503Y55762216D01*
X97463364Y55655961D01*
X97379039Y55571636D01*
X97272784Y55517497D01*
X97155000Y55498842D01*
X97037216Y55517497D01*
X96930961Y55571636D01*
X96845903Y55656695D01*
X96773679Y55878975D01*
X96792497Y55997784D01*
X96846636Y56104039D01*
X96930961Y56188364D01*
X97037216Y56242503D01*
X97155000Y56261158D01*
X97272784Y56242503D01*
G37*
G36*
X97272784Y54972503D02*
G01*
X97379039Y54918364D01*
X97464097Y54833305D01*
X97536321Y54611025D01*
X97517503Y54492216D01*
X97463364Y54385961D01*
X97379039Y54301636D01*
X97272784Y54247497D01*
X97155000Y54228842D01*
X97037216Y54247497D01*
X96930961Y54301636D01*
X96845903Y54386695D01*
X96773679Y54608975D01*
X96792497Y54727784D01*
X96846636Y54834039D01*
X96930961Y54918364D01*
X97037216Y54972503D01*
X97155000Y54991158D01*
X97272784Y54972503D01*
G37*
G36*
X97272784Y53702503D02*
G01*
X97379039Y53648364D01*
X97464097Y53563305D01*
X97536321Y53341025D01*
X97517503Y53222216D01*
X97463364Y53115961D01*
X97379039Y53031636D01*
X97272784Y52977497D01*
X97155000Y52958842D01*
X97037216Y52977497D01*
X96930961Y53031636D01*
X96845903Y53116695D01*
X96773679Y53338975D01*
X96792497Y53457784D01*
X96846636Y53564039D01*
X96930961Y53648364D01*
X97037216Y53702503D01*
X97155000Y53721158D01*
X97272784Y53702503D01*
G37*
G36*
X97272784Y52432503D02*
G01*
X97379039Y52378364D01*
X97464097Y52293305D01*
X97536321Y52071025D01*
X97517503Y51952216D01*
X97463364Y51845961D01*
X97379039Y51761636D01*
X97272784Y51707497D01*
X97155000Y51688842D01*
X97037216Y51707497D01*
X96930961Y51761636D01*
X96845903Y51846695D01*
X96773679Y52068975D01*
X96792497Y52187784D01*
X96846636Y52294039D01*
X96930961Y52378364D01*
X97037216Y52432503D01*
X97155000Y52451158D01*
X97272784Y52432503D01*
G37*
G36*
X97272784Y51162503D02*
G01*
X97379039Y51108364D01*
X97464097Y51023305D01*
X97536321Y50801025D01*
X97517503Y50682216D01*
X97463364Y50575961D01*
X97379039Y50491636D01*
X97272784Y50437497D01*
X97155000Y50418842D01*
X97037216Y50437497D01*
X96930961Y50491636D01*
X96845903Y50576695D01*
X96773679Y50798975D01*
X96792497Y50917784D01*
X96846636Y51024039D01*
X96930961Y51108364D01*
X97037216Y51162503D01*
X97155000Y51181158D01*
X97272784Y51162503D01*
G37*
G36*
X97272784Y49892503D02*
G01*
X97379039Y49838364D01*
X97464097Y49753305D01*
X97536321Y49531025D01*
X97517503Y49412216D01*
X97463364Y49305961D01*
X97379039Y49221636D01*
X97272784Y49167497D01*
X97155000Y49148842D01*
X97037216Y49167497D01*
X96930961Y49221636D01*
X96845903Y49306695D01*
X96773679Y49528975D01*
X96792497Y49647784D01*
X96846636Y49754039D01*
X96930961Y49838364D01*
X97037216Y49892503D01*
X97155000Y49911158D01*
X97272784Y49892503D01*
G37*
G36*
X98542784Y77832503D02*
G01*
X98649039Y77778364D01*
X98734097Y77693305D01*
X98806321Y77471025D01*
X98787503Y77352216D01*
X98733364Y77245961D01*
X98649039Y77161636D01*
X98542784Y77107497D01*
X98425000Y77088842D01*
X98307216Y77107497D01*
X98200961Y77161636D01*
X98115903Y77246695D01*
X98043679Y77468975D01*
X98062497Y77587784D01*
X98116636Y77694039D01*
X98200961Y77778364D01*
X98307216Y77832503D01*
X98425000Y77851158D01*
X98542784Y77832503D01*
G37*
G36*
X98542784Y76562503D02*
G01*
X98649039Y76508364D01*
X98734097Y76423305D01*
X98806321Y76201025D01*
X98787503Y76082216D01*
X98733364Y75975961D01*
X98649039Y75891636D01*
X98542784Y75837497D01*
X98425000Y75818842D01*
X98307216Y75837497D01*
X98200961Y75891636D01*
X98115903Y75976695D01*
X98043679Y76198975D01*
X98062497Y76317784D01*
X98116636Y76424039D01*
X98200961Y76508364D01*
X98307216Y76562503D01*
X98425000Y76581158D01*
X98542784Y76562503D01*
G37*
G36*
X98542784Y75292503D02*
G01*
X98649039Y75238364D01*
X98734097Y75153305D01*
X98806321Y74931025D01*
X98787503Y74812216D01*
X98733364Y74705961D01*
X98649039Y74621636D01*
X98542784Y74567497D01*
X98425000Y74548842D01*
X98307216Y74567497D01*
X98200961Y74621636D01*
X98115903Y74706695D01*
X98043679Y74928975D01*
X98062497Y75047784D01*
X98116636Y75154039D01*
X98200961Y75238364D01*
X98307216Y75292503D01*
X98425000Y75311158D01*
X98542784Y75292503D01*
G37*
G36*
X98542784Y74022503D02*
G01*
X98649039Y73968364D01*
X98734097Y73883305D01*
X98806321Y73661025D01*
X98787503Y73542216D01*
X98733364Y73435961D01*
X98649039Y73351636D01*
X98542784Y73297497D01*
X98425000Y73278842D01*
X98307216Y73297497D01*
X98200961Y73351636D01*
X98115903Y73436695D01*
X98043679Y73658975D01*
X98062497Y73777784D01*
X98116636Y73884039D01*
X98200961Y73968364D01*
X98307216Y74022503D01*
X98425000Y74041158D01*
X98542784Y74022503D01*
G37*
G36*
X98542784Y72752503D02*
G01*
X98649039Y72698364D01*
X98734097Y72613305D01*
X98806321Y72391025D01*
X98787503Y72272216D01*
X98733364Y72165961D01*
X98649039Y72081636D01*
X98542784Y72027497D01*
X98425000Y72008842D01*
X98307216Y72027497D01*
X98200961Y72081636D01*
X98115903Y72166695D01*
X98043679Y72388975D01*
X98062497Y72507784D01*
X98116636Y72614039D01*
X98200961Y72698364D01*
X98307216Y72752503D01*
X98425000Y72771158D01*
X98542784Y72752503D01*
G37*
G36*
X98542784Y71482503D02*
G01*
X98649039Y71428364D01*
X98734097Y71343305D01*
X98806321Y71121025D01*
X98787503Y71002216D01*
X98733364Y70895961D01*
X98649039Y70811636D01*
X98542784Y70757497D01*
X98425000Y70738842D01*
X98307216Y70757497D01*
X98200961Y70811636D01*
X98115903Y70896695D01*
X98043679Y71118975D01*
X98062497Y71237784D01*
X98116636Y71344039D01*
X98200961Y71428364D01*
X98307216Y71482503D01*
X98425000Y71501158D01*
X98542784Y71482503D01*
G37*
G36*
X98542784Y70212503D02*
G01*
X98649039Y70158364D01*
X98734097Y70073305D01*
X98806321Y69851025D01*
X98787503Y69732216D01*
X98733364Y69625961D01*
X98649039Y69541636D01*
X98542784Y69487497D01*
X98425000Y69468842D01*
X98307216Y69487497D01*
X98200961Y69541636D01*
X98115903Y69626695D01*
X98043679Y69848975D01*
X98062497Y69967784D01*
X98116636Y70074039D01*
X98200961Y70158364D01*
X98307216Y70212503D01*
X98425000Y70231158D01*
X98542784Y70212503D01*
G37*
G36*
X98542784Y68942503D02*
G01*
X98649039Y68888364D01*
X98734097Y68803305D01*
X98806321Y68581025D01*
X98787503Y68462216D01*
X98733364Y68355961D01*
X98649039Y68271636D01*
X98542784Y68217497D01*
X98425000Y68198842D01*
X98307216Y68217497D01*
X98200961Y68271636D01*
X98115903Y68356695D01*
X98043679Y68578975D01*
X98062497Y68697784D01*
X98116636Y68804039D01*
X98200961Y68888364D01*
X98307216Y68942503D01*
X98425000Y68961158D01*
X98542784Y68942503D01*
G37*
G36*
X98542784Y67672503D02*
G01*
X98649039Y67618364D01*
X98734097Y67533305D01*
X98806321Y67311025D01*
X98787503Y67192216D01*
X98733364Y67085961D01*
X98649039Y67001636D01*
X98542784Y66947497D01*
X98425000Y66928842D01*
X98307216Y66947497D01*
X98200961Y67001636D01*
X98115903Y67086695D01*
X98043679Y67308975D01*
X98062497Y67427784D01*
X98116636Y67534039D01*
X98200961Y67618364D01*
X98307216Y67672503D01*
X98425000Y67691158D01*
X98542784Y67672503D01*
G37*
G36*
X98542784Y66402503D02*
G01*
X98649039Y66348364D01*
X98734097Y66263305D01*
X98806321Y66041025D01*
X98787503Y65922216D01*
X98733364Y65815961D01*
X98649039Y65731636D01*
X98542784Y65677497D01*
X98425000Y65658842D01*
X98307216Y65677497D01*
X98200961Y65731636D01*
X98115903Y65816695D01*
X98043679Y66038975D01*
X98062497Y66157784D01*
X98116636Y66264039D01*
X98200961Y66348364D01*
X98307216Y66402503D01*
X98425000Y66421158D01*
X98542784Y66402503D01*
G37*
G36*
X98542784Y65132503D02*
G01*
X98649039Y65078364D01*
X98734097Y64993305D01*
X98806321Y64771025D01*
X98787503Y64652216D01*
X98733364Y64545961D01*
X98649039Y64461636D01*
X98542784Y64407497D01*
X98425000Y64388842D01*
X98307216Y64407497D01*
X98200961Y64461636D01*
X98115903Y64546695D01*
X98043679Y64768975D01*
X98062497Y64887784D01*
X98116636Y64994039D01*
X98200961Y65078364D01*
X98307216Y65132503D01*
X98425000Y65151158D01*
X98542784Y65132503D01*
G37*
G36*
X98542784Y63862503D02*
G01*
X98649039Y63808364D01*
X98734097Y63723305D01*
X98806321Y63501025D01*
X98787503Y63382216D01*
X98733364Y63275961D01*
X98649039Y63191636D01*
X98542784Y63137497D01*
X98425000Y63118842D01*
X98307216Y63137497D01*
X98200961Y63191636D01*
X98115903Y63276695D01*
X98043679Y63498975D01*
X98062497Y63617784D01*
X98116636Y63724039D01*
X98200961Y63808364D01*
X98307216Y63862503D01*
X98425000Y63881158D01*
X98542784Y63862503D01*
G37*
G36*
X98542784Y62592503D02*
G01*
X98649039Y62538364D01*
X98734097Y62453305D01*
X98806321Y62231025D01*
X98787503Y62112216D01*
X98733364Y62005961D01*
X98649039Y61921636D01*
X98542784Y61867497D01*
X98425000Y61848842D01*
X98307216Y61867497D01*
X98200961Y61921636D01*
X98115903Y62006695D01*
X98043679Y62228975D01*
X98062497Y62347784D01*
X98116636Y62454039D01*
X98200961Y62538364D01*
X98307216Y62592503D01*
X98425000Y62611158D01*
X98542784Y62592503D01*
G37*
G36*
X98542784Y61322503D02*
G01*
X98649039Y61268364D01*
X98734097Y61183305D01*
X98806321Y60961025D01*
X98787503Y60842216D01*
X98733364Y60735961D01*
X98649039Y60651636D01*
X98542784Y60597497D01*
X98425000Y60578842D01*
X98307216Y60597497D01*
X98200961Y60651636D01*
X98115903Y60736695D01*
X98043679Y60958975D01*
X98062497Y61077784D01*
X98116636Y61184039D01*
X98200961Y61268364D01*
X98307216Y61322503D01*
X98425000Y61341158D01*
X98542784Y61322503D01*
G37*
G36*
X98542784Y60052503D02*
G01*
X98649039Y59998364D01*
X98734097Y59913305D01*
X98806321Y59691025D01*
X98787503Y59572216D01*
X98733364Y59465961D01*
X98649039Y59381636D01*
X98542784Y59327497D01*
X98425000Y59308842D01*
X98307216Y59327497D01*
X98200961Y59381636D01*
X98115903Y59466695D01*
X98043679Y59688975D01*
X98062497Y59807784D01*
X98116636Y59914039D01*
X98200961Y59998364D01*
X98307216Y60052503D01*
X98425000Y60071158D01*
X98542784Y60052503D01*
G37*
G36*
X98542784Y58782503D02*
G01*
X98649039Y58728364D01*
X98734097Y58643305D01*
X98806321Y58421025D01*
X98787503Y58302216D01*
X98733364Y58195961D01*
X98649039Y58111636D01*
X98542784Y58057497D01*
X98425000Y58038842D01*
X98307216Y58057497D01*
X98200961Y58111636D01*
X98115903Y58196695D01*
X98043679Y58418975D01*
X98062497Y58537784D01*
X98116636Y58644039D01*
X98200961Y58728364D01*
X98307216Y58782503D01*
X98425000Y58801158D01*
X98542784Y58782503D01*
G37*
G36*
X98542784Y57512503D02*
G01*
X98649039Y57458364D01*
X98734097Y57373305D01*
X98806321Y57151025D01*
X98787503Y57032216D01*
X98733364Y56925961D01*
X98649039Y56841636D01*
X98542784Y56787497D01*
X98425000Y56768842D01*
X98307216Y56787497D01*
X98200961Y56841636D01*
X98115903Y56926695D01*
X98043679Y57148975D01*
X98062497Y57267784D01*
X98116636Y57374039D01*
X98200961Y57458364D01*
X98307216Y57512503D01*
X98425000Y57531158D01*
X98542784Y57512503D01*
G37*
G36*
X98542784Y56242503D02*
G01*
X98649039Y56188364D01*
X98734097Y56103305D01*
X98806321Y55881025D01*
X98787503Y55762216D01*
X98733364Y55655961D01*
X98649039Y55571636D01*
X98542784Y55517497D01*
X98425000Y55498842D01*
X98307216Y55517497D01*
X98200961Y55571636D01*
X98115903Y55656695D01*
X98043679Y55878975D01*
X98062497Y55997784D01*
X98116636Y56104039D01*
X98200961Y56188364D01*
X98307216Y56242503D01*
X98425000Y56261158D01*
X98542784Y56242503D01*
G37*
G36*
X98542784Y54972503D02*
G01*
X98649039Y54918364D01*
X98734097Y54833305D01*
X98806321Y54611025D01*
X98787503Y54492216D01*
X98733364Y54385961D01*
X98649039Y54301636D01*
X98542784Y54247497D01*
X98425000Y54228842D01*
X98307216Y54247497D01*
X98200961Y54301636D01*
X98115903Y54386695D01*
X98043679Y54608975D01*
X98062497Y54727784D01*
X98116636Y54834039D01*
X98200961Y54918364D01*
X98307216Y54972503D01*
X98425000Y54991158D01*
X98542784Y54972503D01*
G37*
G36*
X98542784Y53702503D02*
G01*
X98649039Y53648364D01*
X98734097Y53563305D01*
X98806321Y53341025D01*
X98787503Y53222216D01*
X98733364Y53115961D01*
X98649039Y53031636D01*
X98542784Y52977497D01*
X98425000Y52958842D01*
X98307216Y52977497D01*
X98200961Y53031636D01*
X98115903Y53116695D01*
X98043679Y53338975D01*
X98062497Y53457784D01*
X98116636Y53564039D01*
X98200961Y53648364D01*
X98307216Y53702503D01*
X98425000Y53721158D01*
X98542784Y53702503D01*
G37*
G36*
X98542784Y52432503D02*
G01*
X98649039Y52378364D01*
X98734097Y52293305D01*
X98806321Y52071025D01*
X98787503Y51952216D01*
X98733364Y51845961D01*
X98649039Y51761636D01*
X98542784Y51707497D01*
X98425000Y51688842D01*
X98307216Y51707497D01*
X98200961Y51761636D01*
X98115903Y51846695D01*
X98043679Y52068975D01*
X98062497Y52187784D01*
X98116636Y52294039D01*
X98200961Y52378364D01*
X98307216Y52432503D01*
X98425000Y52451158D01*
X98542784Y52432503D01*
G37*
G36*
X98542784Y51162503D02*
G01*
X98649039Y51108364D01*
X98734097Y51023305D01*
X98806321Y50801025D01*
X98787503Y50682216D01*
X98733364Y50575961D01*
X98649039Y50491636D01*
X98542784Y50437497D01*
X98425000Y50418842D01*
X98307216Y50437497D01*
X98200961Y50491636D01*
X98115903Y50576695D01*
X98043679Y50798975D01*
X98062497Y50917784D01*
X98116636Y51024039D01*
X98200961Y51108364D01*
X98307216Y51162503D01*
X98425000Y51181158D01*
X98542784Y51162503D01*
G37*
G36*
X98542784Y49892503D02*
G01*
X98649039Y49838364D01*
X98734097Y49753305D01*
X98806321Y49531025D01*
X98787503Y49412216D01*
X98733364Y49305961D01*
X98649039Y49221636D01*
X98542784Y49167497D01*
X98425000Y49148842D01*
X98307216Y49167497D01*
X98200961Y49221636D01*
X98115903Y49306695D01*
X98043679Y49528975D01*
X98062497Y49647784D01*
X98116636Y49754039D01*
X98200961Y49838364D01*
X98307216Y49892503D01*
X98425000Y49911158D01*
X98542784Y49892503D01*
G37*
G36*
X99812784Y77832503D02*
G01*
X99919039Y77778364D01*
X100004097Y77693305D01*
X100076321Y77471025D01*
X100057503Y77352216D01*
X100003364Y77245961D01*
X99919039Y77161636D01*
X99812784Y77107497D01*
X99695000Y77088842D01*
X99577216Y77107497D01*
X99470961Y77161636D01*
X99385903Y77246695D01*
X99313679Y77468975D01*
X99332497Y77587784D01*
X99386636Y77694039D01*
X99470961Y77778364D01*
X99577216Y77832503D01*
X99695000Y77851158D01*
X99812784Y77832503D01*
G37*
G36*
X99812784Y76562503D02*
G01*
X99919039Y76508364D01*
X100004097Y76423305D01*
X100076321Y76201025D01*
X100057503Y76082216D01*
X100003364Y75975961D01*
X99919039Y75891636D01*
X99812784Y75837497D01*
X99695000Y75818842D01*
X99577216Y75837497D01*
X99470961Y75891636D01*
X99385903Y75976695D01*
X99313679Y76198975D01*
X99332497Y76317784D01*
X99386636Y76424039D01*
X99470961Y76508364D01*
X99577216Y76562503D01*
X99695000Y76581158D01*
X99812784Y76562503D01*
G37*
G36*
X99812784Y75292503D02*
G01*
X99919039Y75238364D01*
X100004097Y75153305D01*
X100076321Y74931025D01*
X100057503Y74812216D01*
X100003364Y74705961D01*
X99919039Y74621636D01*
X99812784Y74567497D01*
X99695000Y74548842D01*
X99577216Y74567497D01*
X99470961Y74621636D01*
X99385903Y74706695D01*
X99313679Y74928975D01*
X99332497Y75047784D01*
X99386636Y75154039D01*
X99470961Y75238364D01*
X99577216Y75292503D01*
X99695000Y75311158D01*
X99812784Y75292503D01*
G37*
G36*
X99812784Y74022503D02*
G01*
X99919039Y73968364D01*
X100004097Y73883305D01*
X100076321Y73661025D01*
X100057503Y73542216D01*
X100003364Y73435961D01*
X99919039Y73351636D01*
X99812784Y73297497D01*
X99695000Y73278842D01*
X99577216Y73297497D01*
X99470961Y73351636D01*
X99385903Y73436695D01*
X99313679Y73658975D01*
X99332497Y73777784D01*
X99386636Y73884039D01*
X99470961Y73968364D01*
X99577216Y74022503D01*
X99695000Y74041158D01*
X99812784Y74022503D01*
G37*
G36*
X99812784Y72752503D02*
G01*
X99919039Y72698364D01*
X100004097Y72613305D01*
X100076321Y72391025D01*
X100057503Y72272216D01*
X100003364Y72165961D01*
X99919039Y72081636D01*
X99812784Y72027497D01*
X99695000Y72008842D01*
X99577216Y72027497D01*
X99470961Y72081636D01*
X99385903Y72166695D01*
X99313679Y72388975D01*
X99332497Y72507784D01*
X99386636Y72614039D01*
X99470961Y72698364D01*
X99577216Y72752503D01*
X99695000Y72771158D01*
X99812784Y72752503D01*
G37*
G36*
X99812784Y71482503D02*
G01*
X99919039Y71428364D01*
X100004097Y71343305D01*
X100076321Y71121025D01*
X100057503Y71002216D01*
X100003364Y70895961D01*
X99919039Y70811636D01*
X99812784Y70757497D01*
X99695000Y70738842D01*
X99577216Y70757497D01*
X99470961Y70811636D01*
X99385903Y70896695D01*
X99313679Y71118975D01*
X99332497Y71237784D01*
X99386636Y71344039D01*
X99470961Y71428364D01*
X99577216Y71482503D01*
X99695000Y71501158D01*
X99812784Y71482503D01*
G37*
G36*
X99812784Y70212503D02*
G01*
X99919039Y70158364D01*
X100004097Y70073305D01*
X100076321Y69851025D01*
X100057503Y69732216D01*
X100003364Y69625961D01*
X99919039Y69541636D01*
X99812784Y69487497D01*
X99695000Y69468842D01*
X99577216Y69487497D01*
X99470961Y69541636D01*
X99385903Y69626695D01*
X99313679Y69848975D01*
X99332497Y69967784D01*
X99386636Y70074039D01*
X99470961Y70158364D01*
X99577216Y70212503D01*
X99695000Y70231158D01*
X99812784Y70212503D01*
G37*
G36*
X99812784Y68942503D02*
G01*
X99919039Y68888364D01*
X100004097Y68803305D01*
X100076321Y68581025D01*
X100057503Y68462216D01*
X100003364Y68355961D01*
X99919039Y68271636D01*
X99812784Y68217497D01*
X99695000Y68198842D01*
X99577216Y68217497D01*
X99470961Y68271636D01*
X99385903Y68356695D01*
X99313679Y68578975D01*
X99332497Y68697784D01*
X99386636Y68804039D01*
X99470961Y68888364D01*
X99577216Y68942503D01*
X99695000Y68961158D01*
X99812784Y68942503D01*
G37*
G36*
X99812784Y67672503D02*
G01*
X99919039Y67618364D01*
X100004097Y67533305D01*
X100076321Y67311025D01*
X100057503Y67192216D01*
X100003364Y67085961D01*
X99919039Y67001636D01*
X99812784Y66947497D01*
X99695000Y66928842D01*
X99577216Y66947497D01*
X99470961Y67001636D01*
X99385903Y67086695D01*
X99313679Y67308975D01*
X99332497Y67427784D01*
X99386636Y67534039D01*
X99470961Y67618364D01*
X99577216Y67672503D01*
X99695000Y67691158D01*
X99812784Y67672503D01*
G37*
G36*
X99812784Y66402503D02*
G01*
X99919039Y66348364D01*
X100004097Y66263305D01*
X100076321Y66041025D01*
X100057503Y65922216D01*
X100003364Y65815961D01*
X99919039Y65731636D01*
X99812784Y65677497D01*
X99695000Y65658842D01*
X99577216Y65677497D01*
X99470961Y65731636D01*
X99385903Y65816695D01*
X99313679Y66038975D01*
X99332497Y66157784D01*
X99386636Y66264039D01*
X99470961Y66348364D01*
X99577216Y66402503D01*
X99695000Y66421158D01*
X99812784Y66402503D01*
G37*
G36*
X99812784Y65132503D02*
G01*
X99919039Y65078364D01*
X100004097Y64993305D01*
X100076321Y64771025D01*
X100057503Y64652216D01*
X100003364Y64545961D01*
X99919039Y64461636D01*
X99812784Y64407497D01*
X99695000Y64388842D01*
X99577216Y64407497D01*
X99470961Y64461636D01*
X99385903Y64546695D01*
X99313679Y64768975D01*
X99332497Y64887784D01*
X99386636Y64994039D01*
X99470961Y65078364D01*
X99577216Y65132503D01*
X99695000Y65151158D01*
X99812784Y65132503D01*
G37*
G36*
X99812784Y63862503D02*
G01*
X99919039Y63808364D01*
X100004097Y63723305D01*
X100076321Y63501025D01*
X100057503Y63382216D01*
X100003364Y63275961D01*
X99919039Y63191636D01*
X99812784Y63137497D01*
X99695000Y63118842D01*
X99577216Y63137497D01*
X99470961Y63191636D01*
X99385903Y63276695D01*
X99313679Y63498975D01*
X99332497Y63617784D01*
X99386636Y63724039D01*
X99470961Y63808364D01*
X99577216Y63862503D01*
X99695000Y63881158D01*
X99812784Y63862503D01*
G37*
G36*
X99812784Y62592503D02*
G01*
X99919039Y62538364D01*
X100004097Y62453305D01*
X100076321Y62231025D01*
X100057503Y62112216D01*
X100003364Y62005961D01*
X99919039Y61921636D01*
X99812784Y61867497D01*
X99695000Y61848842D01*
X99577216Y61867497D01*
X99470961Y61921636D01*
X99385903Y62006695D01*
X99313679Y62228975D01*
X99332497Y62347784D01*
X99386636Y62454039D01*
X99470961Y62538364D01*
X99577216Y62592503D01*
X99695000Y62611158D01*
X99812784Y62592503D01*
G37*
G36*
X99812784Y61322503D02*
G01*
X99919039Y61268364D01*
X100004097Y61183305D01*
X100076321Y60961025D01*
X100057503Y60842216D01*
X100003364Y60735961D01*
X99919039Y60651636D01*
X99812784Y60597497D01*
X99695000Y60578842D01*
X99577216Y60597497D01*
X99470961Y60651636D01*
X99385903Y60736695D01*
X99313679Y60958975D01*
X99332497Y61077784D01*
X99386636Y61184039D01*
X99470961Y61268364D01*
X99577216Y61322503D01*
X99695000Y61341158D01*
X99812784Y61322503D01*
G37*
G36*
X99812784Y60052503D02*
G01*
X99919039Y59998364D01*
X100004097Y59913305D01*
X100076321Y59691025D01*
X100057503Y59572216D01*
X100003364Y59465961D01*
X99919039Y59381636D01*
X99812784Y59327497D01*
X99695000Y59308842D01*
X99577216Y59327497D01*
X99470961Y59381636D01*
X99385903Y59466695D01*
X99313679Y59688975D01*
X99332497Y59807784D01*
X99386636Y59914039D01*
X99470961Y59998364D01*
X99577216Y60052503D01*
X99695000Y60071158D01*
X99812784Y60052503D01*
G37*
G36*
X99812784Y58782503D02*
G01*
X99919039Y58728364D01*
X100004097Y58643305D01*
X100076321Y58421025D01*
X100057503Y58302216D01*
X100003364Y58195961D01*
X99919039Y58111636D01*
X99812784Y58057497D01*
X99695000Y58038842D01*
X99577216Y58057497D01*
X99470961Y58111636D01*
X99385903Y58196695D01*
X99313679Y58418975D01*
X99332497Y58537784D01*
X99386636Y58644039D01*
X99470961Y58728364D01*
X99577216Y58782503D01*
X99695000Y58801158D01*
X99812784Y58782503D01*
G37*
G36*
X99812784Y57512503D02*
G01*
X99919039Y57458364D01*
X100004097Y57373305D01*
X100076321Y57151025D01*
X100057503Y57032216D01*
X100003364Y56925961D01*
X99919039Y56841636D01*
X99812784Y56787497D01*
X99695000Y56768842D01*
X99577216Y56787497D01*
X99470961Y56841636D01*
X99385903Y56926695D01*
X99313679Y57148975D01*
X99332497Y57267784D01*
X99386636Y57374039D01*
X99470961Y57458364D01*
X99577216Y57512503D01*
X99695000Y57531158D01*
X99812784Y57512503D01*
G37*
G36*
X99812784Y56242503D02*
G01*
X99919039Y56188364D01*
X100004097Y56103305D01*
X100076321Y55881025D01*
X100057503Y55762216D01*
X100003364Y55655961D01*
X99919039Y55571636D01*
X99812784Y55517497D01*
X99695000Y55498842D01*
X99577216Y55517497D01*
X99470961Y55571636D01*
X99385903Y55656695D01*
X99313679Y55878975D01*
X99332497Y55997784D01*
X99386636Y56104039D01*
X99470961Y56188364D01*
X99577216Y56242503D01*
X99695000Y56261158D01*
X99812784Y56242503D01*
G37*
G36*
X99812784Y54972503D02*
G01*
X99919039Y54918364D01*
X100004097Y54833305D01*
X100076321Y54611025D01*
X100057503Y54492216D01*
X100003364Y54385961D01*
X99919039Y54301636D01*
X99812784Y54247497D01*
X99695000Y54228842D01*
X99577216Y54247497D01*
X99470961Y54301636D01*
X99385903Y54386695D01*
X99313679Y54608975D01*
X99332497Y54727784D01*
X99386636Y54834039D01*
X99470961Y54918364D01*
X99577216Y54972503D01*
X99695000Y54991158D01*
X99812784Y54972503D01*
G37*
G36*
X99812784Y53702503D02*
G01*
X99919039Y53648364D01*
X100004097Y53563305D01*
X100076321Y53341025D01*
X100057503Y53222216D01*
X100003364Y53115961D01*
X99919039Y53031636D01*
X99812784Y52977497D01*
X99695000Y52958842D01*
X99577216Y52977497D01*
X99470961Y53031636D01*
X99385903Y53116695D01*
X99313679Y53338975D01*
X99332497Y53457784D01*
X99386636Y53564039D01*
X99470961Y53648364D01*
X99577216Y53702503D01*
X99695000Y53721158D01*
X99812784Y53702503D01*
G37*
G36*
X99812784Y52432503D02*
G01*
X99919039Y52378364D01*
X100004097Y52293305D01*
X100076321Y52071025D01*
X100057503Y51952216D01*
X100003364Y51845961D01*
X99919039Y51761636D01*
X99812784Y51707497D01*
X99695000Y51688842D01*
X99577216Y51707497D01*
X99470961Y51761636D01*
X99385903Y51846695D01*
X99313679Y52068975D01*
X99332497Y52187784D01*
X99386636Y52294039D01*
X99470961Y52378364D01*
X99577216Y52432503D01*
X99695000Y52451158D01*
X99812784Y52432503D01*
G37*
G36*
X99812784Y51162503D02*
G01*
X99919039Y51108364D01*
X100004097Y51023305D01*
X100076321Y50801025D01*
X100057503Y50682216D01*
X100003364Y50575961D01*
X99919039Y50491636D01*
X99812784Y50437497D01*
X99695000Y50418842D01*
X99577216Y50437497D01*
X99470961Y50491636D01*
X99385903Y50576695D01*
X99313679Y50798975D01*
X99332497Y50917784D01*
X99386636Y51024039D01*
X99470961Y51108364D01*
X99577216Y51162503D01*
X99695000Y51181158D01*
X99812784Y51162503D01*
G37*
%TD*%
D11*
%TO.C,D1*%
X74577000Y95885000D03*
X75537000Y95885000D03*
%TD*%
D12*
%TO.C,R9*%
X101600000Y12255000D03*
X101600000Y10605000D03*
%TD*%
D13*
%TO.C,U1*%
X130450000Y65350000D03*
X130450000Y63950000D03*
X130450000Y62550000D03*
X131850000Y62550000D03*
X133250000Y62550000D03*
X133250000Y63950000D03*
X133250000Y65350000D03*
X131850000Y65350000D03*
X131850000Y63950000D03*
%TD*%
D14*
%TO.C,L5*%
X116398000Y89154000D03*
X118298000Y89154000D03*
%TD*%
D15*
%TO.C,C27*%
X46990000Y61023000D03*
X46990000Y62573000D03*
%TD*%
D16*
%TO.C,C11*%
X43701000Y66802000D03*
X42151000Y66802000D03*
%TD*%
D15*
%TO.C,C55*%
X113284000Y93967000D03*
X113284000Y95517000D03*
%TD*%
%TO.C,C1*%
X120650000Y70599000D03*
X120650000Y72149000D03*
%TD*%
D17*
%TO.C,U9*%
X38620000Y87425000D03*
X39120000Y87425000D03*
X39620000Y87425000D03*
X40120000Y87425000D03*
X40120000Y90375000D03*
X39620000Y90375000D03*
X39120000Y90375000D03*
X38620000Y90375000D03*
%TD*%
%TO.C,U8*%
X42430000Y87425000D03*
X42930000Y87425000D03*
X43430000Y87425000D03*
X43930000Y87425000D03*
X43930000Y90375000D03*
X43430000Y90375000D03*
X42930000Y90375000D03*
X42430000Y90375000D03*
%TD*%
D15*
%TO.C,C38*%
X40640000Y51295000D03*
X40640000Y52845000D03*
%TD*%
D16*
%TO.C,C8*%
X117615000Y68580000D03*
X116065000Y68580000D03*
%TD*%
D12*
%TO.C,R37*%
X32639000Y11239000D03*
X32639000Y9589000D03*
%TD*%
D18*
%TO.C,C23*%
X51562000Y62573000D03*
X51562000Y61023000D03*
%TD*%
D19*
%TO.C,R2*%
X142240000Y22035000D03*
X142240000Y23685000D03*
%TD*%
D20*
%TO.C,U4*%
X48046000Y72870000D03*
X48046000Y72370000D03*
X48046000Y71870000D03*
X48046000Y71370000D03*
X48046000Y70870000D03*
X48046000Y70370000D03*
X48046000Y69870000D03*
X48046000Y69370000D03*
D21*
X48796000Y68620000D03*
X49296000Y68620000D03*
X49796000Y68620000D03*
X50296000Y68620000D03*
X50796000Y68620000D03*
X51296000Y68620000D03*
X51796000Y68620000D03*
X52296000Y68620000D03*
D20*
X53046000Y69370000D03*
X53046000Y69870000D03*
X53046000Y70370000D03*
X53046000Y70870000D03*
X53046000Y71370000D03*
X53046000Y71870000D03*
X53046000Y72370000D03*
X53046000Y72870000D03*
D21*
X52296000Y73620000D03*
X51796000Y73620000D03*
X51296000Y73620000D03*
X50796000Y73620000D03*
X50296000Y73620000D03*
X49796000Y73620000D03*
X49296000Y73620000D03*
X48796000Y73620000D03*
%TD*%
D12*
%TO.C,R43*%
X56388000Y85153000D03*
X56388000Y83503000D03*
%TD*%
D15*
%TO.C,C54*%
X78994000Y14465000D03*
X78994000Y16015000D03*
%TD*%
D22*
%TO.C,C44*%
X60185000Y83566000D03*
X61735000Y83566000D03*
%TD*%
D18*
%TO.C,C28*%
X39116000Y19825000D03*
X39116000Y18275000D03*
%TD*%
%TO.C,C65*%
X93726000Y90945000D03*
X93726000Y89395000D03*
%TD*%
D23*
%TO.C,R49*%
X111823000Y90932000D03*
X110173000Y90932000D03*
%TD*%
D19*
%TO.C,R29*%
X42672000Y18225000D03*
X42672000Y19875000D03*
%TD*%
D15*
%TO.C,C56*%
X114808000Y93967000D03*
X114808000Y95517000D03*
%TD*%
%TO.C,C18*%
X94996000Y82029000D03*
X94996000Y83579000D03*
%TD*%
D24*
%TO.C,D6*%
X39050000Y71912100D03*
X38100000Y71912100D03*
X37150000Y71912100D03*
X37150000Y69311900D03*
X38050000Y69311900D03*
X39050000Y69311900D03*
%TD*%
D12*
%TO.C,R25*%
X43942000Y62610000D03*
X43942000Y60960000D03*
%TD*%
D17*
%TO.C,U10*%
X60210000Y87425000D03*
X60710000Y87425000D03*
X61210000Y87425000D03*
X61710000Y87425000D03*
X61710000Y90375000D03*
X61210000Y90375000D03*
X60710000Y90375000D03*
X60210000Y90375000D03*
%TD*%
D19*
%TO.C,R32*%
X121539000Y81598000D03*
X121539000Y83248000D03*
%TD*%
D25*
%TO.C,C6*%
X54610000Y27800000D03*
X54610000Y23000000D03*
%TD*%
D15*
%TO.C,C2*%
X119126000Y70599000D03*
X119126000Y72149000D03*
%TD*%
D19*
%TO.C,R42*%
X24130000Y14415000D03*
X24130000Y16065000D03*
%TD*%
D12*
%TO.C,R45*%
X97028000Y94805000D03*
X97028000Y93155000D03*
%TD*%
D22*
%TO.C,C57*%
X119875000Y89408000D03*
X121425000Y89408000D03*
%TD*%
D12*
%TO.C,R48*%
X98552000Y94805000D03*
X98552000Y93155000D03*
%TD*%
D26*
%TO.C,L3*%
X43375000Y33020000D03*
X45525000Y33020000D03*
%TD*%
D16*
%TO.C,L7*%
X121425000Y92456000D03*
X119875000Y92456000D03*
%TD*%
D18*
%TO.C,C30*%
X40894000Y19825000D03*
X40894000Y18275000D03*
%TD*%
D27*
%TO.C,F1*%
X54840000Y31750000D03*
X51840000Y31750000D03*
%TD*%
D18*
%TO.C,C17*%
X76708000Y45492000D03*
X76708000Y43942000D03*
%TD*%
D16*
%TO.C,C45*%
X51067000Y90424000D03*
X49517000Y90424000D03*
%TD*%
D15*
%TO.C,L2*%
X50038000Y61023000D03*
X50038000Y62573000D03*
%TD*%
D19*
%TO.C,R27*%
X49942500Y18225000D03*
X49942500Y19875000D03*
%TD*%
D15*
%TO.C,C47*%
X110490000Y79235000D03*
X110490000Y80785000D03*
%TD*%
D25*
%TO.C,C35*%
X8890000Y33160000D03*
X8890000Y37960000D03*
%TD*%
D12*
%TO.C,R14*%
X132334000Y12255000D03*
X132334000Y10605000D03*
%TD*%
D18*
%TO.C,C67*%
X95250000Y90945000D03*
X95250000Y89395000D03*
%TD*%
D28*
%TO.C,J3*%
X142278000Y92495000D03*
D29*
X140903000Y90970000D03*
X143653000Y90970000D03*
D28*
X142278000Y89445000D03*
%TD*%
D16*
%TO.C,C13*%
X43701000Y77470000D03*
X42151000Y77470000D03*
%TD*%
D22*
%TO.C,C39*%
X42405000Y85090000D03*
X43955000Y85090000D03*
%TD*%
D15*
%TO.C,C63*%
X119888000Y93967000D03*
X119888000Y95517000D03*
%TD*%
D30*
%TO.C,R36*%
X43180000Y53340000D03*
X43180000Y56265000D03*
%TD*%
D22*
%TO.C,C12*%
X42151000Y74422000D03*
X43701000Y74422000D03*
%TD*%
D31*
%TO.C,R20*%
X42101000Y69850000D03*
X43751000Y69850000D03*
%TD*%
D32*
%TO.C,U13*%
X116999000Y79255000D03*
D33*
X116849000Y80680000D03*
X116849000Y81880000D03*
D32*
X116999000Y83305000D03*
D34*
X115824000Y83305000D03*
D32*
X114649000Y83305000D03*
D33*
X114799000Y81880000D03*
X114799000Y80680000D03*
D32*
X114649000Y79255000D03*
D34*
X115824000Y79255000D03*
%TD*%
D35*
%TO.C,Q1*%
X140350000Y23780000D03*
X139700000Y23780000D03*
X139050000Y23780000D03*
X139050000Y21940000D03*
X139700000Y21940000D03*
X140350000Y21940000D03*
%TD*%
D36*
%TO.C,C32*%
X43320000Y25400000D03*
X48120000Y25400000D03*
%TD*%
D12*
%TO.C,R10*%
X109220000Y12255000D03*
X109220000Y10605000D03*
%TD*%
D16*
%TO.C,C22*%
X64275000Y26670000D03*
X62725000Y26670000D03*
%TD*%
D37*
%TO.C,U15*%
X105205000Y90920000D03*
X105205000Y90420000D03*
X105205000Y89920000D03*
X105205000Y89420000D03*
X108155000Y89420000D03*
X108155000Y89920000D03*
X108155000Y90420000D03*
X108155000Y90920000D03*
%TD*%
D31*
%TO.C,R7*%
X116015000Y60706000D03*
X117665000Y60706000D03*
%TD*%
D16*
%TO.C,C14*%
X43701000Y75946000D03*
X42151000Y75946000D03*
%TD*%
D38*
%TO.C,U11*%
X62199900Y25080000D03*
X62199900Y24130000D03*
X62199900Y23180000D03*
X64800100Y23180000D03*
X64800100Y25080000D03*
%TD*%
D15*
%TO.C,C26*%
X48514000Y61023000D03*
X48514000Y62573000D03*
%TD*%
D22*
%TO.C,C7*%
X62725000Y29210000D03*
X64275000Y29210000D03*
%TD*%
D31*
%TO.C,R19*%
X42101000Y68326000D03*
X43751000Y68326000D03*
%TD*%
D22*
%TO.C,C43*%
X60185000Y85090000D03*
X61735000Y85090000D03*
%TD*%
D19*
%TO.C,R39*%
X19050000Y14415000D03*
X19050000Y16065000D03*
%TD*%
%TO.C,R12*%
X13970000Y14415000D03*
X13970000Y16065000D03*
%TD*%
D18*
%TO.C,C64*%
X101854000Y90945000D03*
X101854000Y89395000D03*
%TD*%
D15*
%TO.C,C4*%
X134620000Y27419000D03*
X134620000Y28969000D03*
%TD*%
D19*
%TO.C,R16*%
X48514000Y83503000D03*
X48514000Y85153000D03*
%TD*%
%TO.C,R13*%
X11430000Y14415000D03*
X11430000Y16065000D03*
%TD*%
%TO.C,R24*%
X46736000Y77407000D03*
X46736000Y79057000D03*
%TD*%
D16*
%TO.C,C53*%
X51067000Y87376000D03*
X49517000Y87376000D03*
%TD*%
D24*
%TO.C,D2*%
X106360000Y12730100D03*
X105410000Y12730100D03*
X104460000Y12730100D03*
X104460000Y10129900D03*
X105360000Y10129900D03*
X106360000Y10129900D03*
%TD*%
D23*
%TO.C,R50*%
X111823000Y89408000D03*
X110173000Y89408000D03*
%TD*%
%TO.C,R8*%
X117665000Y62230000D03*
X116015000Y62230000D03*
%TD*%
D12*
%TO.C,R34*%
X51308000Y79057000D03*
X51308000Y77407000D03*
%TD*%
%TO.C,R3*%
X137160000Y23685000D03*
X137160000Y22035000D03*
%TD*%
D39*
%TO.C,J6*%
X49240000Y12532000D03*
X48140000Y12532000D03*
X47040000Y12532000D03*
X45940000Y12532000D03*
X44840000Y12532000D03*
X43740000Y12532000D03*
X42640000Y12532000D03*
X41540000Y12532000D03*
X40440000Y12532000D03*
D40*
X39240000Y11932000D03*
D41*
X39240000Y2432000D03*
X54740000Y2432000D03*
D42*
X53840000Y12032000D03*
%TD*%
D15*
%TO.C,C62*%
X113284000Y90919000D03*
X113284000Y92469000D03*
%TD*%
%TO.C,C48*%
X112014000Y79235000D03*
X112014000Y80785000D03*
%TD*%
D43*
%TO.C,SW4*%
X60920000Y39085000D03*
X58420000Y39085000D03*
X55920000Y39085000D03*
X60920000Y44735000D03*
X58420000Y44735000D03*
X55920000Y44735000D03*
%TD*%
D18*
%TO.C,C29*%
X78232000Y45479000D03*
X78232000Y43929000D03*
%TD*%
D15*
%TO.C,L1*%
X67056000Y61709000D03*
X67056000Y63259000D03*
%TD*%
D16*
%TO.C,C49*%
X107455000Y86106000D03*
X105905000Y86106000D03*
%TD*%
D12*
%TO.C,R5*%
X98044000Y83629000D03*
X98044000Y81979000D03*
%TD*%
D19*
%TO.C,R30*%
X103124000Y81725000D03*
X103124000Y83375000D03*
%TD*%
D18*
%TO.C,C66*%
X100330000Y90945000D03*
X100330000Y89395000D03*
%TD*%
D44*
%TO.C,J4*%
X127020000Y6010000D03*
X128020000Y6010000D03*
X128520000Y6010000D03*
X129520000Y6010000D03*
X130020000Y6010000D03*
X129020000Y6010000D03*
X127520000Y6010000D03*
X126520000Y6010000D03*
D45*
X125045000Y6010000D03*
X131495000Y6010000D03*
D46*
X123952000Y1255000D03*
D47*
X123952000Y5435000D03*
X132588000Y5435000D03*
D46*
X132588000Y1255000D03*
D45*
X125820000Y6010000D03*
X130720000Y6010000D03*
%TD*%
D15*
%TO.C,C19*%
X96520000Y82029000D03*
X96520000Y83579000D03*
%TD*%
%TO.C,C3*%
X87630000Y43929000D03*
X87630000Y45479000D03*
%TD*%
D44*
%TO.C,J2*%
X104160000Y6010000D03*
X105160000Y6010000D03*
X105660000Y6010000D03*
X106660000Y6010000D03*
X107160000Y6010000D03*
X106160000Y6010000D03*
X104660000Y6010000D03*
X103660000Y6010000D03*
D45*
X102185000Y6010000D03*
X108635000Y6010000D03*
D46*
X101092000Y1255000D03*
D47*
X101092000Y5435000D03*
X109728000Y5435000D03*
D46*
X109728000Y1255000D03*
D45*
X102960000Y6010000D03*
X107860000Y6010000D03*
%TD*%
D48*
%TO.C,U3*%
X125470000Y27305000D03*
X125470000Y26035000D03*
X125470000Y24765000D03*
X125470000Y23495000D03*
X125470000Y22225000D03*
X125470000Y20955000D03*
X125470000Y19685000D03*
X125470000Y18415000D03*
X131070000Y18415000D03*
X131070000Y19685000D03*
X131070000Y20955000D03*
X131070000Y22225000D03*
X131070000Y23495000D03*
X131070000Y24765000D03*
X131070000Y26035000D03*
X131070000Y27305000D03*
%TD*%
D19*
%TO.C,R4*%
X73406000Y14415000D03*
X73406000Y16065000D03*
%TD*%
D18*
%TO.C,C10*%
X22098000Y78499000D03*
X22098000Y76949000D03*
%TD*%
D23*
%TO.C,R22*%
X43751000Y71374000D03*
X42101000Y71374000D03*
%TD*%
D12*
%TO.C,R35*%
X49784000Y79057000D03*
X49784000Y77407000D03*
%TD*%
D49*
%TO.C,D10*%
X45840000Y45720000D03*
X48140000Y45720000D03*
%TD*%
D18*
%TO.C,L6*%
X116332000Y95517000D03*
X116332000Y93967000D03*
%TD*%
D16*
%TO.C,C51*%
X107455000Y94234000D03*
X105905000Y94234000D03*
%TD*%
D50*
%TO.C,L4*%
X38100000Y53145000D03*
X38100000Y50995000D03*
%TD*%
D16*
%TO.C,C52*%
X107455000Y92710000D03*
X105905000Y92710000D03*
%TD*%
D19*
%TO.C,R33*%
X55372000Y60960000D03*
X55372000Y62610000D03*
%TD*%
D18*
%TO.C,C31*%
X51816000Y19825000D03*
X51816000Y18275000D03*
%TD*%
D49*
%TO.C,D9*%
X45840000Y38100000D03*
X48140000Y38100000D03*
%TD*%
D19*
%TO.C,R18*%
X52832000Y77407000D03*
X52832000Y79057000D03*
%TD*%
D11*
%TO.C,D15*%
X141252000Y95250000D03*
X142212000Y95250000D03*
%TD*%
D51*
%TO.C,D7*%
X46370000Y19850000D03*
X45720000Y19850000D03*
X45070000Y19850000D03*
X45070000Y18250000D03*
X46370000Y18250000D03*
%TD*%
D19*
%TO.C,R17*%
X48260000Y77407000D03*
X48260000Y79057000D03*
%TD*%
%TO.C,R41*%
X46228000Y83503000D03*
X46228000Y85153000D03*
%TD*%
D52*
%TO.C,C9*%
X16305000Y76835000D03*
X19255000Y76835000D03*
%TD*%
D22*
%TO.C,C40*%
X42405000Y83566000D03*
X43955000Y83566000D03*
%TD*%
D49*
%TO.C,D4*%
X45840000Y43180000D03*
X48140000Y43180000D03*
%TD*%
D22*
%TO.C,C20*%
X62725000Y21590000D03*
X64275000Y21590000D03*
%TD*%
D17*
%TO.C,U12*%
X52844000Y87425000D03*
X53344000Y87425000D03*
X53844000Y87425000D03*
X54344000Y87425000D03*
X54344000Y90375000D03*
X53844000Y90375000D03*
X53344000Y90375000D03*
X52844000Y90375000D03*
%TD*%
D53*
%TO.C,TR1*%
X105010000Y15660000D03*
X105010000Y17360000D03*
X105810000Y15660000D03*
X105810000Y17360000D03*
%TD*%
D22*
%TO.C,C58*%
X119875000Y90932000D03*
X121425000Y90932000D03*
%TD*%
D19*
%TO.C,R38*%
X8890000Y14415000D03*
X8890000Y16065000D03*
%TD*%
D17*
%TO.C,U16*%
X97040000Y88695000D03*
X97540000Y88695000D03*
X98040000Y88695000D03*
X98540000Y88695000D03*
X98540000Y91645000D03*
X98040000Y91645000D03*
X97540000Y91645000D03*
X97040000Y91645000D03*
%TD*%
D19*
%TO.C,R23*%
X54356000Y77407000D03*
X54356000Y79057000D03*
%TD*%
D12*
%TO.C,R44*%
X57912000Y85153000D03*
X57912000Y83503000D03*
%TD*%
D19*
%TO.C,R6*%
X71882000Y14415000D03*
X71882000Y16065000D03*
%TD*%
D15*
%TO.C,C24*%
X101600000Y81775000D03*
X101600000Y83325000D03*
%TD*%
D51*
%TO.C,D14*%
X57800000Y90970000D03*
X57150000Y90970000D03*
X56500000Y90970000D03*
X56500000Y89370000D03*
X57800000Y89370000D03*
%TD*%
D15*
%TO.C,C60*%
X80518000Y14465000D03*
X80518000Y16015000D03*
%TD*%
D25*
%TO.C,C36*%
X33020000Y54890000D03*
X33020000Y59690000D03*
%TD*%
D18*
%TO.C,C15*%
X42418000Y62560000D03*
X42418000Y61010000D03*
%TD*%
D19*
%TO.C,R31*%
X123063000Y81598000D03*
X123063000Y83248000D03*
%TD*%
D12*
%TO.C,R11*%
X86106000Y45529000D03*
X86106000Y43879000D03*
%TD*%
D54*
%TO.C,U14*%
X103620000Y87835000D03*
X103120000Y87835000D03*
X102620000Y87835000D03*
X102120000Y87835000D03*
X102120000Y84885000D03*
X102620000Y84885000D03*
X103120000Y84885000D03*
X103620000Y84885000D03*
%TD*%
D18*
%TO.C,C25*%
X53086000Y62560000D03*
X53086000Y61010000D03*
%TD*%
D55*
%TO.C,D8*%
X10890000Y41910000D03*
X6890000Y41910000D03*
%TD*%
D56*
%TO.C,U7*%
X26150000Y54170000D03*
X26150000Y56710000D03*
X26150000Y70290000D03*
X26150000Y72830000D03*
X11950000Y72830000D03*
X11950000Y70290000D03*
X11950000Y56710000D03*
X11950000Y54170000D03*
%TD*%
D31*
%TO.C,R1*%
X116015000Y67056000D03*
X117665000Y67056000D03*
%TD*%
D19*
%TO.C,R28*%
X48260000Y18225000D03*
X48260000Y19875000D03*
%TD*%
D22*
%TO.C,C33*%
X43675000Y30480000D03*
X45225000Y30480000D03*
%TD*%
D15*
%TO.C,C37*%
X38100000Y55105000D03*
X38100000Y56655000D03*
%TD*%
%TO.C,C41*%
X36830000Y89903000D03*
X36830000Y91453000D03*
%TD*%
D18*
%TO.C,C16*%
X75184000Y45492000D03*
X75184000Y43942000D03*
%TD*%
D49*
%TO.C,D5*%
X45840000Y40640000D03*
X48140000Y40640000D03*
%TD*%
D16*
%TO.C,C46*%
X51067000Y88900000D03*
X49517000Y88900000D03*
%TD*%
%TO.C,C21*%
X64275000Y34290000D03*
X62725000Y34290000D03*
%TD*%
D23*
%TO.C,R21*%
X43751000Y72898000D03*
X42101000Y72898000D03*
%TD*%
D19*
%TO.C,R40*%
X21590000Y14415000D03*
X21590000Y16065000D03*
%TD*%
D31*
%TO.C,R51*%
X110427000Y83312000D03*
X112077000Y83312000D03*
%TD*%
D18*
%TO.C,C42*%
X36830000Y87897000D03*
X36830000Y86347000D03*
%TD*%
D24*
%TO.C,D3*%
X129220000Y12730100D03*
X128270000Y12730100D03*
X127320000Y12730100D03*
X127320000Y10129900D03*
X128220000Y10129900D03*
X129220000Y10129900D03*
%TD*%
D12*
%TO.C,R15*%
X124460000Y12255000D03*
X124460000Y10605000D03*
%TD*%
D16*
%TO.C,C34*%
X45225000Y35560000D03*
X43675000Y35560000D03*
%TD*%
D12*
%TO.C,R26*%
X45466000Y62610000D03*
X45466000Y60960000D03*
%TD*%
D51*
%TO.C,D13*%
X47640000Y90970000D03*
X46990000Y90970000D03*
X46340000Y90970000D03*
X46340000Y89370000D03*
X47640000Y89370000D03*
%TD*%
D16*
%TO.C,C50*%
X107455000Y87630000D03*
X105905000Y87630000D03*
%TD*%
D57*
%TO.C,J7*%
X77700000Y11925000D03*
X76700000Y11925000D03*
X75700000Y11925000D03*
X74700000Y11925000D03*
D58*
X79000000Y9500000D03*
X73400000Y9500000D03*
%TD*%
D18*
%TO.C,C59*%
X116332000Y92469000D03*
X116332000Y90919000D03*
%TD*%
D38*
%TO.C,U5*%
X62199900Y32700000D03*
X62199900Y31750000D03*
X62199900Y30800000D03*
X64800100Y30800000D03*
X64800100Y32700000D03*
%TD*%
D15*
%TO.C,C5*%
X133096000Y27419000D03*
X133096000Y28969000D03*
%TD*%
M02*
