%TF.GenerationSoftware,KiCad,Pcbnew,8.0.5*%
%TF.CreationDate,2024-10-21T14:05:23+01:00*%
%TF.ProjectId,SparkFun_RTK_mosaic-T_panelized,53706172-6b46-4756-9e5f-52544b5f6d6f,rev?*%
%TF.SameCoordinates,Original*%
%TF.FileFunction,Soldermask,Bot*%
%TF.FilePolarity,Negative*%
%FSLAX46Y46*%
G04 Gerber Fmt 4.6, Leading zero omitted, Abs format (unit mm)*
G04 Created by KiCad (PCBNEW 8.0.5) date 2024-10-21 14:05:23*
%MOMM*%
%LPD*%
G01*
G04 APERTURE LIST*
G04 Aperture macros list*
%AMRoundRect*
0 Rectangle with rounded corners*
0 $1 Rounding radius*
0 $2 $3 $4 $5 $6 $7 $8 $9 X,Y pos of 4 corners*
0 Add a 4 corners polygon primitive as box body*
4,1,4,$2,$3,$4,$5,$6,$7,$8,$9,$2,$3,0*
0 Add four circle primitives for the rounded corners*
1,1,$1+$1,$2,$3*
1,1,$1+$1,$4,$5*
1,1,$1+$1,$6,$7*
1,1,$1+$1,$8,$9*
0 Add four rect primitives between the rounded corners*
20,1,$1+$1,$2,$3,$4,$5,0*
20,1,$1+$1,$4,$5,$6,$7,0*
20,1,$1+$1,$6,$7,$8,$9,0*
20,1,$1+$1,$8,$9,$2,$3,0*%
G04 Aperture macros list end*
%ADD10C,0.200000*%
%ADD11C,0.000000*%
%ADD12C,2.003200*%
%ADD13C,2.203200*%
%ADD14C,2.082800*%
%ADD15C,3.100000*%
%ADD16RoundRect,0.101600X-0.750000X-2.000000X0.750000X-2.000000X0.750000X2.000000X-0.750000X2.000000X0*%
%ADD17O,2.403200X4.603200*%
%ADD18C,2.540000*%
%ADD19C,1.727200*%
%ADD20C,1.000000*%
%ADD21C,0.850000*%
%ADD22C,0.650000*%
%ADD23O,1.000000X1.600000*%
%ADD24O,1.000000X2.100000*%
%ADD25C,3.250000*%
%ADD26C,1.703200*%
%ADD27C,2.603200*%
%ADD28RoundRect,0.101600X-0.330200X-0.635000X0.330200X-0.635000X0.330200X0.635000X-0.330200X0.635000X0*%
%ADD29RoundRect,0.101600X-0.635000X0.317500X-0.635000X-0.317500X0.635000X-0.317500X0.635000X0.317500X0*%
%ADD30C,3.000000*%
%ADD31RoundRect,0.101600X0.330200X0.635000X-0.330200X0.635000X-0.330200X-0.635000X0.330200X-0.635000X0*%
%ADD32RoundRect,0.101600X0.635000X-0.330200X0.635000X0.330200X-0.635000X0.330200X-0.635000X-0.330200X0*%
%ADD33RoundRect,0.101600X-0.635000X0.330200X-0.635000X-0.330200X0.635000X-0.330200X0.635000X0.330200X0*%
%ADD34RoundRect,0.085000X-0.635000X0.317500X-0.635000X-0.317500X0.635000X-0.317500X0.635000X0.317500X0*%
G04 APERTURE END LIST*
D10*
X65786000Y29591000D02*
X65786000Y28829000D01*
X65532000Y28575000D01*
X63373000Y28575000D01*
X63119000Y28829000D01*
X63119000Y29591000D01*
X63373000Y29845000D01*
X65532000Y29845000D01*
X65786000Y29591000D01*
G36*
X65786000Y29591000D02*
G01*
X65786000Y28829000D01*
X65532000Y28575000D01*
X63373000Y28575000D01*
X63119000Y28829000D01*
X63119000Y29591000D01*
X63373000Y29845000D01*
X65532000Y29845000D01*
X65786000Y29591000D01*
G37*
X13462000Y63246000D02*
X13462000Y58166000D01*
X13208000Y57912000D01*
X10668000Y57912000D01*
X10414000Y58166000D01*
X10414000Y63246000D01*
X10668000Y63500000D01*
X13208000Y63500000D01*
X13462000Y63246000D01*
G36*
X13462000Y63246000D02*
G01*
X13462000Y58166000D01*
X13208000Y57912000D01*
X10668000Y57912000D01*
X10414000Y58166000D01*
X10414000Y63246000D01*
X10668000Y63500000D01*
X13208000Y63500000D01*
X13462000Y63246000D01*
G37*
X65786000Y24511000D02*
X65786000Y24384000D01*
X65532000Y24130000D01*
X63373000Y24130000D01*
X63119000Y24384000D01*
X63119000Y24511000D01*
X63373000Y24765000D01*
X65532000Y24765000D01*
X65786000Y24511000D01*
G36*
X65786000Y24511000D02*
G01*
X65786000Y24384000D01*
X65532000Y24130000D01*
X63373000Y24130000D01*
X63119000Y24384000D01*
X63119000Y24511000D01*
X63373000Y24765000D01*
X65532000Y24765000D01*
X65786000Y24511000D01*
G37*
X65786000Y34036000D02*
X65786000Y33909000D01*
X65532000Y33655000D01*
X63373000Y33655000D01*
X63119000Y33909000D01*
X63119000Y34036000D01*
X63373000Y34290000D01*
X65532000Y34290000D01*
X65786000Y34036000D01*
G36*
X65786000Y34036000D02*
G01*
X65786000Y33909000D01*
X65532000Y33655000D01*
X63373000Y33655000D01*
X63119000Y33909000D01*
X63119000Y34036000D01*
X63373000Y34290000D01*
X65532000Y34290000D01*
X65786000Y34036000D01*
G37*
X29464000Y68580000D02*
X29464000Y58420000D01*
X29210000Y58166000D01*
X26670000Y58166000D01*
X26416000Y58420000D01*
X26416000Y68580000D01*
X26670000Y68834000D01*
X29210000Y68834000D01*
X29464000Y68580000D01*
G36*
X29464000Y68580000D02*
G01*
X29464000Y58420000D01*
X29210000Y58166000D01*
X26670000Y58166000D01*
X26416000Y58420000D01*
X26416000Y68580000D01*
X26670000Y68834000D01*
X29210000Y68834000D01*
X29464000Y68580000D01*
G37*
X46482000Y56896000D02*
X46482000Y50800000D01*
X46228000Y50546000D01*
X45212000Y50546000D01*
X44958000Y50800000D01*
X44958000Y56896000D01*
X45212000Y57150000D01*
X46228000Y57150000D01*
X46482000Y56896000D01*
G36*
X46482000Y56896000D02*
G01*
X46482000Y50800000D01*
X46228000Y50546000D01*
X45212000Y50546000D01*
X44958000Y50800000D01*
X44958000Y56896000D01*
X45212000Y57150000D01*
X46228000Y57150000D01*
X46482000Y56896000D01*
G37*
X135636000Y73152000D02*
X135636000Y70866000D01*
X135382000Y70612000D01*
X134620000Y70612000D01*
X134366000Y70866000D01*
X134366000Y73152000D01*
X134620000Y73406000D01*
X135382000Y73406000D01*
X135636000Y73152000D01*
G36*
X135636000Y73152000D02*
G01*
X135636000Y70866000D01*
X135382000Y70612000D01*
X134620000Y70612000D01*
X134366000Y70866000D01*
X134366000Y73152000D01*
X134620000Y73406000D01*
X135382000Y73406000D01*
X135636000Y73152000D01*
G37*
X13462000Y68580000D02*
X13462000Y64770000D01*
X13208000Y64516000D01*
X10668000Y64516000D01*
X10414000Y64770000D01*
X10414000Y68580000D01*
X10668000Y68834000D01*
X13208000Y68834000D01*
X13462000Y68580000D01*
G36*
X13462000Y68580000D02*
G01*
X13462000Y64770000D01*
X13208000Y64516000D01*
X10668000Y64516000D01*
X10414000Y64770000D01*
X10414000Y68580000D01*
X10668000Y68834000D01*
X13208000Y68834000D01*
X13462000Y68580000D01*
G37*
D11*
%TO.C,JP13*%
G36*
X10414000Y98819500D02*
G01*
X9906000Y98819500D01*
X9906000Y99300500D01*
X10414000Y99300500D01*
X10414000Y98819500D01*
G37*
%TO.C,JP6*%
G36*
X48983900Y32766000D02*
G01*
X47536100Y32766000D01*
X47536100Y33274000D01*
X48983900Y33274000D01*
X48983900Y32766000D01*
G37*
%TO.C,JP17*%
G36*
X9664700Y7379500D02*
G01*
X9156700Y7379500D01*
X9156700Y7860500D01*
X9664700Y7860500D01*
X9664700Y7379500D01*
G37*
%TO.C,JP1*%
G36*
X75933300Y14999500D02*
G01*
X75425300Y14999500D01*
X75425300Y15480500D01*
X75933300Y15480500D01*
X75933300Y14999500D01*
G37*
G36*
X76966000Y14976500D02*
G01*
X76458000Y14976500D01*
X76458000Y15457500D01*
X76966000Y15457500D01*
X76966000Y14976500D01*
G37*
%TO.C,JP22*%
G36*
X66153500Y88150700D02*
G01*
X65672500Y88150700D01*
X65672500Y88658700D01*
X66153500Y88658700D01*
X66153500Y88150700D01*
G37*
G36*
X66176500Y89183400D02*
G01*
X65695500Y89183400D01*
X65695500Y89691400D01*
X66176500Y89691400D01*
X66176500Y89183400D01*
G37*
%TO.C,JP16*%
G36*
X9664700Y9919500D02*
G01*
X9156700Y9919500D01*
X9156700Y10400500D01*
X9664700Y10400500D01*
X9664700Y9919500D01*
G37*
%TO.C,JP4*%
G36*
X10883900Y78486000D02*
G01*
X9436100Y78486000D01*
X9436100Y78994000D01*
X10883900Y78994000D01*
X10883900Y78486000D01*
G37*
%TO.C,JP19*%
G36*
X23863300Y9919500D02*
G01*
X23355300Y9919500D01*
X23355300Y10400500D01*
X23863300Y10400500D01*
X23863300Y9919500D01*
G37*
%TO.C,JP20*%
G36*
X23863300Y7379500D02*
G01*
X23355300Y7379500D01*
X23355300Y7860500D01*
X23863300Y7860500D01*
X23863300Y7379500D01*
G37*
%TO.C,JP10*%
G36*
X117080500Y6096000D02*
G01*
X116599500Y6096000D01*
X116599500Y6604000D01*
X117080500Y6604000D01*
X117080500Y6096000D01*
G37*
%TO.C,JP14*%
G36*
X138544300Y70752500D02*
G01*
X138036300Y70752500D01*
X138036300Y71233500D01*
X138544300Y71233500D01*
X138544300Y70752500D01*
G37*
G36*
X139577000Y70729500D02*
G01*
X139069000Y70729500D01*
X139069000Y71210500D01*
X139577000Y71210500D01*
X139577000Y70729500D01*
G37*
%TO.C,JP5*%
G36*
X8343900Y78486000D02*
G01*
X6896100Y78486000D01*
X6896100Y78994000D01*
X8343900Y78994000D01*
X8343900Y78486000D01*
G37*
%TO.C,JP18*%
G36*
X9664700Y4839500D02*
G01*
X9156700Y4839500D01*
X9156700Y5320500D01*
X9664700Y5320500D01*
X9664700Y4839500D01*
G37*
%TO.C,JP21*%
G36*
X23863300Y4839500D02*
G01*
X23355300Y4839500D01*
X23355300Y5320500D01*
X23863300Y5320500D01*
X23863300Y4839500D01*
G37*
%TO.C,JP9*%
G36*
X128510500Y2286000D02*
G01*
X128029500Y2286000D01*
X128029500Y2794000D01*
X128510500Y2794000D01*
X128510500Y2286000D01*
G37*
%TO.C,JP12*%
G36*
X20574000Y98819500D02*
G01*
X20066000Y98819500D01*
X20066000Y99300500D01*
X20574000Y99300500D01*
X20574000Y98819500D01*
G37*
%TO.C,JP11*%
G36*
X139940500Y6096000D02*
G01*
X139459500Y6096000D01*
X139459500Y6604000D01*
X139940500Y6604000D01*
X139940500Y6096000D01*
G37*
%TO.C,JP3*%
G36*
X35013900Y89916000D02*
G01*
X33566100Y89916000D01*
X33566100Y90424000D01*
X35013900Y90424000D01*
X35013900Y89916000D01*
G37*
%TO.C,JP2*%
G36*
X32473900Y89916000D02*
G01*
X31026100Y89916000D01*
X31026100Y90424000D01*
X32473900Y90424000D01*
X32473900Y89916000D01*
G37*
%TO.C,JP8*%
G36*
X105650500Y2286000D02*
G01*
X105169500Y2286000D01*
X105169500Y2794000D01*
X105650500Y2794000D01*
X105650500Y2286000D01*
G37*
%TD*%
D12*
%TO.C,SW2*%
X137450000Y2921000D03*
X141950000Y2921000D03*
D13*
X136200000Y5421000D03*
X143200000Y5421000D03*
%TD*%
D14*
%TO.C,TP11*%
X105410000Y55880000D03*
%TD*%
%TO.C,TP32*%
X132080000Y74930000D03*
%TD*%
%TO.C,TP41*%
X68580000Y62230000D03*
%TD*%
%TO.C,TP22*%
X92710000Y82550000D03*
%TD*%
%TO.C,TP21*%
X105410000Y63500000D03*
%TD*%
%TO.C,TP18*%
X107950000Y59690000D03*
%TD*%
%TO.C,TP2*%
X43180000Y38100000D03*
%TD*%
D15*
%TO.C,ST3*%
X149860000Y2540000D03*
%TD*%
D14*
%TO.C,TP20*%
X107950000Y64770000D03*
%TD*%
%TO.C,TP25*%
X71120000Y11430000D03*
%TD*%
%TO.C,TP9*%
X43180000Y40640000D03*
%TD*%
%TO.C,TP6*%
X54610000Y19050000D03*
%TD*%
D16*
%TO.C,J1*%
X73025000Y99314000D03*
X78105000Y99314000D03*
%TD*%
D14*
%TO.C,TP30*%
X105410000Y66040000D03*
%TD*%
D16*
%TO.C,J3*%
X139700000Y99314000D03*
X144780000Y99314000D03*
%TD*%
D14*
%TO.C,TP3*%
X43180000Y45720000D03*
%TD*%
%TO.C,TP5*%
X69850000Y26670000D03*
%TD*%
%TO.C,TP14*%
X107950000Y52070000D03*
%TD*%
D17*
%TO.C,J9*%
X62740000Y95625000D03*
X59240000Y95625000D03*
X55740000Y95625000D03*
X52240000Y95625000D03*
X48740000Y95625000D03*
X45240000Y95625000D03*
X41740000Y95625000D03*
X38240000Y95625000D03*
X34740000Y95625000D03*
X31240000Y95625000D03*
%TD*%
D14*
%TO.C,TP26*%
X81280000Y11430000D03*
%TD*%
D15*
%TO.C,ST4*%
X2540000Y2540000D03*
%TD*%
D18*
%TO.C,U6*%
X16510000Y33020000D03*
X16510000Y38100000D03*
X16510000Y45720000D03*
X36830000Y45720000D03*
X36830000Y35560000D03*
X36830000Y25400000D03*
%TD*%
D14*
%TO.C,TP13*%
X107950000Y54610000D03*
%TD*%
%TO.C,TP1*%
X120650000Y52959000D03*
%TD*%
D15*
%TO.C,ST1*%
X149860000Y99060000D03*
%TD*%
D14*
%TO.C,TP37*%
X116840000Y11430000D03*
%TD*%
%TO.C,TP29*%
X107950000Y49530000D03*
%TD*%
D19*
%TO.C,D12*%
X17780000Y9525000D03*
X17780000Y6985000D03*
X17780000Y4445000D03*
X20320000Y9525000D03*
X20320000Y6985000D03*
X20320000Y4445000D03*
%TD*%
D14*
%TO.C,TP43*%
X120650000Y50419000D03*
%TD*%
D20*
%TO.C,J6*%
X42040000Y2032000D03*
X50040000Y2032000D03*
%TD*%
D16*
%TO.C,J12*%
X95250000Y99314000D03*
X100330000Y99314000D03*
%TD*%
D14*
%TO.C,TP7*%
X69850000Y31750000D03*
%TD*%
%TO.C,TP24*%
X120650000Y47879000D03*
%TD*%
D21*
%TO.C,SW4*%
X56920000Y41910000D03*
X59920000Y41910000D03*
%TD*%
D14*
%TO.C,TP33*%
X127000000Y74930000D03*
%TD*%
D15*
%TO.C,ST2*%
X2540000Y99060000D03*
%TD*%
D14*
%TO.C,TP27*%
X134620000Y74930000D03*
%TD*%
D22*
%TO.C,J4*%
X125380000Y4905000D03*
X131160000Y4905000D03*
D23*
X123952000Y1255000D03*
D24*
X123952000Y5435000D03*
X132588000Y5435000D03*
D23*
X132588000Y1255000D03*
%TD*%
D22*
%TO.C,J2*%
X102520000Y4905000D03*
X108300000Y4905000D03*
D23*
X101092000Y1255000D03*
D24*
X101092000Y5435000D03*
X109728000Y5435000D03*
D23*
X109728000Y1255000D03*
%TD*%
D14*
%TO.C,TP15*%
X107950000Y57150000D03*
%TD*%
D16*
%TO.C,J8*%
X117475000Y99314000D03*
X122555000Y99314000D03*
%TD*%
D14*
%TO.C,TP35*%
X123190000Y24130000D03*
%TD*%
D19*
%TO.C,D11*%
X12700000Y9525000D03*
X12700000Y6985000D03*
X12700000Y4445000D03*
X15240000Y9525000D03*
X15240000Y6985000D03*
X15240000Y4445000D03*
%TD*%
D14*
%TO.C,TP34*%
X123190000Y26670000D03*
%TD*%
%TO.C,TP31*%
X129540000Y74930000D03*
%TD*%
D12*
%TO.C,SW1*%
X114590000Y3810000D03*
X119090000Y3810000D03*
D13*
X113340000Y6310000D03*
X120340000Y6310000D03*
%TD*%
D14*
%TO.C,TP40*%
X58420000Y35560000D03*
%TD*%
D25*
%TO.C,J5*%
X20955000Y92202000D03*
X9525000Y92202000D03*
D26*
X20955000Y83312000D03*
X19685000Y85852000D03*
X18415000Y83312000D03*
X17145000Y85852000D03*
X15875000Y83312000D03*
X14605000Y85852000D03*
X13335000Y83312000D03*
X12065000Y85852000D03*
X10795000Y83312000D03*
X9525000Y85852000D03*
X21870000Y96262000D03*
X19330000Y96262000D03*
X11150000Y96262000D03*
X8610000Y96262000D03*
D27*
X23115000Y89152000D03*
X7365000Y89152000D03*
%TD*%
D14*
%TO.C,TP10*%
X105410000Y53340000D03*
%TD*%
%TO.C,TP28*%
X137160000Y74930000D03*
%TD*%
%TO.C,TP16*%
X105410000Y58420000D03*
%TD*%
%TO.C,TP4*%
X58420000Y31750000D03*
%TD*%
%TO.C,TP19*%
X107950000Y62230000D03*
%TD*%
%TO.C,TP38*%
X139700000Y26670000D03*
%TD*%
%TO.C,TP17*%
X105410000Y60960000D03*
%TD*%
%TO.C,TP36*%
X139700000Y11430000D03*
%TD*%
D12*
%TO.C,SW3*%
X30770000Y2921000D03*
X35270000Y2921000D03*
D13*
X29520000Y5421000D03*
X36520000Y5421000D03*
%TD*%
D14*
%TO.C,TP12*%
X105410000Y50800000D03*
%TD*%
%TO.C,TP39*%
X139700000Y19050000D03*
%TD*%
%TO.C,TP8*%
X43180000Y43180000D03*
%TD*%
%TO.C,TP23*%
X46990000Y58420000D03*
%TD*%
D21*
%TO.C,SW5*%
X118515000Y90170000D03*
X121515000Y90170000D03*
%TD*%
D28*
%TO.C,JP13*%
X9639300Y99060000D03*
X10680700Y99060000D03*
%TD*%
D14*
%TO.C,JP6*%
X48260000Y34290000D03*
D29*
X48260000Y33528000D03*
X48260000Y32512000D03*
D14*
X48260000Y31750000D03*
%TD*%
D28*
%TO.C,JP17*%
X8890000Y7620000D03*
X9931400Y7620000D03*
%TD*%
D30*
%TO.C,*%
X-3425000Y-3080000D03*
%TD*%
D28*
%TO.C,JP1*%
X75158600Y15240000D03*
X76200000Y15240000D03*
D31*
X77241400Y15240000D03*
%TD*%
D32*
%TO.C,JP22*%
X65913000Y87884000D03*
X65913000Y88925400D03*
D33*
X65913000Y89966800D03*
%TD*%
D28*
%TO.C,JP16*%
X8890000Y10160000D03*
X9931400Y10160000D03*
%TD*%
D14*
%TO.C,JP4*%
X10160000Y80010000D03*
D29*
X10160000Y79248000D03*
X10160000Y78232000D03*
D14*
X10160000Y77470000D03*
%TD*%
D30*
%TO.C,*%
X-3425000Y104680000D03*
%TD*%
D31*
%TO.C,JP19*%
X24130000Y10160000D03*
X23088600Y10160000D03*
%TD*%
%TO.C,JP20*%
X24130000Y7620000D03*
X23088600Y7620000D03*
%TD*%
D32*
%TO.C,JP10*%
X116840000Y5829300D03*
X116840000Y6870700D03*
%TD*%
D28*
%TO.C,JP14*%
X137769600Y70993000D03*
X138811000Y70993000D03*
D31*
X139852400Y70993000D03*
%TD*%
D14*
%TO.C,JP5*%
X7620000Y80010000D03*
D29*
X7620000Y79248000D03*
X7620000Y78232000D03*
D14*
X7620000Y77470000D03*
%TD*%
D20*
%TO.C,FID2*%
X5080000Y5080000D03*
%TD*%
%TO.C,FID1*%
X147320000Y96520000D03*
%TD*%
D28*
%TO.C,JP18*%
X8890000Y5080000D03*
X9931400Y5080000D03*
%TD*%
D30*
%TO.C,*%
X155825000Y104680000D03*
%TD*%
D31*
%TO.C,JP21*%
X24130000Y5080000D03*
X23088600Y5080000D03*
%TD*%
D33*
%TO.C,JP9*%
X128270000Y3060700D03*
X128270000Y2019300D03*
%TD*%
D28*
%TO.C,JP12*%
X19799300Y99060000D03*
X20840700Y99060000D03*
%TD*%
D34*
%TO.C,JP15*%
X52070000Y91846400D03*
X52070000Y91033600D03*
%TD*%
D32*
%TO.C,JP11*%
X139700000Y5829300D03*
X139700000Y6870700D03*
%TD*%
D14*
%TO.C,JP3*%
X34290000Y91440000D03*
D29*
X34290000Y90678000D03*
X34290000Y89662000D03*
D14*
X34290000Y88900000D03*
%TD*%
%TO.C,JP2*%
X31750000Y91440000D03*
D29*
X31750000Y90678000D03*
X31750000Y89662000D03*
D14*
X31750000Y88900000D03*
%TD*%
D33*
%TO.C,JP8*%
X105410000Y3060700D03*
X105410000Y2019300D03*
%TD*%
M02*
